<svg width="377" height="172" viewBox="0 0 377 172" fill="none" xmlns="http://www.w3.org/2000/svg">
<rect x="21.3062" y="6.36133" width="115" height="32" rx="16" transform="rotate(7.23655 21.3062 6.36133)" fill="#01594D"/>
<rect x="21.3062" y="6.36133" width="115" height="32" rx="16" transform="rotate(7.23655 21.3062 6.36133)" stroke="#74A39D" stroke-width="1.2"/>
<path fill-rule="evenodd" clip-rule="evenodd" d="M37.3169 18.9129C38.3629 18.1194 39.6896 17.7675 41.0051 17.9345C42.3206 18.1016 43.5172 18.7739 44.3317 19.8036C45.1461 20.8333 45.5117 22.1361 45.348 23.4253C44.8851 27.071 39.2416 31.823 39.2416 31.823C39.2416 31.823 34.9648 25.8114 35.4277 22.1657C35.5914 20.8764 36.271 19.7064 37.3169 18.9129ZM40.0729 25.276C41.1687 25.4151 42.1698 24.6396 42.3089 23.5438C42.448 22.4481 41.6725 21.447 40.5768 21.3078C39.481 21.1687 38.4799 21.9442 38.3408 23.04C38.2016 24.1357 38.9771 25.1368 40.0729 25.276Z" fill="#FBFBFB"/>
<path d="M59.8084 23.5283L56.4057 23.0963L55.2947 31.846L54.0447 31.6873L55.1557 22.9375L51.753 22.5055L51.8941 21.3944L59.9494 22.4172L59.8084 23.5283ZM59.2002 32.3419L60.1189 25.106L61.3411 25.2612L60.6304 30.8583L65.3983 25.7623L66.5094 25.9033L65.5889 33.1531L64.3667 32.9979L65.0633 27.512L60.3668 32.4901L59.2002 32.3419ZM71.149 34.0003C70.6027 33.9309 70.115 33.7702 69.686 33.5182C69.2675 33.258 68.9139 32.9309 68.6252 32.5367C68.3458 32.1437 68.1424 31.7086 68.0148 31.2314C67.8965 30.7554 67.8696 30.2627 67.9343 29.7535C68.0213 29.0683 68.2534 28.4628 68.6307 27.9368C69.008 27.4108 69.4955 27.0164 70.0934 26.7536C70.6924 26.4815 71.3577 26.392 72.0891 26.4848C72.8021 26.5754 73.4019 26.8162 73.8885 27.2072C74.3855 27.5902 74.7296 28.0667 74.9206 28.6366L73.6786 28.86C73.5369 28.4939 73.3112 28.1971 73.0014 27.9696C72.6927 27.7328 72.3347 27.5886 71.9273 27.5368C71.4829 27.4804 71.0608 27.5444 70.6611 27.7289C70.2706 27.9145 69.943 28.1975 69.6783 28.5778C69.4148 28.9489 69.2501 29.3937 69.1843 29.9122C69.1196 30.4215 69.1673 30.8979 69.3274 31.3416C69.4978 31.7772 69.7483 32.1383 70.0789 32.4249C70.4187 32.7127 70.8108 32.8848 71.2552 32.9412C71.5422 32.9777 71.8218 32.9614 72.094 32.8925C72.3755 32.8247 72.624 32.7199 72.8396 32.5779C73.0656 32.4278 73.2286 32.2557 73.3286 32.0614L74.4771 32.5741C74.2843 32.9072 74.0175 33.1932 73.6767 33.4321C73.3463 33.663 72.9628 33.8307 72.5261 33.9352C72.0987 34.0409 71.6397 34.0626 71.149 34.0003ZM79.1463 35.0158C78.6001 34.9464 78.1171 34.7863 77.6973 34.5354C77.2787 34.2753 76.9292 33.9533 76.6486 33.5696C76.3692 33.1766 76.1704 32.7421 76.0521 32.2661C75.9337 31.7901 75.9063 31.302 75.9698 30.8021C76.0345 30.2928 76.1836 29.8225 76.4171 29.3912C76.6506 28.9598 76.9512 28.5934 77.3188 28.292C77.6875 27.9813 78.1064 27.7569 78.5755 27.6189C79.0551 27.4728 79.5634 27.4339 80.1004 27.5021C80.6467 27.5715 81.1291 27.7362 81.5477 27.9963C81.9674 28.2472 82.317 28.5691 82.5964 28.9621C82.8862 29.347 83.0903 29.7775 83.2086 30.2535C83.3269 30.7296 83.3537 31.2222 83.2891 31.7314C83.2256 32.2314 83.0771 32.6971 82.8435 33.1284C82.61 33.5598 82.3089 33.9308 81.9401 34.2415C81.5726 34.5429 81.149 34.7667 80.6694 34.9128C80.2003 35.0508 79.6926 35.0851 79.1463 35.0158ZM77.218 30.9747C77.1545 31.4747 77.2034 31.9419 77.3646 32.3763C77.5351 32.8119 77.7856 33.173 78.1162 33.4596C78.4479 33.7369 78.8359 33.9038 79.2804 33.9602C79.7248 34.0167 80.1429 33.9474 80.5345 33.7526C80.9354 33.5589 81.2683 33.2718 81.5329 32.8915C81.8081 32.503 81.9774 32.0588 82.0409 31.5588C82.1043 31.0588 82.0508 30.591 81.8804 30.1554C81.7191 29.721 81.4686 29.3599 81.1288 29.0721C80.7983 28.7856 80.4108 28.614 79.9664 28.5576C79.522 28.5012 79.1033 28.575 78.7105 28.7792C78.3188 28.9741 77.986 29.2611 77.712 29.6403C77.4474 30.0206 77.2827 30.4654 77.218 30.9747ZM84.7143 35.5816L85.6348 28.3318L89.3847 28.808C89.8199 28.8633 90.1698 28.9971 90.4345 29.2094C90.7004 29.4125 90.8857 29.6572 90.9905 29.9433C91.1046 30.2306 91.1422 30.5271 91.1034 30.8326C91.054 31.2215 90.9167 31.5616 90.6916 31.8529C90.4676 32.1349 90.1697 32.3323 89.7979 32.445C90.1992 32.6183 90.5096 32.8788 90.7288 33.2265C90.9493 33.565 91.0307 33.9611 90.9731 34.4147C90.9214 34.8221 90.7801 35.157 90.5492 35.4193C90.3183 35.6817 90.017 35.8692 89.6451 35.9819C89.2745 36.0854 88.8577 36.1078 88.3947 36.049L84.7143 35.5816ZM85.9902 34.8687L88.4763 35.1844C88.6985 35.2126 88.9046 35.1823 89.0946 35.0935C89.2939 35.0059 89.4563 34.876 89.5816 34.7038C89.707 34.5315 89.7826 34.3435 89.8085 34.1398C89.8367 33.9176 89.811 33.7121 89.7315 33.5232C89.6624 33.3263 89.5464 33.1657 89.3834 33.0416C89.2309 32.9093 89.0435 32.829 88.8213 32.8008L86.2936 32.4799L85.9902 34.8687ZM86.3959 31.6743L88.6597 31.9618C88.8819 31.99 89.0834 31.9591 89.2642 31.8692C89.4461 31.77 89.5951 31.6337 89.7112 31.4603C89.8273 31.2868 89.8983 31.0983 89.9242 30.8946C89.963 30.589 89.8946 30.3122 89.7192 30.0641C89.5529 29.8172 89.3124 29.6738 88.9976 29.6338L86.6921 29.3411L86.3959 31.6743ZM92.6855 36.5938L93.6043 29.3579L94.8265 29.5131L94.1158 35.1102L98.8837 30.0142L99.9948 30.1552L99.0742 37.405L97.852 37.2498L98.5486 31.7639L93.8521 36.7419L92.6855 36.5938ZM106.935 40.139L107.152 38.4307L101.43 37.7041L102.35 30.4543L103.573 30.6095L102.788 36.7899L106.149 37.2167L106.934 31.0363L108.156 31.1915L107.371 37.3719L108.371 37.4988L108.018 40.2765L106.935 40.139ZM109.47 38.7251L111.896 36.0695C111.435 35.9169 111.084 35.6465 110.842 35.2582C110.601 34.8607 110.518 34.361 110.595 33.7592C110.65 33.324 110.8 32.9527 111.046 32.6452C111.292 32.3378 111.608 32.1097 111.994 31.9611C112.389 31.8137 112.832 31.7712 113.323 31.8335L116.295 32.2109L115.373 39.4746L114.15 39.3194L114.496 36.5972L113.08 36.4173L110.817 38.8961L109.47 38.7251ZM112.944 35.4829L114.611 35.6945L114.951 33.014L113.423 32.82C112.988 32.7648 112.625 32.8457 112.334 33.0627C112.044 33.2706 111.875 33.5643 111.827 33.9439C111.779 34.3235 111.844 34.6611 112.023 34.9566C112.211 35.2534 112.518 35.4288 112.944 35.4829Z" fill="#FBFBFB"/>
<rect x="30.9619" y="115.811" width="100" height="32" rx="16" transform="rotate(-14.3295 30.9619 115.811)" fill="#01594D"/>
<rect x="30.9619" y="115.811" width="100" height="32" rx="16" transform="rotate(-14.3295 30.9619 115.811)" stroke="#74A39D" stroke-width="1.2"/>
<path fill-rule="evenodd" clip-rule="evenodd" d="M50.4658 121.598C51.1468 120.476 52.2513 119.661 53.5361 119.333C54.8209 119.005 56.1809 119.19 57.3168 119.848C58.4528 120.507 59.2716 121.584 59.5933 122.843C60.5028 126.404 57.0011 132.897 57.0011 132.897C57.0011 132.897 50.8139 128.879 49.9044 125.318C49.5828 124.059 49.7847 122.721 50.4658 121.598ZM55.3677 126.503C56.4379 126.23 57.0838 125.14 56.8105 124.07C56.5371 123 55.4479 122.354 54.3777 122.627C53.3075 122.901 52.6615 123.99 52.9349 125.06C53.2083 126.13 54.2975 126.776 55.3677 126.503Z" fill="#FBFBFB"/>
<path d="M68.3169 127.943L65.8567 118.312L73.29 116.413L75.7502 126.044L74.5294 126.356L72.3464 117.81L67.3547 119.085L69.5377 127.631L68.3169 127.943ZM77.66 125.614L77.3863 124.542C77.6214 124.482 77.8143 124.37 77.9652 124.207C78.1227 124.032 78.2369 123.781 78.3077 123.455C78.3761 123.119 78.3852 122.683 78.3349 122.147C78.2914 121.6 78.1804 120.92 78.0019 120.108L77.5601 118.039L82.3755 116.809L84.1842 123.89L82.9905 124.195L81.4521 118.172L78.8884 118.827L79.1419 119.933C79.3529 120.909 79.4771 121.735 79.5145 122.409C79.5519 123.084 79.505 123.635 79.3736 124.064C79.2422 124.492 79.03 124.831 78.737 125.079C78.4531 125.325 78.094 125.503 77.66 125.614ZM89.6463 122.639C89.1128 122.775 88.6047 122.804 88.1221 122.725C87.6373 122.637 87.1938 122.466 86.7919 122.212C86.3876 121.949 86.0429 121.618 85.7579 121.219C85.4729 120.82 85.2681 120.376 85.1433 119.888C85.0163 119.39 84.9821 118.898 85.0407 118.411C85.0993 117.924 85.2441 117.473 85.4752 117.058C85.7039 116.633 86.011 116.27 86.3966 115.97C86.7889 115.658 87.2473 115.435 87.7718 115.301C88.3053 115.164 88.8145 115.14 89.2994 115.228C89.7819 115.307 90.2254 115.478 90.6297 115.741C91.0407 115.992 91.3887 116.318 91.6737 116.717C91.9587 117.116 92.1647 117.564 92.2918 118.062C92.4165 118.55 92.4496 119.038 92.3909 119.525C92.3323 120.012 92.1886 120.467 91.9599 120.892C91.7289 121.307 91.4172 121.671 91.0249 121.983C90.6394 122.284 90.1798 122.503 89.6463 122.639ZM86.3676 119.59C86.4923 120.078 86.7095 120.494 87.0191 120.839C87.3378 121.182 87.7035 121.425 88.1162 121.57C88.5267 121.706 88.9489 121.719 89.383 121.608C89.817 121.497 90.1804 121.279 90.473 120.954C90.7746 120.626 90.9786 120.237 91.085 119.786C91.1981 119.324 91.1922 118.848 91.0675 118.36C90.9428 117.872 90.7211 117.456 90.4024 117.114C90.0928 116.769 89.7271 116.525 89.3053 116.383C88.8926 116.238 88.4692 116.221 88.0351 116.331C87.601 116.442 87.2388 116.665 86.9485 116.999C86.6559 117.324 86.4519 117.714 86.3365 118.167C86.2302 118.618 86.2405 119.092 86.3676 119.59ZM98.214 120.45C97.6805 120.587 97.1679 120.616 96.6763 120.54C96.1914 120.452 95.7423 120.277 95.329 120.017C94.9247 119.754 94.5756 119.424 94.2815 119.027C93.9965 118.628 93.7905 118.18 93.6634 117.682C93.4925 117.013 93.4858 116.365 93.6433 115.737C93.8008 115.109 94.1093 114.563 94.5687 114.099C95.0258 113.626 95.6115 113.298 96.3259 113.115C97.0222 112.938 97.6685 112.941 98.2648 113.126C98.8679 113.299 99.363 113.616 99.7502 114.076L98.6772 114.74C98.4108 114.452 98.0918 114.259 97.7201 114.161C97.346 114.054 96.96 114.052 96.5621 114.153C96.1281 114.264 95.7591 114.479 95.4551 114.797C95.1602 115.113 94.9595 115.497 94.8532 115.948C94.7445 116.39 94.7549 116.864 94.8842 117.371C95.0113 117.868 95.2308 118.294 95.5427 118.647C95.8614 118.99 96.2271 119.234 96.6398 119.379C97.0616 119.521 97.4895 119.537 97.9236 119.426C98.2039 119.355 98.458 119.237 98.6858 119.073C98.9226 118.906 99.1152 118.717 99.2635 118.506C99.4186 118.283 99.5069 118.063 99.5284 117.846L100.785 117.901C100.728 118.281 100.585 118.645 100.356 118.993C100.134 119.329 99.8386 119.626 99.4709 119.884C99.1123 120.139 98.6933 120.328 98.214 120.45ZM102.95 119.096L101.141 112.015L102.335 111.71L103.08 114.627L103.867 114.426L105.346 110.941L106.703 110.595L104.934 114.702L108.824 117.596L107.44 117.949L104.147 115.525L103.361 115.726L104.144 118.791L102.95 119.096ZM113.202 116.622C112.668 116.758 112.156 116.788 111.664 116.711C111.179 116.623 110.731 116.453 110.32 116.202C109.916 115.939 109.567 115.609 109.273 115.212C108.988 114.813 108.782 114.365 108.655 113.867C108.484 113.198 108.481 112.549 108.648 111.918C108.815 111.288 109.126 110.737 109.583 110.263C110.05 109.788 110.635 109.46 111.341 109.28C112.055 109.097 112.718 109.111 113.331 109.321C113.95 109.519 114.474 109.857 114.905 110.335C115.342 110.801 115.641 111.351 115.803 111.984C115.826 112.074 115.844 112.166 115.858 112.258C115.879 112.34 115.891 112.404 115.893 112.452L110.02 113.952C110.174 114.404 110.406 114.783 110.715 115.09C111.031 115.384 111.392 115.591 111.798 115.709C112.202 115.818 112.607 115.82 113.014 115.716C113.448 115.605 113.827 115.393 114.151 115.079C114.485 114.762 114.679 114.409 114.733 114.02L115.837 114.041C115.771 114.424 115.619 114.791 115.381 115.14C115.152 115.488 114.849 115.792 114.472 116.052C114.104 116.309 113.681 116.499 113.202 116.622ZM109.768 113.135L114.597 111.902C114.443 111.45 114.208 111.076 113.892 110.781C113.575 110.486 113.216 110.284 112.812 110.176C112.409 110.067 111.994 110.067 111.569 110.175C111.153 110.281 110.794 110.479 110.493 110.768C110.191 111.057 109.972 111.407 109.836 111.817C109.709 112.225 109.686 112.665 109.768 113.135Z" fill="#FBFBFB"/>
<rect x="250.305" y="39.5391" width="113" height="32" rx="16" transform="rotate(10.5893 250.305 39.5391)" fill="#01594D"/>
<rect x="250.305" y="39.5391" width="113" height="32" rx="16" transform="rotate(10.5893 250.305 39.5391)" stroke="#74A39D" stroke-width="1.2"/>
<path fill-rule="evenodd" clip-rule="evenodd" d="M265.554 53.006C266.645 52.2751 267.99 52.0013 269.294 52.245C270.597 52.4887 271.752 53.2299 272.505 54.3055C273.258 55.3811 273.547 56.703 273.308 57.9804C272.633 61.5928 266.721 66.0066 266.721 66.0066C266.721 66.0066 262.803 59.7551 263.478 56.1427C263.717 54.8653 264.464 53.737 265.554 53.006ZM267.934 59.5194C269.019 59.7224 270.064 59.0067 270.267 57.921C270.47 56.8352 269.754 55.7905 268.669 55.5875C267.583 55.3845 266.538 56.1001 266.335 57.1859C266.132 58.2717 266.848 59.3164 267.934 59.5194Z" fill="#FBFBFB"/>
<path d="M288.755 57.9789L286.929 67.7497L285.69 67.5181L286.521 63.0731L281.14 62.0672L280.309 66.5122L279.071 66.2806L280.898 56.5099L282.136 56.7414L281.346 60.9662L286.727 61.9722L287.517 57.7474L288.755 57.9789ZM292.524 68.938C291.982 68.8368 291.505 68.6479 291.091 68.3712C290.689 68.087 290.354 67.7443 290.087 67.3431C289.831 66.9345 289.654 66.4882 289.554 66.0044C289.464 65.5222 289.466 65.0289 289.56 64.5243C289.687 63.8454 289.959 63.2553 290.375 62.754C290.792 62.2526 291.307 61.8837 291.921 61.6472C292.544 61.4123 293.214 61.3618 293.929 61.4956C294.654 61.6311 295.25 61.9229 295.717 62.371C296.195 62.8116 296.528 63.3392 296.717 63.9538C296.917 64.5608 296.957 65.1855 296.837 65.8277C296.819 65.9194 296.798 66.0103 296.771 66.1003C296.756 66.1829 296.739 66.2463 296.722 66.2904L290.763 65.1764C290.712 65.6512 290.762 66.0926 290.914 66.5007C291.077 66.9014 291.317 67.2407 291.635 67.5186C291.955 67.7874 292.322 67.9603 292.735 68.0375C293.175 68.1198 293.608 68.0869 294.035 67.9388C294.471 67.7923 294.795 67.5539 295.009 67.2236L296.001 67.7081C295.78 68.0276 295.487 68.2958 295.124 68.5127C294.77 68.7313 294.367 68.8792 293.916 68.9562C293.474 69.035 293.01 69.0289 292.524 68.938ZM290.879 64.3292L295.778 65.2451C295.828 64.7704 295.773 64.3327 295.61 63.932C295.448 63.5313 295.206 63.1966 294.886 62.9279C294.566 62.6591 294.191 62.4845 293.759 62.4039C293.337 62.325 292.929 62.353 292.533 62.4879C292.138 62.6229 291.792 62.8478 291.495 63.1627C291.208 63.4794 291.003 63.8682 290.879 64.3292ZM296.799 71.3468L297.316 68.5807L297.468 68.609C297.67 68.6467 297.864 68.6214 298.052 68.533C298.248 68.4463 298.438 68.2682 298.622 67.9986C298.816 67.7216 299.003 67.3294 299.183 66.8218C299.364 66.3143 299.543 65.6595 299.722 64.8573L300.179 62.7922L305.064 63.7055L303.922 69.8156L304.899 69.9983L304.382 72.7644L303.308 72.5637L303.625 70.871L298.189 69.8548L297.873 71.5475L296.799 71.3468ZM299.16 68.9255L302.711 69.5892L303.653 64.5525L301.052 64.0662L300.802 65.1732C300.629 65.9479 300.451 66.5936 300.269 67.1102C300.098 67.6195 299.919 68.018 299.732 68.3059C299.554 68.5956 299.364 68.8021 299.16 68.9255ZM306.457 71.4005L307.8 64.217L309.011 64.4434L307.668 71.6269L306.457 71.4005ZM308.052 62.8684L308.335 61.3546L309.546 61.581L309.263 63.0948L308.052 62.8684ZM309.398 72.0074L309.602 70.9202C309.84 70.9648 310.062 70.9446 310.268 70.8596C310.485 70.7672 310.694 70.5879 310.896 70.3218C311.099 70.0465 311.291 69.6551 311.471 69.1476C311.663 68.6326 311.848 67.9695 312.028 67.1581L312.499 65.0955L317.385 66.0088L316.042 73.1924L314.831 72.966L315.973 66.8558L313.372 66.3696L313.136 67.4791C312.916 68.4539 312.681 69.255 312.431 69.8824C312.18 70.5098 311.905 70.9901 311.606 71.3233C311.306 71.6566 310.971 71.8741 310.601 71.9758C310.24 72.0792 309.839 72.0897 309.398 72.0074ZM318.397 73.6326L319.74 66.4491L320.951 66.6755L320.493 69.1251L322.282 69.4595C323.126 69.6173 323.723 69.9521 324.074 70.4639C324.435 70.9683 324.552 71.5645 324.423 72.2526C324.337 72.7113 324.164 73.1061 323.902 73.4371C323.65 73.7698 323.321 74.0073 322.915 74.1497C322.508 74.2921 322.03 74.3119 321.479 74.2089L318.397 73.6326ZM319.785 72.9095L321.492 73.2285C321.831 73.292 322.114 73.2784 322.34 73.1876C322.576 73.0895 322.766 72.9397 322.908 72.7384C323.05 72.5371 323.145 72.308 323.193 72.0511C323.239 71.8034 323.236 71.5655 323.184 71.3373C323.132 71.1092 323.012 70.9111 322.825 70.7432C322.638 70.5753 322.361 70.4571 321.994 70.3885L320.315 70.0746L319.785 72.9095ZM325.69 74.9962L327.033 67.8127L328.244 68.0391L327.689 71.0116L331.432 71.7113L331.988 68.7388L333.199 68.9653L331.856 76.1488L330.645 75.9224L331.231 72.7848L327.488 72.085L326.901 75.2226L325.69 74.9962ZM334.045 74.4075C334.131 73.9488 334.333 73.5783 334.652 73.296C334.981 73.0063 335.392 72.8126 335.885 72.7149C336.378 72.6171 336.928 72.6249 337.533 72.7381C337.854 72.7981 338.189 72.8891 338.536 73.011C338.885 73.1238 339.188 73.2564 339.445 73.4087L339.542 72.8858C339.645 72.3353 339.561 71.8733 339.289 71.4996C339.018 71.1167 338.581 70.8687 337.975 70.7555C337.581 70.6818 337.186 70.684 336.792 70.7622C336.408 70.8329 335.99 70.9635 335.536 71.1541L335.255 70.2186C335.783 69.9849 336.296 69.8339 336.793 69.7654C337.292 69.6877 337.793 69.6961 338.298 69.7904C339.215 69.9619 339.892 70.3543 340.328 70.9675C340.766 71.5716 340.9 72.3278 340.73 73.236L340.162 76.2774C340.134 76.4241 340.141 76.5394 340.182 76.6231C340.235 76.6993 340.329 76.7549 340.465 76.7898L340.29 77.7255C340.167 77.7216 340.059 77.7156 339.965 77.7077C339.881 77.7014 339.811 77.6931 339.756 77.6828C339.472 77.6297 339.271 77.5114 339.153 77.328C339.045 77.1463 338.998 76.9666 339.012 76.7888L339.069 76.3295C338.682 76.6749 338.215 76.9105 337.67 77.0363C337.124 77.1622 336.603 77.1788 336.108 77.0862C335.631 76.997 335.222 76.8209 334.882 76.5579C334.544 76.2858 334.3 75.9648 334.151 75.5951C334.003 75.2162 333.968 74.8203 334.045 74.4075ZM338.629 75.7914C338.763 75.6835 338.874 75.5714 338.962 75.455C339.052 75.3293 339.106 75.2207 339.123 75.1289L339.29 74.2344C339.026 74.0712 338.744 73.9328 338.442 73.8195C338.142 73.6969 337.841 73.6074 337.538 73.5508C336.923 73.4359 336.4 73.4662 335.968 73.6419C335.548 73.8101 335.298 74.1052 335.219 74.5273C335.176 74.7566 335.194 74.9925 335.272 75.235C335.361 75.47 335.512 75.6787 335.725 75.8609C335.947 76.0448 336.236 76.1702 336.594 76.2371C336.97 76.3074 337.342 76.3009 337.709 76.2176C338.077 76.1251 338.384 75.983 338.629 75.7914Z" fill="#FBFBFB"/>
<rect x="137.24" y="78.2012" width="142" height="32" rx="16" fill="#01594D"/>
<rect x="137.24" y="78.2012" width="142" height="32" rx="16" stroke="#74A39D" stroke-width="1.2"/>
<path fill-rule="evenodd" clip-rule="evenodd" d="M154.705 88.6363C155.642 87.7174 156.914 87.2012 158.24 87.2012C159.566 87.2012 160.838 87.7174 161.776 88.6363C162.713 89.5553 163.24 90.8016 163.24 92.1012C163.24 95.7762 158.24 101.201 158.24 101.201C158.24 101.201 153.24 95.7762 153.24 92.1012C153.24 90.8016 153.767 89.5553 154.705 88.6363ZM158.24 94.6016C159.345 94.6016 160.24 93.7061 160.24 92.6016C160.24 91.497 159.345 90.6016 158.24 90.6016C157.136 90.6016 156.24 91.497 156.24 92.6016C156.24 93.7061 157.136 94.6016 158.24 94.6016Z" fill="#FBFBFB"/>
<path d="M178.06 96.6392C178.06 97.1525 177.93 97.6005 177.668 97.9832C177.407 98.3658 177.052 98.6645 176.604 98.8792C176.166 99.0938 175.68 99.2012 175.148 99.2012H170.43V89.2612H175.372C175.839 89.2612 176.24 89.3872 176.576 89.6392C176.922 89.8818 177.183 90.1992 177.36 90.5912C177.547 90.9738 177.64 91.3752 177.64 91.7952C177.64 92.2805 177.514 92.7378 177.262 93.1672C177.02 93.5872 176.67 93.8998 176.212 94.1052C176.782 94.2732 177.23 94.5858 177.556 95.0432C177.892 95.4912 178.06 96.0232 178.06 96.6392ZM176.786 96.4152C176.786 96.1072 176.716 95.8225 176.576 95.5612C176.446 95.2998 176.264 95.0898 176.03 94.9312C175.806 94.7725 175.545 94.6932 175.246 94.6932H171.69V98.1092H175.148C175.456 98.1092 175.732 98.0298 175.974 97.8712C176.226 97.7125 176.422 97.5072 176.562 97.2552C176.712 96.9938 176.786 96.7138 176.786 96.4152ZM171.69 90.3532V93.6712H174.854C175.153 93.6712 175.414 93.5965 175.638 93.4472C175.872 93.2978 176.054 93.0972 176.184 92.8452C176.324 92.5932 176.394 92.3178 176.394 92.0192C176.394 91.7018 176.329 91.4218 176.198 91.1792C176.077 90.9272 175.904 90.7265 175.68 90.5772C175.466 90.4278 175.218 90.3532 174.938 90.3532H171.69ZM183.281 99.3412C182.73 99.3412 182.226 99.2432 181.769 99.0472C181.321 98.8418 180.929 98.5665 180.593 98.2212C180.266 97.8665 180.009 97.4605 179.823 97.0032C179.645 96.5458 179.557 96.0605 179.557 95.5472C179.557 94.8565 179.715 94.2265 180.033 93.6572C180.35 93.0878 180.789 92.6305 181.349 92.2852C181.918 91.9398 182.567 91.7672 183.295 91.7672C184.032 91.7672 184.671 91.9445 185.213 92.2992C185.763 92.6445 186.188 93.1018 186.487 93.6712C186.795 94.2312 186.949 94.8378 186.949 95.4912C186.949 95.5845 186.944 95.6778 186.935 95.7712C186.935 95.8552 186.93 95.9205 186.921 95.9672H180.859C180.896 96.4432 181.027 96.8678 181.251 97.2412C181.484 97.6052 181.783 97.8945 182.147 98.1092C182.511 98.3145 182.903 98.4172 183.323 98.4172C183.771 98.4172 184.191 98.3052 184.583 98.0812C184.984 97.8572 185.259 97.5632 185.409 97.1992L186.473 97.4932C186.314 97.8478 186.076 98.1652 185.759 98.4452C185.451 98.7252 185.082 98.9445 184.653 99.1032C184.233 99.2618 183.775 99.3412 183.281 99.3412ZM180.817 95.1132H185.801C185.763 94.6372 185.628 94.2172 185.395 93.8532C185.161 93.4892 184.863 93.2045 184.499 92.9992C184.135 92.7938 183.733 92.6912 183.295 92.6912C182.865 92.6912 182.469 92.7938 182.105 92.9992C181.741 93.2045 181.442 93.4892 181.209 93.8532C180.985 94.2172 180.854 94.6372 180.817 95.1132ZM188.234 99.2012L190.922 95.4352L188.472 91.8932H189.858L191.958 94.9312H192.742V91.8932H194.002V94.9312H194.814L196.872 91.8932H198.272L195.822 95.4352L198.524 99.2012H197.11L194.814 96.0092H194.002V99.2012H192.742V96.0092H191.958L189.648 99.2012H188.234ZM199.85 97.0872C199.85 96.6205 199.981 96.2192 200.242 95.8832C200.513 95.5378 200.881 95.2718 201.348 95.0852C201.815 94.8985 202.356 94.8052 202.972 94.8052C203.299 94.8052 203.644 94.8332 204.008 94.8892C204.372 94.9358 204.694 95.0105 204.974 95.1132V94.5812C204.974 94.0212 204.806 93.5825 204.47 93.2652C204.134 92.9385 203.658 92.7752 203.042 92.7752C202.641 92.7752 202.253 92.8498 201.88 92.9992C201.516 93.1392 201.129 93.3445 200.718 93.6152L200.27 92.7472C200.746 92.4205 201.222 92.1778 201.698 92.0192C202.174 91.8512 202.669 91.7672 203.182 91.7672C204.115 91.7672 204.853 92.0285 205.394 92.5512C205.935 93.0645 206.206 93.7832 206.206 94.7072V97.8012C206.206 97.9505 206.234 98.0625 206.29 98.1372C206.355 98.2025 206.458 98.2398 206.598 98.2492V99.2012C206.477 99.2198 206.369 99.2338 206.276 99.2432C206.192 99.2525 206.122 99.2572 206.066 99.2572C205.777 99.2572 205.557 99.1778 205.408 99.0192C205.268 98.8605 205.189 98.6925 205.17 98.5152L205.142 98.0532C204.825 98.4638 204.409 98.7812 203.896 99.0052C203.383 99.2292 202.874 99.3412 202.37 99.3412C201.885 99.3412 201.451 99.2432 201.068 99.0472C200.685 98.8418 200.387 98.5712 200.172 98.2352C199.957 97.8898 199.85 97.5072 199.85 97.0872ZM204.61 97.6052C204.722 97.4745 204.811 97.3438 204.876 97.2132C204.941 97.0732 204.974 96.9565 204.974 96.8632V95.9532C204.685 95.8412 204.381 95.7572 204.064 95.7012C203.747 95.6358 203.434 95.6032 203.126 95.6032C202.501 95.6032 201.992 95.7292 201.6 95.9812C201.217 96.2238 201.026 96.5598 201.026 96.9892C201.026 97.2225 201.087 97.4512 201.208 97.6752C201.339 97.8898 201.525 98.0672 201.768 98.2072C202.02 98.3472 202.328 98.4172 202.692 98.4172C203.075 98.4172 203.439 98.3425 203.784 98.1932C204.129 98.0345 204.405 97.8385 204.61 97.6052ZM212.753 99.2012V89.2612H220.425V99.2012H219.165V90.3812H214.013V99.2012H212.753ZM222.452 97.0872C222.452 96.6205 222.582 96.2192 222.844 95.8832C223.114 95.5378 223.483 95.2718 223.95 95.0852C224.416 94.8985 224.958 94.8052 225.574 94.8052C225.9 94.8052 226.246 94.8332 226.61 94.8892C226.974 94.9358 227.296 95.0105 227.576 95.1132V94.5812C227.576 94.0212 227.408 93.5825 227.072 93.2652C226.736 92.9385 226.26 92.7752 225.644 92.7752C225.242 92.7752 224.855 92.8498 224.482 92.9992C224.118 93.1392 223.73 93.3445 223.32 93.6152L222.872 92.7472C223.348 92.4205 223.824 92.1778 224.3 92.0192C224.776 91.8512 225.27 91.7672 225.784 91.7672C226.717 91.7672 227.454 92.0285 227.996 92.5512C228.537 93.0645 228.808 93.7832 228.808 94.7072V97.8012C228.808 97.9505 228.836 98.0625 228.892 98.1372C228.957 98.2025 229.06 98.2398 229.2 98.2492V99.2012C229.078 99.2198 228.971 99.2338 228.878 99.2432C228.794 99.2525 228.724 99.2572 228.668 99.2572C228.378 99.2572 228.159 99.1778 228.01 99.0192C227.87 98.8605 227.79 98.6925 227.772 98.5152L227.744 98.0532C227.426 98.4638 227.011 98.7812 226.498 99.0052C225.984 99.2292 225.476 99.3412 224.972 99.3412C224.486 99.3412 224.052 99.2432 223.67 99.0472C223.287 98.8418 222.988 98.5712 222.774 98.2352C222.559 97.8898 222.452 97.5072 222.452 97.0872ZM227.212 97.6052C227.324 97.4745 227.412 97.3438 227.478 97.2132C227.543 97.0732 227.576 96.9565 227.576 96.8632V95.9532C227.286 95.8412 226.983 95.7572 226.666 95.7012C226.348 95.6358 226.036 95.6032 225.728 95.6032C225.102 95.6032 224.594 95.7292 224.202 95.9812C223.819 96.2238 223.628 96.5598 223.628 96.9892C223.628 97.2225 223.688 97.4512 223.81 97.6752C223.94 97.8898 224.127 98.0672 224.37 98.2072C224.622 98.3472 224.93 98.4172 225.294 98.4172C225.676 98.4172 226.04 98.3425 226.386 98.1932C226.731 98.0345 227.006 97.8385 227.212 97.6052ZM231.184 99.2012V91.8932H232.458L235.174 96.6812L237.904 91.8932H239.15V99.2012H237.974V93.6712L235.566 97.8992H234.782L232.36 93.6712V99.2012H231.184ZM242.047 90.6752L241.235 90.3952L242.047 88.9812H243.279L242.047 90.6752ZM244.685 99.2012L246.757 96.2612C246.281 96.1678 245.898 95.9438 245.609 95.5892C245.32 95.2252 245.175 94.7398 245.175 94.1332C245.175 93.6945 245.278 93.3072 245.483 92.9712C245.688 92.6352 245.973 92.3692 246.337 92.1732C246.71 91.9772 247.144 91.8792 247.639 91.8792H250.635V99.2012H249.403V96.4572H247.975L246.043 99.2012H244.685ZM247.723 95.5472H249.403V92.8452H247.863C247.424 92.8452 247.074 92.9712 246.813 93.2232C246.552 93.4658 246.421 93.7785 246.421 94.1612C246.421 94.5438 246.528 94.8705 246.743 95.1412C246.967 95.4118 247.294 95.5472 247.723 95.5472ZM254.826 99.2012V92.9852H252.306V91.8932H258.578V92.9852H256.058V99.2012H254.826ZM260.235 99.2012V91.8932H261.467V99.2012H260.235ZM260.235 90.5212V88.9812H261.467V90.5212H260.235Z" fill="#FBFBFB"/>
<rect x="163.308" y="123.619" width="192" height="32" rx="16" transform="rotate(-6.1758 163.308 123.619)" fill="#CFE8D0"/>
<path fill-rule="evenodd" clip-rule="evenodd" d="M181.794 132.115C182.627 131.101 183.836 130.45 185.154 130.308C186.473 130.165 187.793 130.542 188.824 131.354C189.855 132.167 190.513 133.349 190.652 134.641C191.048 138.295 186.66 144.227 186.66 144.227C186.66 144.227 181.106 139.371 180.71 135.717C180.571 134.425 180.96 133.129 181.794 132.115ZM185.95 137.665C187.049 137.546 187.843 136.56 187.724 135.462C187.605 134.364 186.618 133.57 185.52 133.688C184.422 133.807 183.628 134.794 183.747 135.892C183.866 136.99 184.852 137.784 185.95 137.665Z" fill="#01594D"/>
<path d="M198.074 142.895L197.748 139.888L198.194 139.84C198.453 139.812 198.67 139.685 198.842 139.46C199.014 139.226 199.145 138.873 199.235 138.404C199.324 137.925 199.369 137.296 199.369 136.516C199.369 135.737 199.326 134.78 199.241 133.643L199.012 130.88L205.137 130.217L206.086 138.986L207.31 138.854L207.636 141.86L206.522 141.981L206.317 140.088L198.982 140.881L199.187 142.774L198.074 142.895ZM199.864 139.659L204.833 139.122L204.004 131.466L200.288 131.869L200.441 133.669C200.539 134.841 200.585 135.826 200.578 136.625C200.57 137.424 200.508 138.069 200.393 138.56C200.277 139.051 200.101 139.418 199.864 139.659ZM208.82 139.817L211.088 135.783L208.271 132.526L209.649 132.376L212.063 135.171L212.843 135.087L212.516 132.066L213.769 131.931L214.096 134.951L214.903 134.864L216.622 131.622L218.014 131.471L215.959 135.256L219.051 138.71L217.645 138.862L215.019 135.935L214.212 136.023L214.555 139.196L213.302 139.332L212.959 136.158L212.179 136.243L210.226 139.665L208.82 139.817ZM224.17 138.297C223.622 138.356 223.111 138.313 222.635 138.167C222.167 138.011 221.748 137.78 221.377 137.472C221.014 137.155 220.715 136.779 220.48 136.344C220.255 135.909 220.114 135.436 220.059 134.925C219.985 134.239 220.075 133.595 220.329 132.995C220.583 132.395 220.97 131.893 221.49 131.489C222.019 131.085 222.645 130.843 223.369 130.765C224.102 130.686 224.756 130.793 225.333 131.088C225.917 131.372 226.389 131.781 226.747 132.315C227.113 132.838 227.332 133.425 227.402 134.074C227.412 134.167 227.418 134.261 227.418 134.354C227.427 134.438 227.43 134.503 227.426 134.551L221.399 135.203C221.487 135.672 221.663 136.08 221.925 136.427C222.197 136.764 222.525 137.02 222.91 137.194C223.294 137.359 223.694 137.419 224.112 137.374C224.557 137.325 224.963 137.169 225.329 136.904C225.703 136.638 225.946 136.316 226.055 135.938L227.144 136.116C227.025 136.486 226.822 136.827 226.537 137.139C226.261 137.451 225.918 137.709 225.508 137.912C225.108 138.115 224.661 138.243 224.17 138.297ZM221.265 134.358L226.22 133.822C226.132 133.353 225.952 132.95 225.681 132.613C225.41 132.276 225.082 132.025 224.698 131.86C224.314 131.695 223.904 131.637 223.468 131.684C223.041 131.73 222.658 131.875 222.318 132.118C221.978 132.361 221.712 132.676 221.519 133.063C221.336 133.449 221.251 133.881 221.265 134.358ZM233.507 137.286C232.913 137.351 232.368 137.259 231.872 137.013C231.376 136.766 230.968 136.43 230.65 136.004L231.126 140.403L229.901 140.535L228.794 130.305L229.88 130.187L230.027 131.551C230.267 131.075 230.604 130.677 231.039 130.358C231.473 130.029 231.963 129.835 232.511 129.776C233.012 129.722 233.482 129.774 233.922 129.933C234.362 130.092 234.754 130.331 235.098 130.651C235.442 130.97 235.723 131.348 235.939 131.785C236.163 132.211 236.302 132.67 236.355 133.162C236.43 133.849 236.359 134.495 236.143 135.1C235.936 135.705 235.605 136.205 235.15 136.602C234.695 136.989 234.147 137.217 233.507 137.286ZM233.016 136.269C233.378 136.23 233.695 136.121 233.967 135.941C234.246 135.751 234.475 135.52 234.652 135.247C234.837 134.964 234.968 134.655 235.044 134.318C235.12 133.981 235.14 133.641 235.103 133.298C235.064 132.936 234.961 132.599 234.796 132.289C234.641 131.977 234.433 131.708 234.174 131.483C233.924 131.256 233.639 131.09 233.318 130.984C233.005 130.868 232.672 130.829 232.319 130.867C232.096 130.891 231.869 130.958 231.637 131.067C231.414 131.176 231.204 131.321 231.008 131.502C230.81 131.673 230.648 131.864 230.521 132.075C230.393 132.286 230.318 132.506 230.296 132.733L230.521 134.807C230.694 135.108 230.911 135.375 231.171 135.61C231.431 135.845 231.722 136.024 232.046 136.149C232.368 136.264 232.692 136.304 233.016 136.269ZM241.9 136.378C241.353 136.437 240.841 136.394 240.365 136.248C239.898 136.093 239.479 135.861 239.107 135.554C238.744 135.236 238.446 134.86 238.211 134.426C237.985 133.99 237.845 133.517 237.79 133.007C237.715 132.32 237.805 131.677 238.06 131.077C238.314 130.476 238.701 129.974 239.22 129.571C239.749 129.166 240.376 128.925 241.099 128.847C241.832 128.767 242.487 128.875 243.063 129.169C243.648 129.453 244.119 129.862 244.478 130.396C244.844 130.92 245.063 131.506 245.133 132.156C245.143 132.249 245.148 132.342 245.149 132.436C245.158 132.519 245.16 132.585 245.156 132.632L239.129 133.284C239.218 133.753 239.393 134.162 239.656 134.509C239.927 134.845 240.255 135.101 240.64 135.275C241.024 135.44 241.425 135.5 241.843 135.455C242.288 135.407 242.694 135.25 243.059 134.985C243.434 134.719 243.676 134.398 243.785 134.02L244.875 134.197C244.755 134.567 244.553 134.908 244.267 135.221C243.991 135.532 243.648 135.79 243.239 135.994C242.838 136.197 242.392 136.325 241.9 136.378ZM238.996 132.44L243.951 131.904C243.862 131.434 243.683 131.031 243.412 130.695C243.14 130.358 242.813 130.107 242.429 129.942C242.045 129.777 241.635 129.718 241.199 129.765C240.772 129.811 240.389 129.956 240.049 130.199C239.709 130.443 239.443 130.758 239.25 131.145C239.066 131.531 238.982 131.962 238.996 132.44ZM246.677 135.777L246.558 134.677C246.799 134.651 247.006 134.568 247.178 134.427C247.359 134.276 247.508 134.044 247.624 133.731C247.74 133.409 247.81 132.979 247.837 132.441C247.871 131.892 247.858 131.204 247.796 130.375L247.652 128.264L252.593 127.73L253.38 134.995L252.155 135.128L251.486 128.948L248.855 129.232L248.95 130.363C249.02 131.36 249.026 132.195 248.967 132.867C248.908 133.54 248.784 134.08 248.593 134.485C248.402 134.891 248.144 135.196 247.819 135.4C247.503 135.603 247.122 135.729 246.677 135.777ZM258.964 134.532C258.416 134.591 257.909 134.547 257.443 134.401C256.975 134.245 256.561 134.013 256.199 133.704C255.836 133.387 255.542 133.01 255.316 132.575C255.091 132.139 254.951 131.671 254.897 131.17C254.841 130.659 254.877 130.167 255.004 129.694C255.132 129.22 255.339 128.794 255.627 128.415C255.913 128.027 256.269 127.712 256.693 127.469C257.125 127.216 257.611 127.06 258.149 127.002C258.697 126.942 259.204 126.991 259.672 127.147C260.138 127.293 260.553 127.525 260.916 127.843C261.287 128.15 261.585 128.521 261.811 128.957C262.036 129.393 262.177 129.866 262.232 130.376C262.286 130.877 262.25 131.365 262.122 131.838C261.995 132.312 261.788 132.743 261.502 133.131C261.214 133.509 260.854 133.825 260.422 134.078C259.997 134.321 259.511 134.472 258.964 134.532ZM256.151 131.048C256.205 131.549 256.361 131.992 256.619 132.378C256.885 132.762 257.213 133.055 257.601 133.257C257.988 133.45 258.404 133.522 258.849 133.474C259.295 133.426 259.685 133.261 260.021 132.981C260.366 132.7 260.623 132.343 260.793 131.912C260.97 131.47 261.032 130.999 260.978 130.498C260.923 129.997 260.763 129.554 260.496 129.17C260.238 128.785 259.911 128.491 259.514 128.29C259.126 128.088 258.709 128.011 258.264 128.059C257.818 128.108 257.428 128.277 257.093 128.566C256.757 128.847 256.5 129.203 256.322 129.636C256.153 130.067 256.096 130.538 256.151 131.048ZM267.61 129.512L270.859 126.612L270.97 127.642L268.63 129.698L271.351 131.164L271.463 132.194L267.679 130.153L267.61 129.512ZM270.978 129.148L274.227 126.248L274.339 127.278L271.998 129.333L274.72 130.799L274.831 131.829L271.048 129.788L270.978 129.148ZM284.245 121.657L285.315 131.54L284.062 131.675L283.575 127.179L278.133 127.768L278.62 132.264L277.367 132.4L276.298 122.517L277.55 122.382L278.013 126.655L283.455 126.066L282.993 121.793L284.245 121.657ZM287.04 129.226C286.99 128.762 287.077 128.349 287.301 127.987C287.533 127.615 287.87 127.311 288.314 127.075C288.758 126.839 289.286 126.688 289.899 126.622C290.224 126.587 290.57 126.577 290.938 126.594C291.305 126.601 291.633 126.641 291.922 126.713L291.865 126.184C291.805 125.627 291.591 125.209 291.222 124.93C290.853 124.641 290.362 124.53 289.75 124.596C289.351 124.639 288.974 124.755 288.619 124.944C288.272 125.122 287.909 125.368 287.53 125.681L286.991 124.866C287.429 124.49 287.876 124.198 288.332 123.989C288.788 123.771 289.27 123.634 289.781 123.579C290.709 123.478 291.47 123.659 292.064 124.12C292.658 124.572 293.004 125.258 293.103 126.176L293.436 129.253C293.452 129.401 293.492 129.509 293.556 129.578C293.628 129.635 293.734 129.662 293.874 129.656L293.977 130.602C293.858 130.634 293.753 130.659 293.661 130.679C293.579 130.697 293.509 130.709 293.454 130.715C293.166 130.746 292.94 130.691 292.774 130.549C292.618 130.407 292.521 130.248 292.483 130.074L292.406 129.618C292.134 130.06 291.756 130.42 291.269 130.698C290.783 130.976 290.289 131.142 289.788 131.196C289.306 131.248 288.864 131.198 288.462 131.044C288.06 130.881 287.734 130.644 287.484 130.333C287.233 130.013 287.086 129.644 287.04 129.226ZM291.829 129.229C291.926 129.087 292 128.948 292.051 128.811C292.101 128.665 292.121 128.545 292.111 128.453L292.013 127.548C291.713 127.468 291.402 127.417 291.081 127.395C290.758 127.364 290.444 127.366 290.138 127.399C289.516 127.466 289.024 127.646 288.661 127.939C288.307 128.221 288.153 128.576 288.199 129.003C288.224 129.234 288.309 129.455 288.454 129.665C288.607 129.864 288.811 130.021 289.068 130.134C289.333 130.246 289.647 130.282 290.009 130.243C290.389 130.202 290.743 130.088 291.071 129.903C291.397 129.708 291.649 129.483 291.829 129.229ZM299.638 132.989L299.317 130.024L299.039 130.054C298.306 130.134 297.652 130.036 297.078 129.76C296.513 129.483 296.057 129.086 295.71 128.57C295.363 128.054 295.155 127.471 295.084 126.821C295.013 126.162 295.092 125.544 295.32 124.965C295.558 124.385 295.923 123.9 296.416 123.509C296.918 123.116 297.531 122.881 298.254 122.803L298.533 122.773L298.218 119.864L299.443 119.731L299.758 122.64L300.05 122.608C300.774 122.53 301.418 122.629 301.983 122.906C302.557 123.182 303.018 123.578 303.365 124.094C303.721 124.61 303.935 125.197 304.006 125.856C304.076 126.505 303.997 127.119 303.769 127.698C303.541 128.277 303.175 128.762 302.673 129.154C302.181 129.546 301.568 129.781 300.835 129.86L300.542 129.892L300.863 132.856L299.638 132.989ZM298.931 129.052L299.265 129.016L298.697 123.769L298.363 123.805C297.908 123.854 297.513 124.019 297.177 124.299C296.85 124.569 296.605 124.915 296.444 125.336C296.283 125.757 296.23 126.214 296.283 126.706C296.336 127.197 296.482 127.632 296.72 128.01C296.966 128.378 297.278 128.658 297.656 128.852C298.032 129.037 298.457 129.104 298.931 129.052ZM300.378 128.896L300.726 128.858C301.19 128.808 301.586 128.652 301.915 128.391C302.252 128.12 302.496 127.779 302.649 127.369C302.81 126.947 302.864 126.491 302.811 125.999C302.757 125.507 302.607 125.073 302.36 124.696C302.113 124.319 301.8 124.034 301.422 123.84C301.044 123.637 300.622 123.56 300.158 123.611L299.81 123.648L300.378 128.896ZM308.071 129.077L307.402 122.897L304.897 123.168L304.779 122.083L311.015 121.408L311.132 122.494L308.627 122.765L309.296 128.945L308.071 129.077ZM314.684 131.445C314.526 131.463 314.361 131.457 314.189 131.429C314.026 131.399 313.856 131.347 313.679 131.273L314.006 130.392C314.095 130.43 314.177 130.454 314.253 130.464C314.34 130.483 314.42 130.488 314.495 130.48C314.717 130.456 314.915 130.327 315.086 130.092C315.268 129.866 315.424 129.53 315.555 129.084L315.808 128.17L311.842 121.318L313.136 121.178L316.238 126.94L317.799 120.674L319.01 120.543L316.528 129.359C316.406 129.795 316.253 130.159 316.069 130.451C315.885 130.752 315.676 130.986 315.44 131.152C315.205 131.319 314.953 131.416 314.684 131.445ZM324.423 127.449C323.876 127.508 323.364 127.465 322.888 127.319C322.421 127.163 322.001 126.927 321.629 126.61C321.266 126.293 320.967 125.917 320.732 125.482C320.507 125.047 320.366 124.574 320.311 124.063C320.237 123.377 320.322 122.734 320.567 122.135C320.812 121.535 321.195 121.039 321.716 120.644C322.235 120.241 322.861 119.999 323.594 119.92C324.309 119.843 324.948 119.938 325.512 120.205C326.085 120.463 326.53 120.846 326.848 121.356L325.692 121.862C325.469 121.538 325.18 121.302 324.826 121.153C324.471 120.994 324.089 120.937 323.681 120.981C323.236 121.029 322.84 121.189 322.494 121.461C322.157 121.732 321.904 122.084 321.735 122.515C321.565 122.937 321.508 123.408 321.564 123.928C321.619 124.438 321.776 124.89 322.035 125.285C322.301 125.669 322.629 125.962 323.017 126.164C323.414 126.365 323.836 126.442 324.281 126.394C324.569 126.363 324.837 126.282 325.086 126.152C325.344 126.021 325.561 125.861 325.738 125.673C325.923 125.474 326.041 125.269 326.094 125.057L327.33 125.289C327.219 125.658 327.026 125.998 326.75 126.31C326.482 126.611 326.148 126.863 325.748 127.066C325.357 127.268 324.915 127.395 324.423 127.449ZM329.317 126.778L328.531 119.513L329.756 119.38L330.542 126.646L329.317 126.778ZM328.384 118.148L328.218 116.617L329.443 116.485L329.609 118.016L328.384 118.148ZM339.341 122.398L336.082 125.201L335.97 124.171L338.315 122.157L335.589 120.65L335.478 119.62L339.272 121.758L339.341 122.398ZM335.973 122.763L332.713 125.566L332.602 124.536L334.947 122.522L332.221 121.014L332.109 119.984L335.903 122.123L335.973 122.763Z" fill="#01594D"/>
<rect x="38" y="49.2012" width="182" height="32" rx="16" fill="#CFE8D0"/>
<path fill-rule="evenodd" clip-rule="evenodd" d="M55.4645 59.6363C56.4021 58.7174 57.6739 58.2012 59 58.2012C60.3261 58.2012 61.5979 58.7174 62.5355 59.6363C63.4732 60.5553 64 61.8016 64 63.1012C64 66.7762 59 72.2012 59 72.2012C59 72.2012 54 66.7762 54 63.1012C54 61.8016 54.5268 60.5553 55.4645 59.6363ZM59 65.6016C60.1046 65.6016 61 64.7061 61 63.6016C61 62.497 60.1046 61.6016 59 61.6016C57.8954 61.6016 57 62.497 57 63.6016C57 64.7061 57.8954 65.6016 59 65.6016Z" fill="#01594D"/>
<path d="M79.786 70.2012V62.6132L76.51 68.4512H75.74L72.45 62.6132V70.2012H71.19V60.2612H72.52L76.118 66.7152L79.73 60.2612H81.046V70.2012H79.786ZM83.6363 70.2012V62.8932H84.8683V69.1232H87.7523V62.8932H88.9983V69.1232H91.8683V62.8932H93.1003V70.2012H83.6363ZM94.9397 68.0872C94.9397 67.6205 95.0704 67.2192 95.3317 66.8832C95.6024 66.5378 95.971 66.2718 96.4377 66.0852C96.9044 65.8985 97.4457 65.8052 98.0617 65.8052C98.3884 65.8052 98.7337 65.8332 99.0977 65.8892C99.4617 65.9358 99.7837 66.0105 100.064 66.1132V65.5812C100.064 65.0212 99.8957 64.5825 99.5597 64.2652C99.2237 63.9385 98.7477 63.7752 98.1317 63.7752C97.7304 63.7752 97.343 63.8498 96.9697 63.9992C96.6057 64.1392 96.2184 64.3445 95.8077 64.6152L95.3597 63.7472C95.8357 63.4205 96.3117 63.1778 96.7877 63.0192C97.2637 62.8512 97.7584 62.7672 98.2717 62.7672C99.205 62.7672 99.9424 63.0285 100.484 63.5512C101.025 64.0645 101.296 64.7832 101.296 65.7072V68.8012C101.296 68.9505 101.324 69.0625 101.38 69.1372C101.445 69.2025 101.548 69.2398 101.688 69.2492V70.2012C101.566 70.2198 101.459 70.2338 101.366 70.2432C101.282 70.2525 101.212 70.2572 101.156 70.2572C100.866 70.2572 100.647 70.1778 100.498 70.0192C100.358 69.8605 100.278 69.6925 100.26 69.5152L100.232 69.0532C99.9144 69.4638 99.499 69.7812 98.9857 70.0052C98.4724 70.2292 97.9637 70.3412 97.4597 70.3412C96.9744 70.3412 96.5404 70.2432 96.1577 70.0472C95.775 69.8418 95.4764 69.5712 95.2617 69.2352C95.047 68.8898 94.9397 68.5072 94.9397 68.0872ZM99.6997 68.6052C99.8117 68.4745 99.9004 68.3438 99.9657 68.2132C100.031 68.0732 100.064 67.9565 100.064 67.8632V66.9532C99.7744 66.8412 99.471 66.7572 99.1537 66.7012C98.8364 66.6358 98.5237 66.6032 98.2157 66.6032C97.5904 66.6032 97.0817 66.7292 96.6897 66.9812C96.307 67.2238 96.1157 67.5598 96.1157 67.9892C96.1157 68.2225 96.1764 68.4512 96.2977 68.6752C96.4284 68.8898 96.615 69.0672 96.8577 69.2072C97.1097 69.3472 97.4177 69.4172 97.7817 69.4172C98.1644 69.4172 98.5284 69.3425 98.8737 69.1932C99.219 69.0345 99.4944 68.8385 99.6997 68.6052ZM103.672 70.2012V62.8932H104.904V65.9172H108.712V62.8932H109.944V70.2012H108.712V67.0092H104.904V70.2012H103.672ZM115.584 70.3412C115.033 70.3412 114.529 70.2432 114.072 70.0472C113.624 69.8418 113.232 69.5665 112.896 69.2212C112.569 68.8665 112.312 68.4605 112.126 68.0032C111.948 67.5458 111.86 67.0605 111.86 66.5472C111.86 65.8565 112.018 65.2265 112.336 64.6572C112.653 64.0878 113.092 63.6305 113.652 63.2852C114.221 62.9398 114.87 62.7672 115.598 62.7672C116.335 62.7672 116.974 62.9445 117.516 63.2992C118.066 63.6445 118.491 64.1018 118.79 64.6712C119.098 65.2312 119.252 65.8378 119.252 66.4912C119.252 66.5845 119.247 66.6778 119.238 66.7712C119.238 66.8552 119.233 66.9205 119.224 66.9672H113.162C113.199 67.4432 113.33 67.8678 113.554 68.2412C113.787 68.6052 114.086 68.8945 114.45 69.1092C114.814 69.3145 115.206 69.4172 115.626 69.4172C116.074 69.4172 116.494 69.3052 116.886 69.0812C117.287 68.8572 117.562 68.5632 117.712 68.1992L118.776 68.4932C118.617 68.8478 118.379 69.1652 118.062 69.4452C117.754 69.7252 117.385 69.9445 116.956 70.1032C116.536 70.2618 116.078 70.3412 115.584 70.3412ZM113.12 66.1132H118.104C118.066 65.6372 117.931 65.2172 117.698 64.8532C117.464 64.4892 117.166 64.2045 116.802 63.9992C116.438 63.7938 116.036 63.6912 115.598 63.6912C115.168 63.6912 114.772 63.7938 114.408 63.9992C114.044 64.2045 113.745 64.4892 113.512 64.8532C113.288 65.2172 113.157 65.6372 113.12 66.1132ZM126.795 71.9232V70.2012H121.027V62.8932H122.259V69.1232H125.647V62.8932H126.879V69.1232H127.887V71.9232H126.795ZM129.664 70.2012V62.8932H130.896V65.3852H132.716C133.575 65.3852 134.223 65.6045 134.662 66.0432C135.11 66.4725 135.334 67.0372 135.334 67.7372C135.334 68.2038 135.236 68.6238 135.04 68.9972C134.853 69.3705 134.573 69.6645 134.2 69.8792C133.827 70.0938 133.36 70.2012 132.8 70.2012H129.664ZM130.896 69.2352H132.632C132.977 69.2352 133.253 69.1698 133.458 69.0392C133.673 68.8992 133.831 68.7172 133.934 68.4932C134.037 68.2692 134.088 68.0265 134.088 67.7652C134.088 67.5132 134.041 67.2798 133.948 67.0652C133.855 66.8505 133.701 66.6778 133.486 66.5472C133.271 66.4165 132.977 66.3512 132.604 66.3512H130.896V69.2352ZM137.084 70.2012V62.8932H138.316V65.9032H139.128L141.424 62.8932H142.824L140.094 66.4352L143.146 70.2012H141.718L139.128 67.0372H138.316V70.2012H137.084ZM144.778 70.2012V62.8932H146.01V70.2012H144.778ZM144.778 61.5212V59.9812H146.01V61.5212H144.778ZM152.581 70.2012V60.2612H153.841V64.5592H155.171L158.447 60.2612H159.903L156.207 65.0772L160.155 70.2012H158.615L155.199 65.7072H153.841V70.2012H152.581ZM164.652 70.3412C164.101 70.3412 163.602 70.2432 163.154 70.0472C162.706 69.8418 162.318 69.5665 161.992 69.2212C161.665 68.8665 161.413 68.4605 161.236 68.0032C161.058 67.5458 160.97 67.0652 160.97 66.5612C160.97 66.0478 161.058 65.5625 161.236 65.1052C161.413 64.6478 161.665 64.2465 161.992 63.9012C162.318 63.5465 162.706 63.2712 163.154 63.0752C163.611 62.8698 164.11 62.7672 164.652 62.7672C165.202 62.7672 165.702 62.8698 166.15 63.0752C166.598 63.2712 166.985 63.5465 167.312 63.9012C167.648 64.2465 167.904 64.6478 168.082 65.1052C168.259 65.5625 168.348 66.0478 168.348 66.5612C168.348 67.0652 168.259 67.5458 168.082 68.0032C167.904 68.4605 167.652 68.8665 167.326 69.2212C166.999 69.5665 166.607 69.8418 166.15 70.0472C165.702 70.2432 165.202 70.3412 164.652 70.3412ZM162.23 66.5752C162.23 67.0792 162.337 67.5365 162.552 67.9472C162.776 68.3578 163.07 68.6845 163.434 68.9272C163.798 69.1605 164.204 69.2772 164.652 69.2772C165.1 69.2772 165.506 69.1558 165.87 68.9132C166.243 68.6705 166.537 68.3438 166.752 67.9332C166.976 67.5132 167.088 67.0512 167.088 66.5472C167.088 66.0432 166.976 65.5858 166.752 65.1752C166.537 64.7645 166.243 64.4378 165.87 64.1952C165.506 63.9525 165.1 63.8312 164.652 63.8312C164.204 63.8312 163.798 63.9572 163.434 64.2092C163.07 64.4518 162.776 64.7785 162.552 65.1892C162.337 65.5998 162.23 66.0618 162.23 66.5752ZM169.617 70.2572V69.1512C169.859 69.1512 170.074 69.0905 170.261 68.9692C170.457 68.8385 170.629 68.6238 170.779 68.3252C170.928 68.0172 171.045 67.5972 171.129 67.0652C171.222 66.5238 171.283 65.8378 171.311 65.0072L171.395 62.8932H176.365V70.2012H175.133V63.9852H172.487L172.459 65.1192C172.421 66.1178 172.337 66.9485 172.207 67.6112C172.076 68.2738 171.894 68.7965 171.661 69.1792C171.427 69.5618 171.138 69.8372 170.793 70.0052C170.457 70.1732 170.065 70.2572 169.617 70.2572ZM178.76 70.2012V62.9072H179.992V68.5492L184.08 62.8932H185.2V70.2012H183.968V64.6712L179.936 70.2012H178.76ZM191.033 70.3412C189.829 70.3412 188.919 69.9772 188.303 69.2492C187.687 68.5212 187.379 67.4945 187.379 66.1692C187.379 65.2638 187.454 64.5032 187.603 63.8872C187.752 63.2618 187.976 62.7485 188.275 62.3472C188.574 61.9365 188.942 61.6052 189.381 61.3532C189.82 61.0918 190.324 60.8772 190.893 60.7092L193.987 59.7712L194.057 60.8352L191.047 61.7452C190.534 61.9132 190.104 62.1278 189.759 62.3892C189.414 62.6505 189.143 62.9865 188.947 63.3972C188.751 63.8078 188.62 64.3352 188.555 64.9792C188.798 64.4845 189.162 64.1018 189.647 63.8312C190.132 63.5512 190.697 63.4112 191.341 63.4112C192.032 63.4112 192.624 63.5558 193.119 63.8452C193.623 64.1252 194.006 64.5218 194.267 65.0352C194.538 65.5392 194.673 66.1225 194.673 66.7852C194.673 67.4945 194.533 68.1152 194.253 68.6472C193.973 69.1792 193.562 69.5945 193.021 69.8932C192.48 70.1918 191.817 70.3412 191.033 70.3412ZM191.033 69.2772C191.789 69.2772 192.372 69.0578 192.783 68.6192C193.203 68.1712 193.413 67.5785 193.413 66.8412C193.413 66.1225 193.208 65.5392 192.797 65.0912C192.386 64.6432 191.798 64.4192 191.033 64.4192C190.585 64.4192 190.179 64.5125 189.815 64.6992C189.46 64.8858 189.176 65.1612 188.961 65.5252C188.756 65.8798 188.653 66.3185 188.653 66.8412C188.653 67.3078 188.742 67.7278 188.919 68.1012C189.106 68.4652 189.376 68.7545 189.731 68.9692C190.086 69.1745 190.52 69.2772 191.033 69.2772ZM196.581 70.2012V62.9072H197.813V68.5492L201.901 62.8932H203.021V70.2012H201.789V64.6712L197.757 70.2012H196.581Z" fill="#01594D"/>
<rect x="210" y="15" width="103" height="32" rx="16" fill="#01594D"/>
<rect x="210" y="15" width="103" height="32" rx="16" stroke="#74A39D" stroke-width="1.2"/>
<path fill-rule="evenodd" clip-rule="evenodd" d="M227.464 25.4352C228.402 24.5162 229.674 24 231 24C232.326 24 233.598 24.5162 234.536 25.4352C235.473 26.3541 236 27.6004 236 28.9C236 32.575 231 38 231 38C231 38 226 32.575 226 28.9C226 27.6004 226.527 26.3541 227.464 25.4352ZM231 31.4004C232.105 31.4004 233 30.505 233 29.4004C233 28.2958 232.105 27.4004 231 27.4004C229.895 27.4004 229 28.2958 229 29.4004C229 30.505 229.895 31.4004 231 31.4004Z" fill="#FBFBFB"/>
<path d="M242.546 30.96C242.546 30.3533 242.649 29.7607 242.854 29.182C243.069 28.594 243.377 28.062 243.778 27.586C244.189 27.1007 244.688 26.718 245.276 26.438C245.864 26.1487 246.531 26.004 247.278 26.004C248.165 26.004 248.925 26.2093 249.56 26.62C250.195 27.0213 250.666 27.5393 250.974 28.174L249.98 28.818C249.784 28.398 249.532 28.0667 249.224 27.824C248.925 27.572 248.599 27.3947 248.244 27.292C247.899 27.1893 247.558 27.138 247.222 27.138C246.671 27.138 246.181 27.25 245.752 27.474C245.332 27.698 244.977 27.9967 244.688 28.37C244.399 28.7433 244.179 29.1633 244.03 29.63C243.89 30.0873 243.82 30.5493 243.82 31.016C243.82 31.5293 243.904 32.024 244.072 32.5C244.249 32.976 244.492 33.396 244.8 33.76C245.108 34.124 245.472 34.4133 245.892 34.628C246.312 34.8427 246.769 34.95 247.264 34.95C247.609 34.95 247.964 34.8893 248.328 34.768C248.692 34.6467 249.033 34.46 249.35 34.208C249.667 33.9467 249.919 33.6107 250.106 33.2L251.156 33.774C250.951 34.2687 250.633 34.6887 250.204 35.034C249.775 35.3793 249.294 35.6407 248.762 35.818C248.239 35.9953 247.721 36.084 247.208 36.084C246.527 36.084 245.901 35.9393 245.332 35.65C244.763 35.3513 244.268 34.9593 243.848 34.474C243.437 33.9793 243.115 33.4287 242.882 32.822C242.658 32.206 242.546 31.5853 242.546 30.96ZM254.735 36V29.784H252.215V28.692H258.487V29.784H255.967V36H254.735ZM264.079 36.14C263.481 36.14 262.949 35.9907 262.483 35.692C262.016 35.3933 261.647 35.0153 261.377 34.558V38.982H260.145V28.692H261.237V30.064C261.526 29.616 261.904 29.2567 262.371 28.986C262.837 28.706 263.346 28.566 263.897 28.566C264.401 28.566 264.863 28.6687 265.283 28.874C265.703 29.0793 266.067 29.3593 266.375 29.714C266.683 30.0687 266.921 30.4747 267.089 30.932C267.266 31.38 267.355 31.8513 267.355 32.346C267.355 33.0367 267.215 33.6713 266.935 34.25C266.664 34.8287 266.281 35.2907 265.787 35.636C265.292 35.972 264.723 36.14 264.079 36.14ZM263.701 35.076C264.065 35.076 264.391 35.0013 264.681 34.852C264.979 34.6933 265.231 34.488 265.437 34.236C265.651 33.9747 265.815 33.6807 265.927 33.354C266.039 33.0273 266.095 32.6913 266.095 32.346C266.095 31.982 266.029 31.6367 265.899 31.31C265.777 30.9833 265.6 30.694 265.367 30.442C265.143 30.19 264.877 29.994 264.569 29.854C264.27 29.7047 263.943 29.63 263.589 29.63C263.365 29.63 263.131 29.672 262.889 29.756C262.655 29.84 262.431 29.9613 262.217 30.12C262.002 30.2693 261.82 30.442 261.671 30.638C261.521 30.834 261.423 31.044 261.377 31.268V33.354C261.517 33.6713 261.703 33.9607 261.937 34.222C262.17 34.4833 262.441 34.6933 262.749 34.852C263.057 35.0013 263.374 35.076 263.701 35.076ZM269.287 36V28.692H270.519V36H269.287ZM269.287 27.32V25.78H270.519V27.32H269.287ZM272.29 36.056V34.95C272.532 34.95 272.747 34.8893 272.934 34.768C273.13 34.6373 273.302 34.4227 273.452 34.124C273.601 33.816 273.718 33.396 273.802 32.864C273.895 32.3227 273.956 31.6367 273.984 30.806L274.068 28.692H279.038V36H277.806V29.784H275.16L275.132 30.918C275.094 31.9167 275.01 32.7473 274.88 33.41C274.749 34.0727 274.567 34.5953 274.334 34.978C274.1 35.3607 273.811 35.636 273.466 35.804C273.13 35.972 272.738 36.056 272.29 36.056ZM281.434 36V28.692H282.666V31.702H283.478L285.774 28.692H287.174L284.444 32.234L287.496 36H286.068L283.478 32.836H282.666V36H281.434ZM289.113 36V28.706H290.345V34.348L294.433 28.692H295.553V36H294.321V30.47L290.289 36H289.113Z" fill="#FBFBFB"/>
</svg>
