<svg width="377" height="172" viewBox="0 0 377 172" fill="none" xmlns="http://www.w3.org/2000/svg">
<path d="M119.518 18.832L37.1787 8.37679C28.4125 7.26368 20.4038 13.4677 19.2907 22.2339C18.1776 31 24.3816 39.0088 33.1478 40.1219L115.487 50.5771C124.253 51.6902 132.262 45.4862 133.375 36.72C134.488 27.9538 128.284 19.9451 119.518 18.832Z" fill="#01594D"/>
<path fill-rule="evenodd" clip-rule="evenodd" d="M37.3168 18.9126C38.3628 18.1191 39.6895 17.7672 41.005 17.9342C42.3205 18.1013 43.5171 18.7736 44.3316 19.8033C45.146 20.833 45.5116 22.1358 45.3479 23.425C44.885 27.0707 39.2415 31.8227 39.2415 31.8227C39.2415 31.8227 34.9647 25.8111 35.4276 22.1654C35.5913 20.8761 36.2709 19.7061 37.3168 18.9126ZM40.0728 25.2757C41.1686 25.4148 42.1697 24.6393 42.3088 23.5435C42.4479 22.4478 41.6724 21.4467 40.5767 21.3075C39.4809 21.1684 38.4798 21.9439 38.3407 23.0397C38.2015 24.1354 38.977 25.1365 40.0728 25.2757Z" fill="#FBFBFB"/>
<path d="M59.8083 23.5284L56.4056 23.0964L55.2946 31.8461L54.0446 31.6874L55.1556 22.9376L51.7529 22.5056L51.894 21.3945L59.9493 22.4173L59.8083 23.5284ZM59.2001 32.342L60.1188 25.1061L61.341 25.2613L60.6303 30.8584L65.3982 25.7624L66.5093 25.9034L65.5888 33.1532L64.3666 32.998L65.0632 27.5121L60.3667 32.4902L59.2001 32.342ZM71.1489 34.0004C70.6026 33.931 70.1149 33.7703 69.6859 33.5183C69.2674 33.2581 68.9138 32.931 68.6251 32.5368C68.3457 32.1438 68.1423 31.7087 68.0147 31.2315C67.8964 30.7555 67.8695 30.2628 67.9342 29.7536C68.0212 29.0684 68.2533 28.4629 68.6306 27.9369C69.0079 27.4109 69.4954 27.0165 70.0933 26.7537C70.6923 26.4816 71.3576 26.3921 72.089 26.4849C72.802 26.5755 73.4018 26.8163 73.8884 27.2073C74.3854 27.5903 74.7295 28.0668 74.9205 28.6367L73.6785 28.8601C73.5368 28.494 73.3111 28.1972 73.0013 27.9697C72.6926 27.7329 72.3346 27.5887 71.9272 27.5369C71.4828 27.4805 71.0607 27.5445 70.661 27.729C70.2705 27.9146 69.9429 28.1976 69.6782 28.5779C69.4147 28.949 69.25 29.3938 69.1842 29.9123C69.1195 30.4216 69.1672 30.898 69.3273 31.3417C69.4977 31.7773 69.7482 32.1384 70.0788 32.425C70.4186 32.7128 70.8107 32.8849 71.2551 32.9413C71.5421 32.9778 71.8217 32.9615 72.0939 32.8926C72.3754 32.8248 72.6239 32.72 72.8395 32.578C73.0655 32.4279 73.2285 32.2558 73.3285 32.0615L74.477 32.5742C74.2842 32.9073 74.0174 33.1933 73.6766 33.4322C73.3462 33.6631 72.9627 33.8308 72.526 33.9353C72.0986 34.041 71.6396 34.0627 71.1489 34.0004ZM79.1462 35.0159C78.6 34.9465 78.117 34.7864 77.6972 34.5355C77.2786 34.2754 76.9291 33.9534 76.6485 33.5697C76.3691 33.1767 76.1703 32.7422 76.052 32.2662C75.9336 31.7902 75.9062 31.3021 75.9697 30.8022C76.0344 30.2929 76.1835 29.8226 76.417 29.3913C76.6505 28.9599 76.9511 28.5935 77.3187 28.2921C77.6874 27.9814 78.1063 27.757 78.5754 27.619C79.055 27.4729 79.5679 27.4346 80.1142 27.504C80.6512 27.5721 81.129 27.7363 81.5476 27.9964C81.9673 28.2473 82.3169 28.5692 82.5963 28.9622C82.8861 29.3471 83.0902 29.7776 83.2085 30.2536C83.3268 30.7297 83.3536 31.2223 83.289 31.7315C83.2255 32.2315 83.077 32.6972 82.8434 33.1285C82.6099 33.5599 82.3088 33.9309 81.94 34.2416C81.5725 34.543 81.1489 34.7668 80.6693 34.9129C80.2002 35.0509 79.6925 35.0852 79.1462 35.0159ZM77.2179 30.9748C77.1544 31.4748 77.2033 31.942 77.3645 32.3764C77.535 32.812 77.7855 33.1731 78.1161 33.4597C78.4478 33.737 78.8358 33.9039 79.2803 33.9603C79.7247 34.0168 80.1428 33.9475 80.5344 33.7527C80.9353 33.559 81.2682 33.2719 81.5328 32.8916C81.808 32.5031 81.9773 32.0589 82.0408 31.5589C82.1042 31.0589 82.0507 30.5911 81.8803 30.1555C81.719 29.7211 81.4685 29.36 81.1287 29.0722C80.7982 28.7857 80.4107 28.6141 79.9663 28.5577C79.5219 28.5013 79.1032 28.5751 78.7104 28.7793C78.3187 28.9742 77.9859 29.2612 77.7119 29.6404C77.4473 30.0207 77.2826 30.4655 77.2179 30.9748ZM84.7142 35.5817L85.6347 28.3319L89.3846 28.8081C89.8198 28.8634 90.1697 28.9972 90.4344 29.2095C90.7003 29.4126 90.8856 29.6573 90.9904 29.9434C91.1045 30.2307 91.1421 30.5272 91.1033 30.8327C91.0539 31.2216 90.9166 31.5617 90.6915 31.853C90.4675 32.135 90.1696 32.3324 89.7978 32.4451C90.1991 32.6184 90.5095 32.8789 90.7287 33.2266C90.9492 33.5651 91.0306 33.9612 90.973 34.4148C90.9213 34.8222 90.78 35.1571 90.5491 35.4194C90.3182 35.6818 90.0169 35.8693 89.645 35.982C89.2744 36.0855 88.8576 36.1079 88.3946 36.0491L84.7142 35.5817ZM85.9901 34.8688L88.4762 35.1845C88.6984 35.2127 88.9045 35.1824 89.0945 35.0936C89.2938 35.006 89.4562 34.8761 89.5815 34.7039C89.7069 34.5316 89.7825 34.3436 89.8084 34.1399C89.8366 33.9177 89.8109 33.7122 89.7314 33.5233C89.6623 33.3264 89.5463 33.1658 89.3833 33.0417C89.2308 32.9094 89.0434 32.8291 88.8212 32.8009L86.2935 32.48L85.9901 34.8688ZM86.3958 31.6744L88.6596 31.9619C88.8818 31.9901 89.0833 31.9592 89.2641 31.8693C89.446 31.7701 89.595 31.6338 89.7111 31.4604C89.8272 31.2869 89.8982 31.0984 89.9241 30.8947C89.9629 30.5891 89.8945 30.3123 89.7191 30.0642C89.5528 29.8173 89.3123 29.6739 88.9975 29.6339L86.692 29.3412L86.3958 31.6744ZM92.6854 36.5939L93.6042 29.358L94.8264 29.5132L94.1157 35.1103L98.8836 30.0143L99.9947 30.1553L99.0741 37.4051L97.8519 37.2499L98.5485 31.764L93.852 36.742L92.6854 36.5939ZM106.935 40.1391L107.152 38.4308L101.43 37.7042L102.35 30.4544L103.573 30.6096L102.788 36.79L106.149 37.2168L106.934 31.0364L108.156 31.1916L107.371 37.372L108.371 37.4989L108.018 40.2766L106.935 40.1391ZM109.47 38.7252L111.896 36.0696C111.435 35.917 111.084 35.6466 110.842 35.2583C110.601 34.8608 110.518 34.3611 110.595 33.7593C110.65 33.3241 110.8 32.9528 111.046 32.6453C111.292 32.3379 111.608 32.1098 111.994 31.9612C112.389 31.8138 112.832 31.7713 113.323 31.8336L116.295 32.211L115.373 39.4747L114.15 39.3195L114.496 36.5973L113.08 36.4174L110.817 38.8962L109.47 38.7252ZM112.944 35.483L114.611 35.6946L114.951 33.0141L113.423 32.8201C112.988 32.7649 112.625 32.8458 112.334 33.0628C112.044 33.2707 111.875 33.5644 111.827 33.944C111.779 34.3236 111.844 34.6612 112.023 34.9567C112.211 35.2535 112.518 35.4289 112.944 35.483Z" fill="#FBFBFB"/>
<path d="M119.518 18.832L37.1787 8.37679C28.4125 7.26368 20.4038 13.4677 19.2907 22.2339C18.1776 31 24.3816 39.0088 33.1478 40.1219L115.487 50.5771C124.253 51.6902 132.262 45.4862 133.375 36.72C134.488 27.9538 128.284 19.9451 119.518 18.832Z" stroke="#74A39D" stroke-width="1.2"/>
<path d="M121.069 95.0208L46.4641 114.078C37.9025 116.265 32.7348 124.979 34.9219 133.54C37.1089 142.102 45.8224 147.27 54.3841 145.083L128.988 126.025C137.55 123.838 142.718 115.125 140.531 106.563C138.344 98.0014 129.63 92.8338 121.069 95.0208Z" fill="#01594D"/>
<path fill-rule="evenodd" clip-rule="evenodd" d="M50.4655 123.826C51.1466 122.704 52.251 121.889 53.5358 121.56C54.8207 121.232 56.1806 121.418 57.3166 122.076C58.4525 122.734 59.2714 123.811 59.593 125.07C60.5026 128.631 57.0008 135.125 57.0008 135.125C57.0008 135.125 50.8137 131.106 49.9041 127.545C49.5825 126.286 49.7844 124.948 50.4655 123.826ZM55.3674 128.731C56.4376 128.457 57.0836 127.368 56.8102 126.298C56.5368 125.228 55.4476 124.582 54.3774 124.855C53.3072 125.128 52.6613 126.218 52.9347 127.288C53.208 128.358 54.2972 129.004 55.3674 128.731Z" fill="#FBFBFB"/>
<path d="M68.3165 130.17L65.8564 120.54L73.2897 118.641L75.7498 128.272L74.529 128.583L72.3461 120.038L67.3544 121.313L69.5373 129.859L68.3165 130.17ZM77.6596 127.842L77.3859 126.77C77.621 126.71 77.814 126.598 77.9648 126.434C78.1224 126.259 78.2367 126.008 78.3074 125.682C78.3758 125.347 78.3849 124.911 78.3346 124.375C78.291 123.827 78.18 123.147 78.0016 122.336L77.5597 120.267L82.3751 119.037L84.1838 126.117L82.9902 126.422L81.4517 120.4L78.888 121.054L79.1416 122.16C79.3526 123.137 79.4768 123.962 79.5142 124.637C79.5516 125.311 79.5046 125.863 79.3732 126.291C79.2419 126.72 79.0297 127.058 78.7367 127.306C78.4527 127.552 78.0937 127.731 77.6596 127.842ZM89.646 124.866C89.1124 125.003 88.6044 125.031 88.1218 124.952C87.6369 124.864 87.1936 124.693 86.7915 124.44C86.3872 124.177 86.0426 123.846 85.7576 123.447C85.4726 123.047 85.2677 122.604 85.143 122.115C85.0159 121.618 84.9817 121.126 85.0403 120.639C85.099 120.152 85.2438 119.701 85.4748 119.285C85.7036 118.861 86.0107 118.498 86.3962 118.197C86.7885 117.885 87.2514 117.661 87.785 117.525C88.3095 117.391 88.8142 117.368 89.299 117.456C89.7816 117.535 90.225 117.706 90.6293 117.968C91.0403 118.22 91.3883 118.545 91.6733 118.944C91.9584 119.344 92.1644 119.792 92.2914 120.289C92.4162 120.778 92.4492 121.265 92.3906 121.752C92.332 122.239 92.1883 122.695 91.9596 123.119C91.7285 123.535 91.4169 123.899 91.0246 124.211C90.639 124.512 90.1796 124.73 89.646 124.866ZM86.3672 121.817C86.492 122.305 86.7092 122.722 87.0188 123.067C87.3375 123.409 87.7032 123.653 88.1159 123.798C88.5263 123.934 88.9486 123.946 89.3826 123.836C89.8167 123.725 90.18 123.507 90.4726 123.181C90.7743 122.854 90.9783 122.465 91.0846 122.014C91.1977 121.551 91.1919 121.076 91.0672 120.588C90.9424 120.099 90.7207 119.684 90.4021 119.341C90.0924 118.997 89.7267 118.753 89.3049 118.61C88.8922 118.465 88.4688 118.448 88.0347 118.559C87.6007 118.67 87.2386 118.892 86.9482 119.227C86.6556 119.552 86.4517 119.941 86.3363 120.394C86.2299 120.845 86.2402 121.32 86.3672 121.817ZM94.4356 123.556L94.1618 122.485C94.3969 122.425 94.5899 122.313 94.7408 122.149C94.8983 121.974 95.0125 121.723 95.0832 121.397C95.1517 121.061 95.1609 120.626 95.1105 120.089C95.067 119.542 94.956 118.862 94.7775 118.05L94.3357 115.981L99.151 114.751L100.96 121.832L99.7661 122.137L98.2276 116.114L95.664 116.769L95.9175 117.875C96.1285 118.852 96.2527 119.677 96.2901 120.352C96.3275 121.026 96.2805 121.577 96.1492 122.006C96.0178 122.434 95.8056 122.773 95.5126 123.021C95.2286 123.267 94.8696 123.445 94.4356 123.556ZM106.463 120.571C105.929 120.707 105.417 120.737 104.925 120.66C104.44 120.572 103.991 120.398 103.578 120.137C103.173 119.874 102.824 119.545 102.53 119.148C102.245 118.749 102.039 118.3 101.912 117.803C101.741 117.134 101.734 116.485 101.892 115.857C102.049 115.229 102.358 114.683 102.817 114.219C103.274 113.746 103.86 113.418 104.575 113.236C105.271 113.058 105.917 113.061 106.513 113.246C107.117 113.42 107.612 113.736 107.999 114.196L106.926 114.86C106.659 114.572 106.34 114.379 105.969 114.281C105.595 114.175 105.209 114.172 104.811 114.274C104.377 114.385 104.008 114.599 103.704 114.918C103.409 115.234 103.208 115.617 103.102 116.068C102.993 116.51 103.004 116.985 103.133 117.491C103.26 117.988 103.479 118.414 103.791 118.768C104.11 119.11 104.476 119.354 104.888 119.499C105.31 119.642 105.738 119.658 106.172 119.547C106.453 119.475 106.707 119.357 106.934 119.193C107.171 119.027 107.364 118.838 107.512 118.626C107.667 118.404 107.755 118.184 107.777 117.966L109.034 118.021C108.977 118.402 108.834 118.766 108.605 119.113C108.382 119.449 108.087 119.746 107.72 120.004C107.361 120.259 106.942 120.448 106.463 120.571ZM111.199 119.216L109.39 112.136L110.584 111.831L111.329 114.747L112.115 114.546L113.595 111.062L114.951 110.715L113.183 114.823L117.072 117.716L115.689 118.069L112.396 115.645L111.609 115.846L112.392 118.911L111.199 119.216ZM121.45 116.742C120.917 116.878 120.404 116.908 119.913 116.832C119.428 116.743 118.98 116.574 118.569 116.322C118.164 116.06 117.815 115.73 117.521 115.333C117.236 114.934 117.03 114.485 116.903 113.988C116.732 113.319 116.73 112.669 116.897 112.039C117.063 111.409 117.375 110.857 117.832 110.384C118.298 109.908 118.884 109.581 119.589 109.4C120.304 109.218 120.967 109.231 121.579 109.441C122.198 109.639 122.723 109.977 123.153 110.455C123.59 110.921 123.89 111.471 124.051 112.104C124.074 112.195 124.093 112.286 124.107 112.379C124.128 112.46 124.14 112.525 124.142 112.572L118.269 114.073C118.423 114.525 118.654 114.904 118.964 115.21C119.28 115.505 119.641 115.711 120.047 115.829C120.45 115.938 120.855 115.94 121.262 115.837C121.696 115.726 122.076 115.513 122.4 115.199C122.733 114.883 122.927 114.53 122.982 114.14L124.086 114.162C124.02 114.545 123.868 114.911 123.629 115.261C123.4 115.608 123.097 115.912 122.721 116.172C122.353 116.43 121.93 116.62 121.45 116.742ZM118.017 113.256L122.845 112.022C122.692 111.57 122.456 111.197 122.14 110.902C121.824 110.607 121.464 110.405 121.061 110.296C120.657 110.187 120.243 110.187 119.818 110.296C119.402 110.402 119.043 110.6 118.741 110.889C118.439 111.178 118.22 111.527 118.085 111.938C117.958 112.346 117.935 112.785 118.017 113.256Z" fill="#FBFBFB"/>
<path d="M121.069 95.0208L46.4641 114.078C37.9025 116.265 32.7348 124.979 34.9219 133.54C37.1089 142.102 45.8224 147.27 54.3841 145.083L128.988 126.025C137.55 123.838 142.718 115.125 140.531 106.563C138.344 98.0014 129.63 92.8338 121.069 95.0208Z" stroke="#74A39D" stroke-width="1.2"/>
<path d="M345.653 57.3645L266.032 42.4793C257.346 40.8555 248.989 46.5805 247.365 55.2666C245.741 63.9526 251.466 72.3105 260.152 73.9344L339.772 88.8196C348.458 90.4434 356.816 84.7184 358.44 76.0323C360.064 67.3463 354.339 58.9884 345.653 57.3645Z" fill="#01594D"/>
<path fill-rule="evenodd" clip-rule="evenodd" d="M265.555 53.0061C266.645 52.2752 267.99 52.0014 269.294 52.2451C270.597 52.4888 271.752 53.23 272.505 54.3056C273.258 55.3812 273.547 56.7031 273.308 57.9805C272.633 61.5929 266.721 66.0067 266.721 66.0067C266.721 66.0067 262.803 59.7552 263.478 56.1428C263.717 54.8654 264.464 53.7371 265.555 53.0061ZM267.934 59.5195C269.02 59.7225 270.064 59.0068 270.267 57.9211C270.47 56.8353 269.755 55.7906 268.669 55.5876C267.583 55.3846 266.538 56.1002 266.335 57.186C266.132 58.2718 266.848 59.3165 267.934 59.5195Z" fill="#FBFBFB"/>
<path d="M288.755 57.9788L286.929 67.7496L285.69 67.518L286.521 63.073L281.14 62.0671L280.309 66.5121L279.071 66.2805L280.898 56.5098L282.136 56.7413L281.346 60.9661L286.727 61.9721L287.517 57.7473L288.755 57.9788ZM292.524 68.9379C291.982 68.8367 291.505 68.6478 291.091 68.3711C290.689 68.0869 290.354 67.7442 290.087 67.343C289.831 66.9344 289.654 66.4881 289.554 66.0043C289.464 65.5221 289.466 65.0288 289.56 64.5242C289.687 63.8453 289.959 63.2552 290.375 62.7539C290.792 62.2525 291.307 61.8836 291.921 61.6471C292.544 61.4122 293.214 61.3617 293.929 61.4955C294.654 61.631 295.25 61.9228 295.717 62.3709C296.195 62.8115 296.528 63.3391 296.717 63.9537C296.917 64.5607 296.957 65.1854 296.837 65.8276C296.819 65.9193 296.798 66.0102 296.771 66.1002C296.756 66.1828 296.739 66.2462 296.722 66.2903L290.763 65.1763C290.712 65.6511 290.762 66.0925 290.914 66.5006C291.077 66.9013 291.317 67.2406 291.635 67.5185C291.955 67.7873 292.322 67.9602 292.735 68.0374C293.175 68.1197 293.608 68.0868 294.035 67.9387C294.471 67.7922 294.795 67.5538 295.009 67.2235L296.001 67.708C295.78 68.0275 295.487 68.2957 295.124 68.5126C294.77 68.7312 294.367 68.8791 293.916 68.9561C293.474 69.0349 293.01 69.0288 292.524 68.9379ZM290.879 64.3291L295.778 65.245C295.828 64.7703 295.773 64.3326 295.61 63.9319C295.448 63.5312 295.206 63.1965 294.886 62.9278C294.566 62.659 294.191 62.4844 293.759 62.4038C293.337 62.3249 292.929 62.3529 292.533 62.4878C292.138 62.6228 291.792 62.8477 291.495 63.1626C291.208 63.4793 291.003 63.8681 290.879 64.3291ZM296.799 71.3467L297.316 68.5806L297.468 68.6089C297.67 68.6466 297.864 68.6213 298.052 68.5329C298.248 68.4462 298.438 68.2681 298.622 67.9985C298.816 67.7215 299.003 67.3293 299.183 66.8217C299.364 66.3142 299.543 65.6594 299.722 64.8572L300.179 62.7921L305.064 63.7054L303.922 69.8155L304.899 69.9982L304.382 72.7643L303.308 72.5636L303.625 70.8709L298.189 69.8547L297.873 71.5474L296.799 71.3467ZM299.16 68.9254L302.711 69.5891L303.653 64.5524L301.052 64.0661L300.802 65.1731C300.629 65.9478 300.451 66.5935 300.269 67.1101C300.098 67.6194 299.919 68.0179 299.732 68.3058C299.554 68.5955 299.364 68.802 299.16 68.9254ZM306.457 71.4004L307.8 64.2169L309.011 64.4433L307.668 71.6268L306.457 71.4004ZM308.052 62.8683L308.335 61.3545L309.546 61.5809L309.263 63.0947L308.052 62.8683ZM309.398 72.0073L309.602 70.9201C309.84 70.9647 310.062 70.9445 310.268 70.8595C310.485 70.7671 310.694 70.5878 310.896 70.3217C311.099 70.0464 311.291 69.655 311.471 69.1475C311.663 68.6325 311.848 67.9694 312.028 67.158L312.499 65.0954L317.385 66.0087L316.042 73.1923L314.831 72.9659L315.973 66.8557L313.372 66.3695L313.136 67.479C312.916 68.4538 312.681 69.2549 312.431 69.8823C312.18 70.5097 311.905 70.99 311.606 71.3232C311.306 71.6565 310.971 71.874 310.601 71.9757C310.24 72.0791 309.839 72.0896 309.398 72.0073ZM318.397 73.6325L319.74 66.449L320.951 66.6754L320.493 69.125L322.282 69.4594C323.126 69.6172 323.723 69.952 324.074 70.4638C324.435 70.9682 324.552 71.5644 324.423 72.2525C324.337 72.7112 324.164 73.106 323.902 73.437C323.65 73.7697 323.321 74.0072 322.915 74.1496C322.508 74.292 322.03 74.3118 321.479 74.2088L318.397 73.6325ZM319.785 72.9094L321.492 73.2284C321.831 73.2919 322.114 73.2783 322.34 73.1875C322.576 73.0894 322.766 72.9396 322.908 72.7383C323.05 72.537 323.145 72.3079 323.193 72.051C323.239 71.8033 323.236 71.5654 323.184 71.3372C323.132 71.1091 323.012 70.911 322.825 70.7431C322.638 70.5752 322.361 70.457 321.994 70.3884L320.315 70.0745L319.785 72.9094ZM325.69 74.9961L327.033 67.8126L328.244 68.039L327.689 71.0115L331.432 71.7112L331.988 68.7387L333.199 68.9652L331.856 76.1487L330.645 75.9223L331.231 72.7847L327.488 72.0849L326.901 75.2225L325.69 74.9961ZM334.045 74.4074C334.131 73.9487 334.333 73.5782 334.652 73.2959C334.981 73.0062 335.392 72.8125 335.885 72.7148C336.378 72.617 336.928 72.6248 337.533 72.738C337.854 72.798 338.189 72.889 338.536 73.0109C338.885 73.1237 339.188 73.2563 339.445 73.4086L339.542 72.8857C339.645 72.3352 339.561 71.8732 339.289 71.4995C339.018 71.1166 338.581 70.8686 337.975 70.7554C337.581 70.6817 337.186 70.6839 336.792 70.7621C336.408 70.8328 335.99 70.9634 335.536 71.154L335.255 70.2185C335.783 69.9848 336.296 69.8338 336.793 69.7653C337.292 69.6876 337.793 69.696 338.298 69.7903C339.215 69.9618 339.892 70.3542 340.328 70.9674C340.766 71.5715 340.9 72.3277 340.73 73.2359L340.162 76.2773C340.134 76.424 340.141 76.5393 340.182 76.623C340.235 76.6992 340.329 76.7548 340.465 76.7897L340.29 77.7254C340.167 77.7215 340.059 77.7155 339.965 77.7076C339.881 77.7013 339.811 77.693 339.756 77.6827C339.472 77.6296 339.271 77.5113 339.153 77.3279C339.045 77.1462 338.998 76.9665 339.012 76.7887L339.069 76.3294C338.682 76.6748 338.215 76.9104 337.67 77.0362C337.124 77.1621 336.603 77.1787 336.108 77.0861C335.631 76.9969 335.222 76.8208 334.882 76.5578C334.544 76.2857 334.3 75.9647 334.151 75.595C334.003 75.2161 333.968 74.8202 334.045 74.4074ZM338.629 75.7913C338.763 75.6834 338.874 75.5713 338.962 75.4549C339.052 75.3292 339.106 75.2206 339.123 75.1288L339.29 74.2343C339.026 74.0711 338.744 73.9327 338.442 73.8194C338.142 73.6968 337.841 73.6073 337.538 73.5507C336.923 73.4358 336.4 73.4661 335.968 73.6418C335.548 73.81 335.298 74.1051 335.219 74.5272C335.176 74.7565 335.194 74.9924 335.272 75.2349C335.361 75.4699 335.512 75.6786 335.725 75.8608C335.947 76.0447 336.236 76.1701 336.594 76.237C336.97 76.3073 337.342 76.3008 337.709 76.2175C338.077 76.125 338.384 75.9829 338.629 75.7913Z" fill="#FBFBFB"/>
<path d="M345.653 57.3645L266.032 42.4793C257.346 40.8555 248.989 46.5805 247.365 55.2666C245.741 63.9526 251.466 72.3105 260.152 73.9344L339.772 88.8196C348.458 90.4434 356.816 84.7184 358.44 76.0323C360.064 67.3463 354.339 58.9884 345.653 57.3645Z" stroke="#74A39D" stroke-width="1.2"/>
<path d="M304.24 78.2012H153.24C144.403 78.2012 137.24 85.3646 137.24 94.2012C137.24 103.038 144.403 110.201 153.24 110.201H304.24C313.077 110.201 320.24 103.038 320.24 94.2012C320.24 85.3646 313.077 78.2012 304.24 78.2012Z" fill="#01594D"/>
<path fill-rule="evenodd" clip-rule="evenodd" d="M154.705 88.6363C155.642 87.7174 156.914 87.2012 158.24 87.2012C159.566 87.2012 160.838 87.7174 161.776 88.6363C162.713 89.5553 163.24 90.8016 163.24 92.1012C163.24 95.7762 158.24 101.201 158.24 101.201C158.24 101.201 153.24 95.7762 153.24 92.1012C153.24 90.8016 153.767 89.5553 154.705 88.6363ZM158.24 94.6016C159.345 94.6016 160.24 93.7061 160.24 92.6016C160.24 91.497 159.345 90.6016 158.24 90.6016C157.136 90.6016 156.24 91.497 156.24 92.6016C156.24 93.7061 157.136 94.6016 158.24 94.6016Z" fill="#FBFBFB"/>
<path d="M169.786 94.1615C169.786 93.5548 169.889 92.9621 170.094 92.3835C170.309 91.7955 170.617 91.2635 171.018 90.7875C171.429 90.3021 171.928 89.9195 172.516 89.6395C173.104 89.3501 173.772 89.2055 174.518 89.2055C175.405 89.2055 176.166 89.4108 176.8 89.8215C177.435 90.2228 177.906 90.7408 178.214 91.3755L177.22 92.0195C177.024 91.5995 176.772 91.2681 176.464 91.0255C176.166 90.7735 175.839 90.5961 175.484 90.4935C175.139 90.3908 174.798 90.3395 174.462 90.3395C173.912 90.3395 173.422 90.4515 172.992 90.6755C172.572 90.8995 172.218 91.1981 171.928 91.5715C171.639 91.9448 171.42 92.3648 171.27 92.8315C171.13 93.2888 171.06 93.7508 171.06 94.2175C171.06 94.7308 171.144 95.2255 171.312 95.7015C171.49 96.1775 171.732 96.5975 172.04 96.9615C172.348 97.3255 172.712 97.6148 173.132 97.8295C173.552 98.0441 174.01 98.1515 174.504 98.1515C174.85 98.1515 175.204 98.0908 175.568 97.9695C175.932 97.8481 176.273 97.6615 176.59 97.4095C176.908 97.1481 177.16 96.8121 177.346 96.4015L178.396 96.9755C178.191 97.4701 177.874 97.8901 177.444 98.2355C177.015 98.5808 176.534 98.8421 176.002 99.0195C175.48 99.1968 174.962 99.2855 174.448 99.2855C173.767 99.2855 173.142 99.1408 172.572 98.8515C172.003 98.5528 171.508 98.1608 171.088 97.6755C170.678 97.1808 170.356 96.6301 170.122 96.0235C169.898 95.4075 169.786 94.7868 169.786 94.1615ZM179.623 97.0875C179.623 96.6208 179.754 96.2195 180.015 95.8835C180.286 95.5381 180.655 95.2721 181.121 95.0855C181.588 94.8988 182.129 94.8055 182.745 94.8055C183.072 94.8055 183.417 94.8335 183.781 94.8895C184.145 94.9361 184.467 95.0108 184.747 95.1135V94.5815C184.747 94.0215 184.579 93.5828 184.243 93.2655C183.907 92.9388 183.431 92.7755 182.815 92.7755C182.414 92.7755 182.027 92.8501 181.653 92.9995C181.289 93.1395 180.902 93.3448 180.491 93.6155L180.043 92.7475C180.519 92.4208 180.995 92.1781 181.471 92.0195C181.947 91.8515 182.442 91.7675 182.955 91.7675C183.889 91.7675 184.626 92.0288 185.167 92.5515C185.709 93.0648 185.979 93.7835 185.979 94.7075V97.8015C185.979 97.9508 186.007 98.0628 186.063 98.1375C186.129 98.2028 186.231 98.2401 186.371 98.2495V99.2015C186.25 99.2201 186.143 99.2341 186.049 99.2435C185.965 99.2528 185.895 99.2575 185.839 99.2575C185.55 99.2575 185.331 99.1781 185.181 99.0195C185.041 98.8608 184.962 98.6928 184.943 98.5155L184.915 98.0535C184.598 98.4641 184.183 98.7815 183.669 99.0055C183.156 99.2295 182.647 99.3415 182.143 99.3415C181.658 99.3415 181.224 99.2435 180.841 99.0475C180.459 98.8421 180.16 98.5715 179.945 98.2355C179.731 97.8901 179.623 97.5075 179.623 97.0875ZM184.383 97.6055C184.495 97.4748 184.584 97.3441 184.649 97.2135C184.715 97.0735 184.747 96.9568 184.747 96.8635V95.9535C184.458 95.8415 184.155 95.7575 183.837 95.7015C183.52 95.6361 183.207 95.6035 182.899 95.6035C182.274 95.6035 181.765 95.7295 181.373 95.9815C180.991 96.2241 180.799 96.5601 180.799 96.9895C180.799 97.2228 180.86 97.4515 180.981 97.6755C181.112 97.8901 181.299 98.0675 181.541 98.2075C181.793 98.3475 182.101 98.4175 182.465 98.4175C182.848 98.4175 183.212 98.3428 183.557 98.1935C183.903 98.0348 184.178 97.8388 184.383 97.6055ZM187.557 100.923V98.1095H187.711C187.916 98.1095 188.103 98.0488 188.271 97.9275C188.448 97.8061 188.602 97.5961 188.733 97.2975C188.873 96.9895 188.985 96.5695 189.069 96.0375C189.153 95.5055 189.209 94.8288 189.237 94.0075L189.307 91.8935H194.277V98.1095H195.271V100.923H194.179V99.2015H188.649V100.923H187.557ZM189.433 98.1095H193.045V92.9855H190.399L190.357 94.1195C190.329 94.9128 190.273 95.5801 190.189 96.1215C190.114 96.6535 190.012 97.0781 189.881 97.3955C189.76 97.7128 189.61 97.9508 189.433 98.1095ZM197.047 99.2015V91.9075H198.279V97.5495L202.367 91.8935H203.487V99.2015H202.255V93.6715L198.223 99.2015H197.047ZM209.319 99.3415C208.115 99.3415 207.205 98.9775 206.589 98.2495C205.973 97.5215 205.665 96.4948 205.665 95.1695C205.665 94.2641 205.74 93.5035 205.889 92.8875C206.039 92.2621 206.263 91.7488 206.561 91.3475C206.86 90.9368 207.229 90.6055 207.667 90.3535C208.106 90.0921 208.61 89.8775 209.179 89.7095L212.273 88.7715L212.343 89.8355L209.333 90.7455C208.82 90.9135 208.391 91.1281 208.045 91.3895C207.7 91.6508 207.429 91.9868 207.233 92.3975C207.037 92.8081 206.907 93.3355 206.841 93.9795C207.084 93.4848 207.448 93.1021 207.933 92.8315C208.419 92.5515 208.983 92.4115 209.627 92.4115C210.318 92.4115 210.911 92.5561 211.405 92.8455C211.909 93.1255 212.292 93.5221 212.553 94.0355C212.824 94.5395 212.959 95.1228 212.959 95.7855C212.959 96.4948 212.819 97.1155 212.539 97.6475C212.259 98.1795 211.849 98.5948 211.307 98.8935C210.766 99.1921 210.103 99.3415 209.319 99.3415ZM209.319 98.2775C210.075 98.2775 210.659 98.0581 211.069 97.6195C211.489 97.1715 211.699 96.5788 211.699 95.8415C211.699 95.1228 211.494 94.5395 211.083 94.0915C210.673 93.6435 210.085 93.4195 209.319 93.4195C208.871 93.4195 208.465 93.5128 208.101 93.6995C207.747 93.8861 207.462 94.1615 207.247 94.5255C207.042 94.8801 206.939 95.3188 206.939 95.8415C206.939 96.3081 207.028 96.7281 207.205 97.1015C207.392 97.4655 207.663 97.7548 208.017 97.9695C208.372 98.1748 208.806 98.2775 209.319 98.2775ZM214.307 97.0875C214.307 96.6208 214.438 96.2195 214.699 95.8835C214.97 95.5381 215.338 95.2721 215.805 95.0855C216.272 94.8988 216.813 94.8055 217.429 94.8055C217.756 94.8055 218.101 94.8335 218.465 94.8895C218.829 94.9361 219.151 95.0108 219.431 95.1135V94.5815C219.431 94.0215 219.263 93.5828 218.927 93.2655C218.591 92.9388 218.115 92.7755 217.499 92.7755C217.098 92.7755 216.71 92.8501 216.337 92.9995C215.973 93.1395 215.586 93.3448 215.175 93.6155L214.727 92.7475C215.203 92.4208 215.679 92.1781 216.155 92.0195C216.631 91.8515 217.126 91.7675 217.639 91.7675C218.572 91.7675 219.31 92.0288 219.851 92.5515C220.392 93.0648 220.663 93.7835 220.663 94.7075V97.8015C220.663 97.9508 220.691 98.0628 220.747 98.1375C220.812 98.2028 220.915 98.2401 221.055 98.2495V99.2015C220.934 99.2201 220.826 99.2341 220.733 99.2435C220.649 99.2528 220.579 99.2575 220.523 99.2575C220.234 99.2575 220.014 99.1781 219.865 99.0195C219.725 98.8608 219.646 98.6928 219.627 98.5155L219.599 98.0535C219.282 98.4641 218.866 98.7815 218.353 99.0055C217.84 99.2295 217.331 99.3415 216.827 99.3415C216.342 99.3415 215.908 99.2435 215.525 99.0475C215.142 98.8421 214.844 98.5715 214.629 98.2355C214.414 97.8901 214.307 97.5075 214.307 97.0875ZM219.067 97.6055C219.179 97.4748 219.268 97.3441 219.333 97.2135C219.398 97.0735 219.431 96.9568 219.431 96.8635V95.9535C219.142 95.8415 218.838 95.7575 218.521 95.7015C218.204 95.6361 217.891 95.6035 217.583 95.6035C216.958 95.6035 216.449 95.7295 216.057 95.9815C215.674 96.2241 215.483 96.5601 215.483 96.9895C215.483 97.2228 215.544 97.4515 215.665 97.6755C215.796 97.8901 215.982 98.0675 216.225 98.2075C216.477 98.3475 216.785 98.4175 217.149 98.4175C217.532 98.4175 217.896 98.3428 218.241 98.1935C218.586 98.0348 218.862 97.8388 219.067 97.6055ZM226.58 95.2815L230.122 92.7475V93.7835L227.574 95.5755L230.122 97.3255V98.3615L226.58 95.9255V95.2815ZM229.968 95.2815L233.51 92.7475V93.7835L230.962 95.5755L233.51 97.3255V98.3615L229.968 95.9255V95.2815ZM235.97 99.2015V89.2615H242.788V90.3675H237.23V93.5035H240.338C241.43 93.5035 242.242 93.7601 242.774 94.2735C243.315 94.7868 243.586 95.4588 243.586 96.2895C243.586 96.8401 243.469 97.3348 243.236 97.7735C243.003 98.2121 242.653 98.5621 242.186 98.8235C241.719 99.0755 241.131 99.2015 240.422 99.2015H235.97ZM237.23 98.0955H240.268C240.753 98.0955 241.145 98.0068 241.444 97.8295C241.743 97.6521 241.957 97.4235 242.088 97.1435C242.228 96.8541 242.298 96.5555 242.298 96.2475C242.298 95.9488 242.237 95.6688 242.116 95.4075C241.995 95.1368 241.785 94.9221 241.486 94.7635C241.187 94.5955 240.767 94.5115 240.226 94.5115H237.23V98.0955ZM248.629 99.3415C248.078 99.3415 247.574 99.2435 247.117 99.0475C246.669 98.8421 246.277 98.5668 245.941 98.2215C245.614 97.8668 245.358 97.4608 245.171 97.0035C244.994 96.5461 244.905 96.0608 244.905 95.5475C244.905 94.8568 245.064 94.2268 245.381 93.6575C245.698 93.0881 246.137 92.6308 246.697 92.2855C247.266 91.9401 247.915 91.7675 248.643 91.7675C249.38 91.7675 250.02 91.9448 250.561 92.2995C251.112 92.6448 251.536 93.1021 251.835 93.6715C252.143 94.2315 252.297 94.8381 252.297 95.4915C252.297 95.5848 252.292 95.6781 252.283 95.7715C252.283 95.8555 252.278 95.9208 252.269 95.9675H246.207C246.244 96.4435 246.375 96.8681 246.599 97.2415C246.832 97.6055 247.131 97.8948 247.495 98.1095C247.859 98.3148 248.251 98.4175 248.671 98.4175C249.119 98.4175 249.539 98.3055 249.931 98.0815C250.332 97.8575 250.608 97.5635 250.757 97.1995L251.821 97.4935C251.662 97.8481 251.424 98.1655 251.107 98.4455C250.799 98.7255 250.43 98.9448 250.001 99.1035C249.581 99.2621 249.124 99.3415 248.629 99.3415ZM246.165 95.1135H251.149C251.112 94.6375 250.976 94.2175 250.743 93.8535C250.51 93.4895 250.211 93.2048 249.847 92.9995C249.483 92.7941 249.082 92.6915 248.643 92.6915C248.214 92.6915 247.817 92.7941 247.453 92.9995C247.089 93.2048 246.79 93.4895 246.557 93.8535C246.333 94.2175 246.202 94.6375 246.165 95.1135ZM257.321 99.3415C256.77 99.3415 256.266 99.2435 255.809 99.0475C255.361 98.8421 254.969 98.5621 254.633 98.2075C254.306 97.8528 254.049 97.4468 253.863 96.9895C253.685 96.5321 253.597 96.0468 253.597 95.5335C253.597 94.8428 253.751 94.2128 254.059 93.6435C254.367 93.0741 254.801 92.6215 255.361 92.2855C255.921 91.9401 256.569 91.7675 257.307 91.7675C258.025 91.7675 258.651 91.9308 259.183 92.2575C259.724 92.5748 260.125 93.0041 260.387 93.5455L259.183 93.9235C258.996 93.5781 258.735 93.3121 258.399 93.1255C258.063 92.9295 257.689 92.8315 257.279 92.8315C256.831 92.8315 256.42 92.9481 256.047 93.1815C255.683 93.4148 255.393 93.7368 255.179 94.1475C254.964 94.5488 254.857 95.0108 254.857 95.5335C254.857 96.0468 254.964 96.5135 255.179 96.9335C255.403 97.3441 255.697 97.6708 256.061 97.9135C256.434 98.1561 256.845 98.2775 257.293 98.2775C257.582 98.2775 257.857 98.2261 258.119 98.1235C258.389 98.0208 258.623 97.8855 258.819 97.7175C259.024 97.5401 259.164 97.3488 259.239 97.1435L260.443 97.5075C260.293 97.8621 260.065 98.1795 259.757 98.4595C259.458 98.7301 259.099 98.9448 258.679 99.1035C258.268 99.2621 257.815 99.3415 257.321 99.3415ZM262.245 99.2015V91.8935H263.477V94.9035H264.289L266.585 91.8935H267.985L265.255 95.4355L268.307 99.2015H266.879L264.289 96.0375H263.477V99.2015H262.245ZM269.924 99.2015V91.9075H271.156V97.5495L275.244 91.8935H276.364V99.2015H275.132V93.6715L271.1 99.2015H269.924ZM277.941 100.923V98.1095H278.095C278.3 98.1095 278.487 98.0488 278.655 97.9275C278.832 97.8061 278.986 97.5961 279.117 97.2975C279.257 96.9895 279.369 96.5695 279.453 96.0375C279.537 95.5055 279.593 94.8288 279.621 94.0075L279.691 91.8935H284.661V98.1095H285.655V100.923H284.563V99.2015H279.033V100.923H277.941ZM279.817 98.1095H283.429V92.9855H280.783L280.741 94.1195C280.713 94.9128 280.657 95.5801 280.573 96.1215C280.498 96.6535 280.395 97.0781 280.265 97.3955C280.143 97.7128 279.994 97.9508 279.817 98.1095ZM287.43 99.2015V91.9075H288.662V97.5495L292.75 91.8935H293.87V99.2015H292.638V93.6715L288.606 99.2015H287.43ZM303.049 95.9255L299.507 98.3615V97.3255L302.055 95.5755L299.507 93.7835V92.7475L303.049 95.2815V95.9255ZM299.661 95.9255L296.119 98.3615V97.3255L298.667 95.5755L296.119 93.7835V92.7475L299.661 95.2815V95.9255Z" fill="#FBFBFB"/>
<path d="M304.24 78.2012H153.24C144.403 78.2012 137.24 85.3646 137.24 94.2012C137.24 103.038 144.403 110.201 153.24 110.201H304.24C313.077 110.201 320.24 103.038 320.24 94.2012C320.24 85.3646 313.077 78.2012 304.24 78.2012Z" stroke="#74A39D" stroke-width="1.2"/>
<path d="M338.287 104.685L179.215 121.898C170.43 122.849 164.079 130.741 165.029 139.526C165.98 148.312 173.873 154.663 182.658 153.712L341.729 136.499C350.515 135.549 356.866 127.656 355.915 118.871C354.964 110.086 347.072 103.735 338.287 104.685Z" fill="#CFE8D0"/>
<path fill-rule="evenodd" clip-rule="evenodd" d="M181.794 132.115C182.627 131.101 183.836 130.45 185.155 130.308C186.473 130.165 187.793 130.542 188.824 131.354C189.855 132.167 190.513 133.349 190.653 134.641C191.048 138.295 186.661 144.227 186.661 144.227C186.661 144.227 181.106 139.371 180.711 135.717C180.571 134.425 180.961 133.129 181.794 132.115ZM185.951 137.665C187.049 137.546 187.843 136.56 187.724 135.462C187.605 134.364 186.619 133.57 185.52 133.688C184.422 133.807 183.628 134.794 183.747 135.892C183.866 136.99 184.853 137.784 185.951 137.665Z" fill="#01594D"/>
<path d="M198.074 142.895L197.748 139.888L198.194 139.84C198.454 139.812 198.67 139.685 198.843 139.46C199.014 139.226 199.145 138.873 199.235 138.404C199.324 137.925 199.369 137.296 199.369 136.516C199.369 135.737 199.327 134.78 199.241 133.643L199.013 130.88L205.137 130.217L206.086 138.986L207.311 138.854L207.636 141.86L206.522 141.981L206.318 140.088L198.982 140.881L199.187 142.774L198.074 142.895ZM199.864 139.659L204.833 139.122L204.005 131.466L200.288 131.869L200.441 133.669C200.54 134.841 200.585 135.826 200.578 136.625C200.57 137.424 200.509 138.069 200.393 138.56C200.277 139.051 200.101 139.418 199.864 139.659ZM208.821 139.817L211.088 135.783L208.271 132.526L209.649 132.376L212.064 135.171L212.843 135.087L212.516 132.066L213.769 131.931L214.096 134.951L214.903 134.864L216.622 131.622L218.014 131.471L215.96 135.256L219.051 138.71L217.645 138.862L215.019 135.935L214.212 136.023L214.555 139.196L213.303 139.332L212.959 136.158L212.18 136.243L210.226 139.665L208.821 139.817ZM224.17 138.297C223.622 138.356 223.111 138.313 222.635 138.167C222.168 138.011 221.748 137.78 221.377 137.472C221.014 137.155 220.715 136.779 220.48 136.344C220.255 135.909 220.115 135.436 220.059 134.925C219.985 134.239 220.075 133.595 220.329 132.995C220.583 132.395 220.97 131.893 221.49 131.489C222.019 131.085 222.645 130.843 223.369 130.765C224.102 130.686 224.757 130.793 225.333 131.088C225.918 131.372 226.389 131.781 226.747 132.315C227.114 132.838 227.332 133.425 227.402 134.074C227.412 134.167 227.418 134.261 227.419 134.354C227.428 134.438 227.43 134.503 227.426 134.551L221.399 135.203C221.487 135.672 221.663 136.08 221.926 136.427C222.197 136.764 222.525 137.02 222.91 137.194C223.294 137.359 223.695 137.419 224.112 137.374C224.558 137.325 224.963 137.169 225.329 136.904C225.704 136.638 225.946 136.316 226.055 135.938L227.145 136.116C227.025 136.486 226.822 136.827 226.537 137.139C226.261 137.451 225.918 137.709 225.508 137.912C225.108 138.115 224.662 138.243 224.17 138.297ZM221.265 134.358L226.22 133.822C226.132 133.353 225.952 132.95 225.681 132.613C225.41 132.276 225.083 132.025 224.699 131.86C224.315 131.695 223.904 131.637 223.468 131.684C223.042 131.73 222.658 131.875 222.318 132.118C221.979 132.361 221.712 132.676 221.519 133.063C221.336 133.449 221.251 133.881 221.265 134.358ZM233.507 137.286C232.913 137.351 232.368 137.259 231.872 137.013C231.376 136.766 230.969 136.43 230.65 136.004L231.126 140.403L229.901 140.535L228.794 130.305L229.88 130.187L230.028 131.551C230.267 131.075 230.604 130.677 231.039 130.358C231.473 130.029 231.964 129.835 232.511 129.776C233.012 129.722 233.483 129.774 233.922 129.933C234.362 130.092 234.754 130.331 235.098 130.651C235.443 130.97 235.723 131.348 235.939 131.785C236.164 132.211 236.302 132.67 236.356 133.162C236.43 133.849 236.359 134.495 236.143 135.1C235.936 135.705 235.605 136.205 235.151 136.602C234.695 136.989 234.147 137.217 233.507 137.286ZM233.017 136.269C233.378 136.23 233.695 136.121 233.967 135.941C234.247 135.751 234.475 135.52 234.652 135.247C234.837 134.964 234.968 134.655 235.044 134.318C235.121 133.981 235.14 133.641 235.103 133.298C235.064 132.936 234.962 132.599 234.797 132.289C234.641 131.977 234.433 131.708 234.174 131.483C233.925 131.256 233.639 131.09 233.318 130.984C233.005 130.868 232.672 130.829 232.319 130.867C232.097 130.891 231.869 130.958 231.637 131.067C231.414 131.176 231.204 131.321 231.008 131.502C230.811 131.673 230.648 131.864 230.521 132.075C230.394 132.286 230.319 132.506 230.296 132.733L230.521 134.807C230.694 135.108 230.911 135.375 231.171 135.61C231.431 135.845 231.723 136.024 232.046 136.149C232.368 136.264 232.692 136.304 233.017 136.269ZM241.901 136.378C241.353 136.437 240.841 136.394 240.366 136.248C239.898 136.093 239.479 135.861 239.108 135.554C238.745 135.236 238.446 134.86 238.211 134.426C237.986 133.99 237.845 133.517 237.79 133.007C237.716 132.32 237.806 131.677 238.06 131.077C238.314 130.476 238.701 129.974 239.221 129.571C239.75 129.166 240.376 128.925 241.1 128.847C241.833 128.767 242.487 128.875 243.064 129.169C243.648 129.453 244.12 129.862 244.478 130.396C244.844 130.92 245.063 131.506 245.133 132.156C245.143 132.249 245.148 132.342 245.149 132.436C245.158 132.519 245.161 132.585 245.156 132.632L239.13 133.284C239.218 133.753 239.394 134.162 239.656 134.509C239.928 134.845 240.256 135.101 240.641 135.275C241.025 135.44 241.425 135.5 241.843 135.455C242.288 135.407 242.694 135.25 243.059 134.985C243.434 134.719 243.676 134.398 243.786 134.02L244.875 134.197C244.756 134.567 244.553 134.908 244.268 135.221C243.992 135.532 243.649 135.79 243.239 135.994C242.838 136.197 242.392 136.325 241.901 136.378ZM238.996 132.44L243.951 131.904C243.863 131.434 243.683 131.031 243.412 130.695C243.141 130.358 242.813 130.107 242.429 129.942C242.045 129.777 241.635 129.718 241.199 129.765C240.772 129.811 240.389 129.956 240.049 130.199C239.709 130.443 239.443 130.758 239.25 131.145C239.067 131.531 238.982 131.962 238.996 132.44ZM246.677 135.777L246.558 134.677C246.799 134.651 247.006 134.568 247.179 134.427C247.36 134.276 247.508 134.044 247.624 133.731C247.74 133.409 247.811 132.979 247.837 132.441C247.871 131.892 247.858 131.204 247.796 130.375L247.652 128.264L252.594 127.73L253.38 134.995L252.155 135.128L251.486 128.948L248.856 129.232L248.95 130.363C249.02 131.36 249.026 132.195 248.967 132.867C248.909 133.54 248.784 134.08 248.593 134.485C248.402 134.891 248.144 135.196 247.819 135.4C247.503 135.603 247.122 135.729 246.677 135.777ZM258.964 134.532C258.417 134.591 257.91 134.547 257.443 134.401C256.976 134.245 256.561 134.013 256.199 133.704C255.836 133.387 255.542 133.01 255.316 132.575C255.091 132.139 254.951 131.671 254.897 131.17C254.842 130.659 254.878 130.167 255.005 129.694C255.132 129.22 255.339 128.794 255.627 128.415C255.913 128.027 256.269 127.712 256.693 127.469C257.126 127.216 257.616 127.059 258.163 127C258.701 126.942 259.204 126.991 259.672 127.147C260.138 127.293 260.553 127.525 260.916 127.843C261.287 128.15 261.585 128.521 261.811 128.957C262.036 129.393 262.177 129.866 262.232 130.376C262.286 130.877 262.25 131.365 262.123 131.838C261.996 132.312 261.789 132.743 261.502 133.131C261.215 133.509 260.854 133.825 260.422 134.078C259.997 134.321 259.512 134.472 258.964 134.532ZM256.151 131.048C256.205 131.549 256.361 131.992 256.619 132.378C256.886 132.762 257.213 133.055 257.601 133.257C257.988 133.45 258.404 133.522 258.85 133.474C259.295 133.426 259.686 133.261 260.021 132.981C260.366 132.7 260.624 132.343 260.793 131.912C260.97 131.47 261.032 130.999 260.978 130.498C260.924 129.997 260.763 129.554 260.496 129.17C260.239 128.785 259.911 128.491 259.514 128.29C259.126 128.088 258.709 128.011 258.264 128.059C257.818 128.108 257.428 128.277 257.094 128.566C256.758 128.847 256.501 129.203 256.322 129.636C256.153 130.067 256.096 130.538 256.151 131.048ZM267.61 129.512L270.859 126.612L270.971 127.642L268.63 129.698L271.352 131.164L271.463 132.194L267.679 130.153L267.61 129.512ZM270.979 129.148L274.227 126.248L274.339 127.278L271.998 129.333L274.72 130.799L274.831 131.829L271.048 129.788L270.979 129.148ZM284.246 121.657L285.315 131.54L284.062 131.675L283.576 127.179L278.133 127.768L278.62 132.264L277.367 132.4L276.298 122.517L277.551 122.382L278.013 126.655L283.455 126.066L282.993 121.793L284.246 121.657ZM287.041 129.226C286.99 128.762 287.077 128.349 287.301 127.987C287.533 127.615 287.871 127.311 288.315 127.075C288.758 126.839 289.287 126.688 289.899 126.622C290.224 126.587 290.57 126.577 290.938 126.594C291.305 126.601 291.633 126.641 291.923 126.713L291.865 126.184C291.805 125.627 291.591 125.209 291.223 124.93C290.853 124.641 290.363 124.53 289.75 124.596C289.351 124.639 288.974 124.755 288.619 124.944C288.272 125.122 287.909 125.368 287.53 125.681L286.991 124.866C287.429 124.49 287.877 124.198 288.333 123.989C288.788 123.771 289.271 123.634 289.781 123.579C290.709 123.478 291.47 123.659 292.064 124.12C292.658 124.572 293.004 125.258 293.104 126.176L293.437 129.253C293.453 129.401 293.493 129.509 293.556 129.578C293.628 129.635 293.734 129.662 293.874 129.656L293.977 130.602C293.858 130.634 293.753 130.659 293.661 130.679C293.579 130.697 293.51 130.709 293.454 130.715C293.166 130.746 292.94 130.691 292.774 130.549C292.618 130.407 292.521 130.248 292.483 130.074L292.406 129.618C292.135 130.06 291.756 130.42 291.27 130.698C290.783 130.976 290.29 131.142 289.789 131.196C289.306 131.248 288.864 131.198 288.462 131.044C288.06 130.881 287.734 130.644 287.484 130.333C287.234 130.013 287.086 129.644 287.041 129.226ZM291.829 129.229C291.926 129.087 292 128.948 292.051 128.811C292.101 128.665 292.121 128.545 292.111 128.453L292.013 127.548C291.713 127.468 291.403 127.417 291.081 127.395C290.759 127.364 290.444 127.366 290.138 127.399C289.516 127.466 289.024 127.646 288.662 127.939C288.307 128.221 288.153 128.576 288.199 129.003C288.224 129.234 288.309 129.455 288.454 129.665C288.607 129.864 288.812 130.021 289.068 130.134C289.334 130.246 289.647 130.282 290.009 130.243C290.39 130.202 290.744 130.088 291.071 129.903C291.397 129.708 291.65 129.483 291.829 129.229ZM299.638 132.989L299.318 130.024L299.039 130.054C298.306 130.134 297.653 130.036 297.078 129.76C296.513 129.483 296.057 129.086 295.71 128.57C295.363 128.054 295.155 127.471 295.085 126.821C295.013 126.162 295.092 125.544 295.32 124.965C295.558 124.385 295.923 123.9 296.416 123.509C296.918 123.116 297.531 122.881 298.255 122.803L298.533 122.773L298.218 119.864L299.443 119.731L299.758 122.64L300.05 122.608C300.774 122.53 301.418 122.629 301.983 122.906C302.558 123.182 303.018 123.578 303.365 124.094C303.721 124.61 303.935 125.197 304.006 125.856C304.077 126.505 303.998 127.119 303.769 127.698C303.541 128.277 303.176 128.762 302.674 129.154C302.181 129.546 301.568 129.781 300.835 129.86L300.543 129.892L300.863 132.856L299.638 132.989ZM298.931 129.052L299.265 129.016L298.697 123.769L298.363 123.805C297.908 123.854 297.513 124.019 297.177 124.299C296.85 124.569 296.606 124.915 296.445 125.336C296.284 125.757 296.23 126.214 296.283 126.706C296.336 127.197 296.482 127.632 296.72 128.01C296.966 128.378 297.278 128.658 297.656 128.852C298.033 129.037 298.458 129.104 298.931 129.052ZM300.378 128.896L300.726 128.858C301.19 128.808 301.587 128.652 301.915 128.391C302.252 128.12 302.497 127.779 302.649 127.369C302.81 126.947 302.864 126.491 302.811 125.999C302.758 125.507 302.607 125.073 302.36 124.696C302.113 124.319 301.8 124.034 301.423 123.84C301.044 123.637 300.623 123.56 300.159 123.611L299.811 123.648L300.378 128.896ZM308.071 129.077L307.402 122.897L304.897 123.168L304.779 122.083L311.015 121.408L311.133 122.494L308.627 122.765L309.296 128.945L308.071 129.077ZM314.684 131.445C314.526 131.463 314.361 131.457 314.189 131.429C314.026 131.399 313.856 131.347 313.679 131.273L314.007 130.392C314.095 130.43 314.177 130.454 314.254 130.464C314.34 130.483 314.421 130.488 314.495 130.48C314.718 130.456 314.915 130.327 315.087 130.092C315.269 129.866 315.425 129.53 315.555 129.084L315.808 128.17L311.842 121.318L313.136 121.178L316.238 126.94L317.799 120.674L319.01 120.543L316.528 129.359C316.406 129.795 316.253 130.159 316.069 130.451C315.886 130.752 315.676 130.986 315.441 131.152C315.205 131.319 314.953 131.416 314.684 131.445ZM324.423 127.449C323.876 127.508 323.364 127.465 322.889 127.319C322.421 127.163 322.001 126.927 321.629 126.61C321.266 126.293 320.967 125.917 320.733 125.482C320.507 125.047 320.367 124.574 320.311 124.063C320.237 123.377 320.322 122.734 320.567 122.135C320.812 121.535 321.195 121.039 321.716 120.644C322.235 120.241 322.862 119.999 323.595 119.92C324.309 119.843 324.949 119.938 325.513 120.205C326.085 120.463 326.53 120.846 326.848 121.356L325.692 121.862C325.469 121.538 325.181 121.302 324.826 121.153C324.471 120.994 324.09 120.937 323.681 120.981C323.236 121.029 322.84 121.189 322.494 121.461C322.157 121.732 321.904 122.084 321.735 122.515C321.565 122.937 321.508 123.408 321.564 123.928C321.619 124.438 321.776 124.89 322.035 125.285C322.302 125.669 322.629 125.962 323.017 126.164C323.414 126.365 323.836 126.442 324.281 126.394C324.569 126.363 324.837 126.282 325.086 126.152C325.344 126.021 325.561 125.861 325.738 125.673C325.923 125.474 326.042 125.269 326.094 125.057L327.33 125.289C327.22 125.658 327.027 125.998 326.75 126.31C326.483 126.611 326.148 126.863 325.748 127.066C325.357 127.268 324.915 127.395 324.423 127.449ZM329.318 126.778L328.532 119.513L329.756 119.38L330.543 126.646L329.318 126.778ZM328.384 118.148L328.218 116.617L329.443 116.485L329.609 118.016L328.384 118.148ZM339.341 122.398L336.082 125.201L335.97 124.171L338.315 122.157L335.589 120.65L335.478 119.62L339.272 121.758L339.341 122.398ZM335.973 122.763L332.714 125.566L332.602 124.536L334.947 122.522L332.221 121.014L332.11 119.984L335.904 122.123L335.973 122.763Z" fill="#01594D"/>
<path d="M204 49.2012H54C45.1634 49.2012 38 56.3646 38 65.2012C38 74.0377 45.1634 81.2012 54 81.2012H204C212.837 81.2012 220 74.0377 220 65.2012C220 56.3646 212.837 49.2012 204 49.2012Z" fill="#CFE8D0"/>
<path fill-rule="evenodd" clip-rule="evenodd" d="M55.4645 59.6363C56.4021 58.7174 57.6739 58.2012 59 58.2012C60.3261 58.2012 61.5979 58.7174 62.5355 59.6363C63.4732 60.5553 64 61.8016 64 63.1012C64 66.7762 59 72.2012 59 72.2012C59 72.2012 54 66.7762 54 63.1012C54 61.8016 54.5268 60.5553 55.4645 59.6363ZM59 65.6016C60.1046 65.6016 61 64.7061 61 63.6016C61 62.497 60.1046 61.6016 59 61.6016C57.8954 61.6016 57 62.497 57 63.6016C57 64.7061 57.8954 65.6016 59 65.6016Z" fill="#01594D"/>
<path d="M79.7859 70.2015V62.6135L76.5099 68.4515H75.7399L72.4499 62.6135V70.2015H71.1899V60.2615H72.5199L76.1179 66.7155L79.7299 60.2615H81.0459V70.2015H79.7859ZM83.6362 70.2015V62.8935H84.8682V69.1235H87.7522V62.8935H88.9982V69.1235H91.8682V62.8935H93.1002V70.2015H83.6362ZM94.9396 68.0875C94.9396 67.6208 95.0703 67.2195 95.3316 66.8835C95.6023 66.5381 95.9709 66.2721 96.4376 66.0855C96.9043 65.8988 97.4456 65.8055 98.0616 65.8055C98.3883 65.8055 98.7336 65.8335 99.0976 65.8895C99.4616 65.9361 99.7836 66.0108 100.064 66.1135V65.5815C100.064 65.0215 99.8956 64.5828 99.5596 64.2655C99.2236 63.9388 98.7476 63.7755 98.1316 63.7755C97.7303 63.7755 97.3429 63.8501 96.9696 63.9995C96.6056 64.1395 96.2183 64.3448 95.8076 64.6155L95.3596 63.7475C95.8356 63.4208 96.3116 63.1781 96.7876 63.0195C97.2636 62.8515 97.7583 62.7675 98.2716 62.7675C99.2049 62.7675 99.9423 63.0288 100.484 63.5515C101.025 64.0648 101.296 64.7835 101.296 65.7075V68.8015C101.296 68.9508 101.324 69.0628 101.38 69.1375C101.445 69.2028 101.548 69.2401 101.688 69.2495V70.2015C101.566 70.2201 101.459 70.2341 101.366 70.2435C101.282 70.2528 101.212 70.2575 101.156 70.2575C100.866 70.2575 100.647 70.1781 100.498 70.0195C100.358 69.8608 100.278 69.6928 100.26 69.5155L100.232 69.0535C99.9143 69.4641 99.4989 69.7815 98.9856 70.0055C98.4723 70.2295 97.9636 70.3415 97.4596 70.3415C96.9743 70.3415 96.5403 70.2435 96.1576 70.0475C95.7749 69.8421 95.4763 69.5715 95.2616 69.2355C95.0469 68.8901 94.9396 68.5075 94.9396 68.0875ZM99.6996 68.6055C99.8116 68.4748 99.9003 68.3441 99.9656 68.2135C100.031 68.0735 100.064 67.9568 100.064 67.8635V66.9535C99.7743 66.8415 99.4709 66.7575 99.1536 66.7015C98.8363 66.6361 98.5236 66.6035 98.2156 66.6035C97.5903 66.6035 97.0816 66.7295 96.6896 66.9815C96.3069 67.2241 96.1156 67.5601 96.1156 67.9895C96.1156 68.2228 96.1763 68.4515 96.2976 68.6755C96.4283 68.8901 96.6149 69.0675 96.8576 69.2075C97.1096 69.3475 97.4176 69.4175 97.7816 69.4175C98.1643 69.4175 98.5283 69.3428 98.8736 69.1935C99.2189 69.0348 99.4943 68.8388 99.6996 68.6055ZM103.672 70.2015V62.8935H104.904V65.9175H108.712V62.8935H109.944V70.2015H108.712V67.0095H104.904V70.2015H103.672ZM115.584 70.3415C115.033 70.3415 114.529 70.2435 114.072 70.0475C113.624 69.8421 113.232 69.5668 112.896 69.2215C112.569 68.8668 112.312 68.4608 112.126 68.0035C111.948 67.5461 111.86 67.0608 111.86 66.5475C111.86 65.8568 112.018 65.2268 112.336 64.6575C112.653 64.0881 113.092 63.6308 113.652 63.2855C114.221 62.9401 114.87 62.7675 115.598 62.7675C116.335 62.7675 116.974 62.9448 117.516 63.2995C118.066 63.6448 118.491 64.1021 118.79 64.6715C119.098 65.2315 119.252 65.8381 119.252 66.4915C119.252 66.5848 119.247 66.6781 119.238 66.7715C119.238 66.8555 119.233 66.9208 119.224 66.9675H113.162C113.199 67.4435 113.33 67.8681 113.554 68.2415C113.787 68.6055 114.086 68.8948 114.45 69.1095C114.814 69.3148 115.206 69.4175 115.626 69.4175C116.074 69.4175 116.494 69.3055 116.886 69.0815C117.287 68.8575 117.562 68.5635 117.712 68.1995L118.776 68.4935C118.617 68.8481 118.379 69.1655 118.062 69.4455C117.754 69.7255 117.385 69.9448 116.956 70.1035C116.536 70.2621 116.078 70.3415 115.584 70.3415ZM113.12 66.1135H118.104C118.066 65.6375 117.931 65.2175 117.698 64.8535C117.464 64.4895 117.166 64.2048 116.802 63.9995C116.438 63.7941 116.036 63.6915 115.598 63.6915C115.168 63.6915 114.772 63.7941 114.408 63.9995C114.044 64.2048 113.745 64.4895 113.512 64.8535C113.288 65.2175 113.157 65.6375 113.12 66.1135ZM126.795 71.9235V70.2015H121.027V62.8935H122.259V69.1235H125.647V62.8935H126.879V69.1235H127.887V71.9235H126.795ZM129.664 70.2015V62.8935H130.896V65.3855H132.716C133.575 65.3855 134.223 65.6048 134.662 66.0435C135.11 66.4728 135.334 67.0375 135.334 67.7375C135.334 68.2041 135.236 68.6241 135.04 68.9975C134.853 69.3708 134.573 69.6648 134.2 69.8795C133.827 70.0941 133.36 70.2015 132.8 70.2015H129.664ZM130.896 69.2355H132.632C132.977 69.2355 133.253 69.1701 133.458 69.0395C133.673 68.8995 133.831 68.7175 133.934 68.4935C134.037 68.2695 134.088 68.0268 134.088 67.7655C134.088 67.5135 134.041 67.2801 133.948 67.0655C133.855 66.8508 133.701 66.6781 133.486 66.5475C133.271 66.4168 132.977 66.3515 132.604 66.3515H130.896V69.2355ZM137.084 70.2015V62.8935H138.316V65.9035H139.128L141.424 62.8935H142.824L140.094 66.4355L143.146 70.2015H141.718L139.128 67.0375H138.316V70.2015H137.084ZM144.778 70.2015V62.8935H146.01V70.2015H144.778ZM144.778 61.5215V59.9815H146.01V61.5215H144.778ZM152.581 70.2015V60.2615H153.841V64.5595H155.171L158.447 60.2615H159.903L156.207 65.0775L160.155 70.2015H158.615L155.199 65.7075H153.841V70.2015H152.581ZM164.652 70.3415C164.101 70.3415 163.602 70.2435 163.154 70.0475C162.706 69.8421 162.318 69.5668 161.992 69.2215C161.665 68.8668 161.413 68.4608 161.236 68.0035C161.058 67.5461 160.97 67.0655 160.97 66.5615C160.97 66.0481 161.058 65.5628 161.236 65.1055C161.413 64.6481 161.665 64.2468 161.992 63.9015C162.318 63.5468 162.706 63.2715 163.154 63.0755C163.611 62.8701 164.115 62.7675 164.666 62.7675C165.207 62.7675 165.702 62.8701 166.15 63.0755C166.598 63.2715 166.985 63.5468 167.312 63.9015C167.648 64.2468 167.904 64.6481 168.082 65.1055C168.259 65.5628 168.348 66.0481 168.348 66.5615C168.348 67.0655 168.259 67.5461 168.082 68.0035C167.904 68.4608 167.652 68.8668 167.326 69.2215C166.999 69.5668 166.607 69.8421 166.15 70.0475C165.702 70.2435 165.202 70.3415 164.652 70.3415ZM162.23 66.5755C162.23 67.0795 162.337 67.5368 162.552 67.9475C162.776 68.3581 163.07 68.6848 163.434 68.9275C163.798 69.1608 164.204 69.2775 164.652 69.2775C165.1 69.2775 165.506 69.1561 165.87 68.9135C166.243 68.6708 166.537 68.3441 166.752 67.9335C166.976 67.5135 167.088 67.0515 167.088 66.5475C167.088 66.0435 166.976 65.5861 166.752 65.1755C166.537 64.7648 166.243 64.4381 165.87 64.1955C165.506 63.9528 165.1 63.8315 164.652 63.8315C164.204 63.8315 163.798 63.9575 163.434 64.2095C163.07 64.4521 162.776 64.7788 162.552 65.1895C162.337 65.6001 162.23 66.0621 162.23 66.5755ZM169.617 70.2575V69.1515C169.859 69.1515 170.074 69.0908 170.261 68.9695C170.457 68.8388 170.629 68.6241 170.779 68.3255C170.928 68.0175 171.045 67.5975 171.129 67.0655C171.222 66.5241 171.283 65.8381 171.311 65.0075L171.395 62.8935H176.365V70.2015H175.133V63.9855H172.487L172.459 65.1195C172.421 66.1181 172.337 66.9488 172.207 67.6115C172.076 68.2741 171.894 68.7968 171.661 69.1795C171.427 69.5621 171.138 69.8375 170.793 70.0055C170.457 70.1735 170.065 70.2575 169.617 70.2575ZM178.76 70.2015V62.9075H179.992V68.5495L184.08 62.8935H185.2V70.2015H183.968V64.6715L179.936 70.2015H178.76ZM191.033 70.3415C189.829 70.3415 188.919 69.9775 188.303 69.2495C187.687 68.5215 187.379 67.4948 187.379 66.1695C187.379 65.2641 187.454 64.5035 187.603 63.8875C187.752 63.2621 187.976 62.7488 188.275 62.3475C188.574 61.9368 188.942 61.6055 189.381 61.3535C189.82 61.0921 190.324 60.8775 190.893 60.7095L193.987 59.7715L194.057 60.8355L191.047 61.7455C190.534 61.9135 190.104 62.1281 189.759 62.3895C189.414 62.6508 189.143 62.9868 188.947 63.3975C188.751 63.8081 188.62 64.3355 188.555 64.9795C188.798 64.4848 189.162 64.1021 189.647 63.8315C190.132 63.5515 190.697 63.4115 191.341 63.4115C192.032 63.4115 192.624 63.5561 193.119 63.8455C193.623 64.1255 194.006 64.5221 194.267 65.0355C194.538 65.5395 194.673 66.1228 194.673 66.7855C194.673 67.4948 194.533 68.1155 194.253 68.6475C193.973 69.1795 193.562 69.5948 193.021 69.8935C192.48 70.1921 191.817 70.3415 191.033 70.3415ZM191.033 69.2775C191.789 69.2775 192.372 69.0581 192.783 68.6195C193.203 68.1715 193.413 67.5788 193.413 66.8415C193.413 66.1228 193.208 65.5395 192.797 65.0915C192.386 64.6435 191.798 64.4195 191.033 64.4195C190.585 64.4195 190.179 64.5128 189.815 64.6995C189.46 64.8861 189.176 65.1615 188.961 65.5255C188.756 65.8801 188.653 66.3188 188.653 66.8415C188.653 67.3081 188.742 67.7281 188.919 68.1015C189.106 68.4655 189.376 68.7548 189.731 68.9695C190.086 69.1748 190.52 69.2775 191.033 69.2775ZM196.581 70.2015V62.9075H197.813V68.5495L201.901 62.8935H203.021V70.2015H201.789V64.6715L197.757 70.2015H196.581Z" fill="#01594D"/>
<path d="M297 15H226C217.163 15 210 22.1634 210 31C210 39.8366 217.163 47 226 47H297C305.837 47 313 39.8366 313 31C313 22.1634 305.837 15 297 15Z" fill="#01594D"/>
<path fill-rule="evenodd" clip-rule="evenodd" d="M227.464 25.4352C228.402 24.5162 229.674 24 231 24C232.326 24 233.598 24.5162 234.536 25.4352C235.473 26.3541 236 27.6004 236 28.9C236 32.575 231 38 231 38C231 38 226 32.575 226 28.9C226 27.6004 226.527 26.3541 227.464 25.4352ZM231 31.4004C232.105 31.4004 233 30.505 233 29.4004C233 28.2958 232.105 27.4004 231 27.4004C229.895 27.4004 229 28.2958 229 29.4004C229 30.505 229.895 31.4004 231 31.4004Z" fill="#FBFBFB"/>
<path d="M242.546 30.9603C242.546 30.3536 242.649 29.761 242.854 29.1823C243.069 28.5943 243.377 28.0623 243.778 27.5863C244.189 27.101 244.688 26.7183 245.276 26.4383C245.864 26.149 246.531 26.0043 247.278 26.0043C248.165 26.0043 248.925 26.2096 249.56 26.6203C250.195 27.0216 250.666 27.5396 250.974 28.1743L249.98 28.8183C249.784 28.3983 249.532 28.067 249.224 27.8243C248.925 27.5723 248.599 27.395 248.244 27.2923C247.899 27.1896 247.558 27.1383 247.222 27.1383C246.671 27.1383 246.181 27.2503 245.752 27.4743C245.332 27.6983 244.977 27.997 244.688 28.3703C244.399 28.7436 244.179 29.1636 244.03 29.6303C243.89 30.0876 243.82 30.5496 243.82 31.0163C243.82 31.5296 243.904 32.0243 244.072 32.5003C244.249 32.9763 244.492 33.3963 244.8 33.7603C245.108 34.1243 245.472 34.4136 245.892 34.6283C246.312 34.843 246.769 34.9503 247.264 34.9503C247.609 34.9503 247.964 34.8896 248.328 34.7683C248.692 34.647 249.033 34.4603 249.35 34.2083C249.667 33.947 249.919 33.611 250.106 33.2003L251.156 33.7743C250.951 34.269 250.633 34.689 250.204 35.0343C249.775 35.3796 249.294 35.641 248.762 35.8183C248.239 35.9956 247.721 36.0843 247.208 36.0843C246.527 36.0843 245.901 35.9396 245.332 35.6503C244.763 35.3516 244.268 34.9596 243.848 34.4743C243.437 33.9796 243.115 33.429 242.882 32.8223C242.658 32.2063 242.546 31.5856 242.546 30.9603ZM254.735 36.0003V29.7843H252.215V28.6923H258.487V29.7843H255.967V36.0003H254.735ZM264.079 36.1403C263.481 36.1403 262.949 35.991 262.483 35.6923C262.016 35.3936 261.647 35.0156 261.377 34.5583V38.9823H260.145V28.6923H261.237V30.0643C261.526 29.6163 261.904 29.257 262.371 28.9863C262.837 28.7063 263.346 28.5663 263.897 28.5663C264.401 28.5663 264.863 28.669 265.283 28.8743C265.703 29.0796 266.067 29.3596 266.375 29.7143C266.683 30.069 266.921 30.475 267.089 30.9323C267.266 31.3803 267.355 31.8516 267.355 32.3463C267.355 33.037 267.215 33.6716 266.935 34.2503C266.664 34.829 266.281 35.291 265.787 35.6363C265.292 35.9723 264.723 36.1403 264.079 36.1403ZM263.701 35.0763C264.065 35.0763 264.391 35.0016 264.681 34.8523C264.979 34.6936 265.231 34.4883 265.437 34.2363C265.651 33.975 265.815 33.681 265.927 33.3543C266.039 33.0276 266.095 32.6916 266.095 32.3463C266.095 31.9823 266.029 31.637 265.899 31.3103C265.777 30.9836 265.6 30.6943 265.367 30.4423C265.143 30.1903 264.877 29.9943 264.569 29.8543C264.27 29.705 263.943 29.6303 263.589 29.6303C263.365 29.6303 263.131 29.6723 262.889 29.7563C262.655 29.8403 262.431 29.9616 262.217 30.1203C262.002 30.2696 261.82 30.4423 261.671 30.6383C261.521 30.8343 261.423 31.0443 261.377 31.2683V33.3543C261.517 33.6716 261.703 33.961 261.937 34.2223C262.17 34.4836 262.441 34.6936 262.749 34.8523C263.057 35.0016 263.374 35.0763 263.701 35.0763ZM269.287 36.0003V28.6923H270.519V36.0003H269.287ZM269.287 27.3203V25.7803H270.519V27.3203H269.287ZM272.29 36.0563V34.9503C272.532 34.9503 272.747 34.8896 272.934 34.7683C273.13 34.6376 273.302 34.423 273.452 34.1243C273.601 33.8163 273.718 33.3963 273.802 32.8643C273.895 32.323 273.956 31.637 273.984 30.8063L274.068 28.6923H279.038V36.0003H277.806V29.7843H275.16L275.132 30.9183C275.094 31.917 275.01 32.7476 274.88 33.4103C274.749 34.073 274.567 34.5956 274.334 34.9783C274.1 35.361 273.811 35.6363 273.466 35.8043C273.13 35.9723 272.738 36.0563 272.29 36.0563ZM281.434 36.0003V28.6923H282.666V31.7023H283.478L285.774 28.6923H287.174L284.444 32.2343L287.496 36.0003H286.068L283.478 32.8363H282.666V36.0003H281.434ZM289.113 36.0003V28.7063H290.345V34.3483L294.433 28.6923H295.553V36.0003H294.321V30.4703L290.289 36.0003H289.113Z" fill="#FBFBFB"/>
<path d="M297 15H226C217.163 15 210 22.1634 210 31C210 39.8366 217.163 47 226 47H297C305.837 47 313 39.8366 313 31C313 22.1634 305.837 15 297 15Z" stroke="#74A39D" stroke-width="1.2"/>
</svg>
