<svg width="20" height="20" viewBox="0 0 20 20" fill="none" xmlns="http://www.w3.org/2000/svg">
<circle cx="10" cy="10" r="8" stroke="#FBFBFB" stroke-width="1.2"/>
<path d="M10 17.5C8.34315 17.5 7 14.1421 7 10C7 5.85786 8.34315 2.5 10 2.5" stroke="#FBFBFB" stroke-width="1.2"/>
<path d="M3.50342 6C4.8002 6.8967 7.22399 7.5 10.0001 7.5C12.7275 7.5 15.1149 6.91766 16.4275 6.04686" stroke="#FBFBFB" stroke-width="1.2"/>
<path d="M16.4275 14C15.1307 13.1033 12.7069 12.5 9.93086 12.5C7.20344 12.5 4.81605 13.0823 3.50342 13.9531" stroke="#FBFBFB" stroke-width="1.2"/>
<path d="M10 17.5C11.6569 17.5 13 14.1421 13 10C13 5.85786 11.6569 2.5 10 2.5" stroke="#FBFBFB" stroke-width="1.2"/>
</svg>
