<svg width="24" height="24" viewBox="0 0 24 24" fill="none" xmlns="http://www.w3.org/2000/svg">
<g id="TelephoneFill">
<path id="Vector" fill-rule="evenodd" clip-rule="evenodd" d="M4.6624 3.01258C4.87236 2.80293 5.12448 2.6403 5.40205 2.53546C5.67962 2.43062 5.9763 2.38597 6.27243 2.40446C6.56856 2.42296 6.85739 2.50417 7.11975 2.64273C7.38212 2.78129 7.61205 2.97403 7.7943 3.20817L9.94823 5.97528C10.343 6.48287 10.4822 7.14405 10.3262 7.76803L9.66984 10.3959C9.6359 10.5321 9.63774 10.6746 9.67516 10.8098C9.71259 10.945 9.78433 11.0682 9.88343 11.1675L12.8317 14.1158C12.9311 14.2151 13.0546 14.287 13.19 14.3244C13.3254 14.3619 13.4682 14.3636 13.6045 14.3294L16.2312 13.673C16.5392 13.596 16.8606 13.5901 17.1711 13.6556C17.4817 13.721 17.7733 13.8563 18.024 14.051L20.7911 16.2038C21.7859 16.9777 21.8771 18.4477 20.9867 19.3369L19.7459 20.5776C18.858 21.4656 17.5308 21.8556 16.2936 21.42C13.1272 20.3059 10.2521 18.4931 7.8819 16.1162C5.50512 13.7463 3.69236 10.8717 2.57806 7.70563C2.14368 6.46967 2.53366 5.14131 3.42164 4.25334L4.6624 3.01258Z" fill="#FBFBFB"/>
</g>
</svg>
