<svg width="16" height="16" viewBox="0 0 16 16" fill="none" xmlns="http://www.w3.org/2000/svg">
<g id="ri:instagram-fill">
<path id="Vector" d="M9.27101 1.00092C9.81828 0.998823 10.3656 1.00432 10.9127 1.01742L11.0582 1.02267C11.2262 1.02867 11.3919 1.03617 11.5921 1.04517C12.3901 1.08267 12.9346 1.20866 13.4123 1.3939C13.9073 1.58439 14.3242 1.84238 14.7412 2.25936C15.1225 2.63404 15.4176 3.08728 15.6059 3.58754C15.7912 4.06527 15.9172 4.61049 15.9547 5.40845C15.9637 5.60794 15.9712 5.77443 15.9772 5.94242L15.9817 6.08791C15.995 6.63478 16.0007 7.1818 15.9989 7.72883L15.9997 8.2883V9.27075C16.0015 9.81802 15.9958 10.3653 15.9824 10.9124L15.9779 11.0579C15.9719 11.2259 15.9644 11.3916 15.9554 11.5919C15.9179 12.3898 15.7904 12.9343 15.6059 13.412C15.4182 13.9128 15.123 14.3664 14.7412 14.741C14.3662 15.1222 13.9128 15.4172 13.4123 15.6057C12.9346 15.7909 12.3901 15.9169 11.5921 15.9544C11.3919 15.9634 11.2262 15.9709 11.0582 15.9769L10.9127 15.9814C10.3656 15.9947 9.81828 16.0005 9.27101 15.9987L8.71154 15.9994H7.72984C7.18256 16.0013 6.63529 15.9955 6.08817 15.9822L5.94268 15.9777C5.76465 15.9712 5.58665 15.9637 5.40871 15.9552C4.61075 15.9177 4.06628 15.7902 3.5878 15.6057C3.08734 15.4177 2.63403 15.1226 2.25962 14.741C1.87792 14.3662 1.58257 13.9127 1.39416 13.412C1.20892 12.9343 1.08293 12.3898 1.04543 11.5919C1.03708 11.4139 1.02958 11.2359 1.02293 11.0579L1.01918 10.9124C1.00536 10.3653 0.999105 9.81803 1.00043 9.27075V7.72883C0.99834 7.18181 1.00384 6.63478 1.01693 6.08791L1.02218 5.94242C1.02818 5.77443 1.03568 5.60794 1.04468 5.40845C1.08218 4.60974 1.20817 4.06602 1.39341 3.58754C1.58193 3.08703 1.87786 2.63392 2.26037 2.26011C2.63452 1.87819 3.08755 1.58257 3.5878 1.3939C4.06628 1.20866 4.61 1.08267 5.40871 1.04517L5.94268 1.02267L6.08817 1.01892C6.63503 1.0051 7.18205 0.998852 7.72909 1.00017L9.27101 1.00092ZM8.50005 4.75073C8.0032 4.7437 7.50992 4.83549 7.04885 5.02077C6.58779 5.20604 6.16815 5.4811 5.81432 5.82997C5.46049 6.17883 5.17952 6.59454 4.98774 7.05293C4.79597 7.51133 4.69721 8.00327 4.69721 8.50016C4.69721 8.99706 4.79597 9.489 4.98774 9.94739C5.17952 10.4058 5.46049 10.8215 5.81432 11.1704C6.16815 11.5192 6.58779 11.7943 7.04885 11.9796C7.50992 12.1648 8.0032 12.2566 8.50005 12.2496C9.49456 12.2496 10.4483 11.8545 11.1516 11.1513C11.8548 10.4481 12.2499 9.4943 12.2499 8.49979C12.2499 7.50528 11.8548 6.5515 11.1516 5.84827C10.4483 5.14505 9.49456 4.75073 8.50005 4.75073ZM8.50005 6.25065C8.79891 6.24515 9.09588 6.29925 9.3736 6.4098C9.65132 6.52035 9.90423 6.68514 10.1175 6.89453C10.3309 7.10392 10.5003 7.35372 10.616 7.62934C10.7317 7.90496 10.7913 8.20087 10.7914 8.49978C10.7914 8.7987 10.7319 9.09463 10.6163 9.37028C10.5007 9.64594 10.3313 9.8958 10.1181 10.1053C9.90483 10.3147 9.65198 10.4796 9.3743 10.5902C9.09661 10.7009 8.79966 10.7551 8.5008 10.7497C7.90409 10.7497 7.33182 10.5126 6.90989 10.0907C6.48795 9.66876 6.25091 9.09649 6.25091 8.49979C6.25091 7.90308 6.48795 7.33081 6.90989 6.90888C7.33182 6.48694 7.90409 6.2499 8.5008 6.2499L8.50005 6.25065ZM12.4373 3.62579C12.1954 3.63547 11.9666 3.7384 11.7988 3.913C11.6311 4.08761 11.5374 4.32035 11.5374 4.56249C11.5374 4.80463 11.6311 5.03737 11.7988 5.21198C11.9666 5.38659 12.1954 5.48951 12.4373 5.49919C12.686 5.49919 12.9244 5.40042 13.1002 5.22462C13.276 5.04881 13.3748 4.81037 13.3748 4.56174C13.3748 4.31311 13.276 4.07467 13.1002 3.89886C12.9244 3.72306 12.686 3.62429 12.4373 3.62429V3.62579Z" fill="#FBFBFB"/>
</g>
</svg>
