<svg width="15" height="15" viewBox="0 0 15 15" fill="none" xmlns="http://www.w3.org/2000/svg">
<path d="M8.27101 0.000922749C8.81828 -0.00117731 9.36555 0.004323 9.91267 0.017422L10.0582 0.0226717C10.2262 0.0286714 10.3919 0.036171 10.5921 0.0451705C11.3901 0.0826686 11.9346 0.208662 12.4123 0.393903C12.9073 0.584393 13.3242 0.84238 13.7412 1.25936C14.1225 1.63404 14.4176 2.08728 14.6059 2.58754C14.7912 3.06527 14.9172 3.61049 14.9547 4.40845C14.9637 4.60794 14.9712 4.77443 14.9772 4.94242L14.9817 5.08791C14.995 5.63478 15.0007 6.1818 14.9989 6.72883L14.9997 7.2883V8.27075C15.0015 8.81802 14.9958 9.3653 14.9824 9.91241L14.9779 10.0579C14.9719 10.2259 14.9644 10.3916 14.9554 10.5919C14.9179 11.3898 14.7904 11.9343 14.6059 12.412C14.4182 12.9128 14.123 13.3664 13.7412 13.741C13.3662 14.1222 12.9128 14.4172 12.4123 14.6057C11.9346 14.7909 11.3901 14.9169 10.5921 14.9544C10.3919 14.9634 10.2262 14.9709 10.0582 14.9769L9.91267 14.9814C9.36556 14.9947 8.81828 15.0005 8.27101 14.9987L7.71154 14.9994H6.72984C6.18256 15.0013 5.63529 14.9955 5.08817 14.9822L4.94268 14.9777C4.76465 14.9712 4.58665 14.9637 4.40871 14.9552C3.61075 14.9177 3.06628 14.7902 2.5878 14.6057C2.08734 14.4177 1.63403 14.1226 1.25962 13.741C0.877922 13.3662 0.582571 12.9127 0.394163 12.412C0.208922 11.9343 0.0829284 11.3898 0.0454304 10.5919C0.037078 10.4139 0.0295783 10.2359 0.0229316 10.0579L0.0191818 9.91241C0.00535524 9.36531 -0.000895114 8.81803 0.000432728 8.27075V6.72883C-0.00166039 6.18181 0.00383991 5.63478 0.0169319 5.08791L0.0221816 4.94242C0.0281813 4.77443 0.0356809 4.60794 0.0446805 4.40845C0.0821785 3.60974 0.208172 3.06602 0.393412 2.58754C0.581932 2.08703 0.877861 1.63392 1.26037 1.26011C1.63452 0.878192 2.08755 0.582573 2.5878 0.393903C3.06628 0.208662 3.61 0.0826686 4.40871 0.0451705L4.94268 0.0226717L5.08817 0.018922C5.63503 0.00510227 6.18206 -0.00114808 6.72909 0.000172842L8.27101 0.000922749ZM7.50005 3.75073C7.0032 3.7437 6.50992 3.83549 6.04885 4.02077C5.58779 4.20604 5.16815 4.4811 4.81432 4.82997C4.46049 5.17883 4.17952 5.59454 3.98774 6.05293C3.79597 6.51133 3.69721 7.00327 3.69721 7.50016C3.69721 7.99706 3.79597 8.489 3.98774 8.94739C4.17952 9.40579 4.46049 9.8215 4.81432 10.1704C5.16815 10.5192 5.58779 10.7943 6.04885 10.9796C6.50992 11.1648 7.0032 11.2566 7.50005 11.2496C8.49456 11.2496 9.44834 10.8545 10.1516 10.1513C10.8548 9.44808 11.2499 8.4943 11.2499 7.49979C11.2499 6.50528 10.8548 5.5515 10.1516 4.84827C9.44834 4.14505 8.49456 3.75073 7.50005 3.75073ZM7.50005 5.25065C7.79891 5.24515 8.09588 5.29925 8.3736 5.4098C8.65132 5.52035 8.90423 5.68514 9.11755 5.89453C9.33087 6.10392 9.50033 6.35372 9.61602 6.62934C9.73172 6.90496 9.79133 7.20087 9.79138 7.49978C9.79143 7.7987 9.73192 8.09463 9.61631 8.37028C9.50071 8.64594 9.33134 8.8958 9.11808 9.10526C8.90483 9.31472 8.65198 9.47959 8.3743 9.59023C8.09661 9.70088 7.79966 9.75508 7.5008 9.74967C6.90409 9.74967 6.33182 9.51263 5.90989 9.0907C5.48795 8.66876 5.25091 8.0965 5.25091 7.49979C5.25091 6.90308 5.48795 6.33081 5.90989 5.90888C6.33182 5.48694 6.90409 5.2499 7.5008 5.2499L7.50005 5.25065ZM11.4373 2.62579C11.1954 2.63547 10.9666 2.7384 10.7988 2.913C10.6311 3.08761 10.5374 3.32035 10.5374 3.56249C10.5374 3.80463 10.6311 4.03737 10.7988 4.21198C10.9666 4.38659 11.1954 4.48951 11.4373 4.49919C11.686 4.49919 11.9244 4.40043 12.1002 4.22462C12.276 4.04881 12.3748 3.81037 12.3748 3.56174C12.3748 3.31311 12.276 3.07467 12.1002 2.89886C11.9244 2.72306 11.686 2.62429 11.4373 2.62429V2.62579Z" fill="#01594D"/>
</svg>
