<svg width="160" height="160" viewBox="0 0 160 160" fill="none" xmlns="http://www.w3.org/2000/svg">
<g clip-path="url(#clip0_944_214)">
<path d="M52.4951 75.9273L53.7019 77.1341H73.1111L66.2726 70.2956L62.25 66.273L59.937 64.0605H40.5278L52.4951 75.9273Z" fill="#FBFBFB"/>
<path d="M106.298 82.8662H86.8887L99.8616 95.8392H119.271L106.298 82.8662Z" fill="#FBFBFB"/>
<path d="M82.8662 86.8887V106.298L95.9397 119.472V99.9622L93.7273 97.7498L89.7047 93.7271L82.8662 86.8887Z" fill="#FBFBFB"/>
<path d="M77.1341 106.298V86.8887L70.2956 93.7271L66.273 97.7498L64.0605 100.063V119.472L75.9273 107.505L77.1341 106.298Z" fill="#FBFBFB"/>
<path d="M62.2501 93.7273L66.2727 89.7047L73.1111 82.8662H53.702L52.4952 84.073L40.729 95.8392H60.1382L62.2501 93.7273Z" fill="#FBFBFB"/>
<path d="M99.9622 64.0605L97.7498 66.273L93.7271 70.2956L86.8887 77.1341H106.298L119.472 64.0605H99.9622Z" fill="#FBFBFB"/>
<path d="M93.7273 62.2505L95.9397 59.9375V40.5283L84.073 52.4956L82.8662 53.7024V73.1116L89.7047 66.2731L93.7273 62.2505Z" fill="#FBFBFB"/>
<path d="M77.1341 53.7024L75.9273 52.4956L64.0605 40.5283V59.9375L77.1341 73.1116V53.7024Z" fill="#FBFBFB"/>
<path d="M58.2274 40.6289H40.5278V58.3285H58.2274V40.6289Z" fill="#FBFBFB"/>
<path d="M119.271 40.6289H101.571V58.3285H119.271V40.6289Z" fill="#FBFBFB"/>
<path d="M58.2274 101.571H40.5278V119.271H58.2274V101.571Z" fill="#FBFBFB"/>
<path d="M119.271 101.571H101.571V119.271H119.271V101.571Z" fill="#FBFBFB"/>
<path d="M136.87 104.085C133.752 111.427 129.327 118.064 123.595 123.696C117.863 129.327 111.326 133.853 103.985 136.97C100.565 138.479 96.9451 139.585 93.3248 140.389L91.1123 146.021C119.17 141.295 141.395 119.07 146.021 91.0117L140.389 93.3247C139.585 96.8445 138.378 100.465 136.87 104.085Z" fill="#FBFBFB"/>
<path d="M23.0294 55.9144C26.147 48.5731 30.5719 41.9358 36.3041 36.3041C41.9358 30.6724 48.5731 26.147 55.9144 23.0294C59.3337 21.5209 62.954 20.4147 66.5744 19.6102L68.7868 13.9785C40.9301 18.7051 18.9063 40.729 14.0791 68.6862L19.7108 66.4738C20.5153 62.8534 21.6215 59.3336 23.0294 55.9144Z" fill="#FBFBFB"/>
<path d="M55.9144 136.87C48.5731 133.752 41.9358 129.327 36.3041 123.595C30.6724 117.863 26.147 111.427 23.0294 104.085C21.5209 100.565 20.4147 96.9451 19.6102 93.2241L13.9785 90.9111C18.6045 119.07 40.729 141.295 68.8874 146.021L66.6749 140.389C62.954 139.484 59.4342 138.378 55.9144 136.87Z" fill="#FBFBFB"/>
<path d="M104.085 23.0294C111.427 26.147 118.064 30.5719 123.696 36.3041C129.327 41.9358 133.853 48.5731 136.97 55.9144C138.378 59.3336 139.484 62.8534 140.289 66.3732L145.921 68.5857C141.194 40.6284 119.07 18.6045 91.1123 13.9785L93.3248 19.6102C97.0457 20.5153 100.565 21.6215 104.085 23.0294Z" fill="#FBFBFB"/>
<path d="M34.6952 93.7268L48.4727 79.9494L34.494 66.0713L18.7052 72.3064L13.3752 74.4182L0 79.6477L13.2747 85.0782L18.6046 87.2907L34.6952 93.7268Z" fill="#FBFBFB"/>
<path d="M79.9499 48.4727L93.8279 34.5946L87.4923 18.7052L85.3804 13.3752L79.9499 0L74.6199 13.3752L72.508 18.7052L66.1724 34.5946L79.9499 48.4727Z" fill="#FBFBFB"/>
<path d="M146.625 74.4182L141.295 72.3064L125.506 66.0713L111.527 79.9494L125.305 93.7268L141.295 87.2907L146.625 85.0782L160 79.7482L146.625 74.4182Z" fill="#FBFBFB"/>
<path d="M79.9499 111.527L66.1724 125.405L72.508 141.295L74.6199 146.625L79.9499 160L85.3804 146.625L87.4923 141.295L93.8279 125.405L79.9499 111.527Z" fill="#FBFBFB"/>
</g>
<defs>
<clipPath id="clip0_944_214">
<rect width="160" height="160" fill="white"/>
</clipPath>
</defs>
</svg>
