<svg width="279" height="82" viewBox="0 0 279 82" fill="none" xmlns="http://www.w3.org/2000/svg">
<g clip-path="url(#clip0_418_2707)">
<path d="M55.5734 38.9128L54.9496 39.5312H44.9163L48.4513 36.0265L50.5308 33.9649L51.7265 32.8311H61.7598L55.5734 38.9128Z" fill="#FBFBFB"/>
<path d="M27.7607 42.4688H37.7939L31.0878 49.1174H21.0545L27.7607 42.4688Z" fill="#FBFBFB"/>
<path d="M39.8726 44.5312V54.4784L33.1144 61.2302V51.2314L34.2581 50.0976L36.3375 48.036L39.8726 44.5312Z" fill="#FBFBFB"/>
<path d="M42.8361 54.4784V44.5312L46.3711 48.036L48.4505 50.0976L49.5942 51.283V61.2302L43.4599 55.0969L42.8361 54.4784Z" fill="#FBFBFB"/>
<path d="M50.5303 48.0351L48.4508 45.9735L44.9158 42.4688H54.9491L55.5729 43.0872L61.6553 49.1174H51.622L50.5303 48.0351Z" fill="#FBFBFB"/>
<path d="M31.0358 32.8311L32.1795 33.9649L34.2589 36.0265L37.7939 39.5312H27.7607L20.9505 32.8311H31.0358Z" fill="#FBFBFB"/>
<path d="M34.2586 31.9022L33.1149 30.7167V20.7695L39.2492 26.9028L39.873 27.5213V37.4685L36.338 33.9638L34.2586 31.9022Z" fill="#FBFBFB"/>
<path d="M42.8361 27.5213L43.4599 26.9028L49.5942 20.7695V30.7167L42.8361 37.4685V27.5213Z" fill="#FBFBFB"/>
<path d="M52.6102 20.8213H61.7598V29.8923H52.6102V20.8213Z" fill="#FBFBFB"/>
<path d="M21.0541 20.8213H30.2036V29.8923H21.0541V20.8213Z" fill="#FBFBFB"/>
<path d="M52.6102 52.0547H61.7598V61.1257H52.6102V52.0547Z" fill="#FBFBFB"/>
<path d="M21.0541 52.0547H30.2036V61.1257H21.0541V52.0547Z" fill="#FBFBFB"/>
<path d="M11.9567 53.3447C13.5683 57.1071 15.8557 60.5088 18.8189 63.395C21.7821 66.2812 25.1612 68.6005 28.9561 70.1983C30.7237 70.9714 32.5952 71.5383 34.4667 71.9506L35.6104 74.8369C21.1063 72.4145 9.61736 61.0242 7.226 46.6445L10.1372 47.83C10.5531 49.6338 11.1769 51.4893 11.9567 53.3447Z" fill="#FBFBFB"/>
<path d="M70.8049 28.6562C69.1933 24.8938 66.9059 21.4922 63.9427 18.6059C61.0315 15.7197 57.6004 13.4004 53.8055 11.8027C52.0379 11.0296 50.1664 10.4626 48.295 10.0503L47.1513 7.16406C61.5514 9.58644 72.9363 20.8737 75.4316 35.2018L72.5204 34.0679C72.1045 32.2125 71.5327 30.4086 70.8049 28.6562Z" fill="#FBFBFB"/>
<path d="M53.8057 70.1465C57.6007 68.5488 61.0318 66.281 63.943 63.3432C66.8542 60.4055 69.1936 57.1069 70.8051 53.3445C71.5849 51.5406 72.1568 49.6852 72.5727 47.7782L75.4839 46.5928C73.0925 61.0239 61.6556 72.4143 47.0995 74.8366L48.2432 71.9504C50.1667 71.4865 51.9862 70.9196 53.8057 70.1465Z" fill="#FBFBFB"/>
<path d="M28.9042 11.8027C25.1092 13.4004 21.6781 15.6681 18.7669 18.6059C15.8557 21.4922 13.5163 24.8938 11.9047 28.6562C11.1769 30.4086 10.6051 32.2125 10.1892 34.0164L7.27798 35.1502C9.72132 20.8221 21.1582 9.5349 35.6104 7.16406L34.4667 10.0503C32.5432 10.5142 30.7237 11.0811 28.9042 11.8027Z" fill="#FBFBFB"/>
<path d="M64.7748 48.0348L57.6527 40.9738L64.8788 33.8613L73.0406 37.0568L75.7958 38.1391L82.71 40.8192L75.8478 43.6024L73.0926 44.7363L64.7748 48.0348Z" fill="#FBFBFB"/>
<path d="M41.3804 24.8422L34.2063 17.7297L37.4814 9.58642L38.5731 6.85481L41.3804 0L44.1356 6.85481L45.2273 9.58642L48.5024 17.7297L41.3804 24.8422Z" fill="#FBFBFB"/>
<path d="M6.91353 38.1391L9.66879 37.0568L17.8306 33.8613L25.0566 40.9738L17.9346 48.0348L9.66879 44.7363L6.91353 43.6024L-0.000610352 40.8708L6.91353 38.1391Z" fill="#FBFBFB"/>
<path d="M41.3804 57.1572L48.5024 64.2697L45.2273 72.413L44.1356 75.1447L41.3804 81.9995L38.5731 75.1447L37.4814 72.413L34.2063 64.2697L41.3804 57.1572Z" fill="#FBFBFB"/>
</g>
<path d="M102.51 52.9325V29.3564H113.454V31.5903H105.568V35.5795H109.471C110.517 35.5795 111.389 35.7391 112.086 36.0582C112.784 36.3773 113.307 36.8959 113.655 37.614C114.031 38.332 114.219 39.2894 114.219 40.4862V46.9886C114.219 48.1587 114.111 49.1294 113.897 49.9007C113.682 50.6719 113.36 51.2836 112.931 51.7357C112.529 52.1612 112.006 52.4671 111.362 52.6532C110.745 52.8394 109.994 52.9325 109.109 52.9325H102.51ZM108.465 51.257C109.243 51.257 109.82 51.1107 110.195 50.8182C110.571 50.5257 110.825 50.1134 110.96 49.5816C111.094 49.0497 111.161 48.4513 111.161 47.7864V40.8452C111.161 40.2601 111.094 39.715 110.96 39.2097C110.852 38.6778 110.597 38.2656 110.195 37.973C109.82 37.6539 109.229 37.4943 108.425 37.4943H105.568V51.257H108.465Z" fill="#FBFBFB"/>
<path d="M122.98 53.2117C121.693 53.2117 120.62 53.0521 119.761 52.733C118.93 52.4139 118.299 51.8155 117.87 50.9379C117.468 50.0603 117.266 48.8236 117.266 47.2279V38.2523C117.266 36.2843 117.709 34.9013 118.594 34.1035C119.506 33.2791 120.968 32.8669 122.98 32.8669C124.965 32.8669 126.4 33.2658 127.285 34.0636C128.198 34.8614 128.654 36.2577 128.654 38.2523V47.2279C128.654 48.797 128.452 50.0204 128.05 50.898C127.648 51.7756 127.017 52.3873 126.159 52.733C125.327 53.0521 124.268 53.2117 122.98 53.2117ZM122.98 51.3368C123.919 51.3368 124.59 51.0974 124.992 50.6187C125.394 50.14 125.596 49.2757 125.596 48.0258V38.0528C125.596 36.856 125.394 36.005 124.992 35.4997C124.616 34.9944 123.946 34.7418 122.98 34.7418C122.041 34.7418 121.357 34.9944 120.928 35.4997C120.526 35.9784 120.324 36.8294 120.324 38.0528V48.0258C120.324 49.2757 120.526 50.14 120.928 50.6187C121.357 51.0974 122.041 51.3368 122.98 51.3368Z" fill="#FBFBFB"/>
<path d="M131.768 52.9325V33.2259H134.504V47.4274L140.58 33.2259H143.316V52.9325H140.62V38.0528C139.574 40.5527 138.528 43.0393 137.482 45.5126C136.462 47.9593 135.403 50.4326 134.303 52.9325H131.768ZM137.482 31.1515C136.409 31.1515 135.577 30.952 134.987 30.5531C134.397 30.1276 133.981 29.6356 133.739 29.0771C133.525 28.492 133.404 27.9601 133.377 27.4814H135.148C135.228 28.1995 135.483 28.7314 135.912 29.0771C136.368 29.4228 136.891 29.5957 137.482 29.5957C138.152 29.5957 138.702 29.4361 139.131 29.117C139.56 28.7713 139.815 28.2261 139.896 27.4814H141.666C141.639 28.0665 141.478 28.6383 141.183 29.1968C140.915 29.7553 140.472 30.2207 139.856 30.593C139.265 30.9653 138.474 31.1515 137.482 31.1515Z" fill="#FBFBFB"/>
<path d="M146.542 52.9325V33.186H149.6V41.3638C150.352 39.8213 151.237 38.465 152.256 37.2949C153.275 36.1247 154.335 35.2205 155.435 34.5822C156.561 33.9439 157.594 33.6381 158.533 33.6647V35.7391C157.836 35.8986 157.205 36.1779 156.642 36.5768C156.079 36.9757 155.569 37.4278 155.113 37.9331C154.791 38.2789 154.483 38.6512 154.187 39.0501C153.919 39.4224 153.664 39.8213 153.423 40.2469L158.412 52.9325H154.912L150.808 43.5579C150.566 43.9302 150.325 44.3424 150.083 44.7945C149.869 45.2466 149.708 45.5791 149.6 45.7918V52.9325H146.542Z" fill="#FBFBFB"/>
<path d="M166.832 53.2117C165.545 53.2117 164.472 53.0521 163.613 52.733C162.782 52.4139 162.151 51.8155 161.722 50.9379C161.32 50.0603 161.119 48.8236 161.119 47.2279V38.2523C161.119 36.2843 161.561 34.9013 162.446 34.1035C163.359 33.2791 164.82 32.8669 166.832 32.8669C168.817 32.8669 170.252 33.2658 171.138 34.0636C172.05 34.8614 172.506 36.2577 172.506 38.2523V47.2279C172.506 48.797 172.305 50.0204 171.902 50.898C171.5 51.7756 170.869 52.3873 170.011 52.733C169.179 53.0521 168.12 53.2117 166.832 53.2117ZM166.832 51.3368C167.771 51.3368 168.442 51.0974 168.844 50.6187C169.247 50.14 169.448 49.2757 169.448 48.0258V38.0528C169.448 36.856 169.247 36.005 168.844 35.4997C168.469 34.9944 167.798 34.7418 166.832 34.7418C165.893 34.7418 165.209 34.9944 164.78 35.4997C164.378 35.9784 164.177 36.8294 164.177 38.0528V48.0258C164.177 49.2757 164.378 50.14 164.78 50.6187C165.209 51.0974 165.893 51.3368 166.832 51.3368Z" fill="#FBFBFB"/>
<path d="M181.925 52.9325V29.3564H185.707L190.334 47.4673L195.042 29.3564H198.704V52.9325H195.967V34.2631L191.421 52.9325H189.248L184.701 34.2631V52.9325H181.925Z" fill="#FBFBFB"/>
<path d="M206.599 53.2117C205.955 53.2117 205.325 53.1186 204.708 52.9325C204.091 52.7729 203.568 52.3873 203.139 51.7756C202.71 51.1639 202.495 50.2065 202.495 48.9034V46.7891C202.495 45.486 202.884 44.4355 203.662 43.6377C204.467 42.8398 205.607 42.1218 207.082 41.4835C207.967 41.0846 208.692 40.7256 209.255 40.4064C209.818 40.0607 210.234 39.6884 210.502 39.2894C210.77 38.8639 210.905 38.3054 210.905 37.614V36.6965C210.905 36.1114 210.784 35.6726 210.542 35.38C210.328 35.0609 210.019 34.8348 209.617 34.7019C209.241 34.5689 208.826 34.5024 208.37 34.5024C207.297 34.5024 206.586 34.8083 206.237 35.4199C205.915 36.005 205.754 36.9092 205.754 38.1326V39.808H202.978V37.8533C202.978 36.8693 203.112 36.005 203.38 35.2604C203.648 34.4891 204.172 33.8907 204.949 33.4652C205.727 33.0131 206.867 32.7871 208.37 32.7871C209.952 32.7871 211.146 32.9599 211.951 33.3057C212.756 33.6248 213.292 34.1035 213.56 34.7418C213.855 35.38 214.003 36.1779 214.003 37.1353V52.9325H210.945V50.539C210.65 51.4166 210.086 52.0814 209.255 52.5336C208.45 52.9857 207.565 53.2117 206.599 53.2117ZM207.806 51.1772C208.906 51.1772 209.684 50.8049 210.14 50.0603C210.623 49.289 210.864 48.2518 210.864 46.9487V40.9649C210.623 41.3638 210.221 41.7229 209.657 42.042C209.121 42.3345 208.571 42.6404 208.008 42.9595C207.203 43.4382 206.572 43.9302 206.116 44.4355C205.687 44.9408 205.473 45.6456 205.473 46.5498V48.2651C205.473 49.1161 205.593 49.7544 205.835 50.1799C206.076 50.6054 206.371 50.8847 206.72 51.0177C207.095 51.124 207.458 51.1772 207.806 51.1772Z" fill="#FBFBFB"/>
<path d="M217.234 52.9325V33.186H220.292V41.4436H225.885V33.186H228.903V52.9325H225.885V43.7573H220.292V52.9325H217.234Z" fill="#FBFBFB"/>
<path d="M231.323 57.2807V51.0974H233.053C233.375 51.0443 233.697 50.898 234.019 50.6586C234.341 50.4193 234.622 50.0603 234.864 49.5816C235.132 49.0763 235.306 48.4247 235.387 47.6269L236.875 33.2259H246.975V51.0974H250.154V57.2807H247.538V53.4511H233.938V57.2807H231.323ZM237.278 51.0974H243.716V35.4199H239.692L238.445 47.0684C238.364 47.7864 238.244 48.5577 238.083 49.3821C237.948 50.1799 237.68 50.7517 237.278 51.0974Z" fill="#FBFBFB"/>
<path d="M252.961 57.5599V33.186H255.858L255.938 34.8614C256.18 34.3561 256.555 33.904 257.065 33.5051C257.602 33.1062 258.473 32.9067 259.681 32.9067C260.861 32.9067 261.786 33.1062 262.457 33.5051C263.128 33.8774 263.61 34.4359 263.905 35.1806C264.201 35.8986 264.348 36.7763 264.348 37.8134V47.5072C264.348 48.7039 264.214 49.7278 263.946 50.5789C263.677 51.4299 263.208 52.0814 262.537 52.5336C261.867 52.9857 260.914 53.2117 259.681 53.2117C258.688 53.2117 257.897 53.0521 257.307 52.733C256.716 52.3873 256.274 51.9884 255.979 51.5363V57.5599H252.961ZM258.634 51.4166C259.305 51.4166 259.815 51.3235 260.163 51.1373C260.512 50.9512 260.767 50.6985 260.928 50.3794C261.116 50.0603 261.223 49.7012 261.25 49.3023C261.277 48.9034 261.29 48.4779 261.29 48.0258V38.2124C261.29 37.7603 261.277 37.3347 261.25 36.9358C261.223 36.5369 261.116 36.1779 260.928 35.8587C260.767 35.513 260.512 35.2471 260.163 35.0609C259.815 34.8747 259.305 34.7817 258.634 34.7817C257.991 34.7817 257.481 34.9013 257.105 35.1407C256.757 35.38 256.502 35.6859 256.341 36.0582C256.18 36.4039 256.086 36.8029 256.059 37.255C256.032 37.6805 256.019 38.0794 256.019 38.4517V48.2252C256.019 48.8369 256.073 49.3821 256.18 49.8608C256.287 50.3395 256.529 50.7251 256.904 51.0177C257.28 51.2836 257.856 51.4166 258.634 51.4166Z" fill="#FBFBFB"/>
<path d="M267.452 52.9325V33.2259H270.188V47.4274L276.264 33.2259H279V52.9325H276.304V38.0528C275.258 40.5527 274.212 43.0393 273.166 45.5126C272.146 47.9593 271.087 50.4326 269.987 52.9325H267.452Z" fill="#FBFBFB"/>
<defs>
<clipPath id="clip0_418_2707">
<rect width="82.7097" height="82" fill="white" transform="matrix(-1 0 0 1 82.71 0)"/>
</clipPath>
</defs>
</svg>
