<svg width="210" height="64" viewBox="0 0 210 64" fill="none" xmlns="http://www.w3.org/2000/svg">
<g clip-path="url(#clip0_574_410)">
<path d="M43.0016 30.3707L42.5189 30.8534H34.7553L37.4906 28.1181L39.0997 26.509L40.0249 25.624H47.7886L43.0016 30.3707Z" fill="#01594D"/>
<path d="M21.48 33.1465H29.2437L24.0545 38.3357H16.2908L21.48 33.1465Z" fill="#01594D"/>
<path d="M30.8525 34.7554V42.519L25.6231 47.7887V39.9848L26.5081 39.0998L28.1172 37.4908L30.8525 34.7554Z" fill="#01594D"/>
<path d="M33.1456 42.519V34.7554L35.881 37.4908L37.49 39.0998L38.375 40.025V47.7887L33.6283 43.0018L33.1456 42.519Z" fill="#01594D"/>
<path d="M39.0991 37.4909L37.49 35.8819L34.7547 33.1465H42.5183L43.001 33.6292L47.7075 38.3357H39.9439L39.0991 37.4909Z" fill="#01594D"/>
<path d="M24.0142 25.624L24.8992 26.509L26.5083 28.1181L29.2437 30.8534H21.48L16.2103 25.624H24.0142Z" fill="#01594D"/>
<path d="M26.5081 24.8998L25.6231 23.9746V16.2109L30.3698 20.9979L30.8525 21.4806V29.2442L28.1172 26.5089L26.5081 24.8998Z" fill="#01594D"/>
<path d="M33.1456 21.4806L33.6283 20.9979L38.375 16.2109V23.9746L33.1456 29.2442V21.4806Z" fill="#01594D"/>
<path d="M40.7088 16.2515H47.7886V23.3313H40.7088V16.2515Z" fill="#01594D"/>
<path d="M16.2913 16.2515H23.3711V23.3313H16.2913V16.2515Z" fill="#01594D"/>
<path d="M40.7088 40.6284H47.7886V47.7082H40.7088V40.6284Z" fill="#01594D"/>
<path d="M16.2913 40.6284H23.3711V47.7082H16.2913V40.6284Z" fill="#01594D"/>
<path d="M9.25125 41.6342C10.4983 44.5707 12.2682 47.2257 14.5611 49.4783C16.854 51.731 19.4687 53.5412 22.4052 54.7882C23.7729 55.3916 25.2211 55.8341 26.6692 56.1559L27.5542 58.4086C16.3311 56.5179 7.44107 47.6279 5.59066 36.4048L7.84333 37.33C8.16514 38.7379 8.64785 40.1861 9.25125 41.6342Z" fill="#01594D"/>
<path d="M54.788 22.3657C53.541 19.4291 51.7711 16.7742 49.4782 14.5215C47.2255 12.2689 44.5706 10.4587 41.634 9.21167C40.2663 8.60828 38.8182 8.16579 37.3701 7.84398L36.4851 5.59131C47.6278 7.48194 56.4373 16.2915 58.3682 27.4744L56.1155 26.5894C55.7937 25.1413 55.3512 23.7334 54.788 22.3657Z" fill="#01594D"/>
<path d="M41.6339 54.7477C44.5704 53.5006 47.2253 51.7307 49.478 49.4378C51.7306 47.1449 53.5408 44.5704 54.7878 41.6339C55.3912 40.226 55.8337 38.7778 56.1555 37.2895L58.4082 36.3643C56.5578 47.6276 47.708 56.5176 36.4447 58.4082L37.3296 56.1556C38.818 55.7935 40.2259 55.3511 41.6339 54.7477Z" fill="#01594D"/>
<path d="M22.365 9.21167C19.4285 10.4587 16.7736 12.2286 14.5209 14.5215C12.2682 16.7742 10.458 19.4291 9.21102 22.3657C8.64785 23.7334 8.20536 25.1413 7.88355 26.5492L5.63088 27.4342C7.52151 16.2513 16.3713 7.44172 27.5542 5.59131L26.6692 7.84398C25.1808 8.20602 23.7729 8.6485 22.365 9.21167Z" fill="#01594D"/>
<path d="M50.1214 37.4909L44.6104 31.9799L50.2019 26.4287L56.5174 28.9227L58.6494 29.7675L63.9995 31.8593L58.6896 34.0315L56.5577 34.9165L50.1214 37.4909Z" fill="#01594D"/>
<path d="M32.0193 19.3891L26.468 13.8378L29.0023 7.48209L29.8471 5.35009L32.0193 0L34.1513 5.35009L34.996 7.48209L37.5303 13.8378L32.0193 19.3891Z" fill="#01594D"/>
<path d="M5.34921 29.7675L7.48121 28.9227L13.7967 26.4287L19.3882 31.9799L13.8772 37.4909L7.48121 34.9165L5.34921 34.0315L-0.000881195 31.8995L5.34921 29.7675Z" fill="#01594D"/>
<path d="M32.0193 44.6108L37.5303 50.1621L34.996 56.5178L34.1513 58.6498L32.0193 63.9999L29.8471 58.6498L29.0023 56.5178L26.468 50.1621L32.0193 44.6108Z" fill="#01594D"/>
</g>
<path d="M76.4507 41.3129V22.9121H84.7323V24.6556H78.7647V27.7692H81.7181C82.5097 27.7692 83.1694 27.8937 83.6971 28.1428C84.2249 28.3919 84.6207 28.7966 84.8846 29.3571C85.1688 29.9175 85.3108 30.6647 85.3108 31.5988V36.6738C85.3108 37.5871 85.2296 38.3447 85.0673 38.9467C84.9049 39.5486 84.6613 40.026 84.3365 40.3789C84.0321 40.711 83.6362 40.9497 83.1491 41.095C82.6822 41.2403 82.1139 41.3129 81.444 41.3129H76.4507ZM80.9569 40.0053C81.5455 40.0053 81.9819 39.8911 82.2661 39.6628C82.5503 39.4345 82.7431 39.1127 82.8446 38.6976C82.9461 38.2825 82.9968 37.8154 82.9968 37.2965V31.879C82.9968 31.4224 82.9461 30.9968 82.8446 30.6025C82.7634 30.1873 82.5706 29.8656 82.2661 29.6373C81.9819 29.3882 81.5354 29.2636 80.9264 29.2636H78.7647V40.0053H80.9569Z" fill="#131415"/>
<path d="M91.9405 41.5309C90.9662 41.5309 90.1543 41.4064 89.5047 41.1573C88.8755 40.9082 88.3985 40.4412 88.0737 39.7562C87.7692 39.0712 87.617 38.106 87.617 36.8606V29.8552C87.617 28.3192 87.9519 27.2399 88.6217 26.6172C89.3119 25.9737 90.4181 25.652 91.9405 25.652C93.4426 25.652 94.5285 25.9633 95.1984 26.586C95.8885 27.2087 96.2336 28.2985 96.2336 29.8552V36.8606C96.2336 38.0853 96.0813 39.0401 95.7769 39.7251C95.4724 40.41 94.9954 40.8874 94.3458 41.1573C93.7166 41.4064 92.9148 41.5309 91.9405 41.5309ZM91.9405 40.0675C92.6509 40.0675 93.1584 39.8807 93.4629 39.5071C93.7673 39.1335 93.9196 38.4589 93.9196 37.4833V29.6995C93.9196 28.7655 93.7673 28.1013 93.4629 27.7069C93.1787 27.3125 92.6712 27.1153 91.9405 27.1153C91.2301 27.1153 90.7125 27.3125 90.3877 27.7069C90.0832 28.0805 89.931 28.7447 89.931 29.6995V37.4833C89.931 38.4589 90.0832 39.1335 90.3877 39.5071C90.7125 39.8807 91.2301 40.0675 91.9405 40.0675Z" fill="#131415"/>
<path d="M98.5901 41.3129V25.9322H100.661V37.0163L105.258 25.9322H107.328V41.3129H105.289V29.6995C104.497 31.6507 103.705 33.5914 102.914 35.5218C102.142 37.4314 101.341 39.3618 100.508 41.3129H98.5901ZM102.914 24.3132C102.102 24.3132 101.472 24.1575 101.026 23.8461C100.579 23.514 100.265 23.13 100.082 22.6941C99.9197 22.2375 99.8283 21.8224 99.808 21.4487H101.148C101.209 22.0092 101.401 22.4243 101.726 22.6941C102.071 22.964 102.467 23.0989 102.914 23.0989C103.421 23.0989 103.837 22.9744 104.162 22.7253C104.487 22.4554 104.68 22.0299 104.74 21.4487H106.08C106.06 21.9054 105.938 22.3516 105.715 22.7875C105.512 23.2234 105.177 23.5867 104.71 23.8773C104.263 24.1679 103.665 24.3132 102.914 24.3132Z" fill="#131415"/>
<path d="M109.77 41.3129V25.9011H112.084V32.2838C112.652 31.0799 113.322 30.0213 114.093 29.108C114.865 28.1947 115.667 27.4889 116.499 26.9908C117.351 26.4926 118.133 26.2539 118.843 26.2747V27.8937C118.316 28.0182 117.839 28.2362 117.412 28.5475C116.986 28.8589 116.6 29.2118 116.255 29.6061C116.012 29.876 115.778 30.1666 115.555 30.4779C115.352 30.7685 115.159 31.0799 114.976 31.412L118.752 41.3129H116.103L112.997 33.9962C112.815 34.2868 112.632 34.6085 112.449 34.9614C112.287 35.3142 112.165 35.5737 112.084 35.7398V41.3129H109.77Z" fill="#131415"/>
<path d="M125.123 41.5309C124.149 41.5309 123.337 41.4064 122.687 41.1573C122.058 40.9082 121.581 40.4412 121.256 39.7562C120.952 39.0712 120.8 38.106 120.8 36.8606V29.8552C120.8 28.3192 121.135 27.2399 121.805 26.6172C122.495 25.9737 123.601 25.652 125.123 25.652C126.625 25.652 127.711 25.9633 128.381 26.586C129.071 27.2087 129.416 28.2985 129.416 29.8552V36.8606C129.416 38.0853 129.264 39.0401 128.96 39.7251C128.655 40.41 128.178 40.8874 127.529 41.1573C126.899 41.4064 126.098 41.5309 125.123 41.5309ZM125.123 40.0675C125.834 40.0675 126.341 39.8807 126.646 39.5071C126.95 39.1335 127.102 38.4589 127.102 37.4833V29.6995C127.102 28.7655 126.95 28.1013 126.646 27.7069C126.361 27.3125 125.854 27.1153 125.123 27.1153C124.413 27.1153 123.895 27.3125 123.57 27.7069C123.266 28.0805 123.114 28.7447 123.114 29.6995V37.4833C123.114 38.4589 123.266 39.1335 123.57 39.5071C123.895 39.8807 124.413 40.0675 125.123 40.0675Z" fill="#131415"/>
<path d="M136.544 41.3129V22.9121H139.406L142.907 37.0474L146.469 22.9121H149.24V41.3129H147.17V26.7417L143.729 41.3129H142.085L138.644 26.7417V41.3129H136.544Z" fill="#131415"/>
<path d="M155.215 41.5309C154.728 41.5309 154.251 41.4582 153.784 41.3129C153.317 41.1884 152.921 40.8874 152.596 40.41C152.271 39.9326 152.109 39.1854 152.109 38.1683V36.5181C152.109 35.5011 152.403 34.6812 152.992 34.0585C153.601 33.4358 154.464 32.8753 155.58 32.3772C156.25 32.0658 156.798 31.7856 157.224 31.5365C157.65 31.2667 157.965 30.9761 158.168 30.6647C158.371 30.3326 158.473 29.8967 158.473 29.3571V28.6409C158.473 28.1843 158.381 27.8418 158.199 27.6135C158.036 27.3644 157.803 27.188 157.498 27.0842C157.214 26.9804 156.899 26.9285 156.554 26.9285C155.742 26.9285 155.205 27.1672 154.941 27.6446C154.697 28.1013 154.575 28.807 154.575 29.7618V31.0695H152.474V29.5439C152.474 28.7759 152.576 28.1013 152.779 27.5201C152.982 26.9181 153.378 26.4511 153.966 26.119C154.555 25.7661 155.418 25.5897 156.554 25.5897C157.752 25.5897 158.655 25.7246 159.264 25.9945C159.873 26.2435 160.279 26.6172 160.482 27.1153C160.705 27.6135 160.817 28.2362 160.817 28.9834V41.3129H158.503V39.4448C158.28 40.1298 157.853 40.6487 157.224 41.0016C156.615 41.3545 155.945 41.5309 155.215 41.5309ZM156.128 39.943C156.96 39.943 157.549 39.6524 157.894 39.0712C158.259 38.4693 158.442 37.6598 158.442 36.6427V31.9724C158.259 32.2838 157.955 32.564 157.529 32.8131C157.123 33.0414 156.707 33.2801 156.28 33.5292C155.671 33.9028 155.194 34.2868 154.849 34.6812C154.525 35.0755 154.362 35.6256 154.362 36.3313V37.6701C154.362 38.3344 154.453 38.8325 154.636 39.1646C154.819 39.4967 155.042 39.7147 155.306 39.8185C155.59 39.9015 155.864 39.943 156.128 39.943Z" fill="#131415"/>
<path d="M163.262 41.3129V25.9011H165.576V32.346H169.808V25.9011H172.092V41.3129H169.808V34.1519H165.576V41.3129H163.262Z" fill="#131415"/>
<path d="M173.923 44.7067V39.8807H175.232C175.476 39.8392 175.719 39.7251 175.963 39.5382C176.206 39.3514 176.42 39.0712 176.602 38.6976C176.805 38.3032 176.937 37.7947 176.998 37.172L178.125 25.9322H185.767V39.8807H188.172V44.7067H186.193V41.7177H175.902V44.7067H173.923ZM178.429 39.8807H183.301V27.6446H180.256L179.312 36.7361C179.251 37.2965 179.16 37.8985 179.038 38.5419C178.937 39.1646 178.734 39.6109 178.429 39.8807Z" fill="#131415"/>
<path d="M190.296 44.9246V25.9011H192.489L192.549 27.2087C192.732 26.8144 193.016 26.4615 193.402 26.1501C193.808 25.8388 194.468 25.6831 195.381 25.6831C196.274 25.6831 196.974 25.8388 197.482 26.1501C197.989 26.4407 198.355 26.8766 198.578 27.4578C198.801 28.0182 198.913 28.7032 198.913 29.5127V37.0786C198.913 38.0126 198.811 38.8118 198.608 39.476C198.405 40.1402 198.05 40.6487 197.543 41.0016C197.035 41.3545 196.315 41.5309 195.381 41.5309C194.63 41.5309 194.031 41.4064 193.585 41.1573C193.138 40.8874 192.803 40.5761 192.58 40.2232V44.9246H190.296ZM194.589 40.1298C195.097 40.1298 195.483 40.0572 195.746 39.9119C196.01 39.7666 196.203 39.5694 196.325 39.3203C196.467 39.0712 196.548 38.791 196.568 38.4797C196.589 38.1683 196.599 37.8362 196.599 37.4833V29.8241C196.599 29.4712 196.589 29.1391 196.568 28.8278C196.548 28.5164 196.467 28.2362 196.325 27.9871C196.203 27.7173 196.01 27.5097 195.746 27.3644C195.483 27.2191 195.097 27.1465 194.589 27.1465C194.102 27.1465 193.717 27.2399 193.432 27.4267C193.169 27.6135 192.976 27.8522 192.854 28.1428C192.732 28.4126 192.661 28.724 192.641 29.0768C192.62 29.4089 192.61 29.7203 192.61 30.0109V37.639C192.61 38.1164 192.651 38.5419 192.732 38.9155C192.813 39.2892 192.996 39.5901 193.28 39.8185C193.564 40.026 194.001 40.1298 194.589 40.1298Z" fill="#131415"/>
<path d="M201.262 41.3129V25.9322H203.332V37.0163L207.93 25.9322H210V41.3129H207.96V29.6995C207.168 31.6507 206.377 33.5914 205.585 35.5218C204.814 37.4314 204.012 39.3618 203.18 41.3129H201.262Z" fill="#131415"/>
<defs>
<clipPath id="clip0_574_410">
<rect width="64" height="64" fill="white" transform="matrix(-1 0 0 1 64 0)"/>
</clipPath>
</defs>
</svg>
