<svg width="412" height="282" viewBox="0 0 412 282" fill="none" xmlns="http://www.w3.org/2000/svg">
<path d="M178.281 257.306C178.259 257.502 178.708 257.162 178.898 257.306C179.087 257.449 179.183 257.209 179.372 257.306C179.561 257.402 179.896 257.822 179.847 257.231C179.8 256.639 179.276 256.493 179.468 255.968C179.657 255.44 179.43 255.44 179.852 255.106C180.274 254.771 180.513 254.578 180.513 254.103C180.513 253.627 180.039 253.29 179.943 252.669C179.847 252.047 180.132 251.806 180.132 251.14C180.132 250.474 180.417 250.759 180.132 250.137C179.847 249.515 179.608 249.228 179.394 249.325C179.18 249.421 179.038 249.372 178.848 249.853C178.659 250.331 178.42 250.762 178.278 250.618C178.135 250.474 178.324 250.474 178.278 250.187C178.231 249.9 178.226 249.308 178.226 249.308C178.226 249.308 177.946 248.908 177.806 249.308C177.663 249.709 177.428 249.9 177.428 249.9C177.428 249.9 176.811 249.46 176.811 249.129C176.811 248.797 177.142 248.225 177.381 247.987C177.617 247.75 178.662 246.937 178.662 246.937L179.219 246.47C179.219 246.47 178.922 246.291 178.662 246.47C178.401 246.65 177.759 247.078 177.759 247.078C177.759 247.078 176.728 247.15 176.657 246.686C176.586 246.219 176.621 245.503 176.657 244.892C176.693 244.284 176.682 243.817 176.616 243.422C176.55 243.03 176.015 241.88 176.158 241.593C176.3 241.305 176.654 240.769 176.8 240.59C176.942 240.41 177.085 240.089 176.907 239.766C176.728 239.443 176.443 239.084 176.693 238.871C176.942 238.658 177.334 238.512 177.477 238.44C177.62 238.368 178.154 237.652 178.154 237.652C178.154 237.652 178.544 237.975 178.544 238.227C178.544 238.478 178.533 238.299 178.324 238.766C178.119 239.233 177.869 239.448 178.012 240.128C178.154 240.811 178.722 241.275 179.114 241.562C179.504 241.85 179.792 242.029 179.863 242.637C179.934 243.245 180.077 243.676 179.934 244.036C179.792 244.395 179.257 244.751 179.756 244.826C180.252 244.898 180.516 244.862 180.516 244.862C180.516 244.862 180.527 245.113 180.516 245.221C180.505 245.329 180.291 245.473 180.22 245.58C180.148 245.688 180.291 245.832 180.79 245.437C181.286 245.044 181.681 244.682 182.071 244.362C182.463 244.038 182.888 243.787 183.033 243.43C183.176 243.071 183.497 242.607 183.354 242.248C183.212 241.888 183.176 241.709 182.751 241.781C182.323 241.853 181.934 241.96 181.648 241.781C181.363 241.601 180.864 241.457 181.078 240.957C181.292 240.457 181.648 239.954 182.109 239.918C182.573 239.882 183.283 239.846 183.39 240.062C183.497 240.277 183.711 240.454 183.854 240.454C183.996 240.454 184.21 240.813 184.281 240.346C184.353 239.879 184.671 239.092 184.959 238.733C185.244 238.373 185.315 238.445 185.455 238.017C185.598 237.586 185.526 237.765 185.455 237.37C185.384 236.978 185.099 237.047 185.313 236.724C185.526 236.4 185.477 236.795 185.537 236.257C185.598 235.718 185.42 235.182 185.348 235.038C185.277 234.894 184.885 234.966 184.885 234.646C184.885 234.325 185.063 233.75 185.206 233.642C185.348 233.535 185.573 233.463 185.548 234.035C185.526 234.61 185.255 234.825 185.548 235.218C185.845 235.61 186.091 236.149 186.344 236.436C186.593 236.724 187.092 236.903 187.199 237.083C187.306 237.263 187.485 237.691 187.378 237.906C187.271 238.122 184.531 240.883 184.46 241.131C184.388 241.383 183.963 241.49 184.388 241.383C184.816 241.275 187.945 238.083 188.091 237.942C188.233 237.799 188.305 237.403 188.269 237.119C188.233 236.831 188.34 235.685 188.659 235.613C188.979 235.541 189.229 235.469 189.229 236.005V236.867C189.229 236.867 189.871 236.975 190.403 236.259C190.938 235.544 191.08 235.041 191.47 234.43C191.859 233.822 192.111 233.283 192.715 232.601C193.318 231.918 197.517 227.043 197.517 227.043C197.517 227.043 197.481 226.435 197.339 226.397C197.196 226.361 196.842 226.576 196.59 226.397C196.34 226.217 196.055 226.109 196.127 225.606C196.198 225.106 196.198 224.96 196.127 224.639C196.055 224.316 195.77 223.421 195.592 223.133C195.413 222.846 195.057 222.525 194.774 222.487C194.489 222.451 194.097 222.487 193.883 222.307C193.669 222.127 193.776 221.84 193.173 221.517C192.569 221.193 192.249 221.016 191.714 220.942C191.179 220.867 191.143 221.409 190.54 220.475C189.937 219.543 189.473 218.897 189.295 218.107C189.117 217.316 189.473 216.816 189.937 216.744C190.4 216.672 190.721 216.313 190.935 216.457C191.149 216.6 191.612 216.529 191.645 217.211C191.681 217.894 191.966 218.753 191.966 219.005C191.966 219.256 192.109 219.472 192.109 219.472C192.109 219.472 192.498 219.795 192.465 219.364C192.43 218.933 192.287 218.54 192.43 218.361C192.572 218.181 192.536 217.465 192.964 217.322C193.392 217.178 193.889 217.465 193.889 217.861C193.889 218.256 193.817 218.328 193.675 218.723C193.532 219.115 193.603 219.513 193.71 219.834C193.817 220.154 193.889 220.121 194.207 220.193C194.528 220.265 195.062 220.84 195.381 221.16C195.701 221.483 195.915 222.055 195.915 222.055L195.701 222.163C195.701 222.163 195.419 222.271 195.63 222.522C195.844 222.774 195.808 223.277 196.094 223.526C196.379 223.777 196.557 224.1 196.735 224.134C196.914 224.169 197.163 224.134 197.306 224.169C197.448 224.205 197.306 224.421 197.52 224.744C197.734 225.068 197.948 225.391 197.948 225.391L198.482 225.247C198.482 225.247 198.768 225.068 198.91 224.672C199.053 224.277 198.982 224.134 199.338 223.561C199.695 222.989 199.941 222.558 200.155 222.163C200.369 221.771 200.759 221.301 201.011 220.765C201.261 220.226 201.614 219.834 201.582 219.546C201.546 219.259 201.011 218.292 200.726 217.968C200.441 217.645 200.262 217.609 200.298 217.394C200.334 217.178 200.476 217.034 200.476 216.819C200.476 216.603 200.441 216.717 200.476 216.429C200.512 216.139 201.011 215.351 201.011 215.351C201.011 215.351 201.409 215.172 201.582 216.142C201.757 217.109 201.793 217.217 201.793 217.396C201.793 217.576 202.114 218.543 202.114 218.543C202.114 218.543 202.042 218.974 202.328 218.795C202.613 218.615 203.359 217.932 203.573 217.576C203.787 217.217 204.069 216.893 204.214 216.573C204.357 216.25 204.571 216.073 204.535 215.711C204.5 215.351 204.146 214.887 204.214 214.6C204.286 214.312 204.648 213.917 204.538 213.597C204.426 213.273 204.179 212.914 204.107 212.486C204.036 212.055 203.894 211.731 204.036 211.411C204.179 211.087 205.034 210.872 205.602 210.372C206.173 209.872 206.812 208.902 207.275 208.794C207.739 208.686 208.805 208.542 209.483 208.327C210.16 208.111 210.835 208.147 211.405 207.644C211.976 207.144 212.154 207.429 212.223 206.782C212.294 206.135 212.187 204.488 212.044 203.665C211.902 202.841 211.581 202.374 211.655 201.872C211.726 201.371 211.869 201.117 211.762 200.581C211.655 200.042 211.691 200.081 211.334 199.757C210.978 199.434 210.478 199.326 210.267 198.754C210.053 198.18 210.089 197.892 209.878 197.679C209.664 197.464 208.987 197.179 208.987 197.179C208.987 197.179 208.383 197.071 208.383 196.964C208.383 196.856 208.205 196.676 208.276 196.571C208.348 196.464 208.561 196.535 208.561 196.32C208.561 196.104 208.633 196.428 208.383 195.781C208.134 195.134 207.316 194.85 207.459 193.918C207.602 192.987 207.53 190.694 207.53 190.694C207.53 190.694 207.78 190.837 207.958 191.301C208.136 191.768 208.529 192.592 208.561 193.272C208.597 193.954 208.561 194.242 208.775 194.347C208.989 194.455 209.486 194.598 209.593 194.847C209.7 195.098 209.842 196.461 209.842 196.461C209.842 196.461 209.521 196.64 209.7 196.712C209.878 196.784 210.089 196.712 210.448 196.712C210.808 196.712 210.983 196.604 211.019 197.071C211.054 197.538 211.304 198.003 211.447 198.111C211.589 198.218 211.732 198.398 211.981 198.685C212.231 198.973 212.552 199.045 212.445 199.617C212.338 200.191 212.588 200.907 212.73 201.123C212.873 201.338 212.98 201.051 212.98 201.838C212.98 202.626 212.837 203.809 212.98 204.707C213.122 205.602 212.801 205.71 212.98 206.069C213.158 206.428 213.158 206.716 213.515 206.931C213.871 207.147 214.049 207.255 214.406 207.324C214.762 207.396 215.155 207.539 215.758 207.716C216.361 207.896 216.721 207.968 216.932 207.824C217.146 207.68 217.428 208.147 217.428 207.357V205.312C217.428 204.845 217.571 204.596 217.428 204.237C217.286 203.878 217 203.629 217.25 203.483C217.499 203.339 218.106 203.195 218.174 203.734C218.245 204.273 218.281 204.665 218.174 205.204C218.067 205.743 217.96 205.384 218.067 205.743C218.174 206.102 217.853 206.351 218.174 206.102C218.495 205.851 218.352 205.635 218.638 205.348C218.92 205.06 219.066 205.025 219.241 204.773C219.419 204.522 219.598 204.198 219.562 203.878C219.526 203.554 219.205 203.087 218.885 202.767C218.564 202.444 218.207 202.408 218.243 201.872C218.278 201.333 217.957 200.617 218.421 200.832C218.884 201.048 219.282 201.156 219.565 201.728C219.847 202.303 220.058 202.551 220.165 202.659C220.272 202.767 220.522 202.839 220.522 202.515C220.522 202.192 220.272 201.907 220.522 201.44C220.771 200.973 221.018 200.686 221.446 200.509C221.874 200.33 222.088 200.15 222.263 199.97C222.442 199.791 222.513 199.396 222.798 199.578C223.083 199.758 223.295 200.045 223.083 200.368C222.869 200.692 222.587 200.907 222.266 201.479C221.945 202.054 221.482 202.985 221.482 202.985C221.482 202.985 220.985 204.168 220.804 204.599C220.626 205.03 220.483 205.746 220.234 205.961C219.984 206.177 219.485 206.716 219.485 206.716C219.485 206.716 219.521 207.075 220.056 207.075C220.59 207.075 220.98 207.398 221.586 206.824C222.189 206.249 222.9 205.856 223.168 205.749C223.437 205.641 224.718 205.569 225.36 205.713C226.002 205.856 226.605 206.036 226.961 206.213C227.318 206.392 227.96 206.752 228.42 206.644C228.884 206.536 229.276 206.644 229.383 206.144C229.49 205.644 229.597 204.71 229.986 204.314C230.376 203.919 230.985 203.599 230.521 203.168C230.058 202.736 229.811 202.775 229.597 202.129C229.383 201.482 228.994 201.446 229.276 200.766C229.561 200.084 230.093 199.548 230.414 199.045C230.735 198.544 231.27 198.113 231.306 197.574C231.341 197.036 231.484 196.464 231.306 196.428C231.127 196.392 230.414 196.535 230.274 196.248C230.132 195.961 229.847 195.709 229.992 195.386C230.135 195.062 230.242 194.886 230.381 194.631C230.524 194.38 230.738 193.916 230.524 193.736C230.31 193.556 229.989 193.305 230.167 193.128C230.346 192.948 230.845 192.374 231.166 192.948C231.487 193.523 231.627 193.988 231.396 194.203C231.166 194.419 230.277 194.095 230.916 194.919C231.555 195.742 231.84 195.601 232.126 195.958C232.411 196.317 232.803 196.102 232.515 196.928C232.23 197.751 232.126 197.644 231.805 198.29C231.484 198.937 231.377 198.29 231.201 199.76C231.023 201.23 230.774 201.374 230.988 202.054C231.201 202.736 231.451 203.057 231.629 203.416C231.808 203.775 231.808 203.955 231.912 204.278C232.019 204.602 232.233 204.779 232.268 204.925C232.304 205.069 232.233 205.5 232.375 205.715C232.518 205.931 232.482 206.398 233.193 206.539C233.903 206.683 234.937 206.683 235.186 206.862C235.436 207.042 235.757 207.329 235.79 207.686C235.825 208.045 235.433 208.368 235.79 208.44C236.146 208.512 236.286 208.763 236.574 208.512C236.859 208.261 237.178 207.829 237.391 207.758C237.605 207.686 238.672 207.542 239.029 207.722C239.385 207.901 239.457 208.222 239.813 208.33C240.17 208.437 240.562 208.545 241.058 208.581C241.555 208.617 242.125 208.581 242.517 208.689C242.907 208.797 242.981 208.761 242.981 209.189C242.981 209.617 242.945 209.728 242.981 210.12C243.016 210.513 243.017 210.695 242.517 210.982C242.021 211.27 240.312 211.483 239.564 211.449C238.815 211.416 236.678 210.734 236.146 210.734C235.614 210.734 235.186 211.093 234.224 211.126C233.261 211.162 231.446 210.659 230.842 210.372C230.239 210.084 230.379 209.905 229.668 209.905C228.958 209.905 226.75 209.977 226.501 209.905C226.251 209.833 223.547 209.761 223.297 209.797C223.048 209.833 221.731 209.007 221.731 209.007C221.731 209.007 221.342 208.755 221.446 209.043C221.553 209.33 222.477 209.866 223.119 210.405C223.761 210.944 224.117 211.552 224.756 212.055C225.398 212.555 225.541 212.809 225.823 212.701C226.108 212.594 226.108 212.162 226.394 211.914C226.679 211.662 227.568 211.629 227.924 211.629C228.281 211.629 228.174 211.342 228.887 211.449C229.597 211.557 229.635 211.665 230.061 211.988C230.488 212.312 230.985 212.635 231.341 212.635C231.698 212.635 231.945 212.419 232.126 212.243C232.304 212.063 232.589 211.85 232.874 212.207C233.16 212.563 233.73 212.707 233.977 213.21C234.227 213.71 234.619 214 234.44 214.393C234.262 214.785 234.298 214.931 233.944 214.931C233.59 214.931 233.374 214.644 233.267 215.039C233.16 215.432 233.338 215.686 232.663 215.901C231.986 216.117 229.709 216.584 229.282 216.797C228.854 217.009 227.894 217.228 227.716 217.692C227.537 218.159 228.001 219.126 228.357 219.162C228.714 219.198 229.567 219.27 229.923 218.731C230.28 218.192 230.458 217.369 230.672 217.369C230.886 217.369 230.743 217.441 231.35 217.943C231.956 218.446 233.129 219.054 233.486 219.09C233.843 219.126 234.517 219.018 234.66 219.018C234.802 219.018 234.909 219.162 235.156 219.626C235.406 220.093 235.121 220.234 236.508 220.701C237.896 221.168 238.538 221.24 238.966 221.132C239.394 221.025 239.5 220.773 239.676 221.025C239.854 221.276 240.279 221.779 239.89 221.848C239.5 221.92 239.319 221.74 239.213 221.992C239.106 222.243 239.569 222.674 238.749 222.639C237.932 222.603 226.896 220.486 226.577 220.453C226.257 220.417 225.546 220.381 225.511 220.093C225.475 219.806 225.19 219.378 225.19 219.378C225.19 219.378 225.011 219.557 224.405 219.45C223.802 219.342 223.232 219.162 222.946 218.767C222.661 218.372 222.236 217.836 222.129 217.476C222.022 217.117 221.915 216.794 221.879 216.509C221.844 216.222 221.665 215.827 221.523 215.794C221.38 215.76 220.988 215.111 220.988 215.614C220.988 216.117 221.024 216.509 221.166 217.048C221.309 217.587 221.059 218.339 221.877 218.985C222.694 219.632 223.407 219.917 224.189 220.168C224.973 220.42 225.862 220.635 225.862 220.635L239.067 223.18C239.067 223.18 240.811 223.468 241.738 223.647C242.663 223.827 243.483 224.222 244.264 224.438C245.049 224.653 245.296 224.761 245.902 224.797C246.505 224.833 247.004 224.761 247.361 224.833C247.717 224.905 248.428 225.084 249.034 225.156C249.637 225.228 249.818 225.443 250.882 225.515C251.949 225.587 254.335 225.731 255.152 225.767C255.97 225.803 257.075 225.839 257.215 225.803C257.357 225.767 257.251 225.659 257.5 225.587C257.75 225.515 257.996 225.515 257.996 225.515C257.996 225.515 257.569 225.192 257.105 225.156C256.642 225.12 256.609 225.084 256.356 225.156C256.107 225.228 255.929 225.3 255.608 225.3C255.287 225.3 254.966 225.084 254.609 224.94C254.253 224.797 254.36 224.581 253.825 224.833C253.29 225.084 253.115 225.12 252.687 225.084C252.259 225.048 251.796 224.761 251.406 224.833C251.017 224.905 251.263 224.976 250.622 224.94C249.98 224.905 249.59 224.761 249.27 224.725C248.949 224.689 248.806 224.761 248.307 224.581C247.811 224.402 247.062 224.183 246.919 224.131C246.777 224.078 246.812 223.755 247.454 223.683C248.096 223.611 249.163 223.575 249.697 223.36C250.232 223.144 250.054 222.752 251.228 222.677C252.402 222.605 253.257 222.39 254.395 222.39C255.534 222.39 256.672 222.569 257.135 222.498C257.599 222.426 257.953 222.031 257.991 221.782C258.027 221.53 257.741 221.566 257.991 221.282C258.241 220.994 258.487 220.743 258.808 220.815C259.129 220.887 259.198 221.246 259.557 221.246C259.916 221.246 260.555 221.282 260.909 221.03C261.263 220.779 261.619 219.704 261.833 219.345C262.047 218.985 262.083 217.946 262.261 218.737C262.439 219.527 262.511 219.991 262.511 220.207C262.511 220.422 262.333 220.458 262.261 220.782C262.19 221.105 261.905 221.389 262.19 221.464C262.475 221.536 262.867 221.356 263.188 221.249C263.509 221.141 264.08 221.033 264.362 221.141C264.645 221.249 265.004 221.284 264.751 221.572C264.502 221.859 264.255 222.072 264.217 222.288C264.181 222.503 264.181 222.755 264.431 222.68C264.68 222.608 265.034 222.141 265.215 222.072C265.393 222 266.071 223.398 266.888 223.686C267.705 223.973 267.779 224.045 268.026 223.973C268.276 223.901 268.736 223.83 268.986 223.973C269.236 224.117 269.45 224.291 269.628 224.134C269.806 223.973 269.556 223.686 269.45 223.473C269.343 223.258 269.43 222.898 269.688 222.791C269.946 222.683 270.302 222.934 270.335 222.575C270.371 222.216 270.121 221.967 270.014 221.859C269.908 221.751 269.48 221.392 269.801 221.144C270.121 220.892 270.264 220.82 270.549 220.751C270.835 220.679 270.799 220.607 270.977 220.32C271.155 220.035 271.12 219.566 271.441 219.853C271.762 220.14 271.868 220.964 272.118 221.144C272.368 221.323 272.828 221.215 272.867 221.536C272.902 221.859 272.617 222.003 272.37 222.324C272.121 222.647 272.014 223.006 272.156 223.363C272.299 223.722 272.732 224.509 272.872 224.94C273.012 225.372 273.295 225.872 273.119 225.979C272.941 226.087 272.763 226.195 272.905 226.339C273.048 226.482 273.402 226.482 273.722 226.482C274.043 226.482 274.578 226.411 274.861 226.626C275.143 226.842 275.609 227.057 275.431 227.165C275.253 227.273 274.721 228.027 274.647 228.204C274.575 228.384 274.647 228.384 274.754 229.171C274.861 229.962 274.789 230.21 274.611 230.318C274.433 230.426 272.938 229.456 272.795 229.456C272.653 229.456 272.225 229.24 272.154 229.456C272.082 229.671 271.975 229.743 271.512 230.172C271.048 230.603 270.089 230.818 269.91 230.818C269.732 230.818 269.447 230.998 269.414 231.211C269.378 231.426 269.236 231.534 268.917 231.534C268.599 231.534 268.24 231.498 267.955 231.749C267.67 232.001 266.817 232.719 266.317 233.22C265.821 233.72 265.854 234.007 265.5 234.151C265.144 234.295 264.502 234.51 264.184 234.582C263.863 234.654 263.687 234.833 263.259 234.295C262.832 233.756 262.549 233.184 262.297 233.256C262.047 233.327 261.869 233.363 261.907 233.794C261.943 234.225 262.121 234.402 261.979 234.798C261.836 235.19 261.658 235.585 260.912 236.124C260.163 236.663 258.422 237.45 257.958 237.846C257.495 238.238 256.642 238.992 256.392 239.352C256.142 239.711 256.356 239.711 255.75 240.034C255.147 240.358 254.683 240.358 254.576 240.717C254.47 241.076 254.612 241.471 254.612 241.471C254.612 241.471 255.04 241.399 254.897 241.687C254.755 241.974 254.648 242.079 254.363 242.118C254.077 242.154 253.828 242.082 253.471 242.226C253.115 242.369 252.404 242.693 252.404 242.693C252.404 242.693 252.369 242.513 252.048 243.193C251.727 243.875 251.941 244.088 251.406 244.088C250.871 244.088 250.729 243.621 250.339 243.98C249.95 244.34 249.911 244.411 249.308 245.019C248.705 245.627 247.92 246.274 247.564 246.597C247.207 246.921 246.886 247.28 246.672 247.493C246.458 247.708 246.316 247.885 246.316 248.032C246.316 248.178 246.494 248.391 246.565 248.532C246.637 248.675 246.708 248.604 246.601 248.963C246.494 249.322 246.28 249.609 246.565 249.894C246.851 250.181 247.243 250.286 247.668 250.286C248.093 250.286 249.484 250.358 249.876 250.574C250.265 250.789 250.09 251.074 250.624 250.966C251.159 250.858 251.409 250.858 251.587 250.607C251.765 250.356 251.837 249.96 252.158 249.712C252.478 249.46 252.799 249.319 253.652 249.319C254.505 249.319 254.683 249.14 255.254 249.068C255.824 248.996 256.713 249.283 257.566 249.568C258.422 249.855 258.775 250.143 259.488 250.679C260.199 251.218 260.13 251.325 261.09 252.113C262.053 252.903 263.12 254.014 263.547 254.374C263.975 254.733 264.296 254.874 264.51 254.874C264.724 254.874 264.9 254.514 265.045 254.874C265.188 255.233 265.294 255.769 265.58 255.913C265.865 256.056 265.936 256.164 266.183 255.985C266.433 255.805 266.786 255.518 266.893 255.338C267 255.158 267 254.907 267.464 254.946C267.927 254.981 268.248 254.838 268.424 254.73C268.602 254.622 268.317 254.23 268.959 254.55C269.6 254.874 269.455 255.158 271.128 256.021C272.801 256.883 272.516 256.731 273.19 257.56C273.868 258.389 274.329 259.104 274.542 259.607C274.756 260.108 274.932 261.042 274.932 261.616C274.932 262.191 275.075 262.871 275.075 263.841C275.075 264.811 275.11 265.239 274.968 265.778C274.825 266.317 274.364 266.03 274.112 266.494C273.862 266.961 273.684 266.781 273.722 268.356C273.758 269.934 273.509 270.219 273.687 271.333C273.865 272.443 274.076 272.479 273.936 272.875C273.794 273.267 273.722 273.521 273.547 273.737C273.369 273.952 273.119 273.988 272.905 273.988C272.691 273.988 272.62 273.916 272.516 274.24C272.409 274.563 272.052 274.707 271.912 274.671C271.77 274.635 271.627 274.743 271.591 274.958C271.556 275.174 271.591 275.317 271.306 275.389C271.024 275.461 270.664 275.425 270.664 275.713C270.664 276 271.054 276.859 272.159 277.506C273.262 278.153 273.725 278.368 274.222 278.296C274.718 278.224 275.574 277.965 275.895 278.31C276.215 278.656 276.712 279.123 276.961 279.482C277.211 279.841 276.997 279.913 277.672 280.236C278.349 280.56 278.774 280.308 279.202 280.844C279.63 281.383 279.452 281.955 280.165 281.955C280.878 281.955 282.227 282.135 282.515 281.775C282.8 281.416 282.408 280.952 283.157 280.88C283.906 280.808 284.259 281.168 284.723 281.168C285.186 281.168 285.326 281.347 285.968 281.168C286.61 280.988 286.61 280.844 287.178 280.485C287.748 280.126 287.781 279.91 288.601 279.731C289.418 279.551 289.029 279.659 289.703 279.015C290.381 278.368 290.238 277.94 290.842 277.617C291.445 277.293 291.873 277.224 292.194 277.042C292.515 276.862 292.583 276.542 292.764 276.18C292.942 275.82 293.688 275.605 293.867 275.389C294.045 275.174 293.653 275.317 293.867 274.922C294.081 274.53 295.219 272.913 295.468 272.09C295.718 271.266 295.896 270.943 296.286 270.26C296.678 269.578 296.607 269.398 297.141 269.042C297.676 268.682 296.324 269.509 298.066 268.503C299.81 267.5 302.514 265.563 303.263 265.278C304.012 264.991 304.579 264.488 305.896 264.454C307.212 264.418 307.676 264.598 308.065 263.987C308.455 263.377 308.775 262.984 309.382 263.056C309.985 263.128 310.092 262.984 310.769 263.595C311.447 264.203 311.266 264.311 311.979 264.095C312.689 263.88 313.046 264.131 313.117 263.487C313.188 262.841 312.832 262.125 313.117 261.733C313.399 261.34 313.827 260.837 314.291 260.442C314.754 260.05 315.108 259.511 315.251 259.331C315.393 259.151 315.572 258.648 315.854 258.364C316.139 258.076 316.243 257.971 316.852 257.897C317.456 257.825 317.494 257.825 317.919 258.041C318.347 258.256 318.597 258.364 318.811 258.22C319.024 258.077 319.488 257.861 319.131 257.538C318.775 257.214 318.133 257.071 318.421 256.822C318.709 256.573 319.666 256.175 319.666 255.852C319.666 255.529 319.737 255.46 319.666 255.062C319.595 254.669 319.737 254.238 320.094 253.699C320.451 253.16 320.201 252.516 321.589 252.193C322.976 251.87 323.511 251.726 324.26 251.762C325.009 251.798 324.688 251.511 325.648 251.762C326.61 252.014 327.321 252.229 327.856 252.478C328.39 252.729 328.533 252.478 328.994 253.232C329.457 253.987 329.49 254.343 330.096 254.451C330.7 254.559 331.163 254.774 332.159 254.163C333.157 253.556 333.404 253.16 334.616 252.909C335.826 252.657 336.467 252.981 337.142 253.196C337.819 253.412 338.28 253.627 338.744 253.627C339.207 253.627 339.846 253.448 340.274 252.981C340.702 252.514 340.984 251.798 341.697 251.726C342.408 251.654 343.192 251.511 343.584 251.259C343.974 251.008 344.44 250.651 344.547 250.256C344.654 249.864 344.369 249.286 344.157 248.858C343.944 248.427 343.623 248.034 343.623 247.531C343.623 247.028 343.658 246.456 343.623 246.241C343.587 246.025 343.409 245.525 343.444 245.345C343.48 245.166 343.694 245.094 343.765 244.953C343.837 244.809 343.694 244.378 343.48 243.983C343.266 243.591 342.91 243.267 343.266 243.193C343.623 243.121 343.908 243.265 344.051 243.301C344.193 243.336 344.728 242.941 344.799 242.51C344.871 242.079 344.621 241.615 344.799 241.471C344.977 241.327 345.37 240.971 345.441 241.256C345.512 241.543 345.691 241.864 346.044 241.615C346.401 241.363 346.969 241.115 347.218 240.86C347.468 240.609 348.003 240.322 348.11 239.929C348.216 239.537 348.074 239.034 347.72 238.675C347.364 238.315 347.399 237.492 346.864 237.492C346.33 237.492 346.047 237.815 345.441 237.851C344.838 237.887 344.906 237.959 344.374 237.851C343.839 237.743 343.911 237.492 343.2 237.671C342.49 237.851 341.955 237.923 341.848 237.851C341.741 237.779 341.706 237.312 340.924 237.459C340.14 237.602 340.14 237.674 339.857 237.638C339.572 237.602 339.215 237.387 338.933 237.279C338.648 237.171 338.184 236.887 337.652 237.387C337.117 237.887 336.761 238.103 336.3 238.103C335.839 238.103 335.59 237.887 335.444 238.103C335.302 238.318 335.409 238.495 335.123 238.677C334.838 238.857 334.375 238.641 334.482 239.001C334.589 239.36 334.731 239.432 334.624 239.683C334.517 239.935 333.982 239.935 333.947 240.258C333.911 240.581 334.268 240.545 334.089 240.833C333.911 241.12 333.807 241.156 333.165 241.333C332.523 241.513 332.737 241.692 332.348 241.764C331.958 241.836 332.419 241.513 331.599 241.441C330.782 241.369 329.997 241.082 329.784 240.866C329.57 240.65 329.356 239.935 329.32 239.54C329.284 239.147 329.142 238.716 329.177 238.501C329.213 238.285 329.035 237.893 328.467 238.572C327.899 239.252 327.757 239.396 327.757 239.719C327.757 240.042 327.899 240.258 327.579 240.65C327.258 241.043 326.868 240.935 326.83 241.441C326.794 241.941 327.008 241.833 326.794 242.303C326.58 242.77 326.794 243.093 325.692 243.629C324.589 244.168 323.448 244.776 322.774 245.028C322.096 245.279 321.101 245.602 320.711 245.495C320.322 245.387 315.977 242.087 315.657 241.587C315.336 241.087 311.633 237.008 311.172 236.356C310.709 235.704 308.076 232.838 307.577 232.087C307.081 231.332 305.158 228.215 304.766 227.425C304.376 226.637 303.91 225.308 303.699 224.628C303.485 223.946 302.596 222.658 302.347 222.011C302.097 221.365 301.85 220.577 301.743 220.041C301.636 219.502 301.601 219.217 301.601 218.715C301.601 218.212 301.494 217.46 301.387 217.424C301.28 217.388 300.959 217.496 300.959 218.178C300.959 218.861 300.959 219.11 300.816 219.289C300.674 219.469 300.282 219.397 300.282 219.397C300.282 219.397 299.999 218.858 299.747 219.146C299.497 219.433 299.069 219.538 298.784 219.469C298.499 219.397 298.181 218.645 298.214 219.289C298.249 219.936 298.392 220.4 298.749 220.936C299.105 221.475 299.352 221.544 299.533 221.724C299.711 221.903 299.854 222.083 299.854 222.191C299.854 222.299 300.21 222.514 300.21 222.514C300.21 222.514 300.46 221.619 300.674 221.475C300.888 221.331 301.565 221.331 301.529 221.727C301.494 222.119 301.636 222.442 301.85 222.945C302.064 223.448 302.1 223.7 302.347 224.02C302.596 224.344 302.703 224.164 302.736 224.844C302.772 225.526 302.772 226.35 302.665 227.068C302.558 227.784 302.275 228.467 302.594 228.502C302.914 228.538 303.271 227.82 303.449 227.571C303.628 227.32 303.663 227.284 303.984 227.787C304.305 228.287 304.908 229.113 305.194 229.904C305.476 230.694 305.69 231.266 306.795 232.413C307.898 233.56 308.825 234.383 309.321 235.066C309.818 235.748 310.352 236.356 311.03 237.003C311.707 237.649 312.81 239.155 313.131 239.656C313.452 240.156 314.59 241.593 315.193 242.201C315.796 242.809 316.331 242.883 316.616 243.671C316.899 244.461 316.899 244.353 317.615 244.997C318.325 245.644 319.181 245.967 319.074 246.324C318.967 246.68 318.931 246.97 318.432 246.97C317.933 246.97 317.683 246.827 317.401 246.578C317.116 246.326 316.904 246.293 316.477 246.219C316.049 246.147 315.728 245.788 315.338 245.788C314.949 245.788 314.521 245.716 314.521 245.716L313.665 245.069C313.665 245.069 311.885 245.177 311.389 245.105C310.893 245.033 310.426 244.713 310.426 244.713C310.426 244.713 310.248 244.212 309.823 244.353C309.395 244.497 309.894 244.569 308.792 244.641C307.689 244.713 307.226 244.784 307.262 244.605C307.297 244.425 307.618 244.174 307.832 243.815C308.046 243.455 308.01 242.38 308.01 242.38C308.01 242.38 307.728 241.734 308.224 241.518C308.721 241.303 309.576 240.802 309.755 240.192C309.933 239.584 310.432 239.081 309.933 238.398C309.434 237.716 309.184 237.395 309.077 237C308.97 236.605 309.077 236.284 308.474 235.889C307.87 235.497 307.582 235.458 307.443 235.027C307.3 234.596 306.551 234.165 306.34 234.096C306.126 234.024 306.304 234.024 305.523 233.88C304.741 233.736 304.135 233.629 304.242 233.521C304.349 233.413 304.206 232.913 304.064 232.838C303.921 232.766 303.6 233.305 303.422 233.231C303.244 233.159 302.818 232.943 302.925 232.73C303.032 232.515 303.104 232.515 303.422 232.263C303.743 232.012 304.313 231.548 303.811 231.476C303.315 231.404 300.572 232.73 300.254 232.838C299.933 232.946 299.045 233.126 299.009 232.91C298.973 232.695 299.223 232.263 299.651 231.979C300.079 231.691 300.361 231.191 300.361 230.976C300.361 230.76 300.326 230.476 300.825 230.476C301.324 230.476 301.716 230.547 301.466 230.152C301.217 229.76 301.146 229.793 301.003 229.506C300.86 229.218 300.86 228.431 300.507 228.61C300.15 228.79 300.507 229.077 299.829 229.326C299.152 229.575 299.012 229.542 298.655 229.613C298.299 229.685 298.014 229.29 298.227 229.039C298.441 228.787 298.406 228.679 298.905 228.392C299.401 228.105 299.294 228.069 299.972 227.638C300.649 227.206 301.039 226.847 300.682 226.814C300.326 226.778 299.933 226.634 299.508 226.778C299.08 226.922 299.012 226.67 298.653 227.171C298.296 227.671 297.122 228.892 296.801 229.464C296.48 230.039 295.449 230.827 294.986 231.186C294.522 231.545 293.741 231.832 293.598 231.725C293.455 231.617 293.17 231.042 293.741 230.721C294.311 230.401 294.632 230.147 294.95 229.931C295.271 229.716 295.446 229.716 295.446 229.249C295.446 228.782 295.482 228.279 295.874 227.922C296.264 227.563 296.371 227.778 296.799 227.027C297.226 226.272 297.83 226.527 297.616 225.88C297.402 225.233 296.799 224.194 296.299 224.233C295.803 224.269 295.375 223.946 295.268 224.556C295.161 225.164 295.233 225.38 295.126 225.775C295.019 226.167 294.736 226.06 294.591 226.491C294.448 226.922 294.555 227.099 294.27 227.314C293.985 227.53 293.379 227.566 293.453 227.027C293.524 226.488 293.453 225.664 293.274 225.988C293.096 226.311 293.702 226.488 292.918 226.67C292.133 226.85 291.601 226.742 291.566 226.455C291.53 226.17 291.922 226.17 291.887 225.847C291.851 225.524 291.887 225.524 291.423 225.092C290.96 224.661 290.532 224.338 290.606 224.125C290.677 223.91 291.102 223.694 291.102 223.694C291.102 223.694 290.924 222.904 290.567 222.799C290.211 222.694 290.104 222.511 289.926 222.907C289.747 223.299 289.712 223.481 289.322 223.553C288.933 223.625 288.255 223.589 288.398 223.122C288.541 222.655 288.362 222.583 288.077 222.655C287.792 222.727 287.899 222.94 287.792 223.302C287.685 223.661 287.899 224.089 287.507 223.877C287.114 223.661 287.15 223.625 286.903 223.194C286.654 222.763 286.832 222.619 286.086 222.586C285.337 222.55 284.591 222.263 284.591 222.263C284.591 222.263 284.413 222.335 284.912 222.622C285.409 222.909 285.803 223.053 286.157 223.484C286.511 223.915 286.942 224.059 286.975 224.559C287.01 225.059 287.189 225.454 286.868 225.634C286.547 225.814 286.689 226.35 286.012 225.993C285.335 225.634 284.66 225.601 285.049 225.311C285.439 225.026 285.76 224.951 285.584 224.595C285.406 224.236 285.477 223.556 284.874 223.34C284.27 223.125 283.415 222.694 283.094 222.37C282.773 222.047 282.63 221.547 282.63 221.401C282.63 221.254 282.134 221.077 281.882 221.116C281.632 221.152 281.204 221.152 281.24 221.655C281.275 222.155 281.454 222.371 281.062 222.445C280.672 222.517 280.351 222.445 280.244 222.445C280.137 222.445 280.03 222.661 279.748 222.589C279.463 222.517 279.32 222.625 278.931 222.014C278.541 221.406 278.717 221.367 278.541 221.406C278.363 221.442 277.65 221.406 277.543 221.334C277.436 221.262 277.365 220.759 277.258 220.652C277.151 220.544 277.186 220.831 277.472 220.472C277.757 220.113 277.65 220.292 277.935 220.005C278.22 219.718 278.47 219.789 278.22 219.43C277.971 219.071 277.724 218.855 277.543 218.891C277.365 218.927 277.222 218.532 277.046 218.604C276.868 218.676 276.761 218.996 276.833 219.32C276.904 219.643 277.046 219.966 276.69 220.035C276.333 220.107 276.226 220.035 276.048 220.035C275.87 220.035 275.264 220.143 275.264 220.143C275.264 220.143 275.014 219.784 274.907 219.535C274.8 219.284 274.693 219.104 274.518 219.212C274.342 219.32 273.733 219.32 273.876 219.032C274.019 218.745 274.054 218.35 274.304 218.245C274.553 218.137 274.66 218.209 274.66 217.778C274.66 217.347 274.447 216.99 274.625 216.846C274.803 216.703 275.014 216.131 275.442 216.2C275.87 216.272 276.226 216.739 276.652 216.775C277.079 216.811 277.008 216.846 277.4 216.631C277.79 216.415 277.935 216.343 278.256 216.523C278.577 216.703 279.005 216.595 279.005 216.595C279.005 216.595 279.147 215.7 279.715 216.451C280.285 217.206 281.138 218.245 281.563 218.819C281.991 219.394 282.167 219.715 282.455 219.607C282.74 219.499 282.99 219.14 283.132 219.107C283.275 219.071 283.453 219.179 283.667 219.322C283.881 219.466 284.202 219.502 284.451 219.358C284.701 219.215 284.986 219.287 284.879 218.966C284.772 218.643 284.558 218.104 284.558 217.747C284.558 217.391 284.276 216.744 284.808 217.139C285.343 217.535 285.411 217.714 285.557 218.035C285.699 218.358 285.628 218.535 285.806 218.574C285.985 218.61 286.196 218.717 286.196 218.25C286.196 217.783 286.303 217.858 285.91 217.427C285.521 216.996 284.451 216.1 284.487 215.885C284.523 215.669 284.876 215.385 284.665 215.169C284.454 214.953 283.988 214.846 284.238 214.63C284.487 214.415 284.879 214.091 284.879 214.091C284.879 214.091 284.879 213.304 285.307 213.732C285.735 214.163 285.985 214.771 286.124 215.274C286.267 215.774 286.766 216.457 286.766 216.457C286.766 216.457 287.515 216.78 287.37 217.28C287.227 217.78 287.084 217.673 286.799 218.319C286.514 218.966 286.303 219.143 286.122 219.789C285.943 220.436 285.444 220.972 286.015 220.972C286.585 220.972 286.656 220.685 286.87 220.685C287.084 220.685 287.298 220.9 287.441 220.936C287.583 220.972 287.976 221.008 287.976 220.505C287.976 220.002 287.94 219.43 287.904 219.107C287.869 218.784 288.083 218.64 288.083 218.64C288.083 218.64 288.439 219.14 288.546 219.502C288.653 219.861 288.261 219.894 288.653 219.861C289.042 219.825 289.117 219.322 289.117 219.322L289.01 218.427C289.01 218.427 289.081 217.888 288.938 217.673C288.796 217.457 288.51 217.493 288.617 217.026C288.724 216.559 289.114 216.81 289.328 216.954C289.542 217.098 289.506 217.347 289.898 217.062C290.288 216.775 290.076 216.523 290.609 216.595C291.143 216.667 290.644 217.203 290.894 217.349C291.143 217.493 291.464 217.709 291.925 217.996C292.388 218.281 292.314 218.247 292.742 218.281C293.17 218.317 292.992 218.245 293.453 218.317C293.916 218.388 294.163 217.778 294.163 217.778C294.163 217.778 293.773 216.631 294.234 216.523C294.695 216.415 294.912 216.811 294.912 216.811L295.589 218.173C295.589 218.173 295.482 219.32 295.161 219.679L294.84 220.038C294.84 220.038 294.484 219.143 294.377 219.143C294.27 219.143 293.949 219.215 293.949 219.215L293.664 219.322C293.664 219.322 292.915 219.538 292.808 220.038C292.701 220.538 292.737 221.436 292.737 221.436C292.737 221.436 291.919 221.472 291.777 221.76C291.634 222.047 291.599 222.73 291.599 222.73C291.599 222.73 292.095 222.837 292.454 222.873C292.811 222.909 292.989 222.73 293.025 223.305C293.06 223.879 293.414 224.379 293.414 224.379C293.414 224.379 294.624 224.595 295.052 223.697C295.479 222.802 295.836 222.442 296.083 221.796C296.332 221.149 296.404 220.864 296.579 219.933C296.757 219.002 296.365 217.855 296.969 217.424C297.572 216.993 299.533 216.777 300.35 216.741C301.167 216.706 300.814 216.167 301.381 215.595C301.949 215.023 303.09 214.268 303.839 213.732C304.587 213.193 304.799 212.621 305.44 212.549C306.082 212.477 306.044 212.621 306.296 212.442C306.546 212.262 306.938 211.223 307.256 210.864C307.577 210.504 307.791 210.109 307.684 209.968C307.577 209.827 307.327 210.112 307.22 209.789C307.113 209.465 306.828 208.998 307.078 208.75C307.327 208.498 307.399 208.067 307.467 207.887C307.538 207.708 307.467 206.956 307.645 207.241C307.824 207.528 308.035 208.675 308.142 209.034C308.249 209.394 308.605 209.681 308.852 209.358C309.102 209.034 309.28 208.534 309.387 208.283C309.494 208.031 309.669 207.708 309.669 207.708C309.669 207.708 309.848 207.1 309.598 206.633C309.349 206.166 308.6 205.486 308.6 205.199C308.6 204.911 308.21 204.875 308.6 204.911C308.989 204.947 309.809 205.45 310.095 205.773C310.38 206.097 310.772 206.381 310.95 206.777C311.129 207.169 311.2 207.385 311.093 207.672C310.986 207.959 310.736 208.064 310.843 208.495C310.95 208.926 310.772 209.211 311.271 209.178C311.768 209.142 312.056 209.106 312.409 209.106C312.763 209.106 313.441 208.855 313.227 209.25C313.013 209.642 312.73 209.789 312.442 210.361C312.16 210.935 311.979 211.759 311.979 211.759C311.979 211.759 312.05 211.939 312.3 211.543C312.549 211.148 315.895 205.986 315.895 205.986L315.539 205.878C315.539 205.878 314.507 207.241 314.044 207.525C313.58 207.813 313.366 208.172 313.227 207.741C313.084 207.31 312.302 206.163 312.088 205.481C311.875 204.798 311.625 203.579 311.592 202.756C311.559 201.932 311.556 200.747 311.449 200.211C311.342 199.672 311.2 199.208 311.2 198.812C311.2 198.417 310.915 197.666 311.2 197.199C311.485 196.732 311.556 196.195 311.842 196.768C312.127 197.342 312.697 198.202 312.659 198.705C312.623 199.205 312.267 199.136 312.302 199.708C312.338 200.283 312.692 201.429 312.98 202.289C313.265 203.151 313.265 203.723 313.94 204.298C314.617 204.873 314.795 205.085 315.149 205.014C315.503 204.942 315.539 205.229 315.72 204.798C315.901 204.367 315.755 204.115 316.04 204.082C316.323 204.046 316.468 204.046 316.468 204.441C316.468 204.837 315.898 204.693 316.326 205.049C316.754 205.409 316.647 205.516 317.217 205.157C317.788 204.798 318.854 203.651 319.318 203.22C319.781 202.789 320.209 201.786 320.848 201.175C321.49 200.567 322.557 199.921 322.949 199.489C323.339 199.058 323.84 198.735 323.84 198.735L324.979 197.624L327.329 196.513L329.002 196.441L331.742 195.903C331.742 195.903 332.916 195.618 333.165 196.37L333.415 197.124L333.843 197.411L334.339 197.088L334.553 197.447C334.553 197.447 334.802 197.699 334.874 197.483C334.945 197.268 334.981 197.016 335.302 196.408C335.623 195.8 335.729 195.082 336.44 194.184C337.15 193.288 337.756 191.782 338.752 191.746C339.75 191.71 339.429 191.854 340.14 191.818C340.85 191.782 340.389 191.675 341.777 191.351C343.165 191.028 344.662 190.456 345.265 191.064C345.869 191.672 346.439 192.534 346.546 192.785C346.653 193.037 346.76 192.857 346.689 193.324C346.618 193.791 346.439 194.186 346.299 194.327C346.157 194.471 346.121 194.435 345.943 194.471C345.765 194.507 345.372 194.543 345.408 194.863C345.444 195.187 345.515 195.364 345.798 195.331C346.08 195.297 346.225 195.438 346.401 195.007C346.579 194.576 348 191.315 348.145 190.992C348.291 190.669 348.397 190.345 348.359 190.025C348.323 189.701 347.909 189.234 348.367 189.055C348.823 188.875 348.716 189.019 349.072 188.696C349.429 188.372 348.965 187.692 350.103 187.19C351.242 186.689 352.775 185.543 353.235 185.327C353.699 185.111 355.084 184.144 355.405 183.893C355.726 183.641 356.082 183.318 356.329 183.318C356.576 183.318 357.539 183.893 357.61 184.034C357.681 184.177 357.999 184.429 357.999 184.68V185.219C357.999 185.219 358.035 185.471 358.285 185.04C358.534 184.608 358.534 184.432 358.819 184.249C359.105 184.067 359.423 183.962 359.497 183.603C359.568 183.243 359.176 183.243 359.497 182.887C359.818 182.528 363.696 177.617 364.088 177.471C364.477 177.327 365.262 177.219 366.296 177.219C367.33 177.219 367.576 177.147 367.862 176.896C368.147 176.644 368.289 176.503 368.679 176.503C369.068 176.503 369.321 176.503 369.642 176.144C369.962 175.785 370.069 175.39 370.533 175.39C370.996 175.39 371.814 175.713 371.956 175.749C372.099 175.785 372.277 175.713 372.598 175.641C372.919 175.569 373.772 175.605 374.307 175.39C374.841 175.174 374.841 174.89 375.162 174.851C375.483 174.815 375.98 175.102 376.194 175.351C376.408 175.603 376.583 175.531 376.514 175.818C376.443 176.105 376.301 175.962 376.372 176.285C376.443 176.608 377.189 177.18 377.403 176.785C377.617 176.393 377.653 176.07 378.187 175.603C378.722 175.136 379.112 174.779 379.29 174.456C379.468 174.132 379.611 173.848 379.468 173.56C379.326 173.273 378.972 173.489 379.112 172.845C379.254 172.198 379.326 171.231 379.929 170.515C380.532 169.799 380.996 168.937 380.996 168.437C380.996 167.937 380.713 167.182 380.354 167.326C379.998 167.47 378.574 168.221 378.292 167.793C378.006 167.362 378.541 165.212 378.826 164.568C379.112 163.922 379.361 162.631 379.575 161.879C379.789 161.125 380.217 155.999 380.467 155.891C380.716 155.783 381.037 155.676 381.498 155.604C381.958 155.532 382.315 154.957 382.885 154.637C383.456 154.313 386.624 154.352 386.909 154.313C387.194 154.277 386.944 153.274 387.444 152.451C387.94 151.627 388.192 150.909 388.724 150.657C389.259 150.406 390.005 150.478 389.756 149.546C389.506 148.615 388.724 146.106 389.185 145.783C389.649 145.459 389.682 145.136 390.216 145.316C390.751 145.495 391.39 145.387 391.711 145.031C392.032 144.672 393.812 143.309 396.088 143.309C398.365 143.309 401.96 142.234 402.21 142.27C402.459 142.306 402.103 142.707 403.134 142.829C404.165 142.95 405.128 142.627 405.767 142.591C406.409 142.555 407.868 142.268 408.507 142.483C409.148 142.699 410.394 142.92 410.857 142.829C411.321 142.735 412.352 142.411 411.641 141.66C410.931 140.905 410.575 141.121 410.361 140.261C410.147 139.399 409.576 136.821 409.826 136.638C410.075 136.459 410.575 136.207 411.214 135.815C411.855 135.423 412.127 132.192 411.883 131.261C411.639 130.33 410.961 130.042 410.893 129.108C410.821 128.177 410.572 127.854 410.786 127.279C411 126.704 411.107 125.737 411.035 125.054C410.964 124.372 411.214 123.3 410.893 122.868C410.572 122.437 409.79 122.294 409.648 121.506C409.505 120.718 408.899 119.353 409.044 118.638C409.187 117.922 408.082 117.096 407.799 117.168C407.514 117.239 407.015 117.775 406.447 116.916C405.876 116.054 405.095 115.41 405.238 113.907C405.38 112.401 405.059 109.82 405.309 109.532C405.558 109.245 405.844 108.529 406.518 108.529C407.193 108.529 410.363 108.814 410.61 108.529C410.86 108.242 411.107 106.843 410.753 106.667C410.396 106.487 409.258 106.595 407.656 106.166C406.055 105.735 405.701 105.987 405.52 105.127C405.342 104.265 403.384 103.011 403.384 102.51C403.384 102.01 403.704 100.465 403.847 100.394C403.99 100.322 404.878 100.932 405.627 100.394C406.376 99.8547 407.336 99.139 407.621 98.8876C407.906 98.6361 408.263 98.0641 408.438 97.3815C408.614 96.6989 408.26 95.9473 409.116 95.3725C409.971 94.7977 411.573 94.1179 411.748 93.8664C411.927 93.615 412.212 93.6868 411.748 93.1507C411.285 92.6119 411 92.7583 411 91.7884C411 90.8184 411.356 89.0277 410.964 88.3811C410.575 87.7344 408.438 85.1893 408.438 84.5814C408.438 83.9734 408.545 83.219 409.041 82.7188C409.538 82.2187 410.429 81.608 410.358 80.9973C410.287 80.3893 409.823 79.563 409.502 79.563C409.181 79.563 407.547 79.2397 407.333 79.563C407.119 79.8864 405.981 81.572 405.517 82.0363C405.054 82.5033 402.528 82.7907 402.064 82.5751C401.601 82.3596 400.356 80.8204 399.467 80.9613C398.579 81.1023 397.865 81.0332 397.619 80.638C397.369 80.2456 396.409 77.7696 395.556 77.9851C394.701 78.2007 391.854 78.9164 391.322 78.4853C390.787 78.0542 389.756 77.4822 389.366 77.1948C388.977 76.9074 388.582 74.039 388.299 74.0031C388.014 73.9671 386.983 73.8234 386.912 74.3623C386.84 74.9012 386.201 75.7965 385.773 75.9043C385.346 76.0121 381.857 75.7247 381.857 75.7247C381.857 75.7247 381.073 74.2905 380.683 74.1827C380.294 74.0749 379.295 73.4863 379.117 73.9616C378.939 74.4369 379.295 74.7962 378.407 74.6138C377.518 74.4314 376.13 73.84 376.163 73.7792C376.199 73.7184 376.342 72.0714 376.342 72.0714C376.342 72.0714 375.771 71.317 375.593 71.3557C375.415 71.3916 372.604 71.7868 371.929 71.8559C371.251 71.9277 371.073 72.0355 370.648 71.784C370.22 71.5326 369.757 70.9578 369.403 71.353C369.046 71.7481 368.586 72.287 368.3 71.8918C368.015 71.4994 367.234 69.8137 367.02 69.8137C366.806 69.8137 365.171 69.5263 365.171 69.8137C365.171 70.1011 365.635 73.5775 365.635 73.7212C365.635 73.8649 364.957 75.7661 363.926 75.6583C362.895 75.5506 358.803 72.4334 358.268 71.7868C357.733 71.1402 355.172 70.173 354.459 69.8496C353.748 69.5263 353.534 69.7778 353.534 69.1671C353.534 68.5564 353.213 68.1999 352.536 67.697C351.859 67.1968 350.4 66.7657 350.328 66.3346C350.257 65.9035 349.368 63.3252 349.047 63.0351C348.727 62.7505 346.522 61.4931 346.557 60.4541C346.593 59.415 346.486 58.3014 346.236 58.3014C345.987 58.3014 345.488 58.1577 344.956 58.3014C344.421 58.4451 344.207 58.6938 343.496 59.3404C342.786 59.987 339.687 62.9632 339.405 63.2866C339.119 63.6099 337.411 63.2506 336.451 63.1788C335.488 63.1069 335.348 63.1788 335.241 63.4303C335.134 63.6817 334.959 64.2924 333.782 64.2924C332.606 64.2924 331.86 63.8254 331.827 64.4721C331.791 65.1187 331.934 65.9422 331.791 66.4424C331.649 66.9425 331.791 67.3046 330.546 67.4455C329.301 67.5892 326.989 67.7688 326.737 67.5533C326.487 67.3377 325.491 66.5142 325.491 66.5142L320.686 66.6579L317.022 62.9273L308.907 63.5739C308.907 63.5739 307.662 65.3674 307.448 65.4365C307.234 65.5083 306.025 65.5802 305.098 65.0441C304.173 64.5052 303.71 64.7208 303.71 64.1128C303.71 63.5049 304.138 63.4303 303.353 63.0738C302.569 62.7145 301.291 62.6427 301.253 62.0706C301.217 61.4959 301.11 60.4237 300.97 59.8461C300.827 59.2713 300.792 58.5003 300.474 58.2406C300.153 57.9808 299.796 57.1573 300.01 56.9777C300.224 56.7981 300.293 56.7262 300.97 56.5466C301.647 56.367 302.037 55.7922 302.037 55.7922C302.037 55.7922 301.859 53.5676 301.787 53.3908C301.716 53.2112 300.932 53.2471 300.756 52.816C300.578 52.3849 300.26 51.0944 299.972 50.1272C299.686 49.1572 299.154 48.4415 298.762 47.9413C298.373 47.4412 297.553 46.8305 297.66 46.5431C297.767 46.2557 298.23 45.6477 298.444 45.3244C298.658 45.0011 299.193 44.4291 299.015 43.962C298.836 43.495 298.373 43.2463 297.912 43.1717C297.451 43.0971 297.163 42.8871 296.81 42.9202C296.453 42.9562 295.811 43.5669 295.386 43.3126C294.958 43.0612 293.324 42.4505 293.11 41.627C292.896 40.8035 292.789 39.7976 292.682 39.3333C292.575 38.8691 292.254 37.7195 291.826 37.6117C291.398 37.504 291.437 36.896 291.042 37.4321C290.652 37.971 290.652 38.8663 289.832 38.5789C289.015 38.2915 288.266 37.6836 287.981 38.0041C287.696 38.3274 285.384 40.19 285.17 40.3337C284.956 40.4774 284.172 40.1541 283.818 40.2618C283.464 40.3696 283.247 40.5133 283.069 40.4415C282.891 40.3696 282.499 40.3696 282.573 39.5793C282.647 38.7889 282.858 38.3247 282.323 38.2888C281.788 38.2528 279.973 38.0373 279.438 38.4684C278.903 38.8995 278.547 39.3637 277.872 39.2228C277.195 39.0791 276.056 38.6148 275.81 38.9713C275.56 39.3306 275.313 39.7617 274.743 39.8667C274.172 39.9717 273.105 40.3337 272.963 39.723C272.82 39.115 272.499 38.648 272.927 38.1451C273.355 37.6449 273.605 37.6062 273.783 36.9982C273.961 36.3903 274.318 35.5281 273.854 35.2435C273.391 34.9561 272.145 34.3481 272.145 34.2044C272.145 34.0607 272.145 33.4887 272.502 33.2345C272.859 32.983 272.68 32.5188 272.609 32.2314C272.538 31.944 272.645 30.0787 272.645 29.6503C272.645 29.222 272.11 28.5035 271.86 27.9647C271.611 27.4258 271.257 27.1743 270.9 26.8897C270.544 26.6023 270.083 26.2817 269.513 25.9197C268.942 25.5605 268.339 25.2372 268.446 24.8448C268.553 24.4524 268.802 23.9494 269.337 23.9826C269.872 24.0185 269.94 23.9467 270.368 23.767C270.796 23.5874 271.01 23.5515 271.367 23.1923C271.723 22.833 271.509 22.5097 272.077 22.6534C272.647 22.7971 273.572 23.1204 273.821 23.0458C274.071 22.9739 274.677 22.9049 274.819 22.6175C274.962 22.3301 275.604 21.6143 275.39 21.0009C275.176 20.3929 274.748 19.3539 274.534 18.9919C274.32 18.6326 273.253 17.7014 272.505 17.2371C271.756 16.7729 271.367 16.6623 271.081 15.8747C270.796 15.0872 270.867 14.9076 270.44 14.4405C270.012 13.9735 269.373 13.617 268.802 13.1141C268.232 12.6139 267.236 12.4315 267.236 11.2516C267.236 10.0716 267.308 9.99698 267.415 9.45811C267.521 8.91925 267.379 7.95205 267.165 7.27226C266.951 6.58969 266.88 6.41007 266.701 5.94582C266.523 5.4788 266.773 5.37103 266.167 5.08364C265.563 4.79624 265.489 4.54477 265.028 4.437C264.568 4.32923 264.211 4.72439 263.997 4.15237C263.783 3.57758 262.895 2.53854 262.895 2.53854C262.895 2.53854 262.184 2.39484 262.039 2.10744C261.896 1.82005 261.436 0.565462 260.937 0.35268C260.44 0.137134 259.727 0.0293607 259.335 0.0293607C258.943 0.0293607 258.232 0.244907 257.804 0.568225C257.377 0.891544 256.559 1.28395 256.132 1.53818C255.704 1.78965 255.347 1.96927 254.851 2.14613C254.354 2.32575 253.356 2.36168 253.249 2.32575C253.142 2.28983 252.893 2.36168 252.999 2.07428C253.106 1.78689 253.463 1.46633 253.142 0.999317C252.821 0.532301 251.826 0.568226 251.08 0.711923C250.331 0.85562 249.799 0.711923 249.799 0.711923C249.799 0.711923 248.447 0.065285 248.233 0.0293607C248.019 -0.00656361 247.662 -0.0784122 247.377 0.316755C247.092 0.709159 246.667 1.24802 246.239 1.67912C245.811 2.11021 245.101 2.43353 244.352 3.2211C243.603 4.00867 242.857 4.40384 242.323 4.47569C241.788 4.54753 241.113 4.04459 240.721 4.04459C240.329 4.04459 239.937 3.82905 239.758 4.33199C239.58 4.83217 239.437 5.11956 238.903 5.19417C238.368 5.26602 237.871 5.98451 236.659 5.15825C235.45 4.33475 235.557 3.93958 234.844 3.51126C234.133 3.08016 233.67 2.86462 232.85 2.97239C232.032 3.08016 231.284 2.90054 230.856 3.18794C230.428 3.47257 229.825 3.65495 229.718 4.11921C229.611 4.58622 229.504 5.26602 229.789 5.62526C230.074 5.98451 230.285 6.91578 229.967 7.02355C229.646 7.13132 228.651 7.34687 229.076 7.84704C229.501 8.34722 230.039 8.31406 229.646 8.817C229.257 9.31718 228.969 9.57141 228.791 10.2871C228.612 11.0029 228.22 11.6136 228.22 11.6136L227.153 12.0806C227.153 12.0806 226.868 12.7272 226.229 13.0119C225.587 13.2993 225.766 13.3711 224.984 13.3352C224.2 13.2992 222.601 13.9431 222.03 13.6585C221.46 13.3711 221.427 12.5476 220.749 12.4758C220.072 12.4039 219.683 12.2243 218.58 12.5117C217.478 12.7963 217.014 12.9787 216.586 12.9787C216.158 12.9787 216.197 12.6913 214.949 12.6913C213.701 12.6913 212.848 12.6554 212.245 12.7272C211.641 12.7991 210.821 12.1524 210.821 12.1524L209.327 11.5776L208.402 12.0087L208.438 13.4429C208.438 13.4429 208.934 14.7694 208.866 15.1286C208.795 15.4879 208.652 16.2395 207.975 15.5597C207.297 14.8772 206.924 14.4848 206.258 14.4488C205.591 14.4129 205.128 14.1614 205.128 14.1614C205.128 14.1614 203.883 13.2993 203.312 13.3711C202.742 13.4429 202.067 13.4789 201.568 14.0868C201.069 14.6948 201.033 14.4101 200.465 15.4133C199.895 16.4164 199.256 17.168 198.792 18.0302C198.329 18.8924 198.721 19.3566 197.69 19.7159C196.659 20.0751 195.482 20.0751 195.093 20.5781C194.703 21.0782 195.342 21.3325 194.451 21.6171C193.559 21.9045 193.88 22.3715 193.666 22.8358C193.453 23.3028 193.025 23.1232 192.918 23.4824C192.811 23.8417 193.096 24.3446 192.704 24.8807C192.314 25.4196 192.1 25.204 191.955 25.8479C191.812 26.4945 191.812 26.9947 191.741 27.3899C191.67 27.785 191.42 27.7491 191.171 28.1056C190.921 28.4648 191.242 29.0756 191.099 29.432C190.957 29.7913 190.422 29.7554 190.244 30.3274C190.065 30.9022 189.495 31.1509 189.994 31.7616C190.491 32.3695 190.85 32.2618 190.672 32.9084C190.493 33.555 191.099 34.1271 191.242 34.2708C191.385 34.4145 191.42 34.9865 191.42 35.4176C191.42 35.8487 191.456 35.9924 191.67 36.2798C191.884 36.5672 192.026 36.639 192.312 37.1751C192.594 37.714 193.203 38.5734 193.06 38.8608C192.918 39.1482 192.739 39.4356 192.739 39.5765C192.739 39.7174 192.953 40.0076 192.882 40.4387C192.811 40.8698 192.454 40.5824 192.312 41.2622C192.169 41.942 192.561 42.0525 192.026 42.3731C191.492 42.6964 190.46 42.981 190.46 42.981C190.46 42.981 188.538 42.1188 188.255 41.8342C187.97 41.5468 186.654 40.4 186.582 40.0408C186.511 39.6815 186.618 39.1454 186.368 38.5347C186.119 37.924 185.941 37.4957 185.62 37.1364C185.299 36.7772 184.018 35.5226 183.557 35.5226C183.097 35.5226 182.773 36.1692 182.205 36.3461C181.635 36.5257 179.929 35.4507 179.427 35.6304C178.931 35.81 177.184 37.7471 176.937 37.9599C176.687 38.1755 175.763 38.3192 175.549 38.0677C175.335 37.8162 174.233 36.0587 173.555 35.915C172.878 35.7713 172.096 36.7385 171.775 36.8849C171.454 37.0286 170.601 37.0286 170.28 37.1005C169.96 37.1723 169.425 37.2083 169.425 37.6007C169.425 37.9931 169.104 39.1786 168.89 39.5019C168.676 39.8252 168.248 40.2176 167.892 39.933C167.535 39.6456 167.288 39.325 167.036 39.5737C166.786 39.8252 165.862 40.1485 165.684 40.1485C165.506 40.1485 164.581 40.1485 164.225 39.2532C163.868 38.3578 162.73 36.5644 162.908 36.3129C163.087 36.0615 163.726 34.9865 163.693 34.7709C163.657 34.5554 163.155 34.4863 162.892 34.1243C162.626 33.7651 162.127 32.3695 161.987 32.0462C161.844 31.7229 160.457 31.687 159.886 31.8666C159.316 32.0462 158.677 32.1899 158.498 32.6542C158.32 33.1212 158.284 33.6573 158.035 33.9447C157.785 34.2321 157.218 34.1602 157.004 34.1961C156.79 34.2321 156.54 33.7651 156.079 34.1602C155.616 34.5526 154.264 35.0915 154.157 35.4148C154.05 35.7381 153.767 36.5257 153.767 37.1364C153.767 37.7471 153.696 38.6425 153.518 38.9299C153.34 39.2173 153.268 40.1126 152.415 39.3223C151.56 38.5319 151.598 38.6756 151.063 38.3192C150.528 37.9627 150.172 37.457 150.139 36.9927C150.103 36.5257 150.103 36.2383 150.139 35.6304C150.175 35.0224 150.528 33.9834 149.747 33.9447C148.962 33.9088 148.43 33.8728 148.145 33.9447C147.86 34.0165 147.289 33.4445 146.829 33.4058C146.365 33.3699 145.655 33.5495 145.512 33.6932C145.37 33.8369 144.802 34.9837 143.875 34.9119C142.951 34.84 142.558 32.867 142.238 32.6514C141.917 32.4359 141.596 32.1844 141.741 31.8279C141.884 31.4687 141.741 30.1063 141.245 30.1809C140.748 30.2555 140.246 30.3605 139.607 30.8276C138.966 31.2946 138.505 31.7229 138.113 32.154C137.723 32.5851 137.934 32.5464 137.578 33.0493C137.221 33.5495 137.043 34.268 136.475 34.1961C135.905 34.1243 135.088 33.8369 134.695 34.0525C134.306 34.268 134.092 34.4835 133.911 34.1961C133.733 33.9115 133.269 32.9416 133.269 32.9416L132.238 32.9775V35.2711C132.238 35.2711 131.775 36.1665 130.957 36.7053C130.14 37.2442 129.819 38.1755 129.391 37.8521C128.963 37.5288 128.431 37.4597 128.5 36.7772C128.571 36.0946 128.856 35.7381 128.996 35.2352C129.139 34.735 129.424 34.3398 128.925 33.8369C128.429 33.3367 128.001 32.9056 127.537 32.867C127.074 32.831 126.827 32.831 126.506 32.6873C126.185 32.5436 125.582 31.9329 125.368 31.5764C125.154 31.22 124.477 31.0376 123.98 31.2918C123.484 31.5433 123.089 32.0462 122.949 32.6542C122.806 33.2621 122.025 33.3367 121.597 33.4445C121.169 33.5523 120.066 33.696 119.781 33.5882C119.496 33.4804 119.639 33.0493 119.781 32.8725C119.924 32.6929 120.138 32.2645 120.138 32.0849C120.138 31.9053 119.987 31.1536 119.617 31.0818C119.246 31.0099 118.322 30.6148 118.322 30.0787C118.322 29.5426 118.712 28.3239 118.322 27.926C117.933 27.5308 117.787 26.7792 117.148 27.1025C116.507 27.4258 115.654 28.0337 115.193 28.1056C114.729 28.1774 113.413 27.9619 112.949 27.9619C112.486 27.9619 108.893 26.5636 108.43 26.2071C107.966 25.8479 108.394 25.6323 107.431 25.6323C106.469 25.6323 104.799 25.776 104.05 25.7401C103.301 25.7042 102.306 25.5964 101.806 25.2399C101.31 24.8807 101.343 25.1681 101.058 24.5933C100.772 24.0185 100.668 23.2669 100.095 23.2669C99.5218 23.2669 99.2037 23.195 98.6359 23.5543C98.0655 23.9135 97.8872 24.1622 97.2482 24.129C96.6064 24.0931 95.5396 24.2009 94.8978 23.7698C94.256 23.3387 93.9352 22.5871 93.7596 22.156C93.5814 21.7249 93.4744 21.8686 93.5814 21.3656C93.6883 20.8655 94.2451 20.5421 93.5402 20.5035C92.8354 20.4675 91.5189 20.2161 91.305 20.252C91.0911 20.2879 90.5206 20.5394 90.0599 20.6831C89.5964 20.8268 88.066 20.9677 87.427 20.9677C86.788 20.9677 86.8566 20.7881 86.2888 20.9318C85.7184 21.0755 84.6159 20.9318 83.2994 20.8959C81.983 20.8599 81.8047 20.5366 81.1986 20.2879C80.5952 20.0364 80.0248 20.1442 79.8822 20.1801C79.7395 20.2161 79.2047 20.6472 78.6727 20.3957C78.1406 20.1442 75.7546 18.8537 75.7546 18.8537C75.7546 18.8537 74.3668 18.6022 74.1886 18.7819C74.0103 18.9587 73.4782 19.7131 72.6582 20.1083C71.8409 20.5007 70.061 21.0036 70.061 21.0036C70.061 21.0036 68.388 21.0396 67.3897 20.7162C66.3914 20.3929 65.8593 20.0696 65.5741 20.1415C65.2889 20.2133 63.7585 21.3242 63.5117 21.5397C63.2649 21.7553 62.1596 21.6116 61.1284 21.6475C60.0972 21.6834 58.3885 21.0727 57.7111 21.0009C57.0337 20.929 56.3947 20.8572 56.0738 21.0009C55.7529 21.1446 54.8643 21.501 54.7574 21.8244C54.6504 22.1477 54.4365 23.079 54.3679 23.6537C54.2966 24.2285 54.7244 25.1598 54.9384 25.555C55.1523 25.9474 55.7227 26.594 55.3278 27.0251C54.9384 27.4562 53.9044 28.1719 52.8705 28.2438C51.8365 28.3156 50.8409 28.4234 50.1306 28.6749C49.4203 28.9263 48.422 29.2496 47.9612 29.4652C47.5005 29.6807 46.8231 30.5761 46.3952 30.9353C45.9674 31.2946 45.5779 31.5101 45.0431 31.2586C44.5083 31.0072 44.2944 31.2586 44.1518 30.7198C44.0092 30.1809 44.1518 29.7885 43.4744 29.7885C42.7969 29.7885 41.6588 29.6448 41.5189 29.7885C41.3763 29.9322 41.4476 29.8963 40.7016 30.4711C39.9529 31.0459 39.4921 32.4082 39.2426 32.6238C38.993 32.8393 38.4938 33.2317 38.2827 33.555C38.0687 33.8784 37.6793 33.9861 37.9618 34.2376C38.247 34.4891 38.2827 34.5609 38.247 34.992C38.2113 35.4231 38.3896 35.2076 38.6748 35.6386C38.9601 36.0697 38.7105 36.1388 38.8531 36.7855C38.9957 37.4321 39.4565 37.1088 39.6018 37.8964C39.7445 38.6867 39.4949 39.7976 39.281 40.2646C39.067 40.7316 38.7845 41.019 38.8531 41.6988C38.9244 42.3814 38.9957 42.7019 39.3879 43.1689C39.7774 43.636 39.9227 44.7109 40.5261 45.4626C41.1295 46.217 41.9495 46.4657 42.306 47.4716C42.6626 48.4747 42.5913 49.1932 42.8024 49.8398C43.0164 50.4864 43.5868 50.5555 43.7623 51.4177C43.9406 52.2799 43.7267 52.8878 44.1902 53.4267C44.6537 53.9656 45.7205 54.2171 45.7205 55.0737C45.7205 55.9304 45.9701 56.0768 46.5762 56.5438C47.1796 57.0109 49.3161 58.2654 49.0665 58.7297C48.8169 59.1939 45.4024 59.0889 45.2214 59.52C45.0431 59.9511 45.5423 61.8137 45.7919 62.2807C46.0414 62.7477 47.7144 65.652 47.4648 66.2268C47.2152 66.8016 47.3935 67.1581 46.9684 67.8738C46.5406 68.5895 46.291 69.6286 46.0442 70.4908C45.7946 71.3529 45.8302 71.6376 45.1885 71.8172C44.5467 71.9968 43.979 72.0327 42.7311 72.2483C41.4833 72.4638 40.7757 72.2483 40.2409 72.4638C39.7061 72.6794 39.7774 72.5716 39.3166 73.2542C38.8531 73.9367 27.8581 84.8356 27.3589 85.4104C26.8625 85.9852 20.7027 93.9438 20.2419 94.4827C19.7785 95.0215 19.3506 96.0965 18.6403 96.6354C17.9299 97.1742 16.896 98.4288 16.2213 99.0036C15.5439 99.5784 15.4369 99.1114 15.33 99.8271C15.223 100.543 15.1517 101.046 14.9405 101.261C14.7266 101.477 14.4057 101.585 14.3701 102.336C14.3344 103.091 15.1545 103.806 15.1545 104.381C15.1545 104.956 15.2971 106.028 15.2971 106.819C15.2971 107.609 14.6553 111.981 14.6553 111.981C14.6553 111.981 14.0848 112.771 14.3701 113.02C14.6553 113.271 14.9762 113.056 14.9049 113.594C14.8336 114.133 14.8692 114.669 14.8692 114.669C14.8692 114.669 15.2587 114.957 15.1545 115.385C15.0475 115.816 15.8319 116.532 15.8319 116.532C15.8319 116.532 17.5048 117.822 17.8257 118.218C18.1466 118.613 19.0352 119.364 18.3605 119.796C17.6831 120.227 16.8302 120.691 16.0101 119.939C15.1929 119.185 13.2703 118.002 12.6998 117.753C12.1294 117.502 11.9895 117.574 11.7756 117.933C11.5617 118.292 10.4592 119.726 9.49925 120.478C8.5366 121.232 8.39673 122.164 8.0402 122.631C7.68366 123.098 7.29147 123.023 6.83072 123.742C6.36722 124.457 5.86807 124.781 6.22735 125.787C6.58388 126.79 6.65519 127.508 6.50983 128.08C6.36722 128.655 6.04634 128.332 5.86807 129.083C5.6898 129.838 5.86807 130.769 5.51153 131.02C5.155 131.272 4.51323 131.775 4.19509 131.883C3.87695 131.99 3.66029 131.382 3.09258 131.883C2.52212 132.383 1.34829 134.143 1.03015 134.859C0.709271 135.575 0.426785 136.473 0.388388 137.119C0.352735 137.766 0.174467 138.697 0.0675062 139.128C-0.0394546 139.559 -0.00380099 140.275 0.0675062 140.419C0.138813 140.563 0.424042 140.67 0.991757 140.491C1.56221 140.311 2.70039 139.99 2.84026 140.67C2.98013 141.35 2.76895 141.673 3.08983 141.997C3.41071 142.32 3.51768 142.82 3.76725 143.79C4.01683 144.757 3.3778 144.581 4.40901 145.296C5.44023 146.012 7.29421 146.874 7.75497 147.413C8.21846 147.952 9.4636 151.931 10.4262 152.324C11.3889 152.716 12.4887 152.539 13.1661 152.683C13.8435 152.827 14.8034 153.65 14.8034 154.225C14.8034 154.8 15.1243 155.623 15.3382 155.731C15.5521 155.839 15.7277 156.27 16.2295 156.447C16.726 156.626 16.8713 156.375 17.1895 156.159C17.5103 155.944 17.8998 155.728 18.4346 156.016C18.9694 156.3 19.3588 156.339 19.7867 156.051C20.2145 155.764 21.5666 153.506 22.0987 153.183C22.6335 152.86 23.736 153.147 23.9143 153.111C24.0925 153.075 24.8385 152.429 25.1237 153.291C25.409 154.153 24.6273 154.294 26.0151 155.192C27.4028 156.087 31.3522 158.06 31.854 158.096C32.3505 158.132 32.6713 157.953 33.527 157.665C34.3827 157.378 35.0574 157.917 35.5209 157.953C35.9844 157.989 37.0512 157.593 37.4763 157.56C37.9042 157.524 37.9042 157.776 38.4362 158.351C38.971 158.925 39.2535 158.997 40.0379 158.959C40.8223 158.923 40.6797 159.138 41.2474 159.21C41.8178 159.282 41.497 158.527 42.5638 158.851C43.6307 159.174 45.3421 160.86 46.302 161.219C47.2619 161.578 48.1176 161.719 48.614 161.219C49.1104 160.719 49.0418 160.395 50.0374 160.503C51.0357 160.611 51.7817 160.467 51.7817 160.467C51.7817 160.467 53.7371 159.752 54.4145 159.785C55.092 159.821 55.8736 159.605 56.5153 160.501C57.1571 161.396 57.5136 162.186 58.3309 163.01C59.1482 163.833 60.536 164.157 60.7499 164.3C60.9638 164.444 61.6056 165.303 61.9594 166.022C62.3159 166.738 63.1689 167.097 63.4184 167.669C63.668 168.244 63.9148 168.6 64.5566 168.531C65.1984 168.459 66.3009 168.387 66.907 168.172C67.5104 167.956 68.1165 166.881 68.6156 166.917C69.1148 166.953 69.7181 166.953 70.2173 166.525C70.7137 166.094 71.2842 165.234 71.6764 165.091C72.0658 164.947 73.0998 165.019 73.5632 164.552C74.0267 164.085 73.2067 163.297 73.9527 163.261C74.7014 163.225 75.7683 163.441 76.3031 163.261C76.8379 163.082 78.0117 162.471 78.4396 162.471C78.8674 162.471 79.1883 162.65 79.7917 162.579C80.395 162.507 81.3933 161.896 81.3933 161.896C81.3933 161.896 83.102 162.471 84.0975 162.363C85.0931 162.255 87.2295 161.037 87.7616 161.037C88.2937 161.037 89.4346 161.575 90.1449 161.36C90.8552 161.144 90.8552 160.213 92.2073 160.213C93.5594 160.213 94.6647 160.429 95.0541 159.89C95.4436 159.351 98.0079 153.042 98.2575 152.898C98.507 152.755 103.062 151.464 103.526 151.32C103.989 151.177 104.382 151.033 105.021 150.638C105.662 150.245 105.838 149.455 106.337 149.383C106.834 149.311 106.979 149.132 107.368 148.952C107.758 148.773 107.758 148.021 107.758 148.021L107.793 146.659L107.865 145.656C107.865 145.656 109.502 145.224 110.429 145.332C111.353 145.44 111.32 145.296 111.427 145.94C111.534 146.587 111.106 147.123 112.105 147.051C113.103 146.979 113.813 147.338 114.099 146.728C114.381 146.12 114.348 145.689 114.633 145.545C114.919 145.401 115.7 145.545 115.914 145.832C116.128 146.12 116.663 146.587 117.052 146.548C117.442 146.512 117.48 146.048 117.977 146.189C118.473 146.333 118.901 146.871 119.293 146.764C119.683 146.656 119.935 146.943 120.467 145.901C121.002 144.862 121.534 143.931 122.315 144.216C123.1 144.503 123.703 144.931 124.024 144.716C124.345 144.5 124.452 144.033 124.948 143.713C125.445 143.389 126.797 142.61 127.192 142.84C127.581 143.069 127.833 143.569 128.083 143.785C128.333 144 131.322 143.785 131.572 143.964C131.821 144.144 132.817 145.075 133.42 145.758C134.023 146.44 133.955 147.228 134.665 147.695C135.376 148.162 135.839 148.018 136.196 148.377C136.552 148.737 137.69 149.093 137.94 149.168C138.189 149.242 138.617 149.024 138.65 149.922C138.686 150.818 138.401 151.931 139.435 151.967C140.469 152.003 140.715 151.251 140.715 151.251C140.715 151.251 141.782 152.757 142.281 152.686C142.778 152.614 143.99 151.575 144.879 151.754C145.77 151.934 146.302 152.829 145.627 153.189C144.95 153.548 143.779 153.835 144.026 154.731C144.275 155.626 144.596 156.165 145.128 155.734C145.663 155.303 145.625 154.012 146.302 154.156C146.979 154.299 146.837 154.515 147.086 155.662C147.336 156.809 147.514 157.632 148.189 157.309C148.866 156.985 148.724 156.77 148.938 156.162C149.152 155.554 148.831 154.836 149.9 154.8C150.967 154.764 151.288 154.692 151.963 154.836C152.64 154.979 153.6 154.369 154.064 154.907C154.527 155.446 155.273 155.731 155.879 155.59C156.483 155.446 157.267 155.303 156.839 156.237C156.411 157.168 157.335 160.683 157.549 160.863C157.763 161.042 159.044 161.33 159.044 161.33L160.218 161.509C160.218 161.509 160.289 161.653 160.788 162.084C161.285 162.515 161.927 162.335 162.212 161.653C162.494 160.97 162.212 160.542 162.854 160.578C163.495 160.614 164.384 160.937 164.42 161.401C164.455 161.868 164.455 162.512 164.669 162.62C164.883 162.728 165.24 162.872 165.525 163.159C165.807 163.446 166.592 163.374 166.342 163.949C166.093 164.524 165.451 164.811 165.382 165.276C165.311 165.743 165.846 166.207 166.093 166.387C166.339 166.566 166.877 168.716 166.271 168.968C165.667 169.219 165.272 169.65 165.593 170.186C165.914 170.725 165.95 170.725 165.593 171.405C165.237 172.087 165.059 172.444 165.344 172.839C165.629 173.232 164.987 173.629 164.954 173.914C164.919 174.201 166.057 174.166 165.344 174.809C164.633 175.456 163.457 175.169 163.495 175.741C163.531 176.316 163.852 176.78 164.28 177.031C164.708 177.283 165.028 177.031 165.135 177.747C165.242 178.463 165.813 179.502 166.844 179.648C167.875 179.792 167.804 179.181 168.303 179.612C168.799 180.043 168.303 180.151 168.692 181.082C169.082 182.014 169.795 181.729 169.902 182.121C170.009 182.514 169.513 183.412 170.187 183.951C170.865 184.49 171.646 185.026 171.967 184.451C172.288 183.876 172.288 182.514 172.752 182.406C173.215 182.298 173.925 181.867 174.139 183.16C174.353 184.451 174.743 185.205 174.46 185.777C174.175 186.352 173.643 186.065 173.818 186.924C173.997 187.786 174.282 188.466 174.208 189.433C174.137 190.401 173.07 190.257 173.423 191.011C173.78 191.766 174.847 191.874 174.954 191.874C175.061 191.874 176.056 192.697 175.738 193.2C175.417 193.7 174.882 194.023 174.882 194.814C174.882 195.604 174.669 195.817 175.239 196.104C175.81 196.392 175.881 196.535 176.413 196.895C176.948 197.254 177.123 197.002 177.801 197.146C178.478 197.29 178.478 197.182 178.656 197.793C178.835 198.401 178.585 198.904 179.441 198.832C180.296 198.76 181.363 198.293 181.717 198.832C182.074 199.371 182.145 199.478 182.501 199.694C182.858 199.91 183.853 199.55 183.925 200.125C183.996 200.7 184.103 203.134 184.103 203.134L184.281 204.82C184.281 204.82 184.816 206.182 184.816 206.614C184.816 207.045 184.602 208.12 184.602 208.12L185.42 209.374C185.42 209.374 185.241 209.733 185.313 210.377C185.384 211.024 186.023 211.024 186.023 211.668C186.023 212.312 186.412 212.886 186.84 213.066C187.268 213.246 187.657 212.958 188.62 213.425C189.583 213.892 191.752 215.362 191.716 215.65C191.681 215.937 190.543 215.614 189.83 215.65C189.119 215.686 189.012 215.542 188.335 215.506C187.657 215.47 187.479 215.542 186.059 215.542C184.638 215.542 184.421 215.042 183.747 215.47C183.069 215.901 183.568 216.078 182.715 216.366C181.86 216.653 181.717 216.833 181.256 216.33C180.793 215.829 181.149 215.467 180.828 215.183C180.508 214.895 180.011 214.683 180.011 214.683C180.011 214.683 179.548 212.82 179.155 213.5C178.766 214.182 178.552 214.79 178.552 214.79C178.552 214.79 177.803 214.108 177.485 214.79C177.164 215.473 177.414 216.009 177.129 216.512C176.843 217.012 175.919 217.374 175.563 216.799C175.206 216.225 174.139 215.006 174.139 215.006L172.858 214.398L172.288 212.928C172.288 212.928 171.539 212.536 171.471 213.395C171.399 214.257 171.753 214.901 171.043 214.793C170.333 214.685 170.187 214.757 170.08 214.039C169.973 213.323 169.477 212.209 169.263 212.892C169.049 213.575 169.049 213.895 168.978 214.398C168.906 214.898 168.443 215.045 168.122 215.293C167.801 215.545 167.733 216.048 167.338 216.225C166.948 216.404 166.271 216.617 166.553 215.509C166.838 214.398 166.839 214.039 167.088 213.464C167.338 212.889 167.445 212.317 167.088 211.922C166.732 211.53 166.767 210.275 166.057 210.991C165.347 211.706 165.347 212.03 164.99 212.03C164.633 212.03 164.42 211.314 163.424 211.814C162.426 212.314 162.675 212.353 162.214 212.746C161.751 213.138 160.898 212.386 161.112 213.32C161.326 214.252 160.542 214.252 160.328 214.359C160.114 214.467 159.793 214.072 160.078 215.222C160.363 216.368 160.256 216.656 160.506 217.374C160.755 218.09 160.648 219.847 160.791 220.422C160.934 220.997 161.255 220.922 162.179 221.677C163.103 222.431 164.101 222.108 163.281 223.398C162.464 224.689 162.001 225.261 161.858 225.979C161.715 226.695 162.428 227.917 162.461 228.204C162.497 228.491 162.497 229.459 161.82 229.782C161.142 230.105 159.612 230.141 158.402 230.536C157.193 230.929 156.765 229.997 156.658 231.327C156.551 232.653 156.408 233.297 156.729 234.195C157.05 235.09 157.796 235.842 156.908 235.842C156.019 235.842 155.27 236.165 155.27 236.596C155.27 237.028 155.128 237.492 154.415 237.671C153.704 237.851 153.348 238.21 153.276 238.641C153.205 239.073 153.062 239.824 152.599 239.465C152.135 239.106 150.962 239.178 150.962 239.178C150.962 239.178 149.788 238.89 149.788 240.001C149.788 241.112 149.895 241.256 150.537 241.687C151.178 242.118 151.603 242.654 151.535 243.301C151.464 243.947 150.964 244.124 151 244.663C151.036 245.202 150.397 244.842 150.251 245.417C150.109 245.992 150.251 246.313 150.109 246.78C149.966 247.247 149.574 247.75 148.507 247.388C147.44 247.028 145.268 246.097 144.912 246.525C144.555 246.957 144.522 247.064 144.341 247.421C144.163 247.78 143.771 247.708 143.985 248.352C144.198 248.999 144.374 248.852 144.481 249.643C144.588 250.433 144.517 250.289 144.977 251.328C145.441 252.367 145.334 252.691 146.08 253.658C146.829 254.628 147.753 255.379 148.537 255.559C149.322 255.739 150.21 256.349 150.21 256.349C150.21 256.349 150.493 257.64 151.42 257.748C152.344 257.855 154.231 258.179 155.122 258.179C156.014 258.179 156.831 258.107 157.223 257.604C157.612 257.104 157.9 256.742 157.437 256.313C156.973 255.882 156.299 255.343 157.047 255.274C157.796 255.203 157.903 255.454 158.079 254.987C158.257 254.52 157.972 253.696 158.468 254.595C158.965 255.49 160.744 256.065 160.958 255.705C161.172 255.346 161.348 254.702 161.669 254.343C161.99 253.984 161.918 253.804 162.843 253.843C163.767 253.879 163.909 254.166 164.373 253.627C164.836 253.089 164.836 252.981 165.371 252.873C165.906 252.765 166.331 252.481 166.723 252.119C167.113 251.759 167.968 250.9 169.074 250.9C170.179 250.9 170.889 250.756 172.206 250.864C173.522 250.972 174.482 250.864 175.373 251.903C176.265 252.942 176.904 252.511 177.367 253.766C177.831 255.02 178.409 256.548 178.316 257.364L178.294 257.325L178.281 257.306Z" fill="#CFE8D0"/>
<path fill-rule="evenodd" clip-rule="evenodd" d="M45.4744 85.7319C48.8634 82.4107 53.4597 80.5449 58.2524 80.5449C63.0451 80.5449 67.6414 82.4107 71.0303 85.7319C74.4193 89.053 76.3231 93.5575 76.3231 98.2543C76.3231 111.536 58.2524 131.143 58.2524 131.143C58.2524 131.143 40.1816 111.536 40.1816 98.2543C40.1816 93.5575 42.0855 89.053 45.4744 85.7319ZM65.0675 98.4712L58.2526 91.6563L51.4377 98.4712L58.2526 105.286L65.0675 98.4712Z" fill="#01594D"/>
<path d="M100.168 109.024V106H90.052V84.724H92.968V103.984H98.044V84.724H100.96V104.596H102.436V109.024H100.168ZM110.725 106.324C109.501 106.324 108.505 106.192 107.737 105.928C106.969 105.64 106.405 105.112 106.045 104.344C105.685 103.576 105.505 102.448 105.505 100.96V92.32C105.505 90.616 105.901 89.452 106.693 88.828C107.509 88.18 108.805 87.856 110.581 87.856C112.333 87.856 113.605 88.18 114.397 88.828C115.213 89.452 115.621 90.616 115.621 92.32V96.964H108.241V101.968C108.241 103 108.397 103.72 108.709 104.128C109.045 104.536 109.693 104.74 110.653 104.74C111.541 104.74 112.129 104.548 112.417 104.164C112.729 103.756 112.885 103.024 112.885 101.968V99.52H115.621V100.924C115.621 102.388 115.441 103.516 115.081 104.308C114.721 105.076 114.181 105.604 113.461 105.892C112.741 106.18 111.829 106.324 110.725 106.324ZM108.241 95.632H112.885V92.176C112.885 91.264 112.729 90.604 112.417 90.196C112.129 89.764 111.517 89.548 110.581 89.548C109.669 89.548 109.045 89.764 108.709 90.196C108.397 90.604 108.241 91.264 108.241 92.176V95.632ZM127.438 106V90.196H123.766V88.18H133.954V90.196H130.246V106H127.438ZM137.213 110.212C136.661 110.212 136.157 110.164 135.701 110.068C135.269 109.996 134.921 109.936 134.657 109.888V108.34C134.753 108.364 134.921 108.4 135.161 108.448C135.425 108.52 135.725 108.556 136.061 108.556C136.397 108.556 136.781 108.496 137.213 108.376C137.645 108.256 137.993 107.92 138.257 107.368C138.353 107.152 138.473 106.888 138.617 106.576C138.785 106.288 138.821 105.952 138.725 105.568L134.729 88.18H137.573L140.561 103.264H140.525L143.441 88.18H146.033L142.253 105.064C141.893 106.84 141.305 108.136 140.489 108.952C139.697 109.792 138.605 110.212 137.213 110.212ZM150.395 106V90.196H146.723V88.18H156.911V90.196H153.203V106H150.395Z" fill="#131415"/>
<path opacity="0.7" d="M87.46 130.535C87.88 130.465 88.22 130.37 88.48 130.25C88.75 130.14 88.985 129.975 89.185 129.755C89.395 129.535 89.625 129.235 89.875 128.855L90.37 128.12L88.765 120.185H89.83L91.09 127.055L91.705 126.05C92.135 125.35 92.5 124.735 92.8 124.205C93.1 123.665 93.355 123.18 93.565 122.75C93.785 122.31 93.965 121.885 94.105 121.475C94.245 121.065 94.38 120.635 94.51 120.185H95.515C95.385 120.665 95.24 121.115 95.08 121.535C94.93 121.955 94.74 122.395 94.51 122.855C94.29 123.305 94.01 123.82 93.67 124.4C93.34 124.97 92.925 125.655 92.425 126.455L91.21 128.39C90.87 128.94 90.555 129.4 90.265 129.77C89.975 130.15 89.69 130.45 89.41 130.67C89.14 130.9 88.86 131.065 88.57 131.165C88.28 131.275 87.955 131.34 87.595 131.36L87.46 130.535ZM99.3973 128L101.647 117.35H102.697L101.692 122.105H103.237L107.827 117.35H109.072L104.062 122.465L107.212 128H106.087L103.297 123.02H101.497L100.447 128H99.3973ZM111.229 128.15C110.659 128.15 110.164 128 109.744 127.7C109.324 127.4 109.004 127 108.784 126.5C108.564 126 108.454 125.46 108.454 124.88C108.454 124.26 108.569 123.665 108.799 123.095C109.039 122.515 109.359 122 109.759 121.55C110.169 121.09 110.634 120.725 111.154 120.455C111.674 120.185 112.219 120.05 112.789 120.05C113.419 120.05 113.939 120.225 114.349 120.575C114.759 120.915 115.049 121.33 115.219 121.82L115.579 120.185H116.599L115.219 126.665C115.209 126.695 115.199 126.73 115.189 126.77C115.189 126.8 115.189 126.83 115.189 126.86C115.189 127.02 115.284 127.1 115.474 127.1L115.279 128C115.199 128.01 115.124 128.02 115.054 128.03C114.994 128.04 114.934 128.045 114.874 128.045C114.644 128.035 114.469 127.975 114.349 127.865C114.239 127.745 114.184 127.605 114.184 127.445C114.184 127.385 114.189 127.32 114.199 127.25C114.209 127.18 114.224 127.085 114.244 126.965C114.274 126.845 114.309 126.685 114.349 126.485C113.949 126.995 113.464 127.4 112.894 127.7C112.334 128 111.779 128.15 111.229 128.15ZM111.649 127.25C111.899 127.25 112.164 127.2 112.444 127.1C112.734 127 113.014 126.865 113.284 126.695C113.554 126.515 113.794 126.305 114.004 126.065C114.224 125.825 114.384 125.575 114.484 125.315L114.979 122.9C114.939 122.54 114.819 122.215 114.619 121.925C114.419 121.635 114.169 121.4 113.869 121.22C113.569 121.04 113.239 120.95 112.879 120.95C112.429 120.95 112.004 121.06 111.604 121.28C111.204 121.5 110.844 121.795 110.524 122.165C110.214 122.535 109.969 122.945 109.789 123.395C109.609 123.835 109.519 124.28 109.519 124.73C109.519 125.19 109.609 125.61 109.789 125.99C109.969 126.37 110.214 126.675 110.524 126.905C110.844 127.135 111.219 127.25 111.649 127.25ZM118.994 120.185H119.894L119.579 121.7C119.979 121.21 120.454 120.815 121.004 120.515C121.564 120.205 122.124 120.05 122.684 120.05C123.264 120.05 123.759 120.205 124.169 120.515C124.589 120.815 124.909 121.215 125.129 121.715C125.349 122.215 125.459 122.755 125.459 123.335C125.459 123.945 125.344 124.54 125.114 125.12C124.884 125.69 124.569 126.205 124.169 126.665C123.769 127.125 123.309 127.49 122.789 127.76C122.269 128.02 121.714 128.15 121.124 128.15C120.504 128.15 119.989 127.98 119.579 127.64C119.169 127.3 118.874 126.88 118.694 126.38L117.674 131.195H116.654L118.994 120.185ZM121.034 127.25C121.484 127.25 121.909 127.14 122.309 126.92C122.719 126.7 123.079 126.41 123.389 126.05C123.699 125.69 123.944 125.285 124.124 124.835C124.304 124.385 124.394 123.94 124.394 123.5C124.394 123.03 124.304 122.605 124.124 122.225C123.954 121.835 123.709 121.525 123.389 121.295C123.069 121.065 122.689 120.95 122.249 120.95C122.009 120.95 121.744 121 121.454 121.1C121.174 121.2 120.894 121.345 120.614 121.535C120.344 121.715 120.104 121.92 119.894 122.15C119.684 122.38 119.529 122.625 119.429 122.885L118.919 125.285C118.989 125.655 119.119 125.99 119.309 126.29C119.509 126.58 119.754 126.815 120.044 126.995C120.344 127.165 120.674 127.25 121.034 127.25ZM126.49 128L128.14 120.185H134.41L132.745 128H131.725L133.21 120.995H128.98L127.51 128H126.49ZM137.958 128.15C137.388 128.15 136.893 128 136.473 127.7C136.053 127.4 135.733 127 135.513 126.5C135.293 126 135.183 125.46 135.183 124.88C135.183 124.26 135.298 123.665 135.528 123.095C135.768 122.515 136.088 122 136.488 121.55C136.898 121.09 137.363 120.725 137.883 120.455C138.403 120.185 138.948 120.05 139.518 120.05C140.148 120.05 140.668 120.225 141.078 120.575C141.488 120.915 141.778 121.33 141.948 121.82L142.308 120.185H143.328L141.948 126.665C141.938 126.695 141.928 126.73 141.918 126.77C141.918 126.8 141.918 126.83 141.918 126.86C141.918 127.02 142.013 127.1 142.203 127.1L142.008 128C141.928 128.01 141.853 128.02 141.783 128.03C141.723 128.04 141.663 128.045 141.603 128.045C141.373 128.035 141.198 127.975 141.078 127.865C140.968 127.745 140.913 127.605 140.913 127.445C140.913 127.385 140.918 127.32 140.928 127.25C140.938 127.18 140.953 127.085 140.973 126.965C141.003 126.845 141.038 126.685 141.078 126.485C140.678 126.995 140.193 127.4 139.623 127.7C139.063 128 138.508 128.15 137.958 128.15ZM138.378 127.25C138.628 127.25 138.893 127.2 139.173 127.1C139.463 127 139.743 126.865 140.013 126.695C140.283 126.515 140.523 126.305 140.733 126.065C140.953 125.825 141.113 125.575 141.213 125.315L141.708 122.9C141.668 122.54 141.548 122.215 141.348 121.925C141.148 121.635 140.898 121.4 140.598 121.22C140.298 121.04 139.968 120.95 139.608 120.95C139.158 120.95 138.733 121.06 138.333 121.28C137.933 121.5 137.573 121.795 137.253 122.165C136.943 122.535 136.698 122.945 136.518 123.395C136.338 123.835 136.248 124.28 136.248 124.73C136.248 125.19 136.338 125.61 136.518 125.99C136.698 126.37 136.943 126.675 137.253 126.905C137.573 127.135 137.948 127.25 138.378 127.25ZM145.708 120.185H146.653L146.263 121.955C146.683 121.365 147.178 120.9 147.748 120.56C148.318 120.22 148.893 120.05 149.473 120.05C149.863 120.05 150.193 120.13 150.463 120.29C150.733 120.45 150.933 120.68 151.063 120.98C151.203 121.28 151.268 121.65 151.258 122.09C151.558 121.64 151.883 121.265 152.233 120.965C152.583 120.665 152.958 120.44 153.358 120.29C153.758 120.13 154.153 120.05 154.543 120.05C154.963 120.05 155.298 120.13 155.548 120.29C155.798 120.44 155.983 120.66 156.103 120.95C156.223 121.24 156.283 121.58 156.283 121.97C156.283 122.19 156.268 122.42 156.238 122.66C156.208 122.9 156.163 123.155 156.103 123.425L155.128 128H154.108L155.023 123.635C155.123 123.165 155.173 122.76 155.173 122.42C155.173 121.93 155.073 121.57 154.873 121.34C154.673 121.1 154.378 120.98 153.988 120.98C153.618 120.98 153.253 121.075 152.893 121.265C152.533 121.455 152.198 121.72 151.888 122.06C151.578 122.39 151.318 122.78 151.108 123.23L150.103 128H149.083L149.998 123.635C150.058 123.385 150.098 123.16 150.118 122.96C150.148 122.76 150.163 122.57 150.163 122.39C150.163 121.91 150.063 121.555 149.863 121.325C149.663 121.095 149.368 120.98 148.978 120.98C148.428 120.98 147.888 121.185 147.358 121.595C146.838 122.005 146.413 122.545 146.083 123.215L145.078 128H144.058L145.708 120.185ZM160.392 128.15C159.822 128.15 159.327 128 158.907 127.7C158.487 127.4 158.167 127 157.947 126.5C157.727 126 157.617 125.46 157.617 124.88C157.617 124.26 157.732 123.665 157.962 123.095C158.202 122.515 158.522 122 158.922 121.55C159.332 121.09 159.797 120.725 160.317 120.455C160.837 120.185 161.382 120.05 161.952 120.05C162.582 120.05 163.102 120.225 163.512 120.575C163.922 120.915 164.212 121.33 164.382 121.82L164.742 120.185H165.762L164.382 126.665C164.372 126.695 164.362 126.73 164.352 126.77C164.352 126.8 164.352 126.83 164.352 126.86C164.352 127.02 164.447 127.1 164.637 127.1L164.442 128C164.362 128.01 164.287 128.02 164.217 128.03C164.157 128.04 164.097 128.045 164.037 128.045C163.807 128.035 163.632 127.975 163.512 127.865C163.402 127.745 163.347 127.605 163.347 127.445C163.347 127.385 163.352 127.32 163.362 127.25C163.372 127.18 163.387 127.085 163.407 126.965C163.437 126.845 163.472 126.685 163.512 126.485C163.112 126.995 162.627 127.4 162.057 127.7C161.497 128 160.942 128.15 160.392 128.15ZM160.812 127.25C161.062 127.25 161.327 127.2 161.607 127.1C161.897 127 162.177 126.865 162.447 126.695C162.717 126.515 162.957 126.305 163.167 126.065C163.387 125.825 163.547 125.575 163.647 125.315L164.142 122.9C164.102 122.54 163.982 122.215 163.782 121.925C163.582 121.635 163.332 121.4 163.032 121.22C162.732 121.04 162.402 120.95 162.042 120.95C161.592 120.95 161.167 121.06 160.767 121.28C160.367 121.5 160.007 121.795 159.687 122.165C159.377 122.535 159.132 122.945 158.952 123.395C158.772 123.835 158.682 124.28 158.682 124.73C158.682 125.19 158.772 125.61 158.952 125.99C159.132 126.37 159.377 126.675 159.687 126.905C160.007 127.135 160.382 127.25 160.812 127.25ZM169.267 124.115L167.272 120.185H168.367L169.897 123.245L169.957 123.47L170.122 123.26L172.972 120.185H174.067L170.407 124.115L172.402 128H171.307L169.777 124.955L169.687 124.745L169.537 124.94L166.717 128H165.607L169.267 124.115Z" fill="#131415"/>
</svg>
