<svg width="413" height="282" viewBox="0 0 413 282" fill="none" xmlns="http://www.w3.org/2000/svg">
<path d="M179.281 257.306C179.259 257.502 179.708 257.162 179.898 257.306C180.087 257.449 180.183 257.209 180.372 257.306C180.561 257.402 180.896 257.822 180.847 257.231C180.8 256.639 180.276 256.493 180.468 255.968C180.657 255.44 180.43 255.44 180.852 255.106C181.274 254.771 181.513 254.578 181.513 254.103C181.513 253.627 181.039 253.29 180.943 252.669C180.847 252.047 181.132 251.806 181.132 251.14C181.132 250.474 181.417 250.759 181.132 250.137C180.847 249.515 180.608 249.228 180.394 249.325C180.18 249.421 180.038 249.372 179.848 249.853C179.659 250.331 179.42 250.762 179.278 250.618C179.135 250.474 179.324 250.474 179.278 250.187C179.231 249.9 179.226 249.308 179.226 249.308C179.226 249.308 178.946 248.908 178.806 249.308C178.663 249.709 178.428 249.9 178.428 249.9C178.428 249.9 177.811 249.46 177.811 249.129C177.811 248.797 178.142 248.225 178.381 247.987C178.617 247.75 179.662 246.937 179.662 246.937L180.219 246.47C180.219 246.47 179.922 246.291 179.662 246.47C179.401 246.65 178.759 247.078 178.759 247.078C178.759 247.078 177.728 247.15 177.657 246.686C177.586 246.219 177.621 245.503 177.657 244.892C177.693 244.284 177.682 243.817 177.616 243.422C177.55 243.03 177.015 241.88 177.158 241.593C177.3 241.305 177.654 240.769 177.8 240.59C177.942 240.41 178.085 240.089 177.907 239.766C177.728 239.443 177.443 239.084 177.693 238.871C177.942 238.658 178.334 238.512 178.477 238.44C178.62 238.368 179.154 237.652 179.154 237.652C179.154 237.652 179.544 237.975 179.544 238.227C179.544 238.478 179.533 238.299 179.324 238.766C179.119 239.233 178.869 239.448 179.012 240.128C179.154 240.811 179.722 241.275 180.114 241.562C180.504 241.85 180.792 242.029 180.863 242.637C180.934 243.245 181.077 243.676 180.934 244.036C180.792 244.395 180.257 244.751 180.756 244.826C181.252 244.898 181.516 244.862 181.516 244.862C181.516 244.862 181.527 245.113 181.516 245.221C181.505 245.329 181.291 245.473 181.22 245.58C181.148 245.688 181.291 245.832 181.79 245.437C182.286 245.044 182.681 244.682 183.071 244.362C183.463 244.038 183.888 243.787 184.033 243.43C184.176 243.071 184.497 242.607 184.354 242.248C184.212 241.888 184.176 241.709 183.751 241.781C183.323 241.853 182.934 241.96 182.648 241.781C182.363 241.601 181.864 241.457 182.078 240.957C182.292 240.457 182.648 239.954 183.109 239.918C183.573 239.882 184.283 239.846 184.39 240.062C184.497 240.277 184.711 240.454 184.854 240.454C184.996 240.454 185.21 240.813 185.281 240.346C185.353 239.879 185.671 239.092 185.959 238.733C186.244 238.373 186.315 238.445 186.455 238.017C186.598 237.586 186.526 237.765 186.455 237.37C186.384 236.978 186.099 237.047 186.313 236.724C186.526 236.4 186.477 236.795 186.537 236.257C186.598 235.718 186.42 235.182 186.348 235.038C186.277 234.894 185.885 234.966 185.885 234.646C185.885 234.325 186.063 233.75 186.206 233.642C186.348 233.535 186.573 233.463 186.548 234.035C186.526 234.61 186.255 234.825 186.548 235.218C186.845 235.61 187.091 236.149 187.344 236.436C187.593 236.724 188.092 236.903 188.199 237.083C188.306 237.263 188.485 237.691 188.378 237.906C188.271 238.122 185.531 240.883 185.46 241.131C185.388 241.383 184.963 241.49 185.388 241.383C185.816 241.275 188.945 238.083 189.091 237.942C189.233 237.799 189.305 237.403 189.269 237.119C189.233 236.831 189.34 235.685 189.659 235.613C189.979 235.541 190.229 235.469 190.229 236.005V236.867C190.229 236.867 190.871 236.975 191.403 236.259C191.938 235.544 192.08 235.041 192.47 234.43C192.859 233.822 193.111 233.283 193.715 232.601C194.318 231.918 198.517 227.043 198.517 227.043C198.517 227.043 198.481 226.435 198.339 226.397C198.196 226.361 197.842 226.576 197.59 226.397C197.34 226.217 197.055 226.109 197.127 225.606C197.198 225.106 197.198 224.96 197.127 224.639C197.055 224.316 196.77 223.421 196.592 223.133C196.413 222.846 196.057 222.525 195.774 222.487C195.489 222.451 195.097 222.487 194.883 222.307C194.669 222.127 194.776 221.84 194.173 221.517C193.569 221.193 193.249 221.016 192.714 220.942C192.179 220.867 192.143 221.409 191.54 220.475C190.937 219.543 190.473 218.897 190.295 218.107C190.117 217.316 190.473 216.816 190.937 216.744C191.4 216.672 191.721 216.313 191.935 216.457C192.149 216.6 192.612 216.529 192.645 217.211C192.681 217.894 192.966 218.753 192.966 219.005C192.966 219.256 193.109 219.472 193.109 219.472C193.109 219.472 193.498 219.795 193.465 219.364C193.43 218.933 193.287 218.54 193.43 218.361C193.572 218.181 193.536 217.465 193.964 217.322C194.392 217.178 194.889 217.465 194.889 217.861C194.889 218.256 194.817 218.328 194.675 218.723C194.532 219.115 194.603 219.513 194.71 219.834C194.817 220.154 194.889 220.121 195.207 220.193C195.528 220.265 196.062 220.84 196.381 221.16C196.701 221.483 196.915 222.055 196.915 222.055L196.701 222.163C196.701 222.163 196.419 222.271 196.63 222.522C196.844 222.774 196.808 223.277 197.094 223.526C197.379 223.777 197.557 224.1 197.735 224.134C197.914 224.169 198.163 224.134 198.306 224.169C198.448 224.205 198.306 224.421 198.52 224.744C198.734 225.068 198.948 225.391 198.948 225.391L199.482 225.247C199.482 225.247 199.768 225.068 199.91 224.672C200.053 224.277 199.982 224.134 200.338 223.561C200.695 222.989 200.941 222.558 201.155 222.163C201.369 221.771 201.759 221.301 202.011 220.765C202.261 220.226 202.614 219.834 202.582 219.546C202.546 219.259 202.011 218.292 201.726 217.968C201.441 217.645 201.262 217.609 201.298 217.394C201.334 217.178 201.476 217.034 201.476 216.819C201.476 216.603 201.441 216.717 201.476 216.429C201.512 216.139 202.011 215.351 202.011 215.351C202.011 215.351 202.409 215.172 202.582 216.142C202.757 217.109 202.793 217.217 202.793 217.396C202.793 217.576 203.114 218.543 203.114 218.543C203.114 218.543 203.042 218.974 203.328 218.795C203.613 218.615 204.359 217.932 204.573 217.576C204.787 217.217 205.069 216.893 205.214 216.573C205.357 216.25 205.571 216.073 205.535 215.711C205.5 215.351 205.146 214.887 205.214 214.6C205.286 214.312 205.648 213.917 205.538 213.597C205.426 213.273 205.179 212.914 205.107 212.486C205.036 212.055 204.894 211.731 205.036 211.411C205.179 211.087 206.034 210.872 206.602 210.372C207.173 209.872 207.812 208.902 208.275 208.794C208.739 208.686 209.805 208.542 210.483 208.327C211.16 208.111 211.835 208.147 212.405 207.644C212.976 207.144 213.154 207.429 213.223 206.782C213.294 206.135 213.187 204.488 213.044 203.665C212.902 202.841 212.581 202.374 212.655 201.872C212.726 201.371 212.869 201.117 212.762 200.581C212.655 200.042 212.691 200.081 212.334 199.757C211.978 199.434 211.478 199.326 211.267 198.754C211.053 198.18 211.089 197.892 210.878 197.679C210.664 197.464 209.987 197.179 209.987 197.179C209.987 197.179 209.383 197.071 209.383 196.964C209.383 196.856 209.205 196.676 209.276 196.571C209.348 196.464 209.561 196.535 209.561 196.32C209.561 196.104 209.633 196.428 209.383 195.781C209.134 195.134 208.316 194.85 208.459 193.918C208.602 192.987 208.53 190.694 208.53 190.694C208.53 190.694 208.78 190.837 208.958 191.301C209.136 191.768 209.529 192.592 209.561 193.272C209.597 193.954 209.561 194.242 209.775 194.347C209.989 194.455 210.486 194.598 210.593 194.847C210.7 195.098 210.842 196.461 210.842 196.461C210.842 196.461 210.521 196.64 210.7 196.712C210.878 196.784 211.089 196.712 211.448 196.712C211.808 196.712 211.983 196.604 212.019 197.071C212.054 197.538 212.304 198.003 212.447 198.111C212.589 198.218 212.732 198.398 212.981 198.685C213.231 198.973 213.552 199.045 213.445 199.617C213.338 200.191 213.588 200.907 213.73 201.123C213.873 201.338 213.98 201.051 213.98 201.838C213.98 202.626 213.837 203.809 213.98 204.707C214.122 205.602 213.801 205.71 213.98 206.069C214.158 206.428 214.158 206.716 214.515 206.931C214.871 207.147 215.049 207.255 215.406 207.324C215.762 207.396 216.155 207.539 216.758 207.716C217.361 207.896 217.721 207.968 217.932 207.824C218.146 207.68 218.428 208.147 218.428 207.357V205.312C218.428 204.845 218.571 204.596 218.428 204.237C218.286 203.878 218 203.629 218.25 203.483C218.499 203.339 219.106 203.195 219.174 203.734C219.245 204.273 219.281 204.665 219.174 205.204C219.067 205.743 218.96 205.384 219.067 205.743C219.174 206.102 218.853 206.351 219.174 206.102C219.495 205.851 219.352 205.635 219.638 205.348C219.92 205.06 220.066 205.025 220.241 204.773C220.419 204.522 220.598 204.198 220.562 203.878C220.526 203.554 220.205 203.087 219.885 202.767C219.564 202.444 219.207 202.408 219.243 201.872C219.278 201.333 218.957 200.617 219.421 200.832C219.884 201.048 220.282 201.156 220.565 201.728C220.847 202.303 221.058 202.551 221.165 202.659C221.272 202.767 221.522 202.839 221.522 202.515C221.522 202.192 221.272 201.907 221.522 201.44C221.771 200.973 222.018 200.686 222.446 200.509C222.874 200.33 223.088 200.15 223.263 199.97C223.442 199.791 223.513 199.396 223.798 199.578C224.083 199.758 224.295 200.045 224.083 200.368C223.869 200.692 223.587 200.907 223.266 201.479C222.945 202.054 222.482 202.985 222.482 202.985C222.482 202.985 221.985 204.168 221.804 204.599C221.626 205.03 221.483 205.746 221.234 205.961C220.984 206.177 220.485 206.716 220.485 206.716C220.485 206.716 220.521 207.075 221.056 207.075C221.59 207.075 221.98 207.398 222.586 206.824C223.189 206.249 223.9 205.856 224.168 205.749C224.437 205.641 225.718 205.569 226.36 205.713C227.002 205.856 227.605 206.036 227.961 206.213C228.318 206.392 228.96 206.752 229.42 206.644C229.884 206.536 230.276 206.644 230.383 206.144C230.49 205.644 230.597 204.71 230.986 204.314C231.376 203.919 231.985 203.599 231.521 203.168C231.058 202.736 230.811 202.775 230.597 202.129C230.383 201.482 229.994 201.446 230.276 200.766C230.561 200.084 231.093 199.548 231.414 199.045C231.735 198.544 232.27 198.113 232.306 197.574C232.341 197.036 232.484 196.464 232.306 196.428C232.127 196.392 231.414 196.535 231.274 196.248C231.132 195.961 230.847 195.709 230.992 195.386C231.135 195.062 231.242 194.886 231.381 194.631C231.524 194.38 231.738 193.916 231.524 193.736C231.31 193.556 230.989 193.305 231.167 193.128C231.346 192.948 231.845 192.374 232.166 192.948C232.487 193.523 232.627 193.988 232.396 194.203C232.166 194.419 231.277 194.095 231.916 194.919C232.555 195.742 232.84 195.601 233.126 195.958C233.411 196.317 233.803 196.102 233.515 196.928C233.23 197.751 233.126 197.644 232.805 198.29C232.484 198.937 232.377 198.29 232.201 199.76C232.023 201.23 231.774 201.374 231.988 202.054C232.201 202.736 232.451 203.057 232.629 203.416C232.808 203.775 232.808 203.955 232.912 204.278C233.019 204.602 233.233 204.779 233.268 204.925C233.304 205.069 233.233 205.5 233.375 205.715C233.518 205.931 233.482 206.398 234.193 206.539C234.903 206.683 235.937 206.683 236.186 206.862C236.436 207.042 236.757 207.329 236.79 207.686C236.825 208.045 236.433 208.368 236.79 208.44C237.146 208.512 237.286 208.763 237.574 208.512C237.859 208.261 238.178 207.829 238.391 207.758C238.605 207.686 239.672 207.542 240.029 207.722C240.385 207.901 240.457 208.222 240.813 208.33C241.17 208.437 241.562 208.545 242.058 208.581C242.555 208.617 243.125 208.581 243.517 208.689C243.907 208.797 243.981 208.761 243.981 209.189C243.981 209.617 243.945 209.728 243.981 210.12C244.016 210.513 244.017 210.695 243.517 210.982C243.021 211.27 241.312 211.483 240.564 211.449C239.815 211.416 237.678 210.734 237.146 210.734C236.614 210.734 236.186 211.093 235.224 211.126C234.261 211.162 232.446 210.659 231.842 210.372C231.239 210.084 231.379 209.905 230.668 209.905C229.958 209.905 227.75 209.977 227.501 209.905C227.251 209.833 224.547 209.761 224.297 209.797C224.048 209.833 222.731 209.007 222.731 209.007C222.731 209.007 222.342 208.755 222.446 209.043C222.553 209.33 223.477 209.866 224.119 210.405C224.761 210.944 225.117 211.552 225.756 212.055C226.398 212.555 226.541 212.809 226.823 212.701C227.108 212.594 227.108 212.162 227.394 211.914C227.679 211.662 228.568 211.629 228.924 211.629C229.281 211.629 229.174 211.342 229.887 211.449C230.597 211.557 230.635 211.665 231.061 211.988C231.488 212.312 231.985 212.635 232.341 212.635C232.698 212.635 232.945 212.419 233.126 212.243C233.304 212.063 233.589 211.85 233.874 212.207C234.16 212.563 234.73 212.707 234.977 213.21C235.227 213.71 235.619 214 235.44 214.393C235.262 214.785 235.298 214.931 234.944 214.931C234.59 214.931 234.374 214.644 234.267 215.039C234.16 215.432 234.338 215.686 233.663 215.901C232.986 216.117 230.709 216.584 230.282 216.797C229.854 217.009 228.894 217.228 228.716 217.692C228.537 218.159 229.001 219.126 229.357 219.162C229.714 219.198 230.567 219.27 230.923 218.731C231.28 218.192 231.458 217.369 231.672 217.369C231.886 217.369 231.743 217.441 232.35 217.943C232.956 218.446 234.129 219.054 234.486 219.09C234.843 219.126 235.517 219.018 235.66 219.018C235.802 219.018 235.909 219.162 236.156 219.626C236.406 220.093 236.121 220.234 237.508 220.701C238.896 221.168 239.538 221.24 239.966 221.132C240.394 221.025 240.5 220.773 240.676 221.025C240.854 221.276 241.279 221.779 240.89 221.848C240.5 221.92 240.319 221.74 240.213 221.992C240.106 222.243 240.569 222.674 239.749 222.639C238.932 222.603 227.896 220.486 227.577 220.453C227.257 220.417 226.546 220.381 226.511 220.093C226.475 219.806 226.19 219.378 226.19 219.378C226.19 219.378 226.011 219.557 225.405 219.45C224.802 219.342 224.232 219.162 223.946 218.767C223.661 218.372 223.236 217.836 223.129 217.476C223.022 217.117 222.915 216.794 222.879 216.509C222.844 216.222 222.665 215.827 222.523 215.794C222.38 215.76 221.988 215.111 221.988 215.614C221.988 216.117 222.024 216.509 222.166 217.048C222.309 217.587 222.059 218.339 222.877 218.985C223.694 219.632 224.407 219.917 225.189 220.168C225.973 220.42 226.862 220.635 226.862 220.635L240.067 223.18C240.067 223.18 241.811 223.468 242.738 223.647C243.663 223.827 244.483 224.222 245.264 224.438C246.049 224.653 246.296 224.761 246.902 224.797C247.505 224.833 248.004 224.761 248.361 224.833C248.717 224.905 249.428 225.084 250.034 225.156C250.637 225.228 250.818 225.443 251.882 225.515C252.949 225.587 255.335 225.731 256.152 225.767C256.97 225.803 258.075 225.839 258.215 225.803C258.357 225.767 258.251 225.659 258.5 225.587C258.75 225.515 258.996 225.515 258.996 225.515C258.996 225.515 258.569 225.192 258.105 225.156C257.642 225.12 257.609 225.084 257.356 225.156C257.107 225.228 256.929 225.3 256.608 225.3C256.287 225.3 255.966 225.084 255.609 224.94C255.253 224.797 255.36 224.581 254.825 224.833C254.29 225.084 254.115 225.12 253.687 225.084C253.259 225.048 252.796 224.761 252.406 224.833C252.017 224.905 252.263 224.976 251.622 224.94C250.98 224.905 250.59 224.761 250.27 224.725C249.949 224.689 249.806 224.761 249.307 224.581C248.811 224.402 248.062 224.183 247.919 224.131C247.777 224.078 247.812 223.755 248.454 223.683C249.096 223.611 250.163 223.575 250.697 223.36C251.232 223.144 251.054 222.752 252.228 222.677C253.402 222.605 254.257 222.39 255.395 222.39C256.534 222.39 257.672 222.569 258.135 222.498C258.599 222.426 258.953 222.031 258.991 221.782C259.027 221.53 258.741 221.566 258.991 221.282C259.241 220.994 259.487 220.743 259.808 220.815C260.129 220.887 260.198 221.246 260.557 221.246C260.916 221.246 261.555 221.282 261.909 221.03C262.263 220.779 262.619 219.704 262.833 219.345C263.047 218.985 263.083 217.946 263.261 218.737C263.439 219.527 263.511 219.991 263.511 220.207C263.511 220.422 263.333 220.458 263.261 220.782C263.19 221.105 262.905 221.389 263.19 221.464C263.475 221.536 263.867 221.356 264.188 221.249C264.509 221.141 265.08 221.033 265.362 221.141C265.645 221.249 266.004 221.284 265.751 221.572C265.502 221.859 265.255 222.072 265.217 222.288C265.181 222.503 265.181 222.755 265.431 222.68C265.68 222.608 266.034 222.141 266.215 222.072C266.393 222 267.071 223.398 267.888 223.686C268.705 223.973 268.779 224.045 269.026 223.973C269.276 223.901 269.736 223.83 269.986 223.973C270.236 224.117 270.45 224.291 270.628 224.134C270.806 223.973 270.556 223.686 270.45 223.473C270.343 223.258 270.43 222.898 270.688 222.791C270.946 222.683 271.302 222.934 271.335 222.575C271.371 222.216 271.121 221.967 271.014 221.859C270.908 221.751 270.48 221.392 270.801 221.144C271.121 220.892 271.264 220.82 271.549 220.751C271.835 220.679 271.799 220.607 271.977 220.32C272.155 220.035 272.12 219.566 272.441 219.853C272.762 220.14 272.868 220.964 273.118 221.144C273.368 221.323 273.828 221.215 273.867 221.536C273.902 221.859 273.617 222.003 273.37 222.324C273.121 222.647 273.014 223.006 273.156 223.363C273.299 223.722 273.732 224.509 273.872 224.94C274.012 225.372 274.295 225.872 274.119 225.979C273.941 226.087 273.763 226.195 273.905 226.339C274.048 226.482 274.402 226.482 274.722 226.482C275.043 226.482 275.578 226.411 275.861 226.626C276.143 226.842 276.609 227.057 276.431 227.165C276.253 227.273 275.721 228.027 275.647 228.204C275.575 228.384 275.647 228.384 275.754 229.171C275.861 229.962 275.789 230.21 275.611 230.318C275.433 230.426 273.938 229.456 273.795 229.456C273.653 229.456 273.225 229.24 273.154 229.456C273.082 229.671 272.975 229.743 272.512 230.172C272.048 230.603 271.089 230.818 270.91 230.818C270.732 230.818 270.447 230.998 270.414 231.211C270.378 231.426 270.236 231.534 269.917 231.534C269.599 231.534 269.24 231.498 268.955 231.749C268.67 232.001 267.817 232.719 267.317 233.22C266.821 233.72 266.854 234.007 266.5 234.151C266.144 234.295 265.502 234.51 265.184 234.582C264.863 234.654 264.687 234.833 264.259 234.295C263.832 233.756 263.549 233.184 263.297 233.256C263.047 233.327 262.869 233.363 262.907 233.794C262.943 234.225 263.121 234.402 262.979 234.798C262.836 235.19 262.658 235.585 261.912 236.124C261.163 236.663 259.422 237.45 258.958 237.846C258.495 238.238 257.642 238.992 257.392 239.352C257.142 239.711 257.356 239.711 256.75 240.034C256.147 240.358 255.683 240.358 255.576 240.717C255.47 241.076 255.612 241.471 255.612 241.471C255.612 241.471 256.04 241.399 255.897 241.687C255.755 241.974 255.648 242.079 255.363 242.118C255.077 242.154 254.828 242.082 254.471 242.226C254.115 242.369 253.404 242.693 253.404 242.693C253.404 242.693 253.369 242.513 253.048 243.193C252.727 243.875 252.941 244.088 252.406 244.088C251.871 244.088 251.729 243.621 251.339 243.98C250.95 244.34 250.911 244.411 250.308 245.019C249.705 245.627 248.92 246.274 248.564 246.597C248.207 246.921 247.886 247.28 247.672 247.493C247.458 247.708 247.316 247.885 247.316 248.032C247.316 248.178 247.494 248.391 247.565 248.532C247.637 248.675 247.708 248.604 247.601 248.963C247.494 249.322 247.28 249.609 247.565 249.894C247.851 250.181 248.243 250.286 248.668 250.286C249.093 250.286 250.484 250.358 250.876 250.574C251.265 250.789 251.09 251.074 251.624 250.966C252.159 250.858 252.409 250.858 252.587 250.607C252.765 250.356 252.837 249.96 253.158 249.712C253.478 249.46 253.799 249.319 254.652 249.319C255.505 249.319 255.683 249.14 256.254 249.068C256.824 248.996 257.713 249.283 258.566 249.568C259.422 249.855 259.775 250.143 260.488 250.679C261.199 251.218 261.13 251.325 262.09 252.113C263.053 252.903 264.12 254.014 264.547 254.374C264.975 254.733 265.296 254.874 265.51 254.874C265.724 254.874 265.9 254.514 266.045 254.874C266.188 255.233 266.294 255.769 266.58 255.913C266.865 256.056 266.936 256.164 267.183 255.985C267.433 255.805 267.786 255.518 267.893 255.338C268 255.158 268 254.907 268.464 254.946C268.927 254.981 269.248 254.838 269.424 254.73C269.602 254.622 269.317 254.23 269.959 254.55C270.6 254.874 270.455 255.158 272.128 256.021C273.801 256.883 273.516 256.731 274.19 257.56C274.868 258.389 275.329 259.104 275.542 259.607C275.756 260.108 275.932 261.042 275.932 261.616C275.932 262.191 276.075 262.871 276.075 263.841C276.075 264.811 276.11 265.239 275.968 265.778C275.825 266.317 275.364 266.03 275.112 266.494C274.862 266.961 274.684 266.781 274.722 268.356C274.758 269.934 274.509 270.219 274.687 271.333C274.865 272.443 275.076 272.479 274.936 272.875C274.794 273.267 274.722 273.521 274.547 273.737C274.369 273.952 274.119 273.988 273.905 273.988C273.691 273.988 273.62 273.916 273.516 274.24C273.409 274.563 273.052 274.707 272.912 274.671C272.77 274.635 272.627 274.743 272.591 274.958C272.556 275.174 272.591 275.317 272.306 275.389C272.024 275.461 271.664 275.425 271.664 275.713C271.664 276 272.054 276.859 273.159 277.506C274.262 278.153 274.725 278.368 275.222 278.296C275.718 278.224 276.574 277.965 276.895 278.31C277.215 278.656 277.712 279.123 277.961 279.482C278.211 279.841 277.997 279.913 278.672 280.236C279.349 280.56 279.774 280.308 280.202 280.844C280.63 281.383 280.452 281.955 281.165 281.955C281.878 281.955 283.227 282.135 283.515 281.775C283.8 281.416 283.408 280.952 284.157 280.88C284.906 280.808 285.259 281.168 285.723 281.168C286.186 281.168 286.326 281.347 286.968 281.168C287.61 280.988 287.61 280.844 288.178 280.485C288.748 280.126 288.781 279.91 289.601 279.731C290.418 279.551 290.029 279.659 290.703 279.015C291.381 278.368 291.238 277.94 291.842 277.617C292.445 277.293 292.873 277.224 293.194 277.042C293.515 276.862 293.583 276.542 293.764 276.18C293.942 275.82 294.688 275.605 294.867 275.389C295.045 275.174 294.653 275.317 294.867 274.922C295.081 274.53 296.219 272.913 296.468 272.09C296.718 271.266 296.896 270.943 297.286 270.26C297.678 269.578 297.607 269.398 298.141 269.042C298.676 268.682 297.324 269.509 299.066 268.503C300.81 267.5 303.514 265.563 304.263 265.278C305.012 264.991 305.579 264.488 306.896 264.454C308.212 264.418 308.676 264.598 309.065 263.987C309.455 263.377 309.775 262.984 310.382 263.056C310.985 263.128 311.092 262.984 311.769 263.595C312.447 264.203 312.266 264.311 312.979 264.095C313.689 263.88 314.046 264.131 314.117 263.487C314.188 262.841 313.832 262.125 314.117 261.733C314.399 261.34 314.827 260.837 315.291 260.442C315.754 260.05 316.108 259.511 316.251 259.331C316.393 259.151 316.572 258.648 316.854 258.364C317.139 258.076 317.243 257.971 317.852 257.897C318.456 257.825 318.494 257.825 318.919 258.041C319.347 258.256 319.597 258.364 319.811 258.22C320.024 258.077 320.488 257.861 320.131 257.538C319.775 257.214 319.133 257.071 319.421 256.822C319.709 256.573 320.666 256.175 320.666 255.852C320.666 255.529 320.737 255.46 320.666 255.062C320.595 254.669 320.737 254.238 321.094 253.699C321.451 253.16 321.201 252.516 322.589 252.193C323.976 251.87 324.511 251.726 325.26 251.762C326.009 251.798 325.688 251.511 326.648 251.762C327.61 252.014 328.321 252.229 328.856 252.478C329.39 252.729 329.533 252.478 329.994 253.232C330.457 253.987 330.49 254.343 331.096 254.451C331.7 254.559 332.163 254.774 333.159 254.163C334.157 253.556 334.404 253.16 335.616 252.909C336.826 252.657 337.467 252.981 338.142 253.196C338.819 253.412 339.28 253.627 339.744 253.627C340.207 253.627 340.846 253.448 341.274 252.981C341.702 252.514 341.984 251.798 342.697 251.726C343.408 251.654 344.192 251.511 344.584 251.259C344.974 251.008 345.44 250.651 345.547 250.256C345.654 249.864 345.369 249.286 345.157 248.858C344.944 248.427 344.623 248.034 344.623 247.531C344.623 247.028 344.658 246.456 344.623 246.241C344.587 246.025 344.409 245.525 344.444 245.345C344.48 245.166 344.694 245.094 344.765 244.953C344.837 244.809 344.694 244.378 344.48 243.983C344.266 243.591 343.91 243.267 344.266 243.193C344.623 243.121 344.908 243.265 345.051 243.301C345.193 243.336 345.728 242.941 345.799 242.51C345.871 242.079 345.621 241.615 345.799 241.471C345.977 241.327 346.37 240.971 346.441 241.256C346.512 241.543 346.691 241.864 347.044 241.615C347.401 241.363 347.969 241.115 348.218 240.86C348.468 240.609 349.003 240.322 349.11 239.929C349.216 239.537 349.074 239.034 348.72 238.675C348.364 238.315 348.399 237.492 347.864 237.492C347.33 237.492 347.047 237.815 346.441 237.851C345.838 237.887 345.906 237.959 345.374 237.851C344.839 237.743 344.911 237.492 344.2 237.671C343.49 237.851 342.955 237.923 342.848 237.851C342.741 237.779 342.706 237.312 341.924 237.459C341.14 237.602 341.14 237.674 340.857 237.638C340.572 237.602 340.215 237.387 339.933 237.279C339.648 237.171 339.184 236.887 338.652 237.387C338.117 237.887 337.761 238.103 337.3 238.103C336.839 238.103 336.59 237.887 336.444 238.103C336.302 238.318 336.409 238.495 336.123 238.677C335.838 238.857 335.375 238.641 335.482 239.001C335.589 239.36 335.731 239.432 335.624 239.683C335.517 239.935 334.982 239.935 334.947 240.258C334.911 240.581 335.268 240.545 335.089 240.833C334.911 241.12 334.807 241.156 334.165 241.333C333.523 241.513 333.737 241.692 333.348 241.764C332.958 241.836 333.419 241.513 332.599 241.441C331.782 241.369 330.997 241.082 330.784 240.866C330.57 240.65 330.356 239.935 330.32 239.54C330.284 239.147 330.142 238.716 330.177 238.501C330.213 238.285 330.035 237.893 329.467 238.572C328.899 239.252 328.757 239.396 328.757 239.719C328.757 240.042 328.899 240.258 328.579 240.65C328.258 241.043 327.868 240.935 327.83 241.441C327.794 241.941 328.008 241.833 327.794 242.303C327.58 242.77 327.794 243.093 326.692 243.629C325.589 244.168 324.448 244.776 323.774 245.028C323.096 245.279 322.101 245.602 321.711 245.495C321.322 245.387 316.977 242.087 316.657 241.587C316.336 241.087 312.633 237.008 312.172 236.356C311.709 235.704 309.076 232.838 308.577 232.087C308.081 231.332 306.158 228.215 305.766 227.425C305.376 226.637 304.91 225.308 304.699 224.628C304.485 223.946 303.596 222.658 303.347 222.011C303.097 221.365 302.85 220.577 302.743 220.041C302.636 219.502 302.601 219.217 302.601 218.715C302.601 218.212 302.494 217.46 302.387 217.424C302.28 217.388 301.959 217.496 301.959 218.178C301.959 218.861 301.959 219.11 301.816 219.289C301.674 219.469 301.282 219.397 301.282 219.397C301.282 219.397 300.999 218.858 300.747 219.146C300.497 219.433 300.069 219.538 299.784 219.469C299.499 219.397 299.181 218.645 299.214 219.289C299.249 219.936 299.392 220.4 299.749 220.936C300.105 221.475 300.352 221.544 300.533 221.724C300.711 221.903 300.854 222.083 300.854 222.191C300.854 222.299 301.21 222.514 301.21 222.514C301.21 222.514 301.46 221.619 301.674 221.475C301.888 221.331 302.565 221.331 302.529 221.727C302.494 222.119 302.636 222.442 302.85 222.945C303.064 223.448 303.1 223.7 303.347 224.02C303.596 224.344 303.703 224.164 303.736 224.844C303.772 225.526 303.772 226.35 303.665 227.068C303.558 227.784 303.275 228.467 303.594 228.502C303.914 228.538 304.271 227.82 304.449 227.571C304.628 227.32 304.663 227.284 304.984 227.787C305.305 228.287 305.908 229.113 306.194 229.904C306.476 230.694 306.69 231.266 307.795 232.413C308.898 233.56 309.825 234.383 310.321 235.066C310.818 235.748 311.352 236.356 312.03 237.003C312.707 237.649 313.81 239.155 314.131 239.656C314.452 240.156 315.59 241.593 316.193 242.201C316.796 242.809 317.331 242.883 317.616 243.671C317.899 244.461 317.899 244.353 318.615 244.997C319.325 245.644 320.181 245.967 320.074 246.324C319.967 246.68 319.931 246.97 319.432 246.97C318.933 246.97 318.683 246.827 318.401 246.578C318.116 246.326 317.904 246.293 317.477 246.219C317.049 246.147 316.728 245.788 316.338 245.788C315.949 245.788 315.521 245.716 315.521 245.716L314.665 245.069C314.665 245.069 312.885 245.177 312.389 245.105C311.893 245.033 311.426 244.713 311.426 244.713C311.426 244.713 311.248 244.212 310.823 244.353C310.395 244.497 310.894 244.569 309.792 244.641C308.689 244.713 308.226 244.784 308.262 244.605C308.297 244.425 308.618 244.174 308.832 243.815C309.046 243.455 309.01 242.38 309.01 242.38C309.01 242.38 308.728 241.734 309.224 241.518C309.721 241.303 310.576 240.802 310.755 240.192C310.933 239.584 311.432 239.081 310.933 238.398C310.434 237.716 310.184 237.395 310.077 237C309.97 236.605 310.077 236.284 309.474 235.889C308.87 235.497 308.582 235.458 308.443 235.027C308.3 234.596 307.551 234.165 307.34 234.096C307.126 234.024 307.304 234.024 306.523 233.88C305.741 233.736 305.135 233.629 305.242 233.521C305.349 233.413 305.206 232.913 305.064 232.838C304.921 232.766 304.6 233.305 304.422 233.231C304.244 233.159 303.818 232.943 303.925 232.73C304.032 232.515 304.104 232.515 304.422 232.263C304.743 232.012 305.313 231.548 304.811 231.476C304.315 231.404 301.572 232.73 301.254 232.838C300.933 232.946 300.045 233.126 300.009 232.91C299.973 232.695 300.223 232.263 300.651 231.979C301.079 231.691 301.361 231.191 301.361 230.976C301.361 230.76 301.326 230.476 301.825 230.476C302.324 230.476 302.716 230.547 302.466 230.152C302.217 229.76 302.146 229.793 302.003 229.506C301.86 229.218 301.86 228.431 301.507 228.61C301.15 228.79 301.507 229.077 300.829 229.326C300.152 229.575 300.012 229.542 299.655 229.613C299.299 229.685 299.014 229.29 299.227 229.039C299.441 228.787 299.406 228.679 299.905 228.392C300.401 228.105 300.294 228.069 300.972 227.638C301.649 227.206 302.039 226.847 301.682 226.814C301.326 226.778 300.933 226.634 300.508 226.778C300.08 226.922 300.012 226.67 299.653 227.171C299.296 227.671 298.122 228.892 297.801 229.464C297.48 230.039 296.449 230.827 295.986 231.186C295.522 231.545 294.741 231.832 294.598 231.725C294.455 231.617 294.17 231.042 294.741 230.721C295.311 230.401 295.632 230.147 295.95 229.931C296.271 229.716 296.446 229.716 296.446 229.249C296.446 228.782 296.482 228.279 296.874 227.922C297.264 227.563 297.371 227.778 297.799 227.027C298.226 226.272 298.83 226.527 298.616 225.88C298.402 225.233 297.799 224.194 297.299 224.233C296.803 224.269 296.375 223.946 296.268 224.556C296.161 225.164 296.233 225.38 296.126 225.775C296.019 226.167 295.736 226.06 295.591 226.491C295.448 226.922 295.555 227.099 295.27 227.314C294.985 227.53 294.379 227.566 294.453 227.027C294.524 226.488 294.453 225.664 294.274 225.988C294.096 226.311 294.702 226.488 293.918 226.67C293.133 226.85 292.601 226.742 292.566 226.455C292.53 226.17 292.922 226.17 292.887 225.847C292.851 225.524 292.887 225.524 292.423 225.092C291.96 224.661 291.532 224.338 291.606 224.125C291.677 223.91 292.102 223.694 292.102 223.694C292.102 223.694 291.924 222.904 291.567 222.799C291.211 222.694 291.104 222.511 290.926 222.907C290.747 223.299 290.712 223.481 290.322 223.553C289.933 223.625 289.255 223.589 289.398 223.122C289.541 222.655 289.362 222.583 289.077 222.655C288.792 222.727 288.899 222.94 288.792 223.302C288.685 223.661 288.899 224.089 288.507 223.877C288.114 223.661 288.15 223.625 287.903 223.194C287.654 222.763 287.832 222.619 287.086 222.586C286.337 222.55 285.591 222.263 285.591 222.263C285.591 222.263 285.413 222.335 285.912 222.622C286.409 222.909 286.803 223.053 287.157 223.484C287.511 223.915 287.942 224.059 287.975 224.559C288.01 225.059 288.189 225.454 287.868 225.634C287.547 225.814 287.689 226.35 287.012 225.993C286.335 225.634 285.66 225.601 286.049 225.311C286.439 225.026 286.76 224.951 286.584 224.595C286.406 224.236 286.477 223.556 285.874 223.34C285.27 223.125 284.415 222.694 284.094 222.37C283.773 222.047 283.63 221.547 283.63 221.401C283.63 221.254 283.134 221.077 282.882 221.116C282.632 221.152 282.204 221.152 282.24 221.655C282.275 222.155 282.454 222.371 282.062 222.445C281.672 222.517 281.351 222.445 281.244 222.445C281.137 222.445 281.03 222.661 280.748 222.589C280.463 222.517 280.32 222.625 279.931 222.014C279.541 221.406 279.717 221.367 279.541 221.406C279.363 221.442 278.65 221.406 278.543 221.334C278.436 221.262 278.365 220.759 278.258 220.652C278.151 220.544 278.186 220.831 278.472 220.472C278.757 220.113 278.65 220.292 278.935 220.005C279.22 219.718 279.47 219.789 279.22 219.43C278.971 219.071 278.724 218.855 278.543 218.891C278.365 218.927 278.222 218.532 278.046 218.604C277.868 218.676 277.761 218.996 277.833 219.32C277.904 219.643 278.046 219.966 277.69 220.035C277.333 220.107 277.226 220.035 277.048 220.035C276.87 220.035 276.264 220.143 276.264 220.143C276.264 220.143 276.014 219.784 275.907 219.535C275.8 219.284 275.693 219.104 275.518 219.212C275.342 219.32 274.733 219.32 274.876 219.032C275.019 218.745 275.054 218.35 275.304 218.245C275.553 218.137 275.66 218.209 275.66 217.778C275.66 217.347 275.447 216.99 275.625 216.846C275.803 216.703 276.014 216.131 276.442 216.2C276.87 216.272 277.226 216.739 277.652 216.775C278.079 216.811 278.008 216.846 278.4 216.631C278.79 216.415 278.935 216.343 279.256 216.523C279.577 216.703 280.005 216.595 280.005 216.595C280.005 216.595 280.147 215.7 280.715 216.451C281.285 217.206 282.138 218.245 282.563 218.819C282.991 219.394 283.167 219.715 283.455 219.607C283.74 219.499 283.99 219.14 284.132 219.107C284.275 219.071 284.453 219.179 284.667 219.322C284.881 219.466 285.202 219.502 285.451 219.358C285.701 219.215 285.986 219.287 285.879 218.966C285.772 218.643 285.558 218.104 285.558 217.747C285.558 217.391 285.276 216.744 285.808 217.139C286.343 217.535 286.411 217.714 286.557 218.035C286.699 218.358 286.628 218.535 286.806 218.574C286.985 218.61 287.196 218.717 287.196 218.25C287.196 217.783 287.303 217.858 286.91 217.427C286.521 216.996 285.451 216.1 285.487 215.885C285.523 215.669 285.876 215.385 285.665 215.169C285.454 214.953 284.988 214.846 285.238 214.63C285.487 214.415 285.879 214.091 285.879 214.091C285.879 214.091 285.879 213.304 286.307 213.732C286.735 214.163 286.985 214.771 287.124 215.274C287.267 215.774 287.766 216.457 287.766 216.457C287.766 216.457 288.515 216.78 288.37 217.28C288.227 217.78 288.084 217.673 287.799 218.319C287.514 218.966 287.303 219.143 287.122 219.789C286.943 220.436 286.444 220.972 287.015 220.972C287.585 220.972 287.656 220.685 287.87 220.685C288.084 220.685 288.298 220.9 288.441 220.936C288.583 220.972 288.976 221.008 288.976 220.505C288.976 220.002 288.94 219.43 288.904 219.107C288.869 218.784 289.083 218.64 289.083 218.64C289.083 218.64 289.439 219.14 289.546 219.502C289.653 219.861 289.261 219.894 289.653 219.861C290.042 219.825 290.117 219.322 290.117 219.322L290.01 218.427C290.01 218.427 290.081 217.888 289.938 217.673C289.796 217.457 289.51 217.493 289.617 217.026C289.724 216.559 290.114 216.81 290.328 216.954C290.542 217.098 290.506 217.347 290.898 217.062C291.288 216.775 291.076 216.523 291.609 216.595C292.143 216.667 291.644 217.203 291.894 217.349C292.143 217.493 292.464 217.709 292.925 217.996C293.388 218.281 293.314 218.247 293.742 218.281C294.17 218.317 293.992 218.245 294.453 218.317C294.916 218.388 295.163 217.778 295.163 217.778C295.163 217.778 294.773 216.631 295.234 216.523C295.695 216.415 295.912 216.811 295.912 216.811L296.589 218.173C296.589 218.173 296.482 219.32 296.161 219.679L295.84 220.038C295.84 220.038 295.484 219.143 295.377 219.143C295.27 219.143 294.949 219.215 294.949 219.215L294.664 219.322C294.664 219.322 293.915 219.538 293.808 220.038C293.701 220.538 293.737 221.436 293.737 221.436C293.737 221.436 292.919 221.472 292.777 221.76C292.634 222.047 292.599 222.73 292.599 222.73C292.599 222.73 293.095 222.837 293.454 222.873C293.811 222.909 293.989 222.73 294.025 223.305C294.06 223.879 294.414 224.379 294.414 224.379C294.414 224.379 295.624 224.595 296.052 223.697C296.479 222.802 296.836 222.442 297.083 221.796C297.332 221.149 297.404 220.864 297.579 219.933C297.757 219.002 297.365 217.855 297.969 217.424C298.572 216.993 300.533 216.777 301.35 216.741C302.167 216.706 301.814 216.167 302.381 215.595C302.949 215.023 304.09 214.268 304.839 213.732C305.587 213.193 305.799 212.621 306.44 212.549C307.082 212.477 307.044 212.621 307.296 212.442C307.546 212.262 307.938 211.223 308.256 210.864C308.577 210.504 308.791 210.109 308.684 209.968C308.577 209.827 308.327 210.112 308.22 209.789C308.113 209.465 307.828 208.998 308.078 208.75C308.327 208.498 308.399 208.067 308.467 207.887C308.538 207.708 308.467 206.956 308.645 207.241C308.824 207.528 309.035 208.675 309.142 209.034C309.249 209.394 309.605 209.681 309.852 209.358C310.102 209.034 310.28 208.534 310.387 208.283C310.494 208.031 310.669 207.708 310.669 207.708C310.669 207.708 310.848 207.1 310.598 206.633C310.349 206.166 309.6 205.486 309.6 205.199C309.6 204.911 309.21 204.875 309.6 204.911C309.989 204.947 310.809 205.45 311.095 205.773C311.38 206.097 311.772 206.381 311.95 206.777C312.129 207.169 312.2 207.385 312.093 207.672C311.986 207.959 311.736 208.064 311.843 208.495C311.95 208.926 311.772 209.211 312.271 209.178C312.768 209.142 313.056 209.106 313.409 209.106C313.763 209.106 314.441 208.855 314.227 209.25C314.013 209.642 313.73 209.789 313.442 210.361C313.16 210.935 312.979 211.759 312.979 211.759C312.979 211.759 313.05 211.939 313.3 211.543C313.549 211.148 316.895 205.986 316.895 205.986L316.539 205.878C316.539 205.878 315.507 207.241 315.044 207.525C314.58 207.813 314.366 208.172 314.227 207.741C314.084 207.31 313.302 206.163 313.088 205.481C312.875 204.798 312.625 203.579 312.592 202.756C312.559 201.932 312.556 200.747 312.449 200.211C312.342 199.672 312.2 199.208 312.2 198.812C312.2 198.417 311.915 197.666 312.2 197.199C312.485 196.732 312.556 196.195 312.842 196.768C313.127 197.342 313.697 198.202 313.659 198.705C313.623 199.205 313.267 199.136 313.302 199.708C313.338 200.283 313.692 201.429 313.98 202.289C314.265 203.151 314.265 203.723 314.94 204.298C315.617 204.873 315.795 205.085 316.149 205.014C316.503 204.942 316.539 205.229 316.72 204.798C316.901 204.367 316.755 204.115 317.04 204.082C317.323 204.046 317.468 204.046 317.468 204.441C317.468 204.837 316.898 204.693 317.326 205.049C317.754 205.409 317.647 205.516 318.217 205.157C318.788 204.798 319.854 203.651 320.318 203.22C320.781 202.789 321.209 201.786 321.848 201.175C322.49 200.567 323.557 199.921 323.949 199.489C324.339 199.058 324.84 198.735 324.84 198.735L325.979 197.624L328.329 196.513L330.002 196.441L332.742 195.903C332.742 195.903 333.916 195.618 334.165 196.37L334.415 197.124L334.843 197.411L335.339 197.088L335.553 197.447C335.553 197.447 335.802 197.699 335.874 197.483C335.945 197.268 335.981 197.016 336.302 196.408C336.623 195.8 336.729 195.082 337.44 194.184C338.15 193.288 338.756 191.782 339.752 191.746C340.75 191.71 340.429 191.854 341.14 191.818C341.85 191.782 341.389 191.675 342.777 191.351C344.165 191.028 345.662 190.456 346.265 191.064C346.869 191.672 347.439 192.534 347.546 192.785C347.653 193.037 347.76 192.857 347.689 193.324C347.618 193.791 347.439 194.186 347.299 194.327C347.157 194.471 347.121 194.435 346.943 194.471C346.765 194.507 346.372 194.543 346.408 194.863C346.444 195.187 346.515 195.364 346.798 195.331C347.08 195.297 347.225 195.438 347.401 195.007C347.579 194.576 349 191.315 349.145 190.992C349.291 190.669 349.397 190.345 349.359 190.025C349.323 189.701 348.909 189.234 349.367 189.055C349.823 188.875 349.716 189.019 350.072 188.696C350.429 188.372 349.965 187.692 351.103 187.19C352.242 186.689 353.775 185.543 354.235 185.327C354.699 185.111 356.084 184.144 356.405 183.893C356.726 183.641 357.082 183.318 357.329 183.318C357.576 183.318 358.539 183.893 358.61 184.034C358.681 184.177 358.999 184.429 358.999 184.68V185.219C358.999 185.219 359.035 185.471 359.285 185.04C359.534 184.608 359.534 184.432 359.819 184.249C360.105 184.067 360.423 183.962 360.497 183.603C360.568 183.243 360.176 183.243 360.497 182.887C360.818 182.528 364.696 177.617 365.088 177.471C365.477 177.327 366.262 177.219 367.296 177.219C368.33 177.219 368.576 177.147 368.862 176.896C369.147 176.644 369.289 176.503 369.679 176.503C370.068 176.503 370.321 176.503 370.642 176.144C370.962 175.785 371.069 175.39 371.533 175.39C371.996 175.39 372.814 175.713 372.956 175.749C373.099 175.785 373.277 175.713 373.598 175.641C373.919 175.569 374.772 175.605 375.307 175.39C375.841 175.174 375.841 174.89 376.162 174.851C376.483 174.815 376.98 175.102 377.194 175.351C377.408 175.603 377.583 175.531 377.514 175.818C377.443 176.105 377.301 175.962 377.372 176.285C377.443 176.608 378.189 177.18 378.403 176.785C378.617 176.393 378.653 176.07 379.187 175.603C379.722 175.136 380.112 174.779 380.29 174.456C380.468 174.132 380.611 173.848 380.468 173.56C380.326 173.273 379.972 173.489 380.112 172.845C380.254 172.198 380.326 171.231 380.929 170.515C381.532 169.799 381.996 168.937 381.996 168.437C381.996 167.937 381.713 167.182 381.354 167.326C380.998 167.47 379.574 168.221 379.292 167.793C379.006 167.362 379.541 165.212 379.826 164.568C380.112 163.922 380.361 162.631 380.575 161.879C380.789 161.125 381.217 155.999 381.467 155.891C381.716 155.783 382.037 155.676 382.498 155.604C382.958 155.532 383.315 154.957 383.885 154.637C384.456 154.313 387.624 154.352 387.909 154.313C388.194 154.277 387.944 153.274 388.444 152.451C388.94 151.627 389.192 150.909 389.724 150.657C390.259 150.406 391.005 150.478 390.756 149.546C390.506 148.615 389.724 146.106 390.185 145.783C390.649 145.459 390.682 145.136 391.216 145.316C391.751 145.495 392.39 145.387 392.711 145.031C393.032 144.672 394.812 143.309 397.088 143.309C399.365 143.309 402.96 142.234 403.21 142.27C403.459 142.306 403.103 142.707 404.134 142.829C405.165 142.95 406.128 142.627 406.767 142.591C407.409 142.555 408.868 142.268 409.507 142.483C410.148 142.699 411.394 142.92 411.857 142.829C412.321 142.735 413.352 142.411 412.641 141.66C411.931 140.905 411.575 141.121 411.361 140.261C411.147 139.399 410.576 136.821 410.826 136.638C411.075 136.459 411.575 136.207 412.214 135.815C412.855 135.423 413.127 132.192 412.883 131.261C412.639 130.33 411.961 130.042 411.893 129.108C411.821 128.177 411.572 127.854 411.786 127.279C412 126.704 412.107 125.737 412.035 125.054C411.964 124.372 412.214 123.3 411.893 122.868C411.572 122.437 410.79 122.294 410.648 121.506C410.505 120.718 409.899 119.353 410.044 118.638C410.187 117.922 409.082 117.096 408.799 117.168C408.514 117.239 408.015 117.775 407.447 116.916C406.876 116.054 406.095 115.41 406.238 113.907C406.38 112.401 406.059 109.82 406.309 109.532C406.558 109.245 406.844 108.529 407.518 108.529C408.193 108.529 411.363 108.814 411.61 108.529C411.86 108.242 412.107 106.843 411.753 106.667C411.396 106.487 410.258 106.595 408.656 106.166C407.055 105.735 406.701 105.987 406.52 105.127C406.342 104.265 404.384 103.011 404.384 102.51C404.384 102.01 404.704 100.465 404.847 100.394C404.99 100.322 405.878 100.932 406.627 100.394C407.376 99.8547 408.336 99.139 408.621 98.8876C408.906 98.6361 409.263 98.0641 409.438 97.3815C409.614 96.6989 409.26 95.9473 410.116 95.3725C410.971 94.7977 412.573 94.1179 412.748 93.8664C412.927 93.615 413.212 93.6868 412.748 93.1507C412.285 92.6119 412 92.7583 412 91.7884C412 90.8184 412.356 89.0277 411.964 88.3811C411.575 87.7344 409.438 85.1893 409.438 84.5814C409.438 83.9734 409.545 83.219 410.041 82.7188C410.538 82.2187 411.429 81.608 411.358 80.9973C411.287 80.3893 410.823 79.563 410.502 79.563C410.181 79.563 408.547 79.2397 408.333 79.563C408.119 79.8864 406.981 81.572 406.517 82.0363C406.054 82.5033 403.528 82.7907 403.064 82.5751C402.601 82.3596 401.356 80.8204 400.467 80.9613C399.579 81.1023 398.865 81.0332 398.619 80.638C398.369 80.2456 397.409 77.7696 396.556 77.9851C395.701 78.2007 392.854 78.9164 392.322 78.4853C391.787 78.0542 390.756 77.4822 390.366 77.1948C389.977 76.9074 389.582 74.039 389.299 74.0031C389.014 73.9671 387.983 73.8234 387.912 74.3623C387.84 74.9012 387.201 75.7965 386.773 75.9043C386.346 76.0121 382.857 75.7247 382.857 75.7247C382.857 75.7247 382.073 74.2905 381.683 74.1827C381.294 74.0749 380.295 73.4863 380.117 73.9616C379.939 74.4369 380.295 74.7962 379.407 74.6138C378.518 74.4314 377.13 73.84 377.163 73.7792C377.199 73.7184 377.342 72.0714 377.342 72.0714C377.342 72.0714 376.771 71.317 376.593 71.3557C376.415 71.3916 373.604 71.7868 372.929 71.8559C372.251 71.9277 372.073 72.0355 371.648 71.784C371.22 71.5326 370.757 70.9578 370.403 71.353C370.046 71.7481 369.586 72.287 369.3 71.8918C369.015 71.4994 368.234 69.8137 368.02 69.8137C367.806 69.8137 366.171 69.5263 366.171 69.8137C366.171 70.1011 366.635 73.5775 366.635 73.7212C366.635 73.8649 365.957 75.7661 364.926 75.6583C363.895 75.5506 359.803 72.4334 359.268 71.7868C358.733 71.1402 356.172 70.173 355.459 69.8496C354.748 69.5263 354.534 69.7778 354.534 69.1671C354.534 68.5564 354.213 68.1999 353.536 67.697C352.859 67.1968 351.4 66.7657 351.328 66.3346C351.257 65.9035 350.368 63.3252 350.047 63.0351C349.727 62.7505 347.522 61.4931 347.557 60.4541C347.593 59.415 347.486 58.3014 347.236 58.3014C346.987 58.3014 346.488 58.1577 345.956 58.3014C345.421 58.4451 345.207 58.6938 344.496 59.3404C343.786 59.987 340.687 62.9632 340.405 63.2866C340.119 63.6099 338.411 63.2506 337.451 63.1788C336.488 63.1069 336.348 63.1788 336.241 63.4303C336.134 63.6817 335.959 64.2924 334.782 64.2924C333.606 64.2924 332.86 63.8254 332.827 64.4721C332.791 65.1187 332.934 65.9422 332.791 66.4424C332.649 66.9425 332.791 67.3046 331.546 67.4455C330.301 67.5892 327.989 67.7688 327.737 67.5533C327.487 67.3377 326.491 66.5142 326.491 66.5142L321.686 66.6579L318.022 62.9273L309.907 63.5739C309.907 63.5739 308.662 65.3674 308.448 65.4365C308.234 65.5083 307.025 65.5802 306.098 65.0441C305.173 64.5052 304.71 64.7208 304.71 64.1128C304.71 63.5049 305.138 63.4303 304.353 63.0738C303.569 62.7145 302.291 62.6427 302.253 62.0706C302.217 61.4959 302.11 60.4237 301.97 59.8461C301.827 59.2713 301.792 58.5003 301.474 58.2406C301.153 57.9808 300.796 57.1573 301.01 56.9777C301.224 56.7981 301.293 56.7262 301.97 56.5466C302.647 56.367 303.037 55.7922 303.037 55.7922C303.037 55.7922 302.859 53.5676 302.787 53.3908C302.716 53.2112 301.932 53.2471 301.756 52.816C301.578 52.3849 301.26 51.0944 300.972 50.1272C300.686 49.1572 300.154 48.4415 299.762 47.9413C299.373 47.4412 298.553 46.8305 298.66 46.5431C298.767 46.2557 299.23 45.6477 299.444 45.3244C299.658 45.0011 300.193 44.4291 300.015 43.962C299.836 43.495 299.373 43.2463 298.912 43.1717C298.451 43.0971 298.163 42.8871 297.81 42.9202C297.453 42.9562 296.811 43.5669 296.386 43.3126C295.958 43.0612 294.324 42.4505 294.11 41.627C293.896 40.8035 293.789 39.7976 293.682 39.3333C293.575 38.8691 293.254 37.7195 292.826 37.6117C292.398 37.504 292.437 36.896 292.042 37.4321C291.652 37.971 291.652 38.8663 290.832 38.5789C290.015 38.2915 289.266 37.6836 288.981 38.0041C288.696 38.3274 286.384 40.19 286.17 40.3337C285.956 40.4774 285.172 40.1541 284.818 40.2618C284.464 40.3696 284.247 40.5133 284.069 40.4415C283.891 40.3696 283.499 40.3696 283.573 39.5793C283.647 38.7889 283.858 38.3247 283.323 38.2888C282.788 38.2528 280.973 38.0373 280.438 38.4684C279.903 38.8995 279.547 39.3637 278.872 39.2228C278.195 39.0791 277.056 38.6148 276.81 38.9713C276.56 39.3306 276.313 39.7617 275.743 39.8667C275.172 39.9717 274.105 40.3337 273.963 39.723C273.82 39.115 273.499 38.648 273.927 38.1451C274.355 37.6449 274.605 37.6062 274.783 36.9982C274.961 36.3903 275.318 35.5281 274.854 35.2435C274.391 34.9561 273.145 34.3481 273.145 34.2044C273.145 34.0607 273.145 33.4887 273.502 33.2345C273.859 32.983 273.68 32.5188 273.609 32.2314C273.538 31.944 273.645 30.0787 273.645 29.6503C273.645 29.222 273.11 28.5035 272.86 27.9647C272.611 27.4258 272.257 27.1743 271.9 26.8897C271.544 26.6023 271.083 26.2817 270.513 25.9197C269.942 25.5605 269.339 25.2372 269.446 24.8448C269.553 24.4524 269.802 23.9494 270.337 23.9826C270.872 24.0185 270.94 23.9467 271.368 23.767C271.796 23.5874 272.01 23.5515 272.367 23.1923C272.723 22.833 272.509 22.5097 273.077 22.6534C273.647 22.7971 274.572 23.1204 274.821 23.0458C275.071 22.9739 275.677 22.9049 275.819 22.6175C275.962 22.3301 276.604 21.6143 276.39 21.0009C276.176 20.3929 275.748 19.3539 275.534 18.9919C275.32 18.6326 274.253 17.7014 273.505 17.2371C272.756 16.7729 272.367 16.6623 272.081 15.8747C271.796 15.0872 271.867 14.9076 271.44 14.4405C271.012 13.9735 270.373 13.617 269.802 13.1141C269.232 12.6139 268.236 12.4315 268.236 11.2516C268.236 10.0716 268.308 9.99698 268.415 9.45811C268.521 8.91925 268.379 7.95205 268.165 7.27226C267.951 6.58969 267.88 6.41007 267.701 5.94582C267.523 5.4788 267.773 5.37103 267.167 5.08364C266.563 4.79624 266.489 4.54477 266.028 4.437C265.568 4.32923 265.211 4.72439 264.997 4.15237C264.783 3.57758 263.895 2.53854 263.895 2.53854C263.895 2.53854 263.184 2.39484 263.039 2.10744C262.896 1.82005 262.436 0.565462 261.937 0.35268C261.44 0.137134 260.727 0.0293607 260.335 0.0293607C259.943 0.0293607 259.232 0.244907 258.804 0.568225C258.377 0.891544 257.559 1.28395 257.132 1.53818C256.704 1.78965 256.347 1.96927 255.851 2.14613C255.354 2.32575 254.356 2.36168 254.249 2.32575C254.142 2.28983 253.893 2.36168 253.999 2.07428C254.106 1.78689 254.463 1.46633 254.142 0.999317C253.821 0.532301 252.826 0.568226 252.08 0.711923C251.331 0.85562 250.799 0.711923 250.799 0.711923C250.799 0.711923 249.447 0.065285 249.233 0.0293607C249.019 -0.00656361 248.662 -0.0784122 248.377 0.316755C248.092 0.709159 247.667 1.24802 247.239 1.67912C246.811 2.11021 246.101 2.43353 245.352 3.2211C244.603 4.00867 243.857 4.40384 243.323 4.47569C242.788 4.54753 242.113 4.04459 241.721 4.04459C241.329 4.04459 240.937 3.82905 240.758 4.33199C240.58 4.83217 240.437 5.11956 239.903 5.19417C239.368 5.26602 238.871 5.98451 237.659 5.15825C236.45 4.33475 236.557 3.93958 235.844 3.51126C235.133 3.08016 234.67 2.86462 233.85 2.97239C233.032 3.08016 232.284 2.90054 231.856 3.18794C231.428 3.47257 230.825 3.65495 230.718 4.11921C230.611 4.58622 230.504 5.26602 230.789 5.62526C231.074 5.98451 231.285 6.91578 230.967 7.02355C230.646 7.13132 229.651 7.34687 230.076 7.84704C230.501 8.34722 231.039 8.31406 230.646 8.817C230.257 9.31718 229.969 9.57141 229.791 10.2871C229.612 11.0029 229.22 11.6136 229.22 11.6136L228.153 12.0806C228.153 12.0806 227.868 12.7272 227.229 13.0119C226.587 13.2993 226.766 13.3711 225.984 13.3352C225.2 13.2992 223.601 13.9431 223.03 13.6585C222.46 13.3711 222.427 12.5476 221.749 12.4758C221.072 12.4039 220.683 12.2243 219.58 12.5117C218.478 12.7963 218.014 12.9787 217.586 12.9787C217.158 12.9787 217.197 12.6913 215.949 12.6913C214.701 12.6913 213.848 12.6554 213.245 12.7272C212.641 12.7991 211.821 12.1524 211.821 12.1524L210.327 11.5776L209.402 12.0087L209.438 13.4429C209.438 13.4429 209.934 14.7694 209.866 15.1286C209.795 15.4879 209.652 16.2395 208.975 15.5597C208.297 14.8772 207.924 14.4848 207.258 14.4488C206.591 14.4129 206.128 14.1614 206.128 14.1614C206.128 14.1614 204.883 13.2993 204.312 13.3711C203.742 13.4429 203.067 13.4789 202.568 14.0868C202.069 14.6948 202.033 14.4101 201.465 15.4133C200.895 16.4164 200.256 17.168 199.792 18.0302C199.329 18.8924 199.721 19.3566 198.69 19.7159C197.659 20.0751 196.482 20.0751 196.093 20.5781C195.703 21.0782 196.342 21.3325 195.451 21.6171C194.559 21.9045 194.88 22.3715 194.666 22.8358C194.453 23.3028 194.025 23.1232 193.918 23.4824C193.811 23.8417 194.096 24.3446 193.704 24.8807C193.314 25.4196 193.1 25.204 192.955 25.8479C192.812 26.4945 192.812 26.9947 192.741 27.3899C192.67 27.785 192.42 27.7491 192.171 28.1056C191.921 28.4648 192.242 29.0756 192.099 29.432C191.957 29.7913 191.422 29.7554 191.244 30.3274C191.065 30.9022 190.495 31.1509 190.994 31.7616C191.491 32.3695 191.85 32.2618 191.672 32.9084C191.493 33.555 192.099 34.1271 192.242 34.2708C192.385 34.4145 192.42 34.9865 192.42 35.4176C192.42 35.8487 192.456 35.9924 192.67 36.2798C192.884 36.5672 193.026 36.639 193.312 37.1751C193.594 37.714 194.203 38.5734 194.06 38.8608C193.918 39.1482 193.739 39.4356 193.739 39.5765C193.739 39.7174 193.953 40.0076 193.882 40.4387C193.811 40.8698 193.454 40.5824 193.312 41.2622C193.169 41.942 193.561 42.0525 193.026 42.3731C192.492 42.6964 191.46 42.981 191.46 42.981C191.46 42.981 189.538 42.1188 189.255 41.8342C188.97 41.5468 187.654 40.4 187.582 40.0408C187.511 39.6815 187.618 39.1454 187.368 38.5347C187.119 37.924 186.941 37.4957 186.62 37.1364C186.299 36.7772 185.018 35.5226 184.557 35.5226C184.097 35.5226 183.773 36.1692 183.205 36.3461C182.635 36.5257 180.929 35.4507 180.427 35.6304C179.931 35.81 178.184 37.7471 177.937 37.9599C177.687 38.1755 176.763 38.3192 176.549 38.0677C176.335 37.8162 175.233 36.0587 174.555 35.915C173.878 35.7713 173.096 36.7385 172.775 36.8849C172.454 37.0286 171.601 37.0286 171.28 37.1005C170.96 37.1723 170.425 37.2083 170.425 37.6007C170.425 37.9931 170.104 39.1786 169.89 39.5019C169.676 39.8252 169.248 40.2176 168.892 39.933C168.535 39.6456 168.288 39.325 168.036 39.5737C167.786 39.8252 166.862 40.1485 166.684 40.1485C166.506 40.1485 165.581 40.1485 165.225 39.2532C164.868 38.3578 163.73 36.5644 163.908 36.3129C164.087 36.0615 164.726 34.9865 164.693 34.7709C164.657 34.5554 164.155 34.4863 163.892 34.1243C163.626 33.7651 163.127 32.3695 162.987 32.0462C162.844 31.7229 161.457 31.687 160.886 31.8666C160.316 32.0462 159.677 32.1899 159.498 32.6542C159.32 33.1212 159.284 33.6573 159.035 33.9447C158.785 34.2321 158.218 34.1602 158.004 34.1961C157.79 34.2321 157.54 33.7651 157.079 34.1602C156.616 34.5526 155.264 35.0915 155.157 35.4148C155.05 35.7381 154.767 36.5257 154.767 37.1364C154.767 37.7471 154.696 38.6425 154.518 38.9299C154.34 39.2173 154.268 40.1126 153.415 39.3223C152.56 38.5319 152.598 38.6756 152.063 38.3192C151.528 37.9627 151.172 37.457 151.139 36.9927C151.103 36.5257 151.103 36.2383 151.139 35.6304C151.175 35.0224 151.528 33.9834 150.747 33.9447C149.962 33.9088 149.43 33.8728 149.145 33.9447C148.86 34.0165 148.289 33.4445 147.829 33.4058C147.365 33.3699 146.655 33.5495 146.512 33.6932C146.37 33.8369 145.802 34.9837 144.875 34.9119C143.951 34.84 143.558 32.867 143.238 32.6514C142.917 32.4359 142.596 32.1844 142.741 31.8279C142.884 31.4687 142.741 30.1063 142.245 30.1809C141.748 30.2555 141.246 30.3605 140.607 30.8276C139.966 31.2946 139.505 31.7229 139.113 32.154C138.723 32.5851 138.934 32.5464 138.578 33.0493C138.221 33.5495 138.043 34.268 137.475 34.1961C136.905 34.1243 136.088 33.8369 135.695 34.0525C135.306 34.268 135.092 34.4835 134.911 34.1961C134.733 33.9115 134.269 32.9416 134.269 32.9416L133.238 32.9775V35.2711C133.238 35.2711 132.775 36.1665 131.957 36.7053C131.14 37.2442 130.819 38.1755 130.391 37.8521C129.963 37.5288 129.431 37.4597 129.5 36.7772C129.571 36.0946 129.856 35.7381 129.996 35.2352C130.139 34.735 130.424 34.3398 129.925 33.8369C129.429 33.3367 129.001 32.9056 128.537 32.867C128.074 32.831 127.827 32.831 127.506 32.6873C127.185 32.5436 126.582 31.9329 126.368 31.5764C126.154 31.22 125.477 31.0376 124.98 31.2918C124.484 31.5433 124.089 32.0462 123.949 32.6542C123.806 33.2621 123.025 33.3367 122.597 33.4445C122.169 33.5523 121.066 33.696 120.781 33.5882C120.496 33.4804 120.639 33.0493 120.781 32.8725C120.924 32.6929 121.138 32.2645 121.138 32.0849C121.138 31.9053 120.987 31.1536 120.617 31.0818C120.246 31.0099 119.322 30.6148 119.322 30.0787C119.322 29.5426 119.712 28.3239 119.322 27.926C118.933 27.5308 118.787 26.7792 118.148 27.1025C117.507 27.4258 116.654 28.0337 116.193 28.1056C115.729 28.1774 114.413 27.9619 113.949 27.9619C113.486 27.9619 109.893 26.5636 109.43 26.2071C108.966 25.8479 109.394 25.6323 108.431 25.6323C107.469 25.6323 105.799 25.776 105.05 25.7401C104.301 25.7042 103.306 25.5964 102.806 25.2399C102.31 24.8807 102.343 25.1681 102.058 24.5933C101.772 24.0185 101.668 23.2669 101.095 23.2669C100.522 23.2669 100.204 23.195 99.6359 23.5543C99.0655 23.9135 98.8872 24.1622 98.2482 24.129C97.6064 24.0931 96.5396 24.2009 95.8978 23.7698C95.256 23.3387 94.9352 22.5871 94.7596 22.156C94.5814 21.7249 94.4744 21.8686 94.5814 21.3656C94.6883 20.8655 95.2451 20.5421 94.5402 20.5035C93.8354 20.4675 92.5189 20.2161 92.305 20.252C92.0911 20.2879 91.5206 20.5394 91.0599 20.6831C90.5964 20.8268 89.066 20.9677 88.427 20.9677C87.788 20.9677 87.8566 20.7881 87.2888 20.9318C86.7184 21.0755 85.6159 20.9318 84.2994 20.8959C82.983 20.8599 82.8047 20.5366 82.1986 20.2879C81.5952 20.0364 81.0248 20.1442 80.8822 20.1801C80.7395 20.2161 80.2047 20.6472 79.6727 20.3957C79.1406 20.1442 76.7546 18.8537 76.7546 18.8537C76.7546 18.8537 75.3668 18.6022 75.1886 18.7819C75.0103 18.9587 74.4782 19.7131 73.6582 20.1083C72.8409 20.5007 71.061 21.0036 71.061 21.0036C71.061 21.0036 69.388 21.0396 68.3897 20.7162C67.3914 20.3929 66.8593 20.0696 66.5741 20.1415C66.2889 20.2133 64.7585 21.3242 64.5117 21.5397C64.2649 21.7553 63.1596 21.6116 62.1284 21.6475C61.0972 21.6834 59.3885 21.0727 58.7111 21.0009C58.0337 20.929 57.3947 20.8572 57.0738 21.0009C56.7529 21.1446 55.8643 21.501 55.7574 21.8244C55.6504 22.1477 55.4365 23.079 55.3679 23.6537C55.2966 24.2285 55.7244 25.1598 55.9384 25.555C56.1523 25.9474 56.7227 26.594 56.3278 27.0251C55.9384 27.4562 54.9044 28.1719 53.8705 28.2438C52.8365 28.3156 51.8409 28.4234 51.1306 28.6749C50.4203 28.9263 49.422 29.2496 48.9612 29.4652C48.5005 29.6807 47.8231 30.5761 47.3952 30.9353C46.9674 31.2946 46.5779 31.5101 46.0431 31.2586C45.5083 31.0072 45.2944 31.2586 45.1518 30.7198C45.0092 30.1809 45.1518 29.7885 44.4744 29.7885C43.7969 29.7885 42.6588 29.6448 42.5189 29.7885C42.3763 29.9322 42.4476 29.8963 41.7016 30.4711C40.9529 31.0459 40.4921 32.4082 40.2426 32.6238C39.993 32.8393 39.4938 33.2317 39.2827 33.555C39.0687 33.8784 38.6793 33.9861 38.9618 34.2376C39.247 34.4891 39.2827 34.5609 39.247 34.992C39.2113 35.4231 39.3896 35.2076 39.6748 35.6386C39.9601 36.0697 39.7105 36.1388 39.8531 36.7855C39.9957 37.4321 40.4565 37.1088 40.6018 37.8964C40.7445 38.6867 40.4949 39.7976 40.281 40.2646C40.067 40.7316 39.7845 41.019 39.8531 41.6988C39.9244 42.3814 39.9957 42.7019 40.3879 43.1689C40.7774 43.636 40.9227 44.7109 41.5261 45.4626C42.1295 46.217 42.9495 46.4657 43.306 47.4716C43.6626 48.4747 43.5913 49.1932 43.8024 49.8398C44.0164 50.4864 44.5868 50.5555 44.7623 51.4177C44.9406 52.2799 44.7267 52.8878 45.1902 53.4267C45.6537 53.9656 46.7205 54.2171 46.7205 55.0737C46.7205 55.9304 46.9701 56.0768 47.5762 56.5438C48.1796 57.0109 50.3161 58.2654 50.0665 58.7297C49.8169 59.1939 46.4024 59.0889 46.2214 59.52C46.0431 59.9511 46.5423 61.8137 46.7919 62.2807C47.0414 62.7477 48.7144 65.652 48.4648 66.2268C48.2152 66.8016 48.3935 67.1581 47.9684 67.8738C47.5406 68.5895 47.291 69.6286 47.0442 70.4908C46.7946 71.3529 46.8302 71.6376 46.1885 71.8172C45.5467 71.9968 44.979 72.0327 43.7311 72.2483C42.4833 72.4638 41.7757 72.2483 41.2409 72.4638C40.7061 72.6794 40.7774 72.5716 40.3166 73.2542C39.8531 73.9367 28.8581 84.8356 28.3589 85.4104C27.8625 85.9852 21.7027 93.9438 21.2419 94.4827C20.7785 95.0215 20.3506 96.0965 19.6403 96.6354C18.9299 97.1742 17.896 98.4288 17.2213 99.0036C16.5439 99.5784 16.4369 99.1114 16.33 99.8271C16.223 100.543 16.1517 101.046 15.9405 101.261C15.7266 101.477 15.4057 101.585 15.3701 102.336C15.3344 103.091 16.1545 103.806 16.1545 104.381C16.1545 104.956 16.2971 106.028 16.2971 106.819C16.2971 107.609 15.6553 111.981 15.6553 111.981C15.6553 111.981 15.0848 112.771 15.3701 113.02C15.6553 113.271 15.9762 113.056 15.9049 113.594C15.8336 114.133 15.8692 114.669 15.8692 114.669C15.8692 114.669 16.2587 114.957 16.1545 115.385C16.0475 115.816 16.8319 116.532 16.8319 116.532C16.8319 116.532 18.5048 117.822 18.8257 118.218C19.1466 118.613 20.0352 119.364 19.3605 119.796C18.6831 120.227 17.8302 120.691 17.0101 119.939C16.1929 119.185 14.2703 118.002 13.6998 117.753C13.1294 117.502 12.9895 117.574 12.7756 117.933C12.5617 118.292 11.4592 119.726 10.4993 120.478C9.5366 121.232 9.39673 122.164 9.0402 122.631C8.68366 123.098 8.29147 123.023 7.83072 123.742C7.36722 124.457 6.86807 124.781 7.22735 125.787C7.58388 126.79 7.65519 127.508 7.50983 128.08C7.36722 128.655 7.04634 128.332 6.86807 129.083C6.6898 129.838 6.86807 130.769 6.51153 131.02C6.155 131.272 5.51323 131.775 5.19509 131.883C4.87695 131.99 4.66029 131.382 4.09258 131.883C3.52212 132.383 2.34829 134.143 2.03015 134.859C1.70927 135.575 1.42678 136.473 1.38839 137.119C1.35273 137.766 1.17447 138.697 1.06751 139.128C0.960545 139.559 0.996199 140.275 1.06751 140.419C1.13881 140.563 1.42404 140.67 1.99176 140.491C2.56221 140.311 3.70039 139.99 3.84026 140.67C3.98013 141.35 3.76895 141.673 4.08983 141.997C4.41071 142.32 4.51768 142.82 4.76725 143.79C5.01683 144.757 4.3778 144.581 5.40901 145.296C6.44023 146.012 8.29421 146.874 8.75497 147.413C9.21846 147.952 10.4636 151.931 11.4262 152.324C12.3889 152.716 13.4887 152.539 14.1661 152.683C14.8435 152.827 15.8034 153.65 15.8034 154.225C15.8034 154.8 16.1243 155.623 16.3382 155.731C16.5521 155.839 16.7277 156.27 17.2295 156.447C17.726 156.626 17.8713 156.375 18.1895 156.159C18.5103 155.944 18.8998 155.728 19.4346 156.016C19.9694 156.3 20.3588 156.339 20.7867 156.051C21.2145 155.764 22.5666 153.506 23.0987 153.183C23.6335 152.86 24.736 153.147 24.9143 153.111C25.0925 153.075 25.8385 152.429 26.1237 153.291C26.409 154.153 25.6273 154.294 27.0151 155.192C28.4028 156.087 32.3522 158.06 32.854 158.096C33.3505 158.132 33.6713 157.953 34.527 157.665C35.3827 157.378 36.0574 157.917 36.5209 157.953C36.9844 157.989 38.0512 157.593 38.4763 157.56C38.9042 157.524 38.9042 157.776 39.4362 158.351C39.971 158.925 40.2535 158.997 41.0379 158.959C41.8223 158.923 41.6797 159.138 42.2474 159.21C42.8178 159.282 42.497 158.527 43.5638 158.851C44.6307 159.174 46.3421 160.86 47.302 161.219C48.2619 161.578 49.1176 161.719 49.614 161.219C50.1104 160.719 50.0418 160.395 51.0374 160.503C52.0357 160.611 52.7817 160.467 52.7817 160.467C52.7817 160.467 54.7371 159.752 55.4145 159.785C56.092 159.821 56.8736 159.605 57.5153 160.501C58.1571 161.396 58.5136 162.186 59.3309 163.01C60.1482 163.833 61.536 164.157 61.7499 164.3C61.9638 164.444 62.6056 165.303 62.9594 166.022C63.3159 166.738 64.1689 167.097 64.4184 167.669C64.668 168.244 64.9148 168.6 65.5566 168.531C66.1984 168.459 67.3009 168.387 67.907 168.172C68.5104 167.956 69.1165 166.881 69.6156 166.917C70.1148 166.953 70.7181 166.953 71.2173 166.525C71.7137 166.094 72.2842 165.234 72.6764 165.091C73.0658 164.947 74.0998 165.019 74.5632 164.552C75.0267 164.085 74.2067 163.297 74.9527 163.261C75.7014 163.225 76.7683 163.441 77.3031 163.261C77.8379 163.082 79.0117 162.471 79.4396 162.471C79.8674 162.471 80.1883 162.65 80.7917 162.579C81.395 162.507 82.3933 161.896 82.3933 161.896C82.3933 161.896 84.102 162.471 85.0975 162.363C86.0931 162.255 88.2295 161.037 88.7616 161.037C89.2937 161.037 90.4346 161.575 91.1449 161.36C91.8552 161.144 91.8552 160.213 93.2073 160.213C94.5594 160.213 95.6647 160.429 96.0541 159.89C96.4436 159.351 99.0079 153.042 99.2575 152.898C99.507 152.755 104.062 151.464 104.526 151.32C104.989 151.177 105.382 151.033 106.021 150.638C106.662 150.245 106.838 149.455 107.337 149.383C107.834 149.311 107.979 149.132 108.368 148.952C108.758 148.773 108.758 148.021 108.758 148.021L108.793 146.659L108.865 145.656C108.865 145.656 110.502 145.224 111.429 145.332C112.353 145.44 112.32 145.296 112.427 145.94C112.534 146.587 112.106 147.123 113.105 147.051C114.103 146.979 114.813 147.338 115.099 146.728C115.381 146.12 115.348 145.689 115.633 145.545C115.919 145.401 116.7 145.545 116.914 145.832C117.128 146.12 117.663 146.587 118.052 146.548C118.442 146.512 118.48 146.048 118.977 146.189C119.473 146.333 119.901 146.871 120.293 146.764C120.683 146.656 120.935 146.943 121.467 145.901C122.002 144.862 122.534 143.931 123.315 144.216C124.1 144.503 124.703 144.931 125.024 144.716C125.345 144.5 125.452 144.033 125.948 143.713C126.445 143.389 127.797 142.61 128.192 142.84C128.581 143.069 128.833 143.569 129.083 143.785C129.333 144 132.322 143.785 132.572 143.964C132.821 144.144 133.817 145.075 134.42 145.758C135.023 146.44 134.955 147.228 135.665 147.695C136.376 148.162 136.839 148.018 137.196 148.377C137.552 148.737 138.69 149.093 138.94 149.168C139.189 149.242 139.617 149.024 139.65 149.922C139.686 150.818 139.401 151.931 140.435 151.967C141.469 152.003 141.715 151.251 141.715 151.251C141.715 151.251 142.782 152.757 143.281 152.686C143.778 152.614 144.99 151.575 145.879 151.754C146.77 151.934 147.302 152.829 146.627 153.189C145.95 153.548 144.779 153.835 145.026 154.731C145.275 155.626 145.596 156.165 146.128 155.734C146.663 155.303 146.625 154.012 147.302 154.156C147.979 154.299 147.837 154.515 148.086 155.662C148.336 156.809 148.514 157.632 149.189 157.309C149.866 156.985 149.724 156.77 149.938 156.162C150.152 155.554 149.831 154.836 150.9 154.8C151.967 154.764 152.288 154.692 152.963 154.836C153.64 154.979 154.6 154.369 155.064 154.907C155.527 155.446 156.273 155.731 156.879 155.59C157.483 155.446 158.267 155.303 157.839 156.237C157.411 157.168 158.335 160.683 158.549 160.863C158.763 161.042 160.044 161.33 160.044 161.33L161.218 161.509C161.218 161.509 161.289 161.653 161.788 162.084C162.285 162.515 162.927 162.335 163.212 161.653C163.494 160.97 163.212 160.542 163.854 160.578C164.495 160.614 165.384 160.937 165.42 161.401C165.455 161.868 165.455 162.512 165.669 162.62C165.883 162.728 166.24 162.872 166.525 163.159C166.807 163.446 167.592 163.374 167.342 163.949C167.093 164.524 166.451 164.811 166.382 165.276C166.311 165.743 166.846 166.207 167.093 166.387C167.339 166.566 167.877 168.716 167.271 168.968C166.667 169.219 166.272 169.65 166.593 170.186C166.914 170.725 166.95 170.725 166.593 171.405C166.237 172.087 166.059 172.444 166.344 172.839C166.629 173.232 165.987 173.629 165.954 173.914C165.919 174.201 167.057 174.166 166.344 174.809C165.633 175.456 164.457 175.169 164.495 175.741C164.531 176.316 164.852 176.78 165.28 177.031C165.708 177.283 166.028 177.031 166.135 177.747C166.242 178.463 166.813 179.502 167.844 179.648C168.875 179.792 168.804 179.181 169.303 179.612C169.799 180.043 169.303 180.151 169.692 181.082C170.082 182.014 170.795 181.729 170.902 182.121C171.009 182.514 170.513 183.412 171.187 183.951C171.865 184.49 172.646 185.026 172.967 184.451C173.288 183.876 173.288 182.514 173.752 182.406C174.215 182.298 174.925 181.867 175.139 183.16C175.353 184.451 175.743 185.205 175.46 185.777C175.175 186.352 174.643 186.065 174.818 186.924C174.997 187.786 175.282 188.466 175.208 189.433C175.137 190.401 174.07 190.257 174.423 191.011C174.78 191.766 175.847 191.874 175.954 191.874C176.061 191.874 177.056 192.697 176.738 193.2C176.417 193.7 175.882 194.023 175.882 194.814C175.882 195.604 175.669 195.817 176.239 196.104C176.81 196.392 176.881 196.535 177.413 196.895C177.948 197.254 178.123 197.002 178.801 197.146C179.478 197.29 179.478 197.182 179.656 197.793C179.835 198.401 179.585 198.904 180.441 198.832C181.296 198.76 182.363 198.293 182.717 198.832C183.074 199.371 183.145 199.478 183.501 199.694C183.858 199.91 184.853 199.55 184.925 200.125C184.996 200.7 185.103 203.134 185.103 203.134L185.281 204.82C185.281 204.82 185.816 206.182 185.816 206.614C185.816 207.045 185.602 208.12 185.602 208.12L186.42 209.374C186.42 209.374 186.241 209.733 186.313 210.377C186.384 211.024 187.023 211.024 187.023 211.668C187.023 212.312 187.412 212.886 187.84 213.066C188.268 213.246 188.657 212.958 189.62 213.425C190.583 213.892 192.752 215.362 192.716 215.65C192.681 215.937 191.543 215.614 190.83 215.65C190.119 215.686 190.012 215.542 189.335 215.506C188.657 215.47 188.479 215.542 187.059 215.542C185.638 215.542 185.421 215.042 184.747 215.47C184.069 215.901 184.568 216.078 183.715 216.366C182.86 216.653 182.717 216.833 182.256 216.33C181.793 215.829 182.149 215.467 181.828 215.183C181.508 214.895 181.011 214.683 181.011 214.683C181.011 214.683 180.548 212.82 180.155 213.5C179.766 214.182 179.552 214.79 179.552 214.79C179.552 214.79 178.803 214.108 178.485 214.79C178.164 215.473 178.414 216.009 178.129 216.512C177.843 217.012 176.919 217.374 176.563 216.799C176.206 216.225 175.139 215.006 175.139 215.006L173.858 214.398L173.288 212.928C173.288 212.928 172.539 212.536 172.471 213.395C172.399 214.257 172.753 214.901 172.043 214.793C171.333 214.685 171.187 214.757 171.08 214.039C170.973 213.323 170.477 212.209 170.263 212.892C170.049 213.575 170.049 213.895 169.978 214.398C169.906 214.898 169.443 215.045 169.122 215.293C168.801 215.545 168.733 216.048 168.338 216.225C167.948 216.404 167.271 216.617 167.553 215.509C167.838 214.398 167.839 214.039 168.088 213.464C168.338 212.889 168.445 212.317 168.088 211.922C167.732 211.53 167.767 210.275 167.057 210.991C166.347 211.706 166.347 212.03 165.99 212.03C165.633 212.03 165.42 211.314 164.424 211.814C163.426 212.314 163.675 212.353 163.214 212.746C162.751 213.138 161.898 212.386 162.112 213.32C162.326 214.252 161.542 214.252 161.328 214.359C161.114 214.467 160.793 214.072 161.078 215.222C161.363 216.368 161.256 216.656 161.506 217.374C161.755 218.09 161.648 219.847 161.791 220.422C161.934 220.997 162.255 220.922 163.179 221.677C164.103 222.431 165.101 222.108 164.281 223.398C163.464 224.689 163.001 225.261 162.858 225.979C162.715 226.695 163.428 227.917 163.461 228.204C163.497 228.491 163.497 229.459 162.82 229.782C162.142 230.105 160.612 230.141 159.402 230.536C158.193 230.929 157.765 229.997 157.658 231.327C157.551 232.653 157.408 233.297 157.729 234.195C158.05 235.09 158.796 235.842 157.908 235.842C157.019 235.842 156.27 236.165 156.27 236.596C156.27 237.028 156.128 237.492 155.415 237.671C154.704 237.851 154.348 238.21 154.276 238.641C154.205 239.073 154.062 239.824 153.599 239.465C153.135 239.106 151.962 239.178 151.962 239.178C151.962 239.178 150.788 238.89 150.788 240.001C150.788 241.112 150.895 241.256 151.537 241.687C152.178 242.118 152.603 242.654 152.535 243.301C152.464 243.947 151.964 244.124 152 244.663C152.036 245.202 151.397 244.842 151.251 245.417C151.109 245.992 151.251 246.313 151.109 246.78C150.966 247.247 150.574 247.75 149.507 247.388C148.44 247.028 146.268 246.097 145.912 246.525C145.555 246.957 145.522 247.064 145.341 247.421C145.163 247.78 144.771 247.708 144.985 248.352C145.198 248.999 145.374 248.852 145.481 249.643C145.588 250.433 145.517 250.289 145.977 251.328C146.441 252.367 146.334 252.691 147.08 253.658C147.829 254.628 148.753 255.379 149.537 255.559C150.322 255.739 151.21 256.349 151.21 256.349C151.21 256.349 151.493 257.64 152.42 257.748C153.344 257.855 155.231 258.179 156.122 258.179C157.014 258.179 157.831 258.107 158.223 257.604C158.612 257.104 158.9 256.742 158.437 256.313C157.973 255.882 157.299 255.343 158.047 255.274C158.796 255.203 158.903 255.454 159.079 254.987C159.257 254.52 158.972 253.696 159.468 254.595C159.965 255.49 161.744 256.065 161.958 255.705C162.172 255.346 162.348 254.702 162.669 254.343C162.99 253.984 162.918 253.804 163.843 253.843C164.767 253.879 164.909 254.166 165.373 253.627C165.836 253.089 165.836 252.981 166.371 252.873C166.906 252.765 167.331 252.481 167.723 252.119C168.113 251.759 168.968 250.9 170.074 250.9C171.179 250.9 171.889 250.756 173.206 250.864C174.522 250.972 175.482 250.864 176.373 251.903C177.265 252.942 177.904 252.511 178.367 253.766C178.831 255.02 179.409 256.548 179.316 257.364L179.294 257.325L179.281 257.306Z" fill="#CFE8D0"/>
<path fill-rule="evenodd" clip-rule="evenodd" d="M15.5135 81.7319C18.9024 78.4107 23.4988 76.5449 28.2915 76.5449C33.0841 76.5449 37.6805 78.4107 41.0694 81.7319C44.4583 85.053 46.3622 89.5575 46.3622 94.2543C46.3622 107.536 28.2915 127.143 28.2915 127.143C28.2915 127.143 10.2207 107.536 10.2207 94.2543C10.2207 89.5575 12.1246 85.053 15.5135 81.7319ZM35.1065 94.4712L28.2916 87.6563L21.4767 94.4712L28.2916 101.286L35.1065 94.4712Z" fill="#01594D"/>
<path d="M70.2071 105.024V102H60.0911V80.724H63.0071V99.984H68.0831V80.724H70.9991V100.596H72.4751V105.024H70.2071ZM80.7638 102.324C79.5398 102.324 78.5438 102.192 77.7758 101.928C77.0078 101.64 76.4438 101.112 76.0838 100.344C75.7238 99.576 75.5438 98.448 75.5438 96.96V88.32C75.5438 86.616 75.9398 85.452 76.7318 84.828C77.5478 84.18 78.8438 83.856 80.6198 83.856C82.3718 83.856 83.6438 84.18 84.4358 84.828C85.2518 85.452 85.6598 86.616 85.6598 88.32V92.964H78.2798V97.968C78.2798 99 78.4358 99.72 78.7478 100.128C79.0838 100.536 79.7318 100.74 80.6918 100.74C81.5798 100.74 82.1678 100.548 82.4558 100.164C82.7678 99.756 82.9238 99.024 82.9238 97.968V95.52H85.6598V96.924C85.6598 98.388 85.4798 99.516 85.1198 100.308C84.7598 101.076 84.2198 101.604 83.4998 101.892C82.7798 102.18 81.8678 102.324 80.7638 102.324ZM78.2798 91.632H82.9238V88.176C82.9238 87.264 82.7678 86.604 82.4558 86.196C82.1678 85.764 81.5558 85.548 80.6198 85.548C79.7078 85.548 79.0838 85.764 78.7478 86.196C78.4358 86.604 78.2798 87.264 78.2798 88.176V91.632ZM97.4768 102V86.196H93.8048V84.18H103.993V86.196H100.285V102H97.4768ZM107.252 106.212C106.7 106.212 106.196 106.164 105.74 106.068C105.308 105.996 104.96 105.936 104.696 105.888V104.34C104.792 104.364 104.96 104.4 105.2 104.448C105.464 104.52 105.764 104.556 106.1 104.556C106.436 104.556 106.82 104.496 107.252 104.376C107.684 104.256 108.032 103.92 108.296 103.368C108.392 103.152 108.512 102.888 108.656 102.576C108.824 102.288 108.86 101.952 108.764 101.568L104.768 84.18H107.612L110.6 99.264H110.564L113.48 84.18H116.072L112.292 101.064C111.932 102.84 111.344 104.136 110.528 104.952C109.736 105.792 108.644 106.212 107.252 106.212ZM120.434 102V86.196H116.762V84.18H126.95V86.196H123.242V102H120.434Z" fill="#131415"/>
<path opacity="0.7" d="M57.4991 126.535C57.9191 126.465 58.2591 126.37 58.5191 126.25C58.7891 126.14 59.0241 125.975 59.2241 125.755C59.4341 125.535 59.6641 125.235 59.9141 124.855L60.4091 124.12L58.8041 116.185H59.8691L61.1291 123.055L61.7441 122.05C62.1741 121.35 62.5391 120.735 62.8391 120.205C63.1391 119.665 63.3941 119.18 63.6041 118.75C63.8241 118.31 64.0041 117.885 64.1441 117.475C64.2841 117.065 64.4191 116.635 64.5491 116.185H65.5541C65.4241 116.665 65.2791 117.115 65.1191 117.535C64.9691 117.955 64.7791 118.395 64.5491 118.855C64.3291 119.305 64.0491 119.82 63.7091 120.4C63.3791 120.97 62.9641 121.655 62.4641 122.455L61.2491 124.39C60.9091 124.94 60.5941 125.4 60.3041 125.77C60.0141 126.15 59.7291 126.45 59.4491 126.67C59.1791 126.9 58.8991 127.065 58.6091 127.165C58.3191 127.275 57.9941 127.34 57.6341 127.36L57.4991 126.535ZM69.4364 124L71.6864 113.35H72.7364L71.7314 118.105H73.2764L77.8664 113.35H79.1114L74.1014 118.465L77.2514 124H76.1264L73.3364 119.02H71.5364L70.4864 124H69.4364ZM81.268 124.15C80.698 124.15 80.203 124 79.783 123.7C79.363 123.4 79.043 123 78.823 122.5C78.603 122 78.493 121.46 78.493 120.88C78.493 120.26 78.608 119.665 78.838 119.095C79.078 118.515 79.398 118 79.798 117.55C80.208 117.09 80.673 116.725 81.193 116.455C81.713 116.185 82.258 116.05 82.828 116.05C83.458 116.05 83.978 116.225 84.388 116.575C84.798 116.915 85.088 117.33 85.258 117.82L85.618 116.185H86.638L85.258 122.665C85.248 122.695 85.238 122.73 85.228 122.77C85.228 122.8 85.228 122.83 85.228 122.86C85.228 123.02 85.323 123.1 85.513 123.1L85.318 124C85.238 124.01 85.163 124.02 85.093 124.03C85.033 124.04 84.973 124.045 84.913 124.045C84.683 124.035 84.508 123.975 84.388 123.865C84.278 123.745 84.223 123.605 84.223 123.445C84.223 123.385 84.228 123.32 84.238 123.25C84.248 123.18 84.263 123.085 84.283 122.965C84.313 122.845 84.348 122.685 84.388 122.485C83.988 122.995 83.503 123.4 82.933 123.7C82.373 124 81.818 124.15 81.268 124.15ZM81.688 123.25C81.938 123.25 82.203 123.2 82.483 123.1C82.773 123 83.053 122.865 83.323 122.695C83.593 122.515 83.833 122.305 84.043 122.065C84.263 121.825 84.423 121.575 84.523 121.315L85.018 118.9C84.978 118.54 84.858 118.215 84.658 117.925C84.458 117.635 84.208 117.4 83.908 117.22C83.608 117.04 83.278 116.95 82.918 116.95C82.468 116.95 82.043 117.06 81.643 117.28C81.243 117.5 80.883 117.795 80.563 118.165C80.253 118.535 80.008 118.945 79.828 119.395C79.648 119.835 79.558 120.28 79.558 120.73C79.558 121.19 79.648 121.61 79.828 121.99C80.008 122.37 80.253 122.675 80.563 122.905C80.883 123.135 81.258 123.25 81.688 123.25ZM89.0328 116.185H89.9328L89.6178 117.7C90.0178 117.21 90.4928 116.815 91.0428 116.515C91.6028 116.205 92.1628 116.05 92.7228 116.05C93.3028 116.05 93.7978 116.205 94.2078 116.515C94.6278 116.815 94.9478 117.215 95.1678 117.715C95.3878 118.215 95.4978 118.755 95.4978 119.335C95.4978 119.945 95.3828 120.54 95.1528 121.12C94.9228 121.69 94.6078 122.205 94.2078 122.665C93.8078 123.125 93.3478 123.49 92.8278 123.76C92.3078 124.02 91.7528 124.15 91.1628 124.15C90.5428 124.15 90.0278 123.98 89.6178 123.64C89.2078 123.3 88.9128 122.88 88.7328 122.38L87.7128 127.195H86.6928L89.0328 116.185ZM91.0728 123.25C91.5228 123.25 91.9478 123.14 92.3478 122.92C92.7578 122.7 93.1178 122.41 93.4278 122.05C93.7378 121.69 93.9828 121.285 94.1628 120.835C94.3428 120.385 94.4328 119.94 94.4328 119.5C94.4328 119.03 94.3428 118.605 94.1628 118.225C93.9928 117.835 93.7478 117.525 93.4278 117.295C93.1078 117.065 92.7278 116.95 92.2878 116.95C92.0478 116.95 91.7828 117 91.4928 117.1C91.2128 117.2 90.9328 117.345 90.6528 117.535C90.3828 117.715 90.1428 117.92 89.9328 118.15C89.7228 118.38 89.5678 118.625 89.4678 118.885L88.9578 121.285C89.0278 121.655 89.1578 121.99 89.3478 122.29C89.5478 122.58 89.7928 122.815 90.0828 122.995C90.3828 123.165 90.7128 123.25 91.0728 123.25ZM96.5294 124L98.1794 116.185H104.449L102.784 124H101.764L103.249 116.995H99.0194L97.5494 124H96.5294ZM107.997 124.15C107.427 124.15 106.932 124 106.512 123.7C106.092 123.4 105.772 123 105.552 122.5C105.332 122 105.222 121.46 105.222 120.88C105.222 120.26 105.337 119.665 105.567 119.095C105.807 118.515 106.127 118 106.527 117.55C106.937 117.09 107.402 116.725 107.922 116.455C108.442 116.185 108.987 116.05 109.557 116.05C110.187 116.05 110.707 116.225 111.117 116.575C111.527 116.915 111.817 117.33 111.987 117.82L112.347 116.185H113.367L111.987 122.665C111.977 122.695 111.967 122.73 111.957 122.77C111.957 122.8 111.957 122.83 111.957 122.86C111.957 123.02 112.052 123.1 112.242 123.1L112.047 124C111.967 124.01 111.892 124.02 111.822 124.03C111.762 124.04 111.702 124.045 111.642 124.045C111.412 124.035 111.237 123.975 111.117 123.865C111.007 123.745 110.952 123.605 110.952 123.445C110.952 123.385 110.957 123.32 110.967 123.25C110.977 123.18 110.992 123.085 111.012 122.965C111.042 122.845 111.077 122.685 111.117 122.485C110.717 122.995 110.232 123.4 109.662 123.7C109.102 124 108.547 124.15 107.997 124.15ZM108.417 123.25C108.667 123.25 108.932 123.2 109.212 123.1C109.502 123 109.782 122.865 110.052 122.695C110.322 122.515 110.562 122.305 110.772 122.065C110.992 121.825 111.152 121.575 111.252 121.315L111.747 118.9C111.707 118.54 111.587 118.215 111.387 117.925C111.187 117.635 110.937 117.4 110.637 117.22C110.337 117.04 110.007 116.95 109.647 116.95C109.197 116.95 108.772 117.06 108.372 117.28C107.972 117.5 107.612 117.795 107.292 118.165C106.982 118.535 106.737 118.945 106.557 119.395C106.377 119.835 106.287 120.28 106.287 120.73C106.287 121.19 106.377 121.61 106.557 121.99C106.737 122.37 106.982 122.675 107.292 122.905C107.612 123.135 107.987 123.25 108.417 123.25ZM115.747 116.185H116.692L116.302 117.955C116.722 117.365 117.217 116.9 117.787 116.56C118.357 116.22 118.932 116.05 119.512 116.05C119.902 116.05 120.232 116.13 120.502 116.29C120.772 116.45 120.972 116.68 121.102 116.98C121.242 117.28 121.307 117.65 121.297 118.09C121.597 117.64 121.922 117.265 122.272 116.965C122.622 116.665 122.997 116.44 123.397 116.29C123.797 116.13 124.192 116.05 124.582 116.05C125.002 116.05 125.337 116.13 125.587 116.29C125.837 116.44 126.022 116.66 126.142 116.95C126.262 117.24 126.322 117.58 126.322 117.97C126.322 118.19 126.307 118.42 126.277 118.66C126.247 118.9 126.202 119.155 126.142 119.425L125.167 124H124.147L125.062 119.635C125.162 119.165 125.212 118.76 125.212 118.42C125.212 117.93 125.112 117.57 124.912 117.34C124.712 117.1 124.417 116.98 124.027 116.98C123.657 116.98 123.292 117.075 122.932 117.265C122.572 117.455 122.237 117.72 121.927 118.06C121.617 118.39 121.357 118.78 121.147 119.23L120.142 124H119.122L120.037 119.635C120.097 119.385 120.137 119.16 120.157 118.96C120.187 118.76 120.202 118.57 120.202 118.39C120.202 117.91 120.102 117.555 119.902 117.325C119.702 117.095 119.407 116.98 119.017 116.98C118.467 116.98 117.927 117.185 117.397 117.595C116.877 118.005 116.452 118.545 116.122 119.215L115.117 124H114.097L115.747 116.185ZM130.431 124.15C129.861 124.15 129.366 124 128.946 123.7C128.526 123.4 128.206 123 127.986 122.5C127.766 122 127.656 121.46 127.656 120.88C127.656 120.26 127.771 119.665 128.001 119.095C128.241 118.515 128.561 118 128.961 117.55C129.371 117.09 129.836 116.725 130.356 116.455C130.876 116.185 131.421 116.05 131.991 116.05C132.621 116.05 133.141 116.225 133.551 116.575C133.961 116.915 134.251 117.33 134.421 117.82L134.781 116.185H135.801L134.421 122.665C134.411 122.695 134.401 122.73 134.391 122.77C134.391 122.8 134.391 122.83 134.391 122.86C134.391 123.02 134.486 123.1 134.676 123.1L134.481 124C134.401 124.01 134.326 124.02 134.256 124.03C134.196 124.04 134.136 124.045 134.076 124.045C133.846 124.035 133.671 123.975 133.551 123.865C133.441 123.745 133.386 123.605 133.386 123.445C133.386 123.385 133.391 123.32 133.401 123.25C133.411 123.18 133.426 123.085 133.446 122.965C133.476 122.845 133.511 122.685 133.551 122.485C133.151 122.995 132.666 123.4 132.096 123.7C131.536 124 130.981 124.15 130.431 124.15ZM130.851 123.25C131.101 123.25 131.366 123.2 131.646 123.1C131.936 123 132.216 122.865 132.486 122.695C132.756 122.515 132.996 122.305 133.206 122.065C133.426 121.825 133.586 121.575 133.686 121.315L134.181 118.9C134.141 118.54 134.021 118.215 133.821 117.925C133.621 117.635 133.371 117.4 133.071 117.22C132.771 117.04 132.441 116.95 132.081 116.95C131.631 116.95 131.206 117.06 130.806 117.28C130.406 117.5 130.046 117.795 129.726 118.165C129.416 118.535 129.171 118.945 128.991 119.395C128.811 119.835 128.721 120.28 128.721 120.73C128.721 121.19 128.811 121.61 128.991 121.99C129.171 122.37 129.416 122.675 129.726 122.905C130.046 123.135 130.421 123.25 130.851 123.25ZM139.306 120.115L137.311 116.185H138.406L139.936 119.245L139.996 119.47L140.161 119.26L143.011 116.185H144.106L140.446 120.115L142.441 124H141.346L139.816 120.955L139.726 120.745L139.576 120.94L136.756 124H135.646L139.306 120.115Z" fill="#131415"/>
</svg>
