<svg width="16" height="16" viewBox="0 0 16 16" fill="none" xmlns="http://www.w3.org/2000/svg">
<g id="maki:mountain">
<path id="Vector" d="M8.00023 3C7.68023 3 7.57356 3.21333 7.36023 3.42667L1.17356 13.56C1.06689 13.6667 1.06689 13.88 1.06689 13.9867C1.06689 14.52 1.49356 14.7333 1.81356 14.7333H14.1869C14.6136 14.7333 14.9336 14.52 14.9336 13.9867C14.9336 13.7733 14.9336 13.7733 14.8269 13.56L8.74689 3.42667C8.53356 3.21333 8.32023 3 8.00023 3ZM8.00023 4.6L11.5202 10.4667H10.6669L9.06689 8.86667L8.00023 10.4667L6.93356 8.86667L5.33356 10.4667H4.37356L8.00023 4.6Z" fill="#FBFBFB"/>
</g>
</svg>
