<svg width="20" height="20" viewBox="0 0 20 20" fill="none" xmlns="http://www.w3.org/2000/svg">
<g id="TelephoneFill">
<path id="Vector" fill-rule="evenodd" clip-rule="evenodd" d="M4.64974 3.94638C4.80283 3.79352 4.98667 3.67493 5.18907 3.59849C5.39146 3.52204 5.60779 3.48948 5.82372 3.50297C6.03965 3.51645 6.25025 3.57568 6.44156 3.67671C6.63287 3.77774 6.80053 3.91828 6.93341 4.08901L8.50399 6.10669C8.79186 6.47681 8.89335 6.95892 8.77961 7.4139L8.301 9.33009C8.27625 9.42934 8.27759 9.5333 8.30488 9.63188C8.33217 9.73046 8.38448 9.8203 8.45674 9.8927L10.6065 12.0425C10.679 12.1149 10.769 12.1673 10.8678 12.1946C10.9665 12.2219 11.0707 12.2232 11.17 12.1983L13.0853 11.7196C13.3099 11.6635 13.5442 11.6591 13.7707 11.7069C13.9972 11.7546 14.2098 11.8532 14.3926 11.9953L16.4102 13.565C17.1356 14.1293 17.2021 15.2012 16.5529 15.8495L15.6481 16.7542C15.0007 17.4017 14.0329 17.6861 13.1308 17.3685C10.822 16.5561 8.7256 15.2343 6.99729 13.5011C5.26422 11.773 3.94241 9.67698 3.12991 7.3684C2.81317 6.46718 3.09753 5.49859 3.74501 4.85111L4.64974 3.94638Z" fill="#01594D"/>
</g>
</svg>
