<svg width="94" height="60" viewBox="0 0 94 60" fill="none" xmlns="http://www.w3.org/2000/svg">
<g id="Frame" clip-path="url(#clip0_544_2114)">
<g id="Group">
<path id="Vector" d="M9.96334 0.205329C6.05029 0.891828 0.626953 4.87352 0.626953 12.1504C0.626953 23.409 9.68874 26.7042 15.318 27.2534C23.6247 28.0772 28.9107 22.2419 28.9107 15.5829C28.9107 -0.68712 13.8764 -0.48117 9.96334 0.205329ZM14.6315 21.1435C9.89469 20.8003 7.28599 18.8781 7.28599 12.7683C7.28599 9.67901 8.38439 7.61952 12.2974 6.72707C16.2105 5.76597 22.5263 7.20762 22.5263 14.4159C22.5263 17.5051 20.1922 21.5554 14.6315 21.1435Z" fill="#FFCF17"/>
<path id="Vector_2" d="M92.2057 32.0587L74.4254 31.7154L73.9448 26.498L93.3727 27.5278L92.2057 32.0587Z" fill="#B1D7DF"/>
<path id="Vector_3" d="M88.2931 40.641L70.4441 40.2291L70.0322 35.0117L89.3915 36.0415L88.2931 40.641Z" fill="#B1D7DF"/>
<path id="Vector_4" d="M18.7504 30.4115L20.0548 30.2742C20.0548 30.2742 20.5353 26.5671 17.9266 26.6357C15.3179 26.7044 14.4941 30.2742 14.4941 33.9126C14.4941 37.551 14.8374 41.1208 17.5834 41.0522C20.3294 40.9835 19.7115 37.4137 19.7115 37.4137L18.3385 37.551C18.3385 37.551 18.8877 39.6792 17.652 39.6792C16.1417 39.6792 15.7298 37.8256 15.7985 34.0499C15.9358 30.2742 16.0731 28.0087 17.858 28.0087C18.9564 28.0087 18.7504 30.4115 18.7504 30.4115Z" fill="white"/>
<path id="Vector_5" d="M42.8466 22.1053H41.4736L41.7482 8.30664H43.1899L42.8466 22.1053Z" fill="white"/>
<path id="Vector_6" d="M53.9677 22.2417H52.5947L53.1439 8.51172H54.5169L53.9677 22.2417Z" fill="white"/>
<path id="Vector_7" d="M64.1967 59.7925H62.8237L63.4416 46.0625H64.8146L64.1967 59.7925Z" fill="white"/>
<path id="Vector_8" d="M26.9196 18.5352C26.3018 16.6816 24.5169 16.6816 23.4871 16.9562L23.6245 14.0729C27.4002 13.661 27.6061 8.375 27.6061 8.375H26.2331C26.2331 12.3567 24.2423 12.9745 23.6245 12.9745L23.7618 8.375H22.3201L21.9082 22.1736H23.3498L23.4185 17.986C26.3704 17.0249 26.0958 22.1736 26.0958 22.1736H27.4688C27.5375 22.105 27.7434 20.8006 26.9196 18.5352Z" fill="white"/>
<g id="Group_2">
<path id="Vector_9" d="M59.3226 59.8608H58.0869L58.4302 46.1309H59.6659L59.3226 59.8608Z" fill="white"/>
<path id="Vector_10" d="M56.0273 46.1311L61.8626 46.0625V47.0922L56.0273 47.1609V46.1311Z" fill="white"/>
</g>
<g id="Group_3">
<path id="Vector_11" d="M37.3548 40.9836H36.1191L36.4624 27.3223H37.6981L37.3548 40.9836Z" fill="white"/>
<path id="Vector_12" d="M34.1282 27.3228L39.8948 27.1855V28.2153L34.0596 28.3526L34.1282 27.3228Z" fill="white"/>
</g>
<path id="Vector_13" d="M72.1599 52.4472C72.1599 51.5548 72.0913 50.7996 72.0913 50.3191V50.1818C72.0913 50.1131 72.0913 50.0445 72.0913 49.9758C71.8853 47.3671 71.3362 45.9941 69.208 45.9941C67.2858 45.9941 66.5993 47.3671 66.3934 49.9072C66.3247 50.7996 66.3247 51.4175 66.3247 52.3786V52.7218C66.3247 52.9964 66.3247 53.2024 66.3247 53.4083C66.3247 54.3008 66.3934 55.0559 66.3934 55.5365V55.6738C66.3934 55.7424 66.3934 55.8111 66.3934 55.8797C66.5993 58.4198 67.1485 59.7928 69.2767 59.7928C71.1989 59.7928 71.8853 58.4198 72.0913 55.8797C72.1599 54.9873 72.1599 54.3694 72.1599 53.4083V53.0651C72.1599 52.8591 72.1599 52.6532 72.1599 52.4472ZM69.2767 58.4884C68.1096 58.4884 67.9037 56.9095 67.7664 55.9484C67.7664 55.9484 67.6977 54.3694 67.6977 52.7905C67.6977 51.3488 67.7664 49.9072 67.7664 49.8385C67.9037 48.5342 68.041 47.2985 69.208 47.2985C70.3751 47.2985 70.581 48.8774 70.7183 49.8385C70.7183 49.8385 70.7869 51.3488 70.7869 52.8591C70.7869 54.3694 70.7183 55.8797 70.7183 55.9484C70.581 57.3214 70.4437 58.4884 69.2767 58.4884Z" fill="white"/>
<path id="Vector_14" d="M63.373 8.375L67.6293 19.6336L67.2174 8.375H68.1785L68.659 22.105H67.286L63.0297 10.7091L63.2357 22.105H62.2059L62 8.375H63.373Z" fill="white"/>
<path id="Vector_15" d="M45.936 8.375L50.1923 19.6336L49.7117 8.375H50.7415L51.222 22.105H49.7804L45.5927 10.7091L45.73 22.105H44.7689L44.563 8.375H45.936Z" fill="white"/>
<g id="Group_4">
<g id="Group_5">
<path id="Vector_16" d="M49.5055 52.4476C49.4369 49.0151 48.5444 45.8573 45.7984 45.9946L45.8671 46.8183C47.3087 46.9556 48.0639 49.3584 48.1325 52.379C48.2012 55.8801 47.7893 58.2829 46.2103 58.6948C45.7984 58.7634 45.0433 58.8321 44.9746 58.8321V59.8618C45.4552 59.8618 46.4163 59.7932 46.4163 59.7932C49.0936 59.4499 49.5742 55.8801 49.5055 52.4476Z" fill="white"/>
</g>
<path id="Vector_17" d="M44.9746 59.7941L43.6016 59.8628L43.9448 46.3388L45.3178 46.1328L44.9746 59.7941Z" fill="white"/>
<path id="Vector_18" d="M43.876 47.0925V46.2687C43.876 46.2687 44.8371 45.9941 45.7982 45.9941C46.6906 45.9941 45.8668 46.8179 45.8668 46.8179C44.9057 46.8179 43.876 47.0925 43.876 47.0925Z" fill="white"/>
</g>
<g id="Group_6">
<path id="Vector_19" d="M15.8671 59.8622H14.4941L14.7687 46.2695H16.0731L15.8671 59.8622Z" fill="white"/>
<path id="Vector_20" d="M14.7002 46.2695H19.2997L19.2311 47.2993H14.7002V46.2695Z" fill="white"/>
<path id="Vector_21" d="M14.8372 53.1348H18.9562L19.0935 54.1645H14.7686L14.8372 53.1348Z" fill="white"/>
</g>
<g id="Group_7">
<path id="Vector_22" d="M23.2126 36.7276C23.2126 36.453 23.2126 35.8351 23.2126 34.2562C23.2126 29.9999 23.2126 27.2539 23.2126 27.2539H21.771C21.771 27.2539 21.771 30.2059 21.771 34.3248C21.771 35.4919 21.771 36.1784 21.771 36.6589C21.771 38.6498 22.0456 40.9839 24.5856 40.9839C26.9884 40.9839 27.4003 39.3363 27.4003 36.6589C27.4003 35.8351 27.4003 35.2859 27.4003 34.2562V27.2539L26.0273 27.3226V34.2562C26.0273 35.9038 26.0273 36.0411 26.0273 36.6589C26.0273 37.9633 26.1646 39.8855 24.5856 39.8855C23.144 39.9541 23.2126 37.2768 23.2126 36.7276Z" fill="white"/>
</g>
<g id="Group_8">
<path id="Vector_23" d="M16.279 17.9863C16.279 17.7117 16.279 17.0938 16.279 15.5149C16.279 11.2586 16.279 8.30664 16.279 8.30664H14.8374C14.8374 8.30664 14.8374 11.4645 14.8374 15.5835C14.8374 16.7506 14.8374 17.4371 14.8374 17.9176C14.8374 19.9085 15.112 22.2426 17.652 22.2426C20.0548 22.2426 20.4667 20.595 20.4667 17.9176C20.4667 17.0938 20.4667 16.5446 20.4667 15.5149V8.30664H19.0937V15.5149C19.0937 17.1625 19.0937 17.2998 19.0937 17.9176C19.0937 19.222 19.231 21.1442 17.652 21.1442C16.1417 21.2128 16.279 18.5355 16.279 17.9863Z" fill="white"/>
</g>
<g id="Group_9">
<path id="Vector_24" d="M29.4597 55.6749C29.4597 55.4003 29.4597 54.7824 29.4597 53.2035C29.4597 48.9472 29.4597 46.2012 29.4597 46.2012H28.0181C28.0181 46.2012 28.0181 49.1531 28.0181 53.2721C28.0181 54.4392 28.0181 55.1257 28.0181 55.6062C28.0181 57.5971 28.2927 59.9311 30.8327 59.9311C33.2355 59.9311 33.6474 58.2835 33.6474 55.6062C33.6474 54.7824 33.6474 54.2332 33.6474 53.2035V46.2012L32.2744 46.2698V53.2035C32.2744 54.8511 32.2744 54.9884 32.2744 55.6062C32.2744 56.9106 32.4117 58.8327 30.8327 58.8327C29.3911 58.9014 29.4597 56.2927 29.4597 55.6749Z" fill="white"/>
</g>
<g id="Group_10">
<path id="Vector_25" d="M42.6409 36.7276C42.6409 36.453 42.6409 35.8351 42.6409 34.2562C42.6409 29.9999 42.6409 27.2539 42.6409 27.2539H41.1992C41.1992 27.2539 41.1992 30.2059 41.1992 34.3248C41.1992 35.4919 41.1992 36.1784 41.1992 36.6589C41.1992 38.6498 41.4738 40.9839 44.0139 40.9839C46.4166 40.9839 46.8285 39.3363 46.8285 36.6589C46.8285 35.8351 46.8285 35.2859 46.8285 34.2562V27.2539L45.4555 27.3226V34.2562C45.4555 35.9038 45.4555 36.0411 45.4555 36.6589C45.4555 37.9633 45.5928 39.8855 44.0139 39.8855C42.5036 39.9541 42.6409 37.2768 42.6409 36.7276Z" fill="white"/>
</g>
<g id="Group_11">
<path id="Vector_26" d="M29.8716 16.8868V17.9166C32.8235 17.0241 32.4803 22.1729 32.4803 22.1729H33.8533C33.8533 22.1729 34.0592 20.7999 33.2354 18.5344C32.5489 16.6809 30.9013 16.6122 29.8716 16.8868Z" fill="white"/>
<g id="Group_12">
<path id="Vector_27" d="M29.7345 22.105H28.4302L28.8421 8.375H30.2151L29.7345 22.105Z" fill="white"/>
<path id="Vector_28" d="M29.7347 13.9352C29.7347 13.9352 33.991 14.0038 33.991 10.8459C33.991 8.92375 31.6569 8.37455 30.1466 8.3059C29.3915 8.23725 28.8423 8.3059 28.8423 8.3059V9.4043L30.1466 9.33565C30.1466 9.33565 32.6867 8.9924 32.6867 10.9832C32.6867 12.1503 31.451 12.9741 29.8034 12.9741L29.7347 13.9352Z" fill="white"/>
</g>
</g>
<g id="Group_13">
<path id="Vector_29" d="M49.6431 35.765V36.7947C52.595 35.9023 52.2518 40.9137 52.2518 40.9137H53.6248C53.6248 40.9137 53.8307 39.678 53.0069 37.3439C52.3891 35.559 50.6728 35.4904 49.6431 35.765Z" fill="white"/>
<g id="Group_14">
<path id="Vector_30" d="M49.5744 40.9152H48.27L48.6819 27.3226L49.9863 27.2539L49.5744 40.9152Z" fill="white"/>
<path id="Vector_31" d="M49.5746 32.8825C49.5746 32.8825 53.8309 32.9511 53.8309 29.7932C53.8309 27.871 51.4968 27.3218 49.9865 27.2532C49.2313 27.1845 48.6821 27.2532 48.6821 27.2532V28.3516L49.9865 28.2829C49.9865 28.2829 52.5265 27.9397 52.5265 29.9305C52.5265 31.0976 51.2908 31.9214 49.6432 31.9214L49.5746 32.8825Z" fill="white"/>
</g>
</g>
<g id="Group_15">
<path id="Vector_32" d="M29.3224 27.1855H30.6954L30.3522 40.9155H29.0479L29.3224 27.1855Z" fill="white"/>
<path id="Vector_33" d="M34.6771 40.9165L29.0479 40.9851V39.9554L34.7458 39.8867L34.6771 40.9165Z" fill="white"/>
</g>
<g id="Group_16">
<path id="Vector_34" d="M62.1374 27.1855H63.4417L63.1671 40.9155H61.8628L62.1374 27.1855Z" fill="white"/>
<path id="Vector_35" d="M67.4919 40.9165L61.7939 40.9851L61.8626 39.9554L67.4919 39.8867V40.9165Z" fill="white"/>
</g>
<g id="Group_17">
<path id="Vector_36" d="M35.9127 16.6142L38.9333 16.4082L39.0706 17.438L35.7754 17.5753L35.9127 16.6142Z" fill="white"/>
<path id="Vector_37" d="M40.3064 22.1056L38.5215 8.37558L37.0799 8.23828L34.4712 22.1056H35.5696L37.5604 11.1216H37.6977L38.8648 22.1056H40.3064Z" fill="white"/>
</g>
<g id="Group_18">
<path id="Vector_38" d="M51.7711 54.3703L54.723 54.0957L54.929 55.1255L51.6338 55.2627L51.7711 54.3703Z" fill="white"/>
<path id="Vector_39" d="M56.1646 59.8617L54.3797 46.0631L52.9381 45.9258L50.2607 59.8617H51.4278L53.4186 48.8777H53.5559L54.723 59.7931L56.1646 59.8617Z" fill="white"/>
</g>
<g id="Group_19">
<path id="Vector_40" d="M56.4391 16.6142L59.4597 16.4082L59.597 17.3693L56.3018 17.5066L56.4391 16.6142Z" fill="white"/>
<path id="Vector_41" d="M60.9015 22.1056L59.0479 8.37558L57.6063 8.23828L54.9976 22.1056H56.096L58.0868 11.1216H58.2241L59.3912 22.1056H60.9015Z" fill="white"/>
</g>
<g id="Group_20">
<path id="Vector_42" d="M55.9586 35.4911L58.9105 35.2852L59.0478 36.3149L55.8213 36.4522L55.9586 35.4911Z" fill="white"/>
<path id="Vector_43" d="M60.3521 40.9825L58.5672 27.2525L57.1256 27.1152L54.4482 40.9825H55.6153L57.5375 29.9985H57.6748L58.9105 40.9825H60.3521Z" fill="white"/>
</g>
<path id="Vector_44" d="M75.2495 46.1328L79.5058 57.3227L79.0252 46.1328H80.055L80.5355 59.8628H79.0939L74.9062 48.3983L75.0435 59.7941L74.0824 59.8628L73.8765 46.1328H75.2495Z" fill="white"/>
<path id="Vector_45" d="M36.9428 46.1328L41.1991 57.3227L40.7872 46.1328H41.7483L42.2289 59.8628H40.8559L36.5996 48.3983L36.8055 59.7941L35.7758 59.8628L35.5698 46.1328H36.9428Z" fill="white"/>
<path id="Vector_46" d="M26.3709 52.5856C26.3709 51.6932 26.3022 50.938 26.3022 50.4575V50.3202C26.3022 50.2515 26.3022 50.1829 26.3022 50.1142C26.0963 47.5742 25.5471 46.2012 23.4189 46.2012C21.4967 46.2012 20.8102 47.5742 20.6043 50.1142C20.5356 51.0067 20.5356 51.6245 20.5356 52.5856V52.9289C20.5356 53.2035 20.5356 53.4094 20.5356 53.6154C20.5356 54.5078 20.6043 55.263 20.6043 55.7435V55.8808C20.6043 55.9495 20.6043 56.0181 20.6043 56.0868C20.8102 58.6268 21.3594 59.9998 23.4876 59.9998C25.4098 59.9998 26.0963 58.6268 26.3022 56.0868C26.3709 55.1943 26.3709 54.5765 26.3709 53.6154V53.2721C26.3709 53.0662 26.3709 52.7916 26.3709 52.5856ZM23.4189 58.6268C22.2519 58.6268 22.0459 57.0478 21.9086 56.0868C21.9086 56.0868 21.84 54.5078 21.84 52.9289C21.84 51.4872 21.9086 50.0456 21.9086 49.9769C22.0459 48.6726 22.1832 47.4369 23.3503 47.4369C24.5173 47.4369 24.7233 49.0158 24.8606 49.9769C24.8606 49.9769 24.9292 51.4872 24.9292 52.9975C24.9292 54.5078 24.8606 56.0181 24.8606 56.0868C24.7919 57.4597 24.586 58.6268 23.4189 58.6268Z" fill="white"/>
</g>
</g>
<defs>
<clipPath id="clip0_544_2114">
<rect width="92.746" height="60" fill="white" transform="translate(0.626953)"/>
</clipPath>
</defs>
</svg>
