<svg width="60" height="60" viewBox="0 0 60 60" fill="none" xmlns="http://www.w3.org/2000/svg">
<circle cx="30" cy="30" r="30" fill="#CFE8D0"/>
<g clip-path="url(#clip0_834_2433)">
<path d="M44.3674 32.167C41.8701 25.3057 36.3262 29.0503 34.3839 23.7138C34.2229 23.2716 34.0426 22.909 33.8477 22.6156C32.4667 20.0689 29.8858 18.5616 27.3208 18.7492C27.3076 18.6458 27.2827 18.5442 27.2468 18.4463C26.9583 17.6535 26.0363 17.2552 25.1977 17.5604C24.3591 17.8656 23.9088 18.7634 24.1974 19.5562C24.2335 19.6553 24.2797 19.749 24.3354 19.8358C21.9968 21.5227 21.0125 24.8578 22.1021 28.0268L22.1511 28.1661C24.0934 33.5026 17.4396 34.1977 19.9369 41.0589C20.5978 42.8749 25.2139 42.9145 30.7955 41.3181C31.2331 41.7122 31.7697 41.9798 32.3478 42.0923C32.9259 42.2047 33.5237 42.1576 34.0771 41.9562C34.6305 41.7548 35.1186 41.4066 35.4892 40.9489C35.8598 40.4912 36.0989 39.9412 36.1808 39.3581C41.4816 36.9953 44.9932 33.9956 44.3323 32.1797L44.3262 32.1629L44.3674 32.167ZM40.0899 35.1829C38.9239 35.9975 37.4911 36.8004 35.9066 37.5326C35.5624 36.7988 34.9562 36.2204 34.2071 35.911C33.458 35.6017 32.6202 35.5839 31.8586 35.8611C31.097 36.1383 30.4667 36.6904 30.0917 37.4089C29.7167 38.1274 29.6241 38.9602 29.8321 39.7435C28.1477 40.2012 26.534 40.507 25.1172 40.6325C23.1668 40.8054 22.1229 40.5845 21.7086 40.4141C21.9164 40.0173 22.5741 39.177 24.1793 38.0557C26.0459 36.7513 28.5946 35.48 31.3543 34.4756C34.1141 33.4711 36.8836 32.8067 39.152 32.6061C41.1024 32.4332 42.1463 32.6542 42.5606 32.8246C42.3528 33.2214 41.6951 34.0616 40.0899 35.1829Z" fill="#01594D"/>
</g>
<defs>
<clipPath id="clip0_834_2433">
<rect width="28" height="28" fill="white" transform="translate(16 16)"/>
</clipPath>
</defs>
</svg>
