<svg width="60" height="60" viewBox="0 0 60 60" fill="none" xmlns="http://www.w3.org/2000/svg">
<circle cx="30" cy="30" r="30" fill="#CFE8D0"/>
<path d="M28.7632 18.6247C29.0914 18.2966 29.5364 18.1123 30.0005 18.1123C30.4645 18.1123 30.9096 18.2966 31.2377 18.6247L35.2505 22.6374V20.3747C35.2505 20.1426 35.3427 19.9201 35.5068 19.756C35.6709 19.5919 35.8934 19.4997 36.1255 19.4997H37.8755C38.1076 19.4997 38.3301 19.5919 38.4942 19.756C38.6583 19.9201 38.7505 20.1426 38.7505 20.3747V26.1374L42.87 30.2552C43.0341 30.4195 43.1261 30.6422 43.126 30.8744C43.1258 31.1066 43.0334 31.3292 42.8691 31.4933C42.7048 31.6574 42.4821 31.7495 42.2499 31.7493C42.0177 31.7491 41.7951 31.6567 41.631 31.4924L30.0005 19.8619L18.37 31.4924C18.2059 31.6567 17.9833 31.7491 17.7511 31.7493C17.5189 31.7495 17.2962 31.6574 17.1319 31.4933C16.9676 31.3292 16.8752 31.1066 16.875 30.8744C16.8748 30.6422 16.9669 30.4195 17.131 30.2552L28.7632 18.6247Z" fill="#01594D"/>
<path d="M40.5 32.2627L30 21.7627L19.5 32.2627V39.6249C19.5 40.3211 19.7766 40.9888 20.2688 41.4811C20.7611 41.9734 21.4288 42.2499 22.125 42.2499H37.875C38.5712 42.2499 39.2389 41.9734 39.7312 41.4811C40.2234 40.9888 40.5 40.3211 40.5 39.6249V32.2627ZM30 30.8434C32.912 27.9157 40.1938 33.0379 30 39.6249C19.8063 33.0379 27.088 27.9157 30 30.8434Z" fill="#01594D"/>
</svg>
