<svg width="20" height="21" viewBox="0 0 20 21" fill="none" xmlns="http://www.w3.org/2000/svg">
<g id="material-symbols:mail">
<path id="Vector" d="M3.6 17C3.16 17 2.7832 16.8407 2.4696 16.5222C2.156 16.2037 1.99947 15.8213 2 15.375V5.625C2 5.17813 2.1568 4.79544 2.4704 4.47694C2.784 4.15844 3.16053 3.99946 3.6 4H16.4C16.84 4 17.2168 4.15925 17.5304 4.47775C17.844 4.79625 18.0005 5.17867 18 5.625V15.375C18 15.8219 17.8432 16.2046 17.5296 16.5231C17.216 16.8416 16.8395 17.0005 16.4 17H3.6ZM10 11.3125L16.4 7.25V5.625L10 9.6875L3.6 5.625V7.25L10 11.3125Z" fill="#01594D"/>
</g>
</svg>
