<svg width="189" height="380" viewBox="0 0 189 380" fill="none" xmlns="http://www.w3.org/2000/svg">
<g opacity="0.2" clip-path="url(#clip0_853_5735)">
<path fill-rule="evenodd" clip-rule="evenodd" d="M156.711 82.1622L189.578 115.123L222.207 82.1622L207.202 44.4249L202.201 31.7662L189.578 0L176.717 31.7662L171.715 44.4249L156.711 82.1622ZM292.943 86.2234C306.519 99.5987 316.998 115.362 324.381 132.798C327.716 140.919 330.335 149.278 332.241 157.876L345.578 163.131C334.146 96.7326 281.987 44.4258 216.015 33.2002L221.255 46.5754C229.829 48.4862 238.403 51.1135 246.5 54.6961C263.887 62.1003 279.606 72.8482 292.943 86.2234ZM199.103 124.677L196.245 127.543V173.64L227.207 142.351V96.2544L199.103 124.677ZM156.948 147.845L151.708 142.351V96.2544L179.812 124.677L182.67 127.543V173.64L166.474 157.398L156.948 147.845ZM251.741 183.194L254.599 180.328L282.941 152.144H236.975L231.497 157.399L221.97 166.952L205.775 183.194H251.741ZM173.145 196.808H127.178L96.4545 227.618H142.421L173.145 196.808ZM182.67 206.362V252.459L151.708 283.747V237.411L156.948 232.157L166.474 222.603L182.67 206.362ZM196.245 206.362V252.459L199.103 255.325L227.207 283.747V237.65L221.967 232.157L212.441 222.603L196.245 206.362ZM231.495 222.603L221.968 213.049L205.773 196.807H251.739L254.597 199.674L282.463 227.618H236.497L231.495 222.603ZM147.422 157.399L142.183 152.144H95.9781L127.178 183.194H173.145L156.949 166.952L147.422 157.399ZM241.024 96.4932H282.941V138.53H241.024V96.4932ZM138.373 96.4932H96.4555V138.53H138.373V96.4932ZM241.024 241.232H282.941V283.269H241.024V241.232ZM138.373 241.232H96.4555V283.269H138.373V241.232ZM54.7762 247.203C62.1594 264.639 72.6388 280.403 86.2144 293.778C99.7899 307.153 115.271 317.901 132.657 325.305C140.755 328.888 149.329 331.515 157.903 333.426L163.143 346.801C96.6938 335.576 44.0587 282.791 33.103 216.154L46.4403 221.647C48.3457 230.007 51.2037 238.605 54.7762 247.203ZM246.5 325.065C263.887 317.661 279.606 307.152 292.943 293.538C306.28 279.924 316.998 264.638 324.381 247.202C327.954 238.843 330.574 230.245 332.479 221.407L345.816 215.914C334.861 282.79 282.464 335.575 215.777 346.8L221.016 333.425C229.829 331.275 238.164 328.648 246.5 325.065ZM85.9762 86.2234C99.3136 72.6094 115.033 62.1003 132.419 54.6961C140.755 51.3523 149.091 48.725 157.903 46.5754L163.143 33.2002C96.9319 44.187 44.535 96.4937 33.3411 162.892L46.6785 157.638C48.5838 149.278 51.2037 140.919 54.538 132.798C61.9212 115.362 72.6388 99.5987 85.9762 86.2234ZM296.756 222.604L264.127 189.883L297.232 156.922L334.625 171.731L347.248 176.746L378.924 189.166L347.486 202.064L334.863 207.318L296.756 222.604ZM31.6722 176.746L44.2951 171.731L81.6875 156.922L114.793 189.883L82.1638 222.604L44.2951 207.318L31.6722 202.064L-0.00411987 189.405L31.6722 176.746ZM222.207 297.838L189.578 264.878L156.711 297.838L171.715 335.576L176.717 348.234L189.578 380L202.201 348.234L207.202 335.576L222.207 297.838Z" fill="url(#paint0_linear_853_5735)"/>
</g>
<defs>
<linearGradient id="paint0_linear_853_5735" x1="189.452" y1="190.548" x2="459.942" y2="190.548" gradientUnits="userSpaceOnUse">
<stop stop-color="#01594D"/>
<stop offset="1" stop-color="#01594D" stop-opacity="0"/>
</linearGradient>
<clipPath id="clip0_853_5735">
<rect width="380" height="380" fill="white" transform="matrix(-1 0 0 1 380 0)"/>
</clipPath>
</defs>
</svg>
