<svg width="190" height="380" viewBox="0 0 190 380" fill="none" xmlns="http://www.w3.org/2000/svg">
<g opacity="0.2" clip-path="url(#clip0_853_5757)">
<path fill-rule="evenodd" clip-rule="evenodd" d="M33.2891 82.1622L0.421951 115.123L-32.207 82.1622L-17.2025 44.4249L-12.201 31.7662L0.421951 0L13.283 31.7662L18.2845 44.4249L33.2891 82.1622ZM-102.943 86.2234C-116.519 99.5987 -126.998 115.362 -134.381 132.798C-137.716 140.919 -140.335 149.278 -142.241 157.876L-155.578 163.131C-144.146 96.7326 -91.9873 44.4258 -26.0148 33.2002L-31.2545 46.5754C-39.8286 48.4862 -48.4026 51.1135 -56.5003 54.6961C-73.8866 62.1003 -89.6056 72.8482 -102.943 86.2234ZM-9.10323 124.677L-6.24522 127.543V173.64L-37.207 142.351V96.2544L-9.10323 124.677ZM33.0524 147.845L38.2921 142.351V96.2544L10.1882 124.677L7.33025 127.543V173.64L23.5257 157.398L33.0524 147.845ZM-61.7414 183.194L-64.5994 180.328L-92.9414 152.144H-46.975L-41.4971 157.399L-31.9704 166.952L-15.775 183.194H-61.7414ZM16.8555 196.808H62.8218L93.5455 227.618H47.5791L16.8555 196.808ZM7.33025 206.362V252.459L38.2921 283.747V237.411L33.0524 232.157L23.5257 222.603L7.33025 206.362ZM-6.24522 206.362V252.459L-9.10323 255.325L-37.207 283.747V237.65L-31.9673 232.157L-22.4406 222.603L-6.24522 206.362ZM-41.4951 222.603L-31.9684 213.049L-15.7729 196.807H-61.7393L-64.5974 199.674L-92.463 227.618H-46.4966L-41.4951 222.603ZM42.5776 157.399L47.8173 152.144H94.0219L62.8219 183.194H16.8555L33.0509 166.952L42.5776 157.399ZM-51.0239 96.4932H-92.9414V138.53H-51.0239V96.4932ZM51.627 96.4932H93.5445V138.53H51.627V96.4932ZM-51.0239 241.232H-92.9414V283.269H-51.0239V241.232ZM51.627 241.232H93.5445V283.269H51.627V241.232ZM135.224 247.203C127.841 264.639 117.361 280.403 103.786 293.778C90.2101 307.153 74.7292 317.901 57.3429 325.305C49.2452 328.888 40.6712 331.515 32.0971 333.426L26.8574 346.801C93.3062 335.576 145.941 282.791 156.897 216.154L143.56 221.647C141.654 230.007 138.796 238.605 135.224 247.203ZM-56.5003 325.065C-73.8866 317.661 -89.6056 307.152 -102.943 293.538C-116.28 279.924 -126.998 264.638 -134.381 247.202C-137.954 238.843 -140.574 230.245 -142.479 221.407L-155.816 215.914C-144.861 282.79 -92.4637 335.575 -25.7767 346.8L-31.0164 333.425C-39.8286 331.275 -48.1644 328.648 -56.5003 325.065ZM104.024 86.2234C90.6864 72.6094 74.9673 62.1003 57.5811 54.6961C49.2452 51.3523 40.9093 48.725 32.0971 46.5754L26.8574 33.2002C93.0681 44.187 145.465 96.4937 156.659 162.892L143.322 157.638C141.416 149.278 138.796 140.919 135.462 132.798C128.079 115.362 117.361 99.5987 104.024 86.2234ZM-106.756 222.604L-74.1269 189.883L-107.232 156.922L-144.625 171.731L-157.248 176.746L-188.924 189.166L-157.486 202.064L-144.863 207.318L-106.756 222.604ZM158.328 176.746L145.705 171.731L108.313 156.922L75.2072 189.883L107.836 222.604L145.705 207.318L158.328 202.064L190.004 189.405L158.328 176.746ZM-32.207 297.838L0.421951 264.878L33.2891 297.838L18.2845 335.576L13.283 348.234L0.421951 380L-12.201 348.234L-17.2025 335.576L-32.207 297.838Z" fill="url(#paint0_linear_853_5757)"/>
</g>
<defs>
<linearGradient id="paint0_linear_853_5757" x1="0.547658" y1="190.548" x2="-269.942" y2="190.548" gradientUnits="userSpaceOnUse">
<stop stop-color="#01594D"/>
<stop offset="1" stop-color="#01594D" stop-opacity="0"/>
</linearGradient>
<clipPath id="clip0_853_5757">
<rect width="380" height="380" fill="white" transform="translate(-190)"/>
</clipPath>
</defs>
</svg>
