<svg width="20" height="21" viewBox="0 0 20 21" fill="none" xmlns="http://www.w3.org/2000/svg">
<g id="TelephoneFill">
<path id="Vector" fill-rule="evenodd" clip-rule="evenodd" d="M3.88541 3.51019C4.06038 3.33547 4.27048 3.19994 4.50179 3.11257C4.7331 3.02519 4.98033 2.98798 5.22711 3.00339C5.47389 3.01881 5.71457 3.08649 5.93321 3.20197C6.15185 3.31744 6.34346 3.47807 6.49533 3.6732L8.29027 5.97931C8.61926 6.40233 8.73526 6.95335 8.60526 7.47338L8.05828 9.66348C8.03 9.77691 8.03153 9.89573 8.06272 10.0084C8.0939 10.1211 8.15369 10.2238 8.23628 10.3065L10.6932 12.7636C10.776 12.8464 10.8789 12.9063 10.9917 12.9375C11.1046 12.9687 11.2236 12.9701 11.3372 12.9416L13.5261 12.3946C13.7827 12.3304 14.0506 12.3255 14.3094 12.38C14.5682 12.4346 14.8112 12.5473 15.0201 12.7096L17.326 14.5037C18.155 15.1487 18.231 16.3738 17.489 17.1148L16.455 18.1489C15.715 18.8889 14.6091 19.2139 13.5781 18.8509C10.9394 17.9224 8.54354 16.4116 6.56833 14.4307C4.58768 12.4556 3.07705 10.06 2.14847 7.42137C1.78648 6.39133 2.11147 5.28428 2.85144 4.54424L3.88541 3.51019Z" fill="#01594D"/>
</g>
</svg>
