<svg width="512" height="360" viewBox="0 0 512 360" fill="none" xmlns="http://www.w3.org/2000/svg">
<g clip-path="url(#clip0_862_7132)">
<rect width="512" height="360" rx="12" fill="#01594D"/>
<g opacity="0.2">
<path d="M403.762 61C401.417 58.1908 404.843 52.0458 409.171 49.9389C414.582 47.3053 414.04 46.7786 417.286 41.5114C420.532 36.2443 429.189 30.4504 426.484 23.6031C424.32 18.1252 420.894 0.251908 419.451 -8" stroke="#CFE8D0" stroke-width="2"/>
<path d="M419 -3C417 -0.037879 413 6.93182 413 11.1136C413 15.2955 414.818 34.1136 415.727 43" stroke="#CFE8D0" stroke-width="2"/>
<path d="M-11 88.0754C-2.99179 87.7298 14.1736 87.557 18.7697 89.6307C24.5147 92.223 30.782 80.2992 37.0493 80.8176C43.3166 81.336 88.7545 78.2251 92.9327 78.7436C97.1109 79.262 108.079 84.4467 111.212 84.9651C114.346 85.4836 127.925 84.4467 128.97 80.8175C129.805 77.9143 158.913 80.9904 173.363 82.8913C176.671 81.1632 183.913 78.0179 186.42 79.2622C189.553 80.8175 196.343 73.0409 198.954 68.3749C201.566 63.7089 199.477 56.4506 199.999 52.8215C200.521 49.1924 207.311 43.4895 204.177 38.3051C201.044 33.1206 201.044 30.0104 197.91 24.826C193.035 22.061 183.286 16.2198 183.286 14.9755C183.286 13.4202 199.477 3.56976 199.999 1.49598C200.521 -0.577802 199.477 -12.502 202.61 -11.9836" stroke="#CFE8D0" stroke-width="2"/>
<path d="M113.449 86C114.32 90.6843 115.643 100.365 113.971 101.614C111.882 103.176 103 108.38 103 109.942C103 111.503 108.747 121.392 108.224 122.954C107.702 124.515 107.18 128.679 108.224 130.24C109.269 131.802 117.106 136.486 117.106 139.609C117.106 142.732 114.494 150.018 115.016 151.58C116.061 156.784 116.061 168.235 113.971 168.235C111.882 168.235 108.224 167.194 109.269 169.796C110.314 172.398 107.702 186.972 107.18 189.054C106.657 191.135 113.449 210.393 116.061 211.434C118.673 212.475 120.763 209.873 121.286 211.954C121.808 214.036 132.78 227.569 136.437 230.691C140.094 233.814 147.931 233.814 151.065 237.458C154.2 241.101 165.694 250.469 169.351 250.99C173.008 251.51 191.816 250.469 192.861 252.031C195.369 255.362 198.086 255.154 199.131 254.633C200.872 256.368 204.669 260.879 205.922 265.043C207.49 270.247 213.237 294.71 216.894 297.312C220.551 299.914 232.567 311.365 234.657 310.324C236.747 309.283 255.555 307.201 260.257 308.762C264.959 310.324 268.616 309.803 272.273 312.926C275.931 316.049 303.62 339.47 306.233 341.032C308.845 342.593 332.355 357.687 337.057 357.687C341.759 357.687 342.282 356.646 342.804 357.687C343.065 358.207 344.371 365.494 348.551 364.973C352.731 364.453 359.784 356.125 361.09 356.125C363.702 356.125 367.882 359.248 372.584 359.769C377.286 360.289 395.571 348.839 398.184 349.88C400.796 350.921 409.678 350.921 410.722 352.482C416.469 356.125 430.053 358.207 431.62 356.125C433.188 354.043 439.98 348.318 442.069 348.839C444.159 349.359 464.535 346.757 468.714 347.798C472.894 348.839 485.955 353.523 487 354.043" stroke="#CFE8D0" stroke-width="2"/>
<path d="M191 79.7445C201.91 86.489 203.988 90.1207 211.261 88.5643C218.535 87.0078 250.745 83.3762 256.459 87.5267C262.174 91.6771 268.928 100.497 275.162 99.9781C281.396 99.4593 292.826 89.6019 297.501 88.5643C301.242 87.7342 343.392 77.8422 364 73" stroke="#CFE8D0" stroke-width="2"/>
<path d="M336.204 -8C332.561 10.8072 315.388 22.3004 315.388 28.5695C315.388 34.8386 320.071 36.4058 318.51 42.6749C317.261 47.6901 313.133 48.5957 310.704 52.0785C308.102 56.2578 312.384 63.0732 307.061 62.0045C301.857 60.9596 297.173 73.4978 295.612 79.7668C294.051 86.0359 289.367 92.8274 285.204 94.3946M280 100.141C280.52 105.365 286.245 119.993 284.163 125.217C282.082 130.442 288.327 132.009 286.245 134.621C284.163 137.233 283.122 141.413 285.724 142.98C288.327 144.547 291.449 145.592 291.449 148.204C291.449 150.294 291.102 154.996 290.929 157.085L294.571 159.175C293.184 162.135 291.241 168.474 294.571 170.146C297.902 171.817 304.98 174.673 308.102 175.892C312.786 178.504 322.465 184.251 323.714 186.341C325.276 188.953 331 202.536 336.724 203.058C342.449 203.581 362.224 213.507 365.347 216.641C368.469 219.776 378.357 220.821 382 225" stroke="#CFE8D0" stroke-width="2"/>
<path d="M402 61C400.43 60.4773 381.595 44.7955 376.363 44.7955C371.131 44.7955 355.436 45.3182 351.25 43.75C347.064 42.1818 314.626 31.2045 311.487 28.0682C308.348 24.9318 310.441 20.2273 307.302 19.7045C304.162 19.1818 266.492 15 261.26 15C256.028 15 222.021 28.0682 219.928 27.0227C218.254 26.1864 205.278 25.2803 199 24.9318" stroke="#CFE8D0" stroke-width="2"/>
<path d="M184 13.9503C178.417 13.076 166.203 11.2225 162.016 10.8029C156.781 10.2783 147.359 1.36052 142.648 1.36052C137.938 1.36052 127.469 3.98339 125.375 6.08169C123.7 7.76033 117.698 6.43141 114.906 5.55712C114.906 3.80853 113.859 0.311369 109.672 0.311369C104.438 0.311369 90.8281 -5.98353 86.1172 -3.36065C81.4062 -0.73778 79.3125 5.03252 73.0312 6.60625C66.75 8.17997 54.7109 6.08167 49.4766 9.22912C44.2422 12.3766 32.7266 17.6223 28.0156 18.6715C23.3047 19.7206 9.69531 25.4909 6.03125 24.9664C3.1 24.5467 -10.5443 21.9938 -17 20.7698" stroke="#CFE8D0" stroke-width="2"/>
<path d="M395 63C391.859 76.0426 392.382 86.9984 388.717 89.6069C385.053 92.2154 382.958 102.649 379.294 104.215C375.629 105.78 370.393 106.823 368.823 108.91C367.252 110.997 364.634 117.257 363.587 120.387C362.54 123.518 369.346 125.083 367.252 129.256C365.577 132.595 358.177 147.69 354.687 154.82C352.942 154.646 349.452 154.924 349.452 157.428C348.405 164.732 338.457 170.471 336.887 173.601C335.316 176.731 332.175 191.861 332.698 196.034C333.222 200.208 334.268 215.337 331.65 217.424C329.033 219.511 331.127 225.25 330.08 228.38C329.033 231.51 320.132 248.205 320.656 251.857C318.562 261.247 317.515 263.334 312.28 269.073C307.044 274.812 298.667 275.333 296.05 275.855C293.432 276.377 287.149 286.289 284.008 287.854C280.867 289.419 263.59 304.549 258.878 307.679C254.166 310.809 253.119 321.765 247.884 322.808C242.648 323.852 232.177 325.417 232.177 332.721C232.177 340.025 235.842 342.633 229.036 345.242C230.781 343.329 232.282 340.025 224.324 342.111C214.377 344.72 209.665 347.328 206 345.242" stroke="#CFE8D0" stroke-width="2"/>
<path d="M125 229.5C115.5 228.5 113.5 230.5 111 228.5C108.5 226.5 110.5 222 105 223C99.5 224 94.5 220.999 90.5 221.999C86.5 222.999 78.5 226.5 77 223.5C75.5 220.5 78 220.5 71.5 220.5C65 220.5 59 220.5 57 218.5C45 214.5 34 211 30.5 212.5C27 214 -4.5 229.5 -11 230.5" stroke="#CFE8D0" stroke-width="2"/>
<path d="M19 218C29 222.5 28.5 220 33 222.5C37.5 225 47.5 233.5 51.5 237.5C55.5 241.5 54 252.5 59 254.5C63 256.1 67.3333 259.5 69 261" stroke="#CFE8D0" stroke-width="2"/>
<path d="M134.5 230C135 237.5 132 242 134.5 246.5C137 251 140.5 252 139 258C137.5 264 133.5 265 136 270C138.5 275 141 283.5 140.5 287.5C140 291.5 145 293.5 147 291.5C149 289.5 158 296.5 162 297C166 297.5 163.5 304.5 168.5 307.5C172.5 309.9 182.5 313.167 187 314.5C188.667 322 193 337.3 197 338.5C201 339.7 202.667 343 203 344.5" stroke="#CFE8D0" stroke-width="2"/>
<path d="M229.5 310C226.833 317.833 220.6 334 217 336C212.5 338.5 205 341.5 201 346.5C197 351.5 192 350.5 190 354C188.4 356.8 185.333 363.5 184 366.5" stroke="#CFE8D0" stroke-width="2"/>
<path d="M312 270.5C315 269 321.9 266.4 325.5 268C330 270 334 275.5 339 273.5C343 271.9 349.667 269.5 352.5 268.5C353 264.167 355 255.7 359 256.5C363 257.3 375.333 258.167 381 258.5" stroke="#CFE8D0" stroke-width="2"/>
<path d="M365.5 21.5C361.5 30.5 361 35.5 361.5 42C362 48.5 361.5 55 361.5 60C361.5 64 363.5 70 364.5 72.5" stroke="#CFE8D0" stroke-width="2"/>
<path d="M403.238 63C406.924 76.049 403.765 74.4831 403.238 79.7027C402.712 84.9223 402.712 111.02 403.238 113.63C403.765 116.24 402.185 129.289 400.606 137.64C399.026 145.992 392.182 172.611 394.288 177.309C396.394 182.007 398.5 184.617 394.814 190.358C391.129 196.1 392.182 202.363 391.655 206.017C391.129 209.671 383.756 210.715 382.177 216.978C380.597 223.242 384.81 233.159 387.443 234.725C390.075 236.291 390.6 238.9 385.335 243.076C380.069 247.252 381.123 258.213 380.069 270.74C379.016 283.267 375.332 281.701 376.385 289.53C377.438 297.36 357.955 330.243 358.482 339.639C358.903 347.155 344.266 367.824 339 372" stroke="#CFE8D0" stroke-width="2"/>
<path d="M359 335.154C363.188 332.559 369.469 325.294 371.563 324.256C373.657 323.218 383.079 311.801 387.791 311.801C392.502 311.801 405.588 310.244 407.682 309.206C409.776 308.168 427.051 290.005 430.191 291.043C433.332 292.081 443.801 292.08 445.895 297.27C447.989 302.46 456.888 318.547 458.982 318.547C461.076 318.547 468.928 314.915 468.928 316.99C468.928 319.066 468.404 326.851 469.975 328.926C471.545 331.002 474.162 331.521 474.162 334.116C474.162 336.711 473.116 339.825 474.162 339.825C475.209 339.825 489.343 350.204 488.819 353.318C488.296 356.431 488.296 360.064 489.343 361.102C490.181 361.932 499.463 368.713 504 372" stroke="#CFE8D0" stroke-width="2"/>
<path d="M409.5 67C418 82 428 104 436 105.5C444 107 449.5 111.5 454.5 117C459.5 122.5 471.5 130.5 474.5 136C477.5 141.5 488 147 489 156C490 165 486.5 171 489 175.5C491.5 180 486.5 187 489.5 193C491.9 197.8 507.833 209.667 515.5 215" stroke="#CFE8D0" stroke-width="2"/>
<path d="M412 61C423.5 65 421.5 60 427.5 65.5C433.5 71 433.5 76 438.5 75C443.5 74 449 66 458.5 71C468 76 474 79 482 81.5C488.4 83.5 505.667 87 513.5 88.5" stroke="#CFE8D0" stroke-width="2"/>
<path d="M441 32C446 37 449.5 34 449.5 45.5C449.5 54.7 449.5 66.6667 449.5 71.5" stroke="#CFE8D0" stroke-width="2"/>
<path d="M449.5 19.0003C457 20.3336 473 23.0003 477 23.0003C482 23.0003 495.5 14.5003 503.5 17.0003C509.9 19.0003 517.833 24.5001 521 27M490 170C491.333 169 494.4 166.2 496 163C498 159 499.5 155.5 496.5 152C493.5 148.5 499 138 494 138C489 138 502 138 503 134.5C504 131 497.5 129.5 500.5 127.5C502.9 125.9 513.5 108.833 518.5 100.5" stroke="#CFE8D0" stroke-width="2"/>
<path d="M470.501 -1.5C459.001 5 448.001 5 449.501 9C451.001 13 450.5 21 445 27C439.5 33 425 33 423 36" stroke="#CFE8D0" stroke-width="2"/>
</g>
<path d="M405 62.4009C404.577 61.5664 403.056 60.2313 400.352 61.5664C396.971 63.2353 362.321 70.7453 361.475 73.6658C360.63 76.5864 363.166 78.6725 360.63 80.7586C358.095 82.8448 355.982 84.0964 353.869 86.5998C351.756 89.1031 347.953 98.282 344.995 97.0304C342.037 95.7787 332.622 102.6 330.628 103.289C322.176 106.209 314.919 111.507 312.457 121.229C312.035 122.898 303.583 121.229 296.4 120.395L244.846 137.918C242.452 140.839 237.156 146.68 235.127 146.68C232.592 146.68 226.253 160.031 223.718 160.031C221.183 160.031 182.529 183.593 180.616 185.482C176.813 189.237 137.085 226.509 130.33 226.787C120.188 227.204 82.1573 255.575 64.4094 263.085C61.0288 270.039 59.7287 277.421 57.178 281.198C55.4876 283.701 61.2656 301.389 69.1899 294.09C75.7366 288.061 70.5739 308.658 72.8457 308.529C76.0118 308.351 58.4934 317.324 53 324" stroke="#CFE8D0" stroke-width="3"/>
<circle cx="407" cy="62" r="7" fill="#FBFBFB"/>
<path d="M422.557 72V70.488C423.013 70.488 423.409 70.26 423.745 69.804C424.105 69.324 424.321 68.652 424.393 67.788L425.545 50.724H436.057V72H433.285V52.74H428.281L427.129 68.544C427.105 68.88 427.057 69.252 426.985 69.66C426.937 70.044 426.817 70.404 426.625 70.74C426.457 71.076 426.181 71.364 425.797 71.604C425.437 71.844 424.921 71.976 424.249 72H422.557ZM438.854 72V54.252H441.59V59.796H445.046C446.078 59.796 446.906 59.952 447.53 60.264C448.154 60.576 448.61 61.056 448.898 61.704C449.186 62.352 449.33 63.192 449.33 64.224V66.132C449.33 67.188 449.246 68.088 449.078 68.832C448.91 69.576 448.646 70.188 448.286 70.668C447.95 71.124 447.494 71.46 446.918 71.676C446.342 71.892 445.622 72 444.758 72H438.854ZM441.59 70.488H444.146C444.866 70.488 445.394 70.356 445.73 70.092C446.066 69.828 446.294 69.456 446.414 68.976C446.534 68.496 446.594 67.956 446.594 67.356V64.692C446.594 64.116 446.546 63.588 446.45 63.108C446.354 62.628 446.138 62.244 445.802 61.956C445.466 61.668 444.914 61.524 444.146 61.524H441.59V70.488ZM452.18 72V54.18H458.804C460.1 54.18 461.12 54.48 461.864 55.08C462.608 55.656 462.98 56.556 462.98 57.78V59.076C462.98 60.204 462.668 61.08 462.044 61.704C461.42 62.328 460.58 62.664 459.524 62.712V62.676C460.604 62.676 461.504 62.988 462.224 63.612C462.944 64.212 463.304 65.196 463.304 66.564V67.572C463.304 68.772 463.1 69.696 462.692 70.344C462.308 70.992 461.756 71.436 461.036 71.676C460.316 71.892 459.464 72 458.48 72H452.18ZM455.06 70.524H457.796C458.324 70.524 458.768 70.452 459.128 70.308C459.512 70.164 459.8 69.888 459.992 69.48C460.208 69.072 460.316 68.472 460.316 67.68V66.204C460.316 65.556 460.196 65.064 459.956 64.728C459.716 64.368 459.392 64.116 458.984 63.972C458.6 63.828 458.144 63.756 457.616 63.756H455.06V70.524ZM455.06 61.884H457.616C458.48 61.884 459.128 61.68 459.56 61.272C459.992 60.864 460.208 60.228 460.208 59.364V57.816C460.208 57.168 460.004 56.676 459.596 56.34C459.188 55.98 458.672 55.8 458.048 55.8H455.06V61.884ZM466.496 72V54.18H469.196V72H466.496ZM467.828 52.02C467.444 52.02 467.108 51.888 466.82 51.624C466.532 51.336 466.388 51 466.388 50.616C466.388 50.208 466.532 49.872 466.82 49.608C467.108 49.344 467.444 49.212 467.828 49.212C468.236 49.212 468.584 49.344 468.872 49.608C469.184 49.872 469.34 50.208 469.34 50.616C469.34 51 469.184 51.336 468.872 51.624C468.584 51.888 468.236 52.02 467.828 52.02ZM472.395 72V54.18H479.019C480.315 54.18 481.335 54.48 482.079 55.08C482.823 55.656 483.195 56.556 483.195 57.78V59.076C483.195 60.204 482.883 61.08 482.259 61.704C481.635 62.328 480.795 62.664 479.739 62.712V62.676C480.819 62.676 481.719 62.988 482.439 63.612C483.159 64.212 483.519 65.196 483.519 66.564V67.572C483.519 68.772 483.315 69.696 482.907 70.344C482.523 70.992 481.971 71.436 481.251 71.676C480.531 71.892 479.679 72 478.695 72H472.395ZM475.275 70.524H478.011C478.539 70.524 478.983 70.452 479.343 70.308C479.727 70.164 480.015 69.888 480.207 69.48C480.423 69.072 480.531 68.472 480.531 67.68V66.204C480.531 65.556 480.411 65.064 480.171 64.728C479.931 64.368 479.607 64.116 479.199 63.972C478.815 63.828 478.359 63.756 477.831 63.756H475.275V70.524ZM475.275 61.884H477.831C478.695 61.884 479.343 61.68 479.775 61.272C480.207 60.864 480.423 60.228 480.423 59.364V57.816C480.423 57.168 480.219 56.676 479.811 56.34C479.403 55.98 478.887 55.8 478.263 55.8H475.275V61.884Z" fill="#FBFBFB"/>
<path fill-rule="evenodd" clip-rule="evenodd" d="M45.9358 310.688C47.9643 308.7 50.7157 307.583 53.5845 307.583C56.4533 307.583 59.2046 308.7 61.2332 310.688C63.2618 312.676 64.4014 315.372 64.4014 318.184C64.4014 326.134 53.5845 337.87 53.5845 337.87C53.5845 337.87 42.7676 326.134 42.7676 318.184C42.7676 315.372 43.9072 312.676 45.9358 310.688ZM57.6596 315.73L53.5802 311.651L49.5009 315.73L53.5802 319.81L57.6596 315.73Z" fill="#FBFBFB"/>
<path d="M84.3471 334.432C83.2671 334.432 82.3071 334.3 81.4671 334.036C80.6271 333.796 79.9671 333.28 79.4871 332.488C79.0071 331.696 78.7671 330.508 78.7671 328.924V317.188C78.7671 315.868 79.0071 314.872 79.4871 314.2C79.9671 313.504 80.6271 313.036 81.4671 312.796C82.3311 312.556 83.3031 312.436 84.3831 312.436C85.4871 312.436 86.4351 312.568 87.2271 312.832C88.0431 313.072 88.6791 313.528 89.1351 314.2C89.6151 314.872 89.8551 315.868 89.8551 317.188V321.076H87.0831V317.116C87.0831 316.252 86.9631 315.616 86.7231 315.208C86.4831 314.776 86.1591 314.5 85.7511 314.38C85.3431 314.236 84.8751 314.164 84.3471 314.164C83.8191 314.164 83.3511 314.236 82.9431 314.38C82.5351 314.5 82.2111 314.776 81.9711 315.208C81.7551 315.616 81.6471 316.252 81.6471 317.116V329.788C81.6471 330.652 81.7551 331.3 81.9711 331.732C82.2111 332.14 82.5351 332.416 82.9431 332.56C83.3511 332.68 83.8191 332.74 84.3471 332.74C84.8991 332.74 85.3671 332.68 85.7511 332.56C86.1591 332.416 86.4831 332.14 86.7231 331.732C86.9631 331.3 87.0831 330.652 87.0831 329.788V326.332H89.8551V328.924C89.8551 330.532 89.6151 331.732 89.1351 332.524C88.6791 333.292 88.0431 333.796 87.2271 334.036C86.4111 334.3 85.4511 334.432 84.3471 334.432ZM95.594 334V318.196H91.922V316.18H102.11V318.196H98.402V334H95.594ZM104.362 338.176V316.18H106.954L107.026 317.692C107.242 317.236 107.578 316.828 108.034 316.468C108.514 316.108 109.294 315.928 110.374 315.928C111.43 315.928 112.258 316.108 112.858 316.468C113.458 316.804 113.89 317.308 114.154 317.98C114.418 318.628 114.55 319.42 114.55 320.356V329.104C114.55 330.184 114.43 331.108 114.19 331.876C113.95 332.644 113.53 333.232 112.93 333.64C112.33 334.048 111.478 334.252 110.374 334.252C109.486 334.252 108.778 334.108 108.25 333.82C107.722 333.508 107.326 333.148 107.062 332.74V338.176H104.362ZM109.438 332.632C110.038 332.632 110.494 332.548 110.806 332.38C111.118 332.212 111.346 331.984 111.49 331.696C111.658 331.408 111.754 331.084 111.778 330.724C111.802 330.364 111.814 329.98 111.814 329.572V320.716C111.814 320.308 111.802 319.924 111.778 319.564C111.754 319.204 111.658 318.88 111.49 318.592C111.346 318.28 111.118 318.04 110.806 317.872C110.494 317.704 110.038 317.62 109.438 317.62C108.862 317.62 108.406 317.728 108.07 317.944C107.758 318.16 107.53 318.436 107.386 318.772C107.242 319.084 107.158 319.444 107.134 319.852C107.11 320.236 107.098 320.596 107.098 320.932V329.752C107.098 330.304 107.146 330.796 107.242 331.228C107.338 331.66 107.554 332.008 107.89 332.272C108.226 332.512 108.742 332.632 109.438 332.632ZM117.651 334V316.18H120.351V334H117.651ZM118.983 314.02C118.599 314.02 118.263 313.888 117.975 313.624C117.687 313.336 117.543 313 117.543 312.616C117.543 312.208 117.687 311.872 117.975 311.608C118.263 311.344 118.599 311.212 118.983 311.212C119.391 311.212 119.739 311.344 120.027 311.608C120.339 311.872 120.495 312.208 120.495 312.616C120.495 313 120.339 313.336 120.027 313.624C119.739 313.888 119.391 314.02 118.983 314.02ZM122.685 334V332.488C123.141 332.488 123.537 332.26 123.873 331.804C124.233 331.324 124.449 330.652 124.521 329.788L125.637 316.216H135.213V334H132.405V318.196H128.409L127.257 330.544C127.233 330.856 127.185 331.216 127.113 331.624C127.065 332.008 126.945 332.38 126.753 332.74C126.561 333.1 126.273 333.4 125.889 333.64C125.505 333.88 124.977 334 124.305 334H122.685ZM138.069 334V316.18H140.805V323.56C141.477 322.168 142.269 320.944 143.181 319.888C144.093 318.832 145.041 318.016 146.025 317.44C147.033 316.864 147.957 316.588 148.797 316.612V318.484C148.173 318.628 147.609 318.88 147.105 319.24C146.601 319.6 146.145 320.008 145.737 320.464C145.449 320.776 145.173 321.112 144.909 321.472C144.669 321.808 144.441 322.168 144.225 322.552L148.689 334H145.557L141.885 325.54C141.669 325.876 141.453 326.248 141.237 326.656C141.045 327.064 140.901 327.364 140.805 327.556V334H138.069ZM151.182 334V316.216H153.63V329.032L159.066 316.216H161.514V334H159.102V320.572C158.166 322.828 157.23 325.072 156.294 327.304C155.382 329.512 154.434 331.744 153.45 334H151.182Z" fill="#FBFBFB"/>
</g>
<defs>
<clipPath id="clip0_862_7132">
<rect width="512" height="360" rx="12" fill="white"/>
</clipPath>
</defs>
</svg>
